<?xml version="1.0" encoding="utf-8" standalone="no"?>
<!DOCTYPE svg PUBLIC "-//W3C//DTD SVG 1.1//EN"
  "http://www.w3.org/Graphics/SVG/1.1/DTD/svg11.dtd">
<svg xmlns:xlink="http://www.w3.org/1999/xlink" width="288pt" height="216pt" viewBox="0 0 288 216" xmlns="http://www.w3.org/2000/svg" version="1.1">
 <metadata>
  <rdf:RDF xmlns:dc="http://purl.org/dc/elements/1.1/" xmlns:cc="http://creativecommons.org/ns#" xmlns:rdf="http://www.w3.org/1999/02/22-rdf-syntax-ns#">
   <cc:Work>
    <dc:type rdf:resource="http://purl.org/dc/dcmitype/StillImage"/>
    <dc:date>2024-01-09T12:27:18.172022</dc:date>
    <dc:format>image/svg+xml</dc:format>
    <dc:creator>
     <cc:Agent>
      <dc:title>Matplotlib v3.5.3, https://matplotlib.org/</dc:title>
     </cc:Agent>
    </dc:creator>
   </cc:Work>
  </rdf:RDF>
 </metadata>
 <defs>
  <style type="text/css">*{stroke-linejoin: round; stroke-linecap: butt}</style>
 </defs>
 <g id="figure_1">
  <g id="patch_1">
   <path d="M 0 216 
L 288 216 
L 288 0 
L 0 0 
L 0 216 
z
" style="fill: none"/>
  </g>
  <g id="axes_1">
   <g id="patch_2">
    <path d="M 44.203125 174.84375 
L 277.2 174.84375 
L 277.2 10.8 
L 44.203125 10.8 
L 44.203125 174.84375 
z
" style="fill: none"/>
   </g>
   <g id="matplotlib.axis_1">
    <g id="xtick_1">
     <g id="line2d_1">
      <defs>
       <path id="m87cace5338" d="M 0 0 
L 0 3.5 
" style="stroke: #000000; stroke-width: 0.8"/>
      </defs>
      <g>
       <use xlink:href="#m87cace5338" x="51.719153" y="174.84375" style="stroke: #000000; stroke-width: 0.8"/>
      </g>
     </g>
     <g id="text_1">
      <!-- 0.0 -->
      <g transform="translate(43.767591 189.442188)scale(0.1 -0.1)">
       <defs>
        <path id="DejaVuSans-30" d="M 2034 4250 
Q 1547 4250 1301 3770 
Q 1056 3291 1056 2328 
Q 1056 1369 1301 889 
Q 1547 409 2034 409 
Q 2525 409 2770 889 
Q 3016 1369 3016 2328 
Q 3016 3291 2770 3770 
Q 2525 4250 2034 4250 
z
M 2034 4750 
Q 2819 4750 3233 4129 
Q 3647 3509 3647 2328 
Q 3647 1150 3233 529 
Q 2819 -91 2034 -91 
Q 1250 -91 836 529 
Q 422 1150 422 2328 
Q 422 3509 836 4129 
Q 1250 4750 2034 4750 
z
" transform="scale(0.015625)"/>
        <path id="DejaVuSans-2e" d="M 684 794 
L 1344 794 
L 1344 0 
L 684 0 
L 684 794 
z
" transform="scale(0.015625)"/>
       </defs>
       <use xlink:href="#DejaVuSans-30"/>
       <use xlink:href="#DejaVuSans-2e" x="63.623047"/>
       <use xlink:href="#DejaVuSans-30" x="95.410156"/>
      </g>
     </g>
    </g>
    <g id="xtick_2">
     <g id="line2d_2">
      <g>
       <use xlink:href="#m87cace5338" x="111.847379" y="174.84375" style="stroke: #000000; stroke-width: 0.8"/>
      </g>
     </g>
     <g id="text_2">
      <!-- 0.2 -->
      <g transform="translate(103.895817 189.442188)scale(0.1 -0.1)">
       <defs>
        <path id="DejaVuSans-32" d="M 1228 531 
L 3431 531 
L 3431 0 
L 469 0 
L 469 531 
Q 828 903 1448 1529 
Q 2069 2156 2228 2338 
Q 2531 2678 2651 2914 
Q 2772 3150 2772 3378 
Q 2772 3750 2511 3984 
Q 2250 4219 1831 4219 
Q 1534 4219 1204 4116 
Q 875 4013 500 3803 
L 500 4441 
Q 881 4594 1212 4672 
Q 1544 4750 1819 4750 
Q 2544 4750 2975 4387 
Q 3406 4025 3406 3419 
Q 3406 3131 3298 2873 
Q 3191 2616 2906 2266 
Q 2828 2175 2409 1742 
Q 1991 1309 1228 531 
z
" transform="scale(0.015625)"/>
       </defs>
       <use xlink:href="#DejaVuSans-30"/>
       <use xlink:href="#DejaVuSans-2e" x="63.623047"/>
       <use xlink:href="#DejaVuSans-32" x="95.410156"/>
      </g>
     </g>
    </g>
    <g id="xtick_3">
     <g id="line2d_3">
      <g>
       <use xlink:href="#m87cace5338" x="171.975605" y="174.84375" style="stroke: #000000; stroke-width: 0.8"/>
      </g>
     </g>
     <g id="text_3">
      <!-- 0.4 -->
      <g transform="translate(164.024042 189.442188)scale(0.1 -0.1)">
       <defs>
        <path id="DejaVuSans-34" d="M 2419 4116 
L 825 1625 
L 2419 1625 
L 2419 4116 
z
M 2253 4666 
L 3047 4666 
L 3047 1625 
L 3713 1625 
L 3713 1100 
L 3047 1100 
L 3047 0 
L 2419 0 
L 2419 1100 
L 313 1100 
L 313 1709 
L 2253 4666 
z
" transform="scale(0.015625)"/>
       </defs>
       <use xlink:href="#DejaVuSans-30"/>
       <use xlink:href="#DejaVuSans-2e" x="63.623047"/>
       <use xlink:href="#DejaVuSans-34" x="95.410156"/>
      </g>
     </g>
    </g>
    <g id="xtick_4">
     <g id="line2d_4">
      <g>
       <use xlink:href="#m87cace5338" x="232.103831" y="174.84375" style="stroke: #000000; stroke-width: 0.8"/>
      </g>
     </g>
     <g id="text_4">
      <!-- 0.6 -->
      <g transform="translate(224.152268 189.442188)scale(0.1 -0.1)">
       <defs>
        <path id="DejaVuSans-36" d="M 2113 2584 
Q 1688 2584 1439 2293 
Q 1191 2003 1191 1497 
Q 1191 994 1439 701 
Q 1688 409 2113 409 
Q 2538 409 2786 701 
Q 3034 994 3034 1497 
Q 3034 2003 2786 2293 
Q 2538 2584 2113 2584 
z
M 3366 4563 
L 3366 3988 
Q 3128 4100 2886 4159 
Q 2644 4219 2406 4219 
Q 1781 4219 1451 3797 
Q 1122 3375 1075 2522 
Q 1259 2794 1537 2939 
Q 1816 3084 2150 3084 
Q 2853 3084 3261 2657 
Q 3669 2231 3669 1497 
Q 3669 778 3244 343 
Q 2819 -91 2113 -91 
Q 1303 -91 875 529 
Q 447 1150 447 2328 
Q 447 3434 972 4092 
Q 1497 4750 2381 4750 
Q 2619 4750 2861 4703 
Q 3103 4656 3366 4563 
z
" transform="scale(0.015625)"/>
       </defs>
       <use xlink:href="#DejaVuSans-30"/>
       <use xlink:href="#DejaVuSans-2e" x="63.623047"/>
       <use xlink:href="#DejaVuSans-36" x="95.410156"/>
      </g>
     </g>
    </g>
    <g id="text_5">
     <!-- r -->
     <g transform="translate(158.646094 203.120313)scale(0.1 -0.1)">
      <defs>
       <path id="DejaVuSans-72" d="M 2631 2963 
Q 2534 3019 2420 3045 
Q 2306 3072 2169 3072 
Q 1681 3072 1420 2755 
Q 1159 2438 1159 1844 
L 1159 0 
L 581 0 
L 581 3500 
L 1159 3500 
L 1159 2956 
Q 1341 3275 1631 3429 
Q 1922 3584 2338 3584 
Q 2397 3584 2469 3576 
Q 2541 3569 2628 3553 
L 2631 2963 
z
" transform="scale(0.015625)"/>
      </defs>
      <use xlink:href="#DejaVuSans-72"/>
     </g>
    </g>
   </g>
   <g id="matplotlib.axis_2">
    <g id="ytick_1">
     <g id="line2d_5">
      <defs>
       <path id="mcb78418633" d="M 0 0 
L -3.5 0 
" style="stroke: #000000; stroke-width: 0.8"/>
      </defs>
      <g>
       <use xlink:href="#mcb78418633" x="44.203125" y="169.141675" style="stroke: #000000; stroke-width: 0.8"/>
      </g>
     </g>
     <g id="text_6">
      <!-- 0 -->
      <g transform="translate(30.840625 172.940894)scale(0.1 -0.1)">
       <use xlink:href="#DejaVuSans-30"/>
      </g>
     </g>
    </g>
    <g id="ytick_2">
     <g id="line2d_6">
      <g>
       <use xlink:href="#mcb78418633" x="44.203125" y="136.153826" style="stroke: #000000; stroke-width: 0.8"/>
      </g>
     </g>
     <g id="text_7">
      <!-- 5 -->
      <g transform="translate(30.840625 139.953045)scale(0.1 -0.1)">
       <defs>
        <path id="DejaVuSans-35" d="M 691 4666 
L 3169 4666 
L 3169 4134 
L 1269 4134 
L 1269 2991 
Q 1406 3038 1543 3061 
Q 1681 3084 1819 3084 
Q 2600 3084 3056 2656 
Q 3513 2228 3513 1497 
Q 3513 744 3044 326 
Q 2575 -91 1722 -91 
Q 1428 -91 1123 -41 
Q 819 9 494 109 
L 494 744 
Q 775 591 1075 516 
Q 1375 441 1709 441 
Q 2250 441 2565 725 
Q 2881 1009 2881 1497 
Q 2881 1984 2565 2268 
Q 2250 2553 1709 2553 
Q 1456 2553 1204 2497 
Q 953 2441 691 2322 
L 691 4666 
z
" transform="scale(0.015625)"/>
       </defs>
       <use xlink:href="#DejaVuSans-35"/>
      </g>
     </g>
    </g>
    <g id="ytick_3">
     <g id="line2d_7">
      <g>
       <use xlink:href="#mcb78418633" x="44.203125" y="103.165977" style="stroke: #000000; stroke-width: 0.8"/>
      </g>
     </g>
     <g id="text_8">
      <!-- 10 -->
      <g transform="translate(24.478125 106.965196)scale(0.1 -0.1)">
       <defs>
        <path id="DejaVuSans-31" d="M 794 531 
L 1825 531 
L 1825 4091 
L 703 3866 
L 703 4441 
L 1819 4666 
L 2450 4666 
L 2450 531 
L 3481 531 
L 3481 0 
L 794 0 
L 794 531 
z
" transform="scale(0.015625)"/>
       </defs>
       <use xlink:href="#DejaVuSans-31"/>
       <use xlink:href="#DejaVuSans-30" x="63.623047"/>
      </g>
     </g>
    </g>
    <g id="ytick_4">
     <g id="line2d_8">
      <g>
       <use xlink:href="#mcb78418633" x="44.203125" y="70.178128" style="stroke: #000000; stroke-width: 0.8"/>
      </g>
     </g>
     <g id="text_9">
      <!-- 15 -->
      <g transform="translate(24.478125 73.977347)scale(0.1 -0.1)">
       <use xlink:href="#DejaVuSans-31"/>
       <use xlink:href="#DejaVuSans-35" x="63.623047"/>
      </g>
     </g>
    </g>
    <g id="ytick_5">
     <g id="line2d_9">
      <g>
       <use xlink:href="#mcb78418633" x="44.203125" y="37.190279" style="stroke: #000000; stroke-width: 0.8"/>
      </g>
     </g>
     <g id="text_10">
      <!-- 20 -->
      <g transform="translate(24.478125 40.989498)scale(0.1 -0.1)">
       <use xlink:href="#DejaVuSans-32"/>
       <use xlink:href="#DejaVuSans-30" x="63.623047"/>
      </g>
     </g>
    </g>
    <g id="text_11">
     <!-- $R_0$ -->
     <g transform="translate(18.398438 98.671875)rotate(-90)scale(0.1 -0.1)">
      <defs>
       <path id="DejaVuSans-Oblique-52" d="M 1613 4147 
L 1294 2491 
L 2106 2491 
Q 2584 2491 2879 2755 
Q 3175 3019 3175 3444 
Q 3175 3784 2976 3965 
Q 2778 4147 2406 4147 
L 1613 4147 
z
M 2772 2241 
Q 2972 2194 3105 2009 
Q 3238 1825 3413 1275 
L 3809 0 
L 3144 0 
L 2778 1197 
Q 2638 1659 2453 1815 
Q 2269 1972 1888 1972 
L 1191 1972 
L 806 0 
L 172 0 
L 1081 4666 
L 2503 4666 
Q 3150 4666 3495 4373 
Q 3841 4081 3841 3531 
Q 3841 3044 3547 2687 
Q 3253 2331 2772 2241 
z
" transform="scale(0.015625)"/>
      </defs>
      <use xlink:href="#DejaVuSans-Oblique-52" transform="translate(0 0.09375)"/>
      <use xlink:href="#DejaVuSans-30" transform="translate(69.482422 -16.3125)scale(0.7)"/>
     </g>
    </g>
   </g>
   <g id="line2d_10">
    <path d="M 51.719153 169.141675 
L 53.237543 169.141675 
L 54.755932 168.66999 
L 56.274322 158.836588 
L 57.792711 147.023248 
L 59.311101 136.419538 
L 60.82949 127.098727 
L 62.34788 118.897064 
L 63.86627 111.64796 
L 65.384659 105.210771 
L 66.903049 99.471176 
L 68.421438 94.336683 
L 69.939828 89.73196 
L 71.458217 85.594995 
L 72.976607 81.874126 
L 74.494996 78.525804 
L 76.013386 75.512912 
L 77.531775 72.803491 
L 79.050165 70.369773 
L 80.568554 68.187434 
L 82.086944 66.235011 
L 83.605334 64.493447 
L 85.123723 62.945718 
L 86.642113 61.576543 
L 88.160502 60.372145 
L 89.678892 59.320049 
L 91.197281 58.408918 
L 92.715671 57.62842 
L 94.23406 56.969109 
L 95.75245 56.422327 
L 97.270839 55.980119 
L 98.789229 55.635162 
L 100.307619 55.380701 
L 101.826008 55.210496 
L 103.344398 55.118772 
L 104.862787 55.100177 
L 106.381177 55.149747 
L 107.899566 55.262872 
L 109.417956 55.435264 
L 110.936345 55.662933 
L 112.454735 55.942166 
L 113.973124 56.2695 
L 115.491514 56.641707 
L 117.009903 57.055775 
L 118.528293 57.508894 
L 120.046683 57.998438 
L 121.565072 58.521955 
L 123.083462 59.077155 
L 124.601851 59.661897 
L 126.120241 60.27418 
L 127.63863 60.912133 
L 129.15702 61.574009 
L 130.675409 62.258172 
L 132.193799 62.963094 
L 133.712188 63.687347 
L 135.230578 64.429595 
L 136.748967 65.18859 
L 138.267357 65.963165 
L 139.785747 66.752231 
L 141.304136 67.55477 
L 142.822526 68.369828 
L 144.340915 69.196519 
L 145.859305 70.034012 
L 147.377694 70.881532 
L 148.896084 71.738355 
L 150.414473 72.603808 
L 151.932863 73.477258 
L 153.451252 74.358118 
L 154.969642 75.245839 
L 156.488032 76.139908 
L 158.006421 77.039847 
L 159.524811 77.94521 
L 161.0432 78.85558 
L 162.56159 79.770567 
L 164.079979 80.689809 
L 165.598369 81.612965 
L 167.116758 82.539718 
L 168.635148 83.46977 
L 170.153537 84.402844 
L 171.671927 85.338678 
L 173.190316 86.277029 
L 174.708706 87.217667 
L 176.227096 88.160376 
L 177.745485 89.104953 
L 179.263875 90.051207 
L 180.782264 90.998958 
L 182.300654 91.948034 
L 183.819043 92.898276 
L 185.337433 93.849528 
L 186.855822 94.801646 
L 188.374212 95.75449 
L 189.892601 96.707929 
L 191.410991 97.661835 
L 192.92938 98.616087 
L 194.44777 99.570569 
L 195.96616 100.525167 
L 197.484549 101.479772 
L 199.002939 102.43428 
L 200.521328 103.388589 
L 202.039718 104.342597 
" clip-path="url(#p0b627331d2)" style="fill: none; stroke: #1f77b4; stroke-width: 2; stroke-linecap: square"/>
   </g>
   <g id="line2d_11">
    <path d="M 51.719153 169.141675 
L 53.237543 169.141675 
L 54.755932 169.141675 
L 56.274322 169.141675 
L 57.792711 169.141675 
L 59.311101 169.141675 
L 60.82949 169.141675 
L 62.34788 169.141675 
L 63.86627 169.141675 
L 65.384659 169.141675 
L 66.903049 169.141675 
L 68.421438 169.141675 
L 69.939828 169.141675 
L 71.458217 169.141675 
L 72.976607 169.141675 
L 74.494996 169.141602 
L 76.013386 169.135366 
L 77.531775 169.069582 
L 79.050165 168.829366 
L 80.568554 168.329436 
L 82.086944 167.561772 
L 83.605334 166.566838 
L 85.123723 165.397815 
L 86.642113 164.102736 
L 88.160502 162.719493 
L 89.678892 161.276293 
L 91.197281 159.793648 
L 92.715671 158.286372 
L 94.23406 156.765192 
L 95.75245 155.237933 
L 97.270839 153.710361 
L 98.789229 152.18677 
L 100.307619 150.670399 
L 101.826008 149.163717 
L 103.344398 147.66863 
L 104.862787 146.186626 
L 106.381177 144.718878 
L 107.899566 143.266322 
L 109.417956 141.829713 
L 110.936345 140.409664 
L 112.454735 139.006682 
L 113.973124 137.621187 
L 115.491514 136.253535 
L 117.009903 134.904031 
L 118.528293 133.572938 
L 120.046683 132.260492 
L 121.565072 130.966906 
L 123.083462 129.692376 
L 124.601851 128.437089 
L 126.120241 127.201229 
L 127.63863 125.984976 
L 129.15702 124.788515 
L 130.675409 123.612039 
L 132.193799 122.455751 
L 133.712188 121.319866 
L 135.230578 120.20462 
L 136.748967 119.110267 
L 138.267357 118.037084 
L 139.785747 116.985376 
L 141.304136 115.955479 
L 142.822526 114.947762 
L 144.340915 113.962631 
L 145.859305 113.000533 
L 147.377694 112.061963 
L 148.896084 111.147462 
L 150.414473 110.257627 
L 151.932863 109.393114 
L 153.451252 108.554644 
L 154.969642 107.743007 
L 156.488032 106.959069 
L 158.006421 106.203779 
L 159.524811 105.478175 
L 161.0432 104.783391 
L 162.56159 104.120666 
L 164.079979 103.49135 
L 165.598369 102.896913 
L 167.116758 102.338953 
L 168.635148 101.819203 
L 170.153537 101.339541 
L 171.671927 100.901992 
L 173.190316 100.508733 
L 174.708706 100.162097 
L 176.227096 99.864567 
L 177.745485 99.618768 
L 179.263875 99.427449 
L 180.782264 99.293451 
L 182.300654 99.219667 
L 183.819043 99.208967 
L 185.337433 99.26411 
L 186.855822 99.387611 
L 188.374212 99.581569 
L 189.892601 99.847451 
L 191.410991 100.185829 
L 192.92938 100.596089 
L 194.44777 101.076144 
L 195.96616 101.622244 
L 197.484549 102.228969 
L 199.002939 102.889557 
L 200.521328 103.596549 
L 202.039718 104.342597 
" clip-path="url(#p0b627331d2)" style="fill: none; stroke: #ff7f0e; stroke-width: 2; stroke-linecap: square"/>
   </g>
   <g id="line2d_12">
    <path d="M 51.719153 169.141675 
L 53.237543 169.141675 
L 54.755932 169.141675 
L 56.274322 169.141675 
L 57.792711 169.141675 
L 59.311101 169.141675 
L 60.82949 169.141675 
L 62.34788 169.141675 
L 63.86627 169.141675 
L 65.384659 169.141675 
L 66.903049 169.141675 
L 68.421438 169.141675 
L 69.939828 169.141675 
L 71.458217 169.141675 
L 72.976607 169.141675 
L 74.494996 169.141675 
L 76.013386 169.141675 
L 77.531775 169.141675 
L 79.050165 169.141675 
L 80.568554 169.141675 
L 82.086944 169.141675 
L 83.605334 169.141675 
L 85.123723 169.141675 
L 86.642113 169.141675 
L 88.160502 169.141675 
L 89.678892 169.141675 
L 91.197281 169.141675 
L 92.715671 169.141675 
L 94.23406 169.141675 
L 95.75245 169.141675 
L 97.270839 169.141675 
L 98.789229 169.141675 
L 100.307619 169.141675 
L 101.826008 169.141675 
L 103.344398 169.141675 
L 104.862787 169.141675 
L 106.381177 169.141675 
L 107.899566 169.141675 
L 109.417956 169.141675 
L 110.936345 169.141675 
L 112.454735 169.141675 
L 113.973124 169.141675 
L 115.491514 169.141675 
L 117.009903 169.141675 
L 118.528293 169.141675 
L 120.046683 169.141675 
L 121.565072 169.141675 
L 123.083462 169.141675 
L 124.601851 169.141675 
L 126.120241 169.141675 
L 127.63863 169.141675 
L 129.15702 169.141675 
L 130.675409 169.141675 
L 132.193799 169.141675 
L 133.712188 169.141675 
L 135.230578 169.141675 
L 136.748967 169.141675 
L 138.267357 169.141675 
L 139.785747 169.141675 
L 141.304136 169.141675 
L 142.822526 169.141675 
L 144.340915 169.141675 
L 145.859305 169.141675 
L 147.377694 169.141675 
L 148.896084 169.141675 
L 150.414473 169.141675 
L 151.932863 169.141675 
L 153.451252 169.141675 
L 154.969642 169.141675 
L 156.488032 169.141675 
L 158.006421 169.141675 
L 159.524811 169.141675 
L 161.0432 169.141658 
L 162.56159 169.14122 
L 164.079979 169.136782 
L 165.598369 169.113734 
L 167.116758 169.038809 
L 168.635148 168.863464 
L 170.153537 168.5375 
L 171.671927 168.021773 
L 173.190316 167.292887 
L 174.708706 166.340881 
L 176.227096 165.163984 
L 177.745485 163.763489 
L 179.263875 162.139968 
L 180.782264 160.290884 
L 182.300654 158.209219 
L 183.819043 155.882717 
L 185.337433 153.293428 
L 186.855822 150.417345 
L 188.374212 147.224064 
L 189.892601 143.676462 
L 191.410991 139.73061 
L 192.92938 135.336615 
L 194.44777 130.442586 
L 195.96616 125.008662 
L 197.484549 119.05361 
L 199.002939 112.808753 
L 200.521328 107.197205 
L 202.039718 104.342597 
" clip-path="url(#p0b627331d2)" style="fill: none; stroke: #2ca02c; stroke-width: 2; stroke-linecap: square"/>
   </g>
   <g id="PathCollection_1">
    <defs>
     <path id="m296ddc1d96" d="M 0 3 
C 0.795609 3 1.55874 2.683901 2.12132 2.12132 
C 2.683901 1.55874 3 0.795609 3 0 
C 3 -0.795609 2.683901 -1.55874 2.12132 -2.12132 
C 1.55874 -2.683901 0.795609 -3 0 -3 
C -0.795609 -3 -1.55874 -2.683901 -2.12132 -2.12132 
C -2.683901 -1.55874 -3 -0.795609 -3 0 
C -3 0.795609 -2.683901 1.55874 -2.12132 2.12132 
C -1.55874 2.683901 -0.795609 3 0 3 
z
" style="stroke: #000000"/>
    </defs>
    <g clip-path="url(#p0b627331d2)">
     <use xlink:href="#m296ddc1d96" x="104.862787" y="55.100177" style="stroke: #000000"/>
    </g>
   </g>
   <g id="text_12">
    <!-- (0.18, 17.285) -->
    <g transform="translate(75.834556 48.102681)scale(0.1 -0.1)">
     <defs>
      <path id="DejaVuSans-28" d="M 1984 4856 
Q 1566 4138 1362 3434 
Q 1159 2731 1159 2009 
Q 1159 1288 1364 580 
Q 1569 -128 1984 -844 
L 1484 -844 
Q 1016 -109 783 600 
Q 550 1309 550 2009 
Q 550 2706 781 3412 
Q 1013 4119 1484 4856 
L 1984 4856 
z
" transform="scale(0.015625)"/>
      <path id="DejaVuSans-38" d="M 2034 2216 
Q 1584 2216 1326 1975 
Q 1069 1734 1069 1313 
Q 1069 891 1326 650 
Q 1584 409 2034 409 
Q 2484 409 2743 651 
Q 3003 894 3003 1313 
Q 3003 1734 2745 1975 
Q 2488 2216 2034 2216 
z
M 1403 2484 
Q 997 2584 770 2862 
Q 544 3141 544 3541 
Q 544 4100 942 4425 
Q 1341 4750 2034 4750 
Q 2731 4750 3128 4425 
Q 3525 4100 3525 3541 
Q 3525 3141 3298 2862 
Q 3072 2584 2669 2484 
Q 3125 2378 3379 2068 
Q 3634 1759 3634 1313 
Q 3634 634 3220 271 
Q 2806 -91 2034 -91 
Q 1263 -91 848 271 
Q 434 634 434 1313 
Q 434 1759 690 2068 
Q 947 2378 1403 2484 
z
M 1172 3481 
Q 1172 3119 1398 2916 
Q 1625 2713 2034 2713 
Q 2441 2713 2670 2916 
Q 2900 3119 2900 3481 
Q 2900 3844 2670 4047 
Q 2441 4250 2034 4250 
Q 1625 4250 1398 4047 
Q 1172 3844 1172 3481 
z
" transform="scale(0.015625)"/>
      <path id="DejaVuSans-2c" d="M 750 794 
L 1409 794 
L 1409 256 
L 897 -744 
L 494 -744 
L 750 256 
L 750 794 
z
" transform="scale(0.015625)"/>
      <path id="DejaVuSans-20" transform="scale(0.015625)"/>
      <path id="DejaVuSans-37" d="M 525 4666 
L 3525 4666 
L 3525 4397 
L 1831 0 
L 1172 0 
L 2766 4134 
L 525 4134 
L 525 4666 
z
" transform="scale(0.015625)"/>
      <path id="DejaVuSans-29" d="M 513 4856 
L 1013 4856 
Q 1481 4119 1714 3412 
Q 1947 2706 1947 2009 
Q 1947 1309 1714 600 
Q 1481 -109 1013 -844 
L 513 -844 
Q 928 -128 1133 580 
Q 1338 1288 1338 2009 
Q 1338 2731 1133 3434 
Q 928 4138 513 4856 
z
" transform="scale(0.015625)"/>
     </defs>
     <use xlink:href="#DejaVuSans-28"/>
     <use xlink:href="#DejaVuSans-30" x="39.013672"/>
     <use xlink:href="#DejaVuSans-2e" x="102.636719"/>
     <use xlink:href="#DejaVuSans-31" x="134.423828"/>
     <use xlink:href="#DejaVuSans-38" x="198.046875"/>
     <use xlink:href="#DejaVuSans-2c" x="261.669922"/>
     <use xlink:href="#DejaVuSans-20" x="293.457031"/>
     <use xlink:href="#DejaVuSans-31" x="325.244141"/>
     <use xlink:href="#DejaVuSans-37" x="388.867188"/>
     <use xlink:href="#DejaVuSans-2e" x="452.490234"/>
     <use xlink:href="#DejaVuSans-32" x="484.277344"/>
     <use xlink:href="#DejaVuSans-38" x="547.900391"/>
     <use xlink:href="#DejaVuSans-35" x="611.523438"/>
     <use xlink:href="#DejaVuSans-29" x="675.146484"/>
    </g>
   </g>
   <g id="PathCollection_2">
    <g clip-path="url(#p0b627331d2)">
     <use xlink:href="#m296ddc1d96" x="183.819043" y="99.208967" style="stroke: #000000"/>
    </g>
   </g>
   <g id="text_13">
    <!-- (0.44, 10.6) -->
    <g transform="translate(117.00125 97.207435)scale(0.1 -0.1)">
     <use xlink:href="#DejaVuSans-28"/>
     <use xlink:href="#DejaVuSans-30" x="39.013672"/>
     <use xlink:href="#DejaVuSans-2e" x="102.636719"/>
     <use xlink:href="#DejaVuSans-34" x="134.423828"/>
     <use xlink:href="#DejaVuSans-34" x="198.046875"/>
     <use xlink:href="#DejaVuSans-2c" x="261.669922"/>
     <use xlink:href="#DejaVuSans-20" x="293.457031"/>
     <use xlink:href="#DejaVuSans-31" x="325.244141"/>
     <use xlink:href="#DejaVuSans-30" x="388.867188"/>
     <use xlink:href="#DejaVuSans-2e" x="452.490234"/>
     <use xlink:href="#DejaVuSans-36" x="484.277344"/>
     <use xlink:href="#DejaVuSans-29" x="547.900391"/>
    </g>
   </g>
   <g id="PathCollection_3">
    <g clip-path="url(#p0b627331d2)">
     <use xlink:href="#m296ddc1d96" x="202.039718" y="104.342597" style="stroke: #000000"/>
    </g>
   </g>
   <g id="text_14">
    <!-- (0.5, 9.822) -->
    <g transform="translate(207.039718 116.340345)scale(0.1 -0.1)">
     <defs>
      <path id="DejaVuSans-39" d="M 703 97 
L 703 672 
Q 941 559 1184 500 
Q 1428 441 1663 441 
Q 2288 441 2617 861 
Q 2947 1281 2994 2138 
Q 2813 1869 2534 1725 
Q 2256 1581 1919 1581 
Q 1219 1581 811 2004 
Q 403 2428 403 3163 
Q 403 3881 828 4315 
Q 1253 4750 1959 4750 
Q 2769 4750 3195 4129 
Q 3622 3509 3622 2328 
Q 3622 1225 3098 567 
Q 2575 -91 1691 -91 
Q 1453 -91 1209 -44 
Q 966 3 703 97 
z
M 1959 2075 
Q 2384 2075 2632 2365 
Q 2881 2656 2881 3163 
Q 2881 3666 2632 3958 
Q 2384 4250 1959 4250 
Q 1534 4250 1286 3958 
Q 1038 3666 1038 3163 
Q 1038 2656 1286 2365 
Q 1534 2075 1959 2075 
z
" transform="scale(0.015625)"/>
     </defs>
     <use xlink:href="#DejaVuSans-28"/>
     <use xlink:href="#DejaVuSans-30" x="39.013672"/>
     <use xlink:href="#DejaVuSans-2e" x="102.636719"/>
     <use xlink:href="#DejaVuSans-35" x="134.423828"/>
     <use xlink:href="#DejaVuSans-2c" x="198.046875"/>
     <use xlink:href="#DejaVuSans-20" x="229.833984"/>
     <use xlink:href="#DejaVuSans-39" x="261.621094"/>
     <use xlink:href="#DejaVuSans-2e" x="325.244141"/>
     <use xlink:href="#DejaVuSans-38" x="357.03125"/>
     <use xlink:href="#DejaVuSans-32" x="420.654297"/>
     <use xlink:href="#DejaVuSans-32" x="484.277344"/>
     <use xlink:href="#DejaVuSans-29" x="547.900391"/>
    </g>
   </g>
   <g id="patch_3">
    <path d="M 44.203125 174.84375 
L 44.203125 10.8 
" style="fill: none; stroke: #000000; stroke-width: 0.8; stroke-linejoin: miter; stroke-linecap: square"/>
   </g>
   <g id="patch_4">
    <path d="M 277.2 174.84375 
L 277.2 10.8 
" style="fill: none; stroke: #000000; stroke-width: 0.8; stroke-linejoin: miter; stroke-linecap: square"/>
   </g>
   <g id="patch_5">
    <path d="M 44.203125 174.84375 
L 277.2 174.84375 
" style="fill: none; stroke: #000000; stroke-width: 0.8; stroke-linejoin: miter; stroke-linecap: square"/>
   </g>
   <g id="patch_6">
    <path d="M 44.203125 10.8 
L 277.2 10.8 
" style="fill: none; stroke: #000000; stroke-width: 0.8; stroke-linejoin: miter; stroke-linecap: square"/>
   </g>
   <g id="legend_1">
    <g id="patch_7">
     <path d="M 194.8 63.2 
L 270.2 63.2 
Q 272.2 63.2 272.2 61.2 
L 272.2 17.8 
Q 272.2 15.8 270.2 15.8 
L 194.8 15.8 
Q 192.8 15.8 192.8 17.8 
L 192.8 61.2 
Q 192.8 63.2 194.8 63.2 
z
" style="fill: #ffffff; opacity: 0.8; stroke: #cccccc; stroke-linejoin: miter"/>
    </g>
    <g id="line2d_13">
     <path d="M 196.8 24 
L 206.8 24 
L 216.8 24 
" style="fill: none; stroke: #1f77b4; stroke-width: 2; stroke-linecap: square"/>
    </g>
    <g id="text_15">
     <!-- $\beta$ = 0.02 -->
     <g transform="translate(224.8 27.5)scale(0.1 -0.1)">
      <defs>
       <path id="DejaVuSans-Oblique-3b2" d="M 872 216 
L 572 -1331 
L -6 -1331 
L 928 3478 
Q 1206 4903 2538 4903 
Q 3888 4903 3659 3700 
Q 3503 2844 2894 2531 
Q 3713 2250 3553 1416 
Q 3272 -69 1759 -66 
Q 1097 -63 872 216 
z
M 1019 966 
Q 1259 422 1875 425 
Q 2775 425 2966 1406 
Q 3138 2288 1675 2219 
L 1778 2750 
Q 2909 2731 3106 3750 
Q 3241 4438 2509 4434 
Q 1691 4434 1503 3459 
L 1019 966 
z
" transform="scale(0.015625)"/>
       <path id="DejaVuSans-3d" d="M 678 2906 
L 4684 2906 
L 4684 2381 
L 678 2381 
L 678 2906 
z
M 678 1631 
L 4684 1631 
L 4684 1100 
L 678 1100 
L 678 1631 
z
" transform="scale(0.015625)"/>
      </defs>
      <use xlink:href="#DejaVuSans-Oblique-3b2" transform="translate(0 0.390625)"/>
      <use xlink:href="#DejaVuSans-20" transform="translate(63.818359 0.390625)"/>
      <use xlink:href="#DejaVuSans-3d" transform="translate(95.605469 0.390625)"/>
      <use xlink:href="#DejaVuSans-20" transform="translate(179.394531 0.390625)"/>
      <use xlink:href="#DejaVuSans-30" transform="translate(211.181641 0.390625)"/>
      <use xlink:href="#DejaVuSans-2e" transform="translate(274.804688 0.390625)"/>
      <use xlink:href="#DejaVuSans-30" transform="translate(306.591797 0.390625)"/>
      <use xlink:href="#DejaVuSans-32" transform="translate(370.214844 0.390625)"/>
     </g>
    </g>
    <g id="line2d_14">
     <path d="M 196.8 38.8 
L 206.8 38.8 
L 216.8 38.8 
" style="fill: none; stroke: #ff7f0e; stroke-width: 2; stroke-linecap: square"/>
    </g>
    <g id="text_16">
     <!-- $\beta$ = 0.2 -->
     <g transform="translate(224.8 42.3)scale(0.1 -0.1)">
      <use xlink:href="#DejaVuSans-Oblique-3b2" transform="translate(0 0.390625)"/>
      <use xlink:href="#DejaVuSans-20" transform="translate(63.818359 0.390625)"/>
      <use xlink:href="#DejaVuSans-3d" transform="translate(95.605469 0.390625)"/>
      <use xlink:href="#DejaVuSans-20" transform="translate(179.394531 0.390625)"/>
      <use xlink:href="#DejaVuSans-30" transform="translate(211.181641 0.390625)"/>
      <use xlink:href="#DejaVuSans-2e" transform="translate(274.804688 0.390625)"/>
      <use xlink:href="#DejaVuSans-32" transform="translate(301.091797 0.390625)"/>
     </g>
    </g>
    <g id="line2d_15">
     <path d="M 196.8 53.6 
L 206.8 53.6 
L 216.8 53.6 
" style="fill: none; stroke: #2ca02c; stroke-width: 2; stroke-linecap: square"/>
    </g>
    <g id="text_17">
     <!-- $\beta$ = 2 -->
     <g transform="translate(224.8 57.1)scale(0.1 -0.1)">
      <use xlink:href="#DejaVuSans-Oblique-3b2" transform="translate(0 0.390625)"/>
      <use xlink:href="#DejaVuSans-20" transform="translate(63.818359 0.390625)"/>
      <use xlink:href="#DejaVuSans-3d" transform="translate(95.605469 0.390625)"/>
      <use xlink:href="#DejaVuSans-20" transform="translate(179.394531 0.390625)"/>
      <use xlink:href="#DejaVuSans-32" transform="translate(211.181641 0.390625)"/>
     </g>
    </g>
   </g>
  </g>
 </g>
 <defs>
  <clipPath id="p0b627331d2">
   <rect x="44.203125" y="10.8" width="232.996875" height="164.04375"/>
  </clipPath>
 </defs>
</svg>
