<?xml version="1.0" encoding="utf-8" standalone="no"?>
<!DOCTYPE svg PUBLIC "-//W3C//DTD SVG 1.1//EN"
  "http://www.w3.org/Graphics/SVG/1.1/DTD/svg11.dtd">
<svg xmlns:xlink="http://www.w3.org/1999/xlink" width="288pt" height="216pt" viewBox="0 0 288 216" xmlns="http://www.w3.org/2000/svg" version="1.1">
 <metadata>
  <rdf:RDF xmlns:dc="http://purl.org/dc/elements/1.1/" xmlns:cc="http://creativecommons.org/ns#" xmlns:rdf="http://www.w3.org/1999/02/22-rdf-syntax-ns#">
   <cc:Work>
    <dc:type rdf:resource="http://purl.org/dc/dcmitype/StillImage"/>
    <dc:date>2024-01-09T12:27:17.747322</dc:date>
    <dc:format>image/svg+xml</dc:format>
    <dc:creator>
     <cc:Agent>
      <dc:title>Matplotlib v3.5.3, https://matplotlib.org/</dc:title>
     </cc:Agent>
    </dc:creator>
   </cc:Work>
  </rdf:RDF>
 </metadata>
 <defs>
  <style type="text/css">*{stroke-linejoin: round; stroke-linecap: butt}</style>
 </defs>
 <g id="figure_1">
  <g id="patch_1">
   <path d="M 0 216 
L 288 216 
L 288 0 
L 0 0 
L 0 216 
z
" style="fill: none"/>
  </g>
  <g id="axes_1">
   <g id="patch_2">
    <path d="M 47.503125 174.84375 
L 277.2 174.84375 
L 277.2 14.599219 
L 47.503125 14.599219 
L 47.503125 174.84375 
z
" style="fill: none"/>
   </g>
   <g id="matplotlib.axis_1">
    <g id="xtick_1">
     <g id="line2d_1">
      <defs>
       <path id="m2f6c68716b" d="M 0 0 
L 0 3.5 
" style="stroke: #000000; stroke-width: 0.8"/>
      </defs>
      <g>
       <use xlink:href="#m2f6c68716b" x="57.525424" y="174.84375" style="stroke: #000000; stroke-width: 0.8"/>
      </g>
     </g>
     <g id="text_1">
      <!-- 0.0 -->
      <g transform="translate(49.573862 189.442188)scale(0.1 -0.1)">
       <defs>
        <path id="DejaVuSans-30" d="M 2034 4250 
Q 1547 4250 1301 3770 
Q 1056 3291 1056 2328 
Q 1056 1369 1301 889 
Q 1547 409 2034 409 
Q 2525 409 2770 889 
Q 3016 1369 3016 2328 
Q 3016 3291 2770 3770 
Q 2525 4250 2034 4250 
z
M 2034 4750 
Q 2819 4750 3233 4129 
Q 3647 3509 3647 2328 
Q 3647 1150 3233 529 
Q 2819 -91 2034 -91 
Q 1250 -91 836 529 
Q 422 1150 422 2328 
Q 422 3509 836 4129 
Q 1250 4750 2034 4750 
z
" transform="scale(0.015625)"/>
        <path id="DejaVuSans-2e" d="M 684 794 
L 1344 794 
L 1344 0 
L 684 0 
L 684 794 
z
" transform="scale(0.015625)"/>
       </defs>
       <use xlink:href="#DejaVuSans-30"/>
       <use xlink:href="#DejaVuSans-2e" x="63.623047"/>
       <use xlink:href="#DejaVuSans-30" x="95.410156"/>
      </g>
     </g>
    </g>
    <g id="xtick_2">
     <g id="line2d_2">
      <g>
       <use xlink:href="#m2f6c68716b" x="99.372186" y="174.84375" style="stroke: #000000; stroke-width: 0.8"/>
      </g>
     </g>
     <g id="text_2">
      <!-- 0.1 -->
      <g transform="translate(91.420624 189.442188)scale(0.1 -0.1)">
       <defs>
        <path id="DejaVuSans-31" d="M 794 531 
L 1825 531 
L 1825 4091 
L 703 3866 
L 703 4441 
L 1819 4666 
L 2450 4666 
L 2450 531 
L 3481 531 
L 3481 0 
L 794 0 
L 794 531 
z
" transform="scale(0.015625)"/>
       </defs>
       <use xlink:href="#DejaVuSans-30"/>
       <use xlink:href="#DejaVuSans-2e" x="63.623047"/>
       <use xlink:href="#DejaVuSans-31" x="95.410156"/>
      </g>
     </g>
    </g>
    <g id="xtick_3">
     <g id="line2d_3">
      <g>
       <use xlink:href="#m2f6c68716b" x="141.218948" y="174.84375" style="stroke: #000000; stroke-width: 0.8"/>
      </g>
     </g>
     <g id="text_3">
      <!-- 0.2 -->
      <g transform="translate(133.267385 189.442188)scale(0.1 -0.1)">
       <defs>
        <path id="DejaVuSans-32" d="M 1228 531 
L 3431 531 
L 3431 0 
L 469 0 
L 469 531 
Q 828 903 1448 1529 
Q 2069 2156 2228 2338 
Q 2531 2678 2651 2914 
Q 2772 3150 2772 3378 
Q 2772 3750 2511 3984 
Q 2250 4219 1831 4219 
Q 1534 4219 1204 4116 
Q 875 4013 500 3803 
L 500 4441 
Q 881 4594 1212 4672 
Q 1544 4750 1819 4750 
Q 2544 4750 2975 4387 
Q 3406 4025 3406 3419 
Q 3406 3131 3298 2873 
Q 3191 2616 2906 2266 
Q 2828 2175 2409 1742 
Q 1991 1309 1228 531 
z
" transform="scale(0.015625)"/>
       </defs>
       <use xlink:href="#DejaVuSans-30"/>
       <use xlink:href="#DejaVuSans-2e" x="63.623047"/>
       <use xlink:href="#DejaVuSans-32" x="95.410156"/>
      </g>
     </g>
    </g>
    <g id="xtick_4">
     <g id="line2d_4">
      <g>
       <use xlink:href="#m2f6c68716b" x="183.06571" y="174.84375" style="stroke: #000000; stroke-width: 0.8"/>
      </g>
     </g>
     <g id="text_4">
      <!-- 0.3 -->
      <g transform="translate(175.114147 189.442188)scale(0.1 -0.1)">
       <defs>
        <path id="DejaVuSans-33" d="M 2597 2516 
Q 3050 2419 3304 2112 
Q 3559 1806 3559 1356 
Q 3559 666 3084 287 
Q 2609 -91 1734 -91 
Q 1441 -91 1130 -33 
Q 819 25 488 141 
L 488 750 
Q 750 597 1062 519 
Q 1375 441 1716 441 
Q 2309 441 2620 675 
Q 2931 909 2931 1356 
Q 2931 1769 2642 2001 
Q 2353 2234 1838 2234 
L 1294 2234 
L 1294 2753 
L 1863 2753 
Q 2328 2753 2575 2939 
Q 2822 3125 2822 3475 
Q 2822 3834 2567 4026 
Q 2313 4219 1838 4219 
Q 1578 4219 1281 4162 
Q 984 4106 628 3988 
L 628 4550 
Q 988 4650 1302 4700 
Q 1616 4750 1894 4750 
Q 2613 4750 3031 4423 
Q 3450 4097 3450 3541 
Q 3450 3153 3228 2886 
Q 3006 2619 2597 2516 
z
" transform="scale(0.015625)"/>
       </defs>
       <use xlink:href="#DejaVuSans-30"/>
       <use xlink:href="#DejaVuSans-2e" x="63.623047"/>
       <use xlink:href="#DejaVuSans-33" x="95.410156"/>
      </g>
     </g>
    </g>
    <g id="xtick_5">
     <g id="line2d_5">
      <g>
       <use xlink:href="#m2f6c68716b" x="224.912471" y="174.84375" style="stroke: #000000; stroke-width: 0.8"/>
      </g>
     </g>
     <g id="text_5">
      <!-- 0.4 -->
      <g transform="translate(216.960909 189.442188)scale(0.1 -0.1)">
       <defs>
        <path id="DejaVuSans-34" d="M 2419 4116 
L 825 1625 
L 2419 1625 
L 2419 4116 
z
M 2253 4666 
L 3047 4666 
L 3047 1625 
L 3713 1625 
L 3713 1100 
L 3047 1100 
L 3047 0 
L 2419 0 
L 2419 1100 
L 313 1100 
L 313 1709 
L 2253 4666 
z
" transform="scale(0.015625)"/>
       </defs>
       <use xlink:href="#DejaVuSans-30"/>
       <use xlink:href="#DejaVuSans-2e" x="63.623047"/>
       <use xlink:href="#DejaVuSans-34" x="95.410156"/>
      </g>
     </g>
    </g>
    <g id="xtick_6">
     <g id="line2d_6">
      <g>
       <use xlink:href="#m2f6c68716b" x="266.759233" y="174.84375" style="stroke: #000000; stroke-width: 0.8"/>
      </g>
     </g>
     <g id="text_6">
      <!-- 0.5 -->
      <g transform="translate(258.80767 189.442188)scale(0.1 -0.1)">
       <defs>
        <path id="DejaVuSans-35" d="M 691 4666 
L 3169 4666 
L 3169 4134 
L 1269 4134 
L 1269 2991 
Q 1406 3038 1543 3061 
Q 1681 3084 1819 3084 
Q 2600 3084 3056 2656 
Q 3513 2228 3513 1497 
Q 3513 744 3044 326 
Q 2575 -91 1722 -91 
Q 1428 -91 1123 -41 
Q 819 9 494 109 
L 494 744 
Q 775 591 1075 516 
Q 1375 441 1709 441 
Q 2250 441 2565 725 
Q 2881 1009 2881 1497 
Q 2881 1984 2565 2268 
Q 2250 2553 1709 2553 
Q 1456 2553 1204 2497 
Q 953 2441 691 2322 
L 691 4666 
z
" transform="scale(0.015625)"/>
       </defs>
       <use xlink:href="#DejaVuSans-30"/>
       <use xlink:href="#DejaVuSans-2e" x="63.623047"/>
       <use xlink:href="#DejaVuSans-35" x="95.410156"/>
      </g>
     </g>
    </g>
    <g id="text_7">
     <!-- r -->
     <g transform="translate(160.296094 203.120313)scale(0.1 -0.1)">
      <defs>
       <path id="DejaVuSans-72" d="M 2631 2963 
Q 2534 3019 2420 3045 
Q 2306 3072 2169 3072 
Q 1681 3072 1420 2755 
Q 1159 2438 1159 1844 
L 1159 0 
L 581 0 
L 581 3500 
L 1159 3500 
L 1159 2956 
Q 1341 3275 1631 3429 
Q 1922 3584 2338 3584 
Q 2397 3584 2469 3576 
Q 2541 3569 2628 3553 
L 2631 2963 
z
" transform="scale(0.015625)"/>
      </defs>
      <use xlink:href="#DejaVuSans-72"/>
     </g>
    </g>
   </g>
   <g id="matplotlib.axis_2">
    <g id="ytick_1">
     <g id="line2d_7">
      <defs>
       <path id="md20c986bca" d="M 0 0 
L -3.5 0 
" style="stroke: #000000; stroke-width: 0.8"/>
      </defs>
      <g>
       <use xlink:href="#md20c986bca" x="47.503125" y="170.935347" style="stroke: #000000; stroke-width: 0.8"/>
      </g>
     </g>
     <g id="text_8">
      <!-- 0.0 -->
      <g transform="translate(24.6 174.734566)scale(0.1 -0.1)">
       <use xlink:href="#DejaVuSans-30"/>
       <use xlink:href="#DejaVuSans-2e" x="63.623047"/>
       <use xlink:href="#DejaVuSans-30" x="95.410156"/>
      </g>
     </g>
    </g>
    <g id="ytick_2">
     <g id="line2d_8">
      <g>
       <use xlink:href="#md20c986bca" x="47.503125" y="131.851315" style="stroke: #000000; stroke-width: 0.8"/>
      </g>
     </g>
     <g id="text_9">
      <!-- 0.5 -->
      <g transform="translate(24.6 135.650534)scale(0.1 -0.1)">
       <use xlink:href="#DejaVuSans-30"/>
       <use xlink:href="#DejaVuSans-2e" x="63.623047"/>
       <use xlink:href="#DejaVuSans-35" x="95.410156"/>
      </g>
     </g>
    </g>
    <g id="ytick_3">
     <g id="line2d_9">
      <g>
       <use xlink:href="#md20c986bca" x="47.503125" y="92.767283" style="stroke: #000000; stroke-width: 0.8"/>
      </g>
     </g>
     <g id="text_10">
      <!-- 1.0 -->
      <g transform="translate(24.6 96.566502)scale(0.1 -0.1)">
       <use xlink:href="#DejaVuSans-31"/>
       <use xlink:href="#DejaVuSans-2e" x="63.623047"/>
       <use xlink:href="#DejaVuSans-30" x="95.410156"/>
      </g>
     </g>
    </g>
    <g id="ytick_4">
     <g id="line2d_10">
      <g>
       <use xlink:href="#md20c986bca" x="47.503125" y="53.683251" style="stroke: #000000; stroke-width: 0.8"/>
      </g>
     </g>
     <g id="text_11">
      <!-- 1.5 -->
      <g transform="translate(24.6 57.48247)scale(0.1 -0.1)">
       <use xlink:href="#DejaVuSans-31"/>
       <use xlink:href="#DejaVuSans-2e" x="63.623047"/>
       <use xlink:href="#DejaVuSans-35" x="95.410156"/>
      </g>
     </g>
    </g>
    <g id="ytick_5">
     <g id="line2d_11">
      <g>
       <use xlink:href="#md20c986bca" x="47.503125" y="14.599219" style="stroke: #000000; stroke-width: 0.8"/>
      </g>
     </g>
     <g id="text_12">
      <!-- 2.0 -->
      <g transform="translate(24.6 18.398438)scale(0.1 -0.1)">
       <use xlink:href="#DejaVuSans-32"/>
       <use xlink:href="#DejaVuSans-2e" x="63.623047"/>
       <use xlink:href="#DejaVuSans-30" x="95.410156"/>
      </g>
     </g>
    </g>
    <g id="text_13">
     <!-- $\beta * b(r)$ -->
     <g transform="translate(18.5 111.521484)rotate(-90)scale(0.1 -0.1)">
      <defs>
       <path id="DejaVuSans-Oblique-3b2" d="M 872 216 
L 572 -1331 
L -6 -1331 
L 928 3478 
Q 1206 4903 2538 4903 
Q 3888 4903 3659 3700 
Q 3503 2844 2894 2531 
Q 3713 2250 3553 1416 
Q 3272 -69 1759 -66 
Q 1097 -63 872 216 
z
M 1019 966 
Q 1259 422 1875 425 
Q 2775 425 2966 1406 
Q 3138 2288 1675 2219 
L 1778 2750 
Q 2909 2731 3106 3750 
Q 3241 4438 2509 4434 
Q 1691 4434 1503 3459 
L 1019 966 
z
" transform="scale(0.015625)"/>
       <path id="DejaVuSans-2a" d="M 3009 3897 
L 1888 3291 
L 3009 2681 
L 2828 2375 
L 1778 3009 
L 1778 1831 
L 1422 1831 
L 1422 3009 
L 372 2375 
L 191 2681 
L 1313 3291 
L 191 3897 
L 372 4206 
L 1422 3572 
L 1422 4750 
L 1778 4750 
L 1778 3572 
L 2828 4206 
L 3009 3897 
z
" transform="scale(0.015625)"/>
       <path id="DejaVuSans-Oblique-62" d="M 3169 2138 
Q 3169 2591 2961 2847 
Q 2753 3103 2388 3103 
Q 2122 3103 1889 2973 
Q 1656 2844 1484 2597 
Q 1303 2338 1198 1995 
Q 1094 1653 1094 1313 
Q 1094 881 1298 636 
Q 1503 391 1863 391 
Q 2134 391 2365 517 
Q 2597 644 2772 891 
Q 2950 1147 3059 1487 
Q 3169 1828 3169 2138 
z
M 1381 2969 
Q 1594 3256 1914 3420 
Q 2234 3584 2584 3584 
Q 3122 3584 3439 3221 
Q 3756 2859 3756 2241 
Q 3756 1734 3570 1259 
Q 3384 784 3041 416 
Q 2816 172 2522 40 
Q 2228 -91 1906 -91 
Q 1566 -91 1316 65 
Q 1066 222 909 531 
L 806 0 
L 231 0 
L 1178 4863 
L 1753 4863 
L 1381 2969 
z
" transform="scale(0.015625)"/>
       <path id="DejaVuSans-28" d="M 1984 4856 
Q 1566 4138 1362 3434 
Q 1159 2731 1159 2009 
Q 1159 1288 1364 580 
Q 1569 -128 1984 -844 
L 1484 -844 
Q 1016 -109 783 600 
Q 550 1309 550 2009 
Q 550 2706 781 3412 
Q 1013 4119 1484 4856 
L 1984 4856 
z
" transform="scale(0.015625)"/>
       <path id="DejaVuSans-Oblique-72" d="M 2853 2969 
Q 2766 3016 2653 3041 
Q 2541 3066 2413 3066 
Q 1953 3066 1609 2717 
Q 1266 2369 1153 1784 
L 800 0 
L 225 0 
L 909 3500 
L 1484 3500 
L 1375 2956 
Q 1603 3259 1920 3421 
Q 2238 3584 2597 3584 
Q 2691 3584 2781 3573 
Q 2872 3563 2963 3538 
L 2853 2969 
z
" transform="scale(0.015625)"/>
       <path id="DejaVuSans-29" d="M 513 4856 
L 1013 4856 
Q 1481 4119 1714 3412 
Q 1947 2706 1947 2009 
Q 1947 1309 1714 600 
Q 1481 -109 1013 -844 
L 513 -844 
Q 928 -128 1133 580 
Q 1338 1288 1338 2009 
Q 1338 2731 1133 3434 
Q 928 4138 513 4856 
z
" transform="scale(0.015625)"/>
      </defs>
      <use xlink:href="#DejaVuSans-Oblique-3b2" transform="translate(0 0.390625)"/>
      <use xlink:href="#DejaVuSans-2a" transform="translate(83.300781 0.390625)"/>
      <use xlink:href="#DejaVuSans-Oblique-62" transform="translate(152.783203 0.390625)"/>
      <use xlink:href="#DejaVuSans-28" transform="translate(216.259766 0.390625)"/>
      <use xlink:href="#DejaVuSans-Oblique-72" transform="translate(255.273438 0.390625)"/>
      <use xlink:href="#DejaVuSans-29" transform="translate(296.386719 0.390625)"/>
     </g>
    </g>
   </g>
   <g id="line2d_12">
    <path d="M 59.910564 -1 
L 60.053138 43.09004 
L 62.162384 101.955059 
L 64.27163 124.010999 
L 66.380876 135.5601 
L 68.490121 142.665869 
L 70.599367 147.478862 
L 72.708613 150.954615 
L 74.817859 153.582457 
L 76.927105 155.63893 
L 79.036351 157.292109 
L 81.145597 158.650035 
L 83.254842 159.785322 
L 85.364088 160.748574 
L 87.473334 161.576142 
L 89.58258 162.294807 
L 91.691826 162.92474 
L 93.801072 163.481418 
L 95.910318 163.976917 
L 98.019564 164.420797 
L 100.128809 164.820726 
L 102.238055 165.182922 
L 104.347301 165.512486 
L 106.456547 165.813637 
L 108.565793 166.089898 
L 110.675039 166.344232 
L 112.784285 166.57915 
L 114.89353 166.796794 
L 117.002776 166.999001 
L 119.112022 167.187357 
L 121.221268 167.363239 
L 123.330514 167.527846 
L 125.43976 167.682228 
L 127.549006 167.82731 
L 129.658252 167.963907 
L 131.767497 168.092742 
L 133.876743 168.214459 
L 135.985989 168.329632 
L 138.095235 168.438775 
L 140.204481 168.542349 
L 142.313727 168.64077 
L 144.422973 168.734413 
L 146.532218 168.823617 
L 148.641464 168.908692 
L 150.75071 168.989917 
L 152.859956 169.067548 
L 154.969202 169.141818 
L 157.078448 169.212941 
L 159.187694 169.281113 
L 161.29694 169.346513 
L 163.406185 169.409308 
L 165.515431 169.46965 
L 167.624677 169.527679 
L 169.733923 169.583528 
L 171.843169 169.637315 
L 173.952415 169.689153 
L 176.061661 169.739147 
L 178.170907 169.787392 
L 180.280152 169.833979 
L 182.389398 169.878993 
L 184.498644 169.922511 
L 186.60789 169.964607 
L 188.717136 170.005349 
L 190.826382 170.044802 
L 192.935628 170.083026 
L 195.044873 170.120077 
L 197.154119 170.156009 
L 199.263365 170.190871 
L 201.372611 170.224711 
L 203.481857 170.257573 
L 205.591103 170.289499 
L 207.700349 170.320528 
L 209.809595 170.350697 
L 211.91884 170.380042 
L 214.028086 170.408596 
L 216.137332 170.436391 
L 218.246578 170.463456 
L 220.355824 170.48982 
L 222.46507 170.51551 
L 224.574316 170.540551 
L 226.683561 170.564967 
L 228.792807 170.588782 
L 230.902053 170.612018 
L 233.011299 170.634695 
L 235.120545 170.656833 
L 237.229791 170.678452 
L 239.339037 170.699569 
L 241.448283 170.720201 
L 243.557528 170.740366 
L 245.666774 170.760079 
L 247.77602 170.779355 
L 249.885266 170.798207 
L 251.994512 170.816651 
L 254.103758 170.834699 
L 256.213004 170.852364 
L 258.322249 170.869658 
L 260.431495 170.886593 
L 262.540741 170.903178 
L 264.649987 170.919426 
L 266.759233 170.935347 
" clip-path="url(#p7665533657)" style="fill: none; stroke: #1f77b4; stroke-width: 2; stroke-linecap: square"/>
   </g>
   <g id="line2d_13">
    <path d="M 74.981304 -1 
L 76.927105 17.971174 
L 79.036351 34.502967 
L 81.145597 48.082232 
L 83.254842 59.435095 
L 85.364088 69.067618 
L 87.473334 77.343295 
L 89.58258 84.529952 
L 91.691826 90.82928 
L 93.801072 96.396059 
L 95.910318 101.35105 
L 98.019564 105.789854 
L 100.128809 109.789137 
L 102.238055 113.4111 
L 104.347301 116.706738 
L 106.456547 119.718248 
L 108.565793 122.480857 
L 110.675039 125.024198 
L 112.784285 127.373378 
L 114.89353 129.549815 
L 117.002776 131.571885 
L 119.112022 133.45545 
L 121.221268 135.214269 
L 123.330514 136.860337 
L 125.43976 138.40416 
L 127.549006 139.854977 
L 129.658252 141.220947 
L 131.767497 142.509302 
L 133.876743 143.726473 
L 135.985989 144.878202 
L 138.095235 145.969629 
L 140.204481 147.005369 
L 142.313727 147.989577 
L 144.422973 148.926006 
L 146.532218 149.818053 
L 148.641464 150.6688 
L 150.75071 151.481051 
L 152.859956 152.257359 
L 154.969202 153.00006 
L 157.078448 153.71129 
L 159.187694 154.393007 
L 161.29694 155.047011 
L 163.406185 155.674958 
L 165.515431 156.278376 
L 167.624677 156.858673 
L 169.733923 157.417154 
L 171.843169 157.955026 
L 173.952415 158.473409 
L 176.061661 158.973345 
L 178.170907 159.455799 
L 180.280152 159.921674 
L 182.389398 160.371809 
L 184.498644 160.806989 
L 186.60789 161.227947 
L 188.717136 161.63537 
L 190.826382 162.029898 
L 192.935628 162.412136 
L 195.044873 162.782649 
L 197.154119 163.141967 
L 199.263365 163.490592 
L 201.372611 163.828992 
L 203.481857 164.157612 
L 205.591103 164.476869 
L 207.700349 164.787158 
L 209.809595 165.088852 
L 211.91884 165.382303 
L 214.028086 165.667843 
L 216.137332 165.94579 
L 218.246578 166.216441 
L 220.355824 166.48008 
L 222.46507 166.736976 
L 224.574316 166.987385 
L 226.683561 167.231549 
L 228.792807 167.469699 
L 230.902053 167.702055 
L 233.011299 167.928825 
L 235.120545 168.150208 
L 237.229791 168.366395 
L 239.339037 168.577566 
L 241.448283 168.783893 
L 243.557528 168.985541 
L 245.666774 169.182668 
L 247.77602 169.375424 
L 249.885266 169.563953 
L 251.994512 169.748392 
L 254.103758 169.928874 
L 256.213004 170.105523 
L 258.322249 170.278461 
L 260.431495 170.447804 
L 262.540741 170.613662 
L 264.649987 170.776142 
L 266.759233 170.935347 
" clip-path="url(#p7665533657)" style="fill: none; stroke: #ff7f0e; stroke-width: 2; stroke-linecap: square"/>
   </g>
   <g id="line2d_14">
    <path d="M 157.172884 -1 
L 159.187694 5.51195 
L 161.29694 12.051991 
L 163.406185 18.331464 
L 165.515431 24.365637 
L 167.624677 30.168609 
L 169.733923 35.753418 
L 171.843169 41.132139 
L 173.952415 46.315973 
L 176.061661 51.315324 
L 178.170907 56.139867 
L 180.280152 60.798614 
L 182.389398 65.299967 
L 184.498644 69.651769 
L 186.60789 73.861352 
L 188.717136 77.935575 
L 190.826382 81.880863 
L 192.935628 85.703242 
L 195.044873 89.408367 
L 197.154119 93.001553 
L 199.263365 96.487795 
L 201.372611 99.8718 
L 203.481857 103.157998 
L 205.591103 106.350571 
L 207.700349 109.453463 
L 209.809595 112.4704 
L 211.91884 115.404905 
L 214.028086 118.260311 
L 216.137332 121.039774 
L 218.246578 123.746284 
L 220.355824 126.382675 
L 222.46507 128.951638 
L 224.574316 131.455727 
L 226.683561 133.897369 
L 228.792807 136.278871 
L 230.902053 138.602427 
L 233.011299 140.870127 
L 235.120545 143.083962 
L 237.229791 145.245828 
L 239.339037 147.357534 
L 241.448283 149.420805 
L 243.557528 151.437289 
L 245.666774 153.40856 
L 247.77602 155.336121 
L 249.885266 157.22141 
L 251.994512 159.065803 
L 254.103758 160.870616 
L 256.213004 162.63711 
L 258.322249 164.366491 
L 260.431495 166.059919 
L 262.540741 167.718501 
L 264.649987 169.343303 
L 266.759233 170.935347 
" clip-path="url(#p7665533657)" style="fill: none; stroke: #2ca02c; stroke-width: 2; stroke-linecap: square"/>
   </g>
   <g id="patch_3">
    <path d="M 47.503125 174.84375 
L 47.503125 14.599219 
" style="fill: none; stroke: #000000; stroke-width: 0.8; stroke-linejoin: miter; stroke-linecap: square"/>
   </g>
   <g id="patch_4">
    <path d="M 277.2 174.84375 
L 277.2 14.599219 
" style="fill: none; stroke: #000000; stroke-width: 0.8; stroke-linejoin: miter; stroke-linecap: square"/>
   </g>
   <g id="patch_5">
    <path d="M 47.503125 174.84375 
L 277.2 174.84375 
" style="fill: none; stroke: #000000; stroke-width: 0.8; stroke-linejoin: miter; stroke-linecap: square"/>
   </g>
   <g id="patch_6">
    <path d="M 47.503125 14.599219 
L 277.2 14.599219 
" style="fill: none; stroke: #000000; stroke-width: 0.8; stroke-linejoin: miter; stroke-linecap: square"/>
   </g>
   <g id="legend_1">
    <g id="patch_7">
     <path d="M 194.8 66.999219 
L 270.2 66.999219 
Q 272.2 66.999219 272.2 64.999219 
L 272.2 21.599219 
Q 272.2 19.599219 270.2 19.599219 
L 194.8 19.599219 
Q 192.8 19.599219 192.8 21.599219 
L 192.8 64.999219 
Q 192.8 66.999219 194.8 66.999219 
z
" style="fill: #ffffff; opacity: 0.8; stroke: #cccccc; stroke-linejoin: miter"/>
    </g>
    <g id="line2d_15">
     <path d="M 196.8 27.799219 
L 206.8 27.799219 
L 216.8 27.799219 
" style="fill: none; stroke: #1f77b4; stroke-width: 2; stroke-linecap: square"/>
    </g>
    <g id="text_14">
     <!-- $\beta$ = 0.02 -->
     <g transform="translate(224.8 31.299219)scale(0.1 -0.1)">
      <defs>
       <path id="DejaVuSans-20" transform="scale(0.015625)"/>
       <path id="DejaVuSans-3d" d="M 678 2906 
L 4684 2906 
L 4684 2381 
L 678 2381 
L 678 2906 
z
M 678 1631 
L 4684 1631 
L 4684 1100 
L 678 1100 
L 678 1631 
z
" transform="scale(0.015625)"/>
      </defs>
      <use xlink:href="#DejaVuSans-Oblique-3b2" transform="translate(0 0.390625)"/>
      <use xlink:href="#DejaVuSans-20" transform="translate(63.818359 0.390625)"/>
      <use xlink:href="#DejaVuSans-3d" transform="translate(95.605469 0.390625)"/>
      <use xlink:href="#DejaVuSans-20" transform="translate(179.394531 0.390625)"/>
      <use xlink:href="#DejaVuSans-30" transform="translate(211.181641 0.390625)"/>
      <use xlink:href="#DejaVuSans-2e" transform="translate(274.804688 0.390625)"/>
      <use xlink:href="#DejaVuSans-30" transform="translate(306.591797 0.390625)"/>
      <use xlink:href="#DejaVuSans-32" transform="translate(370.214844 0.390625)"/>
     </g>
    </g>
    <g id="line2d_16">
     <path d="M 196.8 42.599219 
L 206.8 42.599219 
L 216.8 42.599219 
" style="fill: none; stroke: #ff7f0e; stroke-width: 2; stroke-linecap: square"/>
    </g>
    <g id="text_15">
     <!-- $\beta$ = 0.2 -->
     <g transform="translate(224.8 46.099219)scale(0.1 -0.1)">
      <use xlink:href="#DejaVuSans-Oblique-3b2" transform="translate(0 0.390625)"/>
      <use xlink:href="#DejaVuSans-20" transform="translate(63.818359 0.390625)"/>
      <use xlink:href="#DejaVuSans-3d" transform="translate(95.605469 0.390625)"/>
      <use xlink:href="#DejaVuSans-20" transform="translate(179.394531 0.390625)"/>
      <use xlink:href="#DejaVuSans-30" transform="translate(211.181641 0.390625)"/>
      <use xlink:href="#DejaVuSans-2e" transform="translate(274.804688 0.390625)"/>
      <use xlink:href="#DejaVuSans-32" transform="translate(301.091797 0.390625)"/>
     </g>
    </g>
    <g id="line2d_17">
     <path d="M 196.8 57.399219 
L 206.8 57.399219 
L 216.8 57.399219 
" style="fill: none; stroke: #2ca02c; stroke-width: 2; stroke-linecap: square"/>
    </g>
    <g id="text_16">
     <!-- $\beta$ = 2 -->
     <g transform="translate(224.8 60.899219)scale(0.1 -0.1)">
      <use xlink:href="#DejaVuSans-Oblique-3b2" transform="translate(0 0.390625)"/>
      <use xlink:href="#DejaVuSans-20" transform="translate(63.818359 0.390625)"/>
      <use xlink:href="#DejaVuSans-3d" transform="translate(95.605469 0.390625)"/>
      <use xlink:href="#DejaVuSans-20" transform="translate(179.394531 0.390625)"/>
      <use xlink:href="#DejaVuSans-32" transform="translate(211.181641 0.390625)"/>
     </g>
    </g>
   </g>
  </g>
 </g>
 <defs>
  <clipPath id="p7665533657">
   <rect x="47.503125" y="14.599219" width="229.696875" height="160.244531"/>
  </clipPath>
 </defs>
</svg>
