<?xml version="1.0" encoding="utf-8" standalone="no"?>
<!DOCTYPE svg PUBLIC "-//W3C//DTD SVG 1.1//EN"
  "http://www.w3.org/Graphics/SVG/1.1/DTD/svg11.dtd">
<svg xmlns:xlink="http://www.w3.org/1999/xlink" width="288pt" height="216pt" viewBox="0 0 288 216" xmlns="http://www.w3.org/2000/svg" version="1.1">
 <metadata>
  <rdf:RDF xmlns:dc="http://purl.org/dc/elements/1.1/" xmlns:cc="http://creativecommons.org/ns#" xmlns:rdf="http://www.w3.org/1999/02/22-rdf-syntax-ns#">
   <cc:Work>
    <dc:type rdf:resource="http://purl.org/dc/dcmitype/StillImage"/>
    <dc:date>2024-01-09T16:55:57.877972</dc:date>
    <dc:format>image/svg+xml</dc:format>
    <dc:creator>
     <cc:Agent>
      <dc:title>Matplotlib v3.5.3, https://matplotlib.org/</dc:title>
     </cc:Agent>
    </dc:creator>
   </cc:Work>
  </rdf:RDF>
 </metadata>
 <defs>
  <style type="text/css">*{stroke-linejoin: round; stroke-linecap: butt}</style>
 </defs>
 <g id="figure_1">
  <g id="patch_1">
   <path d="M 0 216 
L 288 216 
L 288 0 
L 0 0 
L 0 216 
z
" style="fill: none"/>
  </g>
  <g id="axes_1">
   <g id="patch_2">
    <path d="M 47.503125 174.84375 
L 277.2 174.84375 
L 277.2 14.599219 
L 47.503125 14.599219 
L 47.503125 174.84375 
z
" style="fill: none"/>
   </g>
   <g id="matplotlib.axis_1">
    <g id="xtick_1">
     <g id="line2d_1">
      <defs>
       <path id="m42194b20b8" d="M 0 0 
L 0 3.5 
" style="stroke: #000000; stroke-width: 0.8"/>
      </defs>
      <g>
       <use xlink:href="#m42194b20b8" x="57.711617" y="174.84375" style="stroke: #000000; stroke-width: 0.8"/>
      </g>
     </g>
     <g id="text_1">
      <!-- 0.0 -->
      <g transform="translate(49.760054 189.442188)scale(0.1 -0.1)">
       <defs>
        <path id="DejaVuSans-30" d="M 2034 4250 
Q 1547 4250 1301 3770 
Q 1056 3291 1056 2328 
Q 1056 1369 1301 889 
Q 1547 409 2034 409 
Q 2525 409 2770 889 
Q 3016 1369 3016 2328 
Q 3016 3291 2770 3770 
Q 2525 4250 2034 4250 
z
M 2034 4750 
Q 2819 4750 3233 4129 
Q 3647 3509 3647 2328 
Q 3647 1150 3233 529 
Q 2819 -91 2034 -91 
Q 1250 -91 836 529 
Q 422 1150 422 2328 
Q 422 3509 836 4129 
Q 1250 4750 2034 4750 
z
" transform="scale(0.015625)"/>
        <path id="DejaVuSans-2e" d="M 684 794 
L 1344 794 
L 1344 0 
L 684 0 
L 684 794 
z
" transform="scale(0.015625)"/>
       </defs>
       <use xlink:href="#DejaVuSans-30"/>
       <use xlink:href="#DejaVuSans-2e" x="63.623047"/>
       <use xlink:href="#DejaVuSans-30" x="95.410156"/>
      </g>
     </g>
    </g>
    <g id="xtick_2">
     <g id="line2d_2">
      <g>
       <use xlink:href="#m42194b20b8" x="104.166643" y="174.84375" style="stroke: #000000; stroke-width: 0.8"/>
      </g>
     </g>
     <g id="text_2">
      <!-- 0.2 -->
      <g transform="translate(96.21508 189.442188)scale(0.1 -0.1)">
       <defs>
        <path id="DejaVuSans-32" d="M 1228 531 
L 3431 531 
L 3431 0 
L 469 0 
L 469 531 
Q 828 903 1448 1529 
Q 2069 2156 2228 2338 
Q 2531 2678 2651 2914 
Q 2772 3150 2772 3378 
Q 2772 3750 2511 3984 
Q 2250 4219 1831 4219 
Q 1534 4219 1204 4116 
Q 875 4013 500 3803 
L 500 4441 
Q 881 4594 1212 4672 
Q 1544 4750 1819 4750 
Q 2544 4750 2975 4387 
Q 3406 4025 3406 3419 
Q 3406 3131 3298 2873 
Q 3191 2616 2906 2266 
Q 2828 2175 2409 1742 
Q 1991 1309 1228 531 
z
" transform="scale(0.015625)"/>
       </defs>
       <use xlink:href="#DejaVuSans-30"/>
       <use xlink:href="#DejaVuSans-2e" x="63.623047"/>
       <use xlink:href="#DejaVuSans-32" x="95.410156"/>
      </g>
     </g>
    </g>
    <g id="xtick_3">
     <g id="line2d_3">
      <g>
       <use xlink:href="#m42194b20b8" x="150.621668" y="174.84375" style="stroke: #000000; stroke-width: 0.8"/>
      </g>
     </g>
     <g id="text_3">
      <!-- 0.4 -->
      <g transform="translate(142.670106 189.442188)scale(0.1 -0.1)">
       <defs>
        <path id="DejaVuSans-34" d="M 2419 4116 
L 825 1625 
L 2419 1625 
L 2419 4116 
z
M 2253 4666 
L 3047 4666 
L 3047 1625 
L 3713 1625 
L 3713 1100 
L 3047 1100 
L 3047 0 
L 2419 0 
L 2419 1100 
L 313 1100 
L 313 1709 
L 2253 4666 
z
" transform="scale(0.015625)"/>
       </defs>
       <use xlink:href="#DejaVuSans-30"/>
       <use xlink:href="#DejaVuSans-2e" x="63.623047"/>
       <use xlink:href="#DejaVuSans-34" x="95.410156"/>
      </g>
     </g>
    </g>
    <g id="xtick_4">
     <g id="line2d_4">
      <g>
       <use xlink:href="#m42194b20b8" x="197.076694" y="174.84375" style="stroke: #000000; stroke-width: 0.8"/>
      </g>
     </g>
     <g id="text_4">
      <!-- 0.6 -->
      <g transform="translate(189.125132 189.442188)scale(0.1 -0.1)">
       <defs>
        <path id="DejaVuSans-36" d="M 2113 2584 
Q 1688 2584 1439 2293 
Q 1191 2003 1191 1497 
Q 1191 994 1439 701 
Q 1688 409 2113 409 
Q 2538 409 2786 701 
Q 3034 994 3034 1497 
Q 3034 2003 2786 2293 
Q 2538 2584 2113 2584 
z
M 3366 4563 
L 3366 3988 
Q 3128 4100 2886 4159 
Q 2644 4219 2406 4219 
Q 1781 4219 1451 3797 
Q 1122 3375 1075 2522 
Q 1259 2794 1537 2939 
Q 1816 3084 2150 3084 
Q 2853 3084 3261 2657 
Q 3669 2231 3669 1497 
Q 3669 778 3244 343 
Q 2819 -91 2113 -91 
Q 1303 -91 875 529 
Q 447 1150 447 2328 
Q 447 3434 972 4092 
Q 1497 4750 2381 4750 
Q 2619 4750 2861 4703 
Q 3103 4656 3366 4563 
z
" transform="scale(0.015625)"/>
       </defs>
       <use xlink:href="#DejaVuSans-30"/>
       <use xlink:href="#DejaVuSans-2e" x="63.623047"/>
       <use xlink:href="#DejaVuSans-36" x="95.410156"/>
      </g>
     </g>
    </g>
    <g id="xtick_5">
     <g id="line2d_5">
      <g>
       <use xlink:href="#m42194b20b8" x="243.53172" y="174.84375" style="stroke: #000000; stroke-width: 0.8"/>
      </g>
     </g>
     <g id="text_5">
      <!-- 0.8 -->
      <g transform="translate(235.580158 189.442188)scale(0.1 -0.1)">
       <defs>
        <path id="DejaVuSans-38" d="M 2034 2216 
Q 1584 2216 1326 1975 
Q 1069 1734 1069 1313 
Q 1069 891 1326 650 
Q 1584 409 2034 409 
Q 2484 409 2743 651 
Q 3003 894 3003 1313 
Q 3003 1734 2745 1975 
Q 2488 2216 2034 2216 
z
M 1403 2484 
Q 997 2584 770 2862 
Q 544 3141 544 3541 
Q 544 4100 942 4425 
Q 1341 4750 2034 4750 
Q 2731 4750 3128 4425 
Q 3525 4100 3525 3541 
Q 3525 3141 3298 2862 
Q 3072 2584 2669 2484 
Q 3125 2378 3379 2068 
Q 3634 1759 3634 1313 
Q 3634 634 3220 271 
Q 2806 -91 2034 -91 
Q 1263 -91 848 271 
Q 434 634 434 1313 
Q 434 1759 690 2068 
Q 947 2378 1403 2484 
z
M 1172 3481 
Q 1172 3119 1398 2916 
Q 1625 2713 2034 2713 
Q 2441 2713 2670 2916 
Q 2900 3119 2900 3481 
Q 2900 3844 2670 4047 
Q 2441 4250 2034 4250 
Q 1625 4250 1398 4047 
Q 1172 3844 1172 3481 
z
" transform="scale(0.015625)"/>
       </defs>
       <use xlink:href="#DejaVuSans-30"/>
       <use xlink:href="#DejaVuSans-2e" x="63.623047"/>
       <use xlink:href="#DejaVuSans-38" x="95.410156"/>
      </g>
     </g>
    </g>
    <g id="text_6">
     <!-- r -->
     <g transform="translate(160.296094 203.120313)scale(0.1 -0.1)">
      <defs>
       <path id="DejaVuSans-72" d="M 2631 2963 
Q 2534 3019 2420 3045 
Q 2306 3072 2169 3072 
Q 1681 3072 1420 2755 
Q 1159 2438 1159 1844 
L 1159 0 
L 581 0 
L 581 3500 
L 1159 3500 
L 1159 2956 
Q 1341 3275 1631 3429 
Q 1922 3584 2338 3584 
Q 2397 3584 2469 3576 
Q 2541 3569 2628 3553 
L 2631 2963 
z
" transform="scale(0.015625)"/>
      </defs>
      <use xlink:href="#DejaVuSans-72"/>
     </g>
    </g>
   </g>
   <g id="matplotlib.axis_2">
    <g id="ytick_1">
     <g id="line2d_6">
      <defs>
       <path id="m5cf5ac8e5c" d="M 0 0 
L -3.5 0 
" style="stroke: #000000; stroke-width: 0.8"/>
      </defs>
      <g>
       <use xlink:href="#m5cf5ac8e5c" x="47.503125" y="168.680499" style="stroke: #000000; stroke-width: 0.8"/>
      </g>
     </g>
     <g id="text_7">
      <!-- 0.0 -->
      <g transform="translate(24.6 172.479718)scale(0.1 -0.1)">
       <use xlink:href="#DejaVuSans-30"/>
       <use xlink:href="#DejaVuSans-2e" x="63.623047"/>
       <use xlink:href="#DejaVuSans-30" x="95.410156"/>
      </g>
     </g>
    </g>
    <g id="ytick_2">
     <g id="line2d_7">
      <g>
       <use xlink:href="#m5cf5ac8e5c" x="47.503125" y="137.864243" style="stroke: #000000; stroke-width: 0.8"/>
      </g>
     </g>
     <g id="text_8">
      <!-- 0.1 -->
      <g transform="translate(24.6 141.663462)scale(0.1 -0.1)">
       <defs>
        <path id="DejaVuSans-31" d="M 794 531 
L 1825 531 
L 1825 4091 
L 703 3866 
L 703 4441 
L 1819 4666 
L 2450 4666 
L 2450 531 
L 3481 531 
L 3481 0 
L 794 0 
L 794 531 
z
" transform="scale(0.015625)"/>
       </defs>
       <use xlink:href="#DejaVuSans-30"/>
       <use xlink:href="#DejaVuSans-2e" x="63.623047"/>
       <use xlink:href="#DejaVuSans-31" x="95.410156"/>
      </g>
     </g>
    </g>
    <g id="ytick_3">
     <g id="line2d_8">
      <g>
       <use xlink:href="#m5cf5ac8e5c" x="47.503125" y="107.047987" style="stroke: #000000; stroke-width: 0.8"/>
      </g>
     </g>
     <g id="text_9">
      <!-- 0.2 -->
      <g transform="translate(24.6 110.847206)scale(0.1 -0.1)">
       <use xlink:href="#DejaVuSans-30"/>
       <use xlink:href="#DejaVuSans-2e" x="63.623047"/>
       <use xlink:href="#DejaVuSans-32" x="95.410156"/>
      </g>
     </g>
    </g>
    <g id="ytick_4">
     <g id="line2d_9">
      <g>
       <use xlink:href="#m5cf5ac8e5c" x="47.503125" y="76.231731" style="stroke: #000000; stroke-width: 0.8"/>
      </g>
     </g>
     <g id="text_10">
      <!-- 0.3 -->
      <g transform="translate(24.6 80.03095)scale(0.1 -0.1)">
       <defs>
        <path id="DejaVuSans-33" d="M 2597 2516 
Q 3050 2419 3304 2112 
Q 3559 1806 3559 1356 
Q 3559 666 3084 287 
Q 2609 -91 1734 -91 
Q 1441 -91 1130 -33 
Q 819 25 488 141 
L 488 750 
Q 750 597 1062 519 
Q 1375 441 1716 441 
Q 2309 441 2620 675 
Q 2931 909 2931 1356 
Q 2931 1769 2642 2001 
Q 2353 2234 1838 2234 
L 1294 2234 
L 1294 2753 
L 1863 2753 
Q 2328 2753 2575 2939 
Q 2822 3125 2822 3475 
Q 2822 3834 2567 4026 
Q 2313 4219 1838 4219 
Q 1578 4219 1281 4162 
Q 984 4106 628 3988 
L 628 4550 
Q 988 4650 1302 4700 
Q 1616 4750 1894 4750 
Q 2613 4750 3031 4423 
Q 3450 4097 3450 3541 
Q 3450 3153 3228 2886 
Q 3006 2619 2597 2516 
z
" transform="scale(0.015625)"/>
       </defs>
       <use xlink:href="#DejaVuSans-30"/>
       <use xlink:href="#DejaVuSans-2e" x="63.623047"/>
       <use xlink:href="#DejaVuSans-33" x="95.410156"/>
      </g>
     </g>
    </g>
    <g id="ytick_5">
     <g id="line2d_10">
      <g>
       <use xlink:href="#m5cf5ac8e5c" x="47.503125" y="45.415475" style="stroke: #000000; stroke-width: 0.8"/>
      </g>
     </g>
     <g id="text_11">
      <!-- 0.4 -->
      <g transform="translate(24.6 49.214694)scale(0.1 -0.1)">
       <use xlink:href="#DejaVuSans-30"/>
       <use xlink:href="#DejaVuSans-2e" x="63.623047"/>
       <use xlink:href="#DejaVuSans-34" x="95.410156"/>
      </g>
     </g>
    </g>
    <g id="ytick_6">
     <g id="line2d_11">
      <g>
       <use xlink:href="#m5cf5ac8e5c" x="47.503125" y="14.599219" style="stroke: #000000; stroke-width: 0.8"/>
      </g>
     </g>
     <g id="text_12">
      <!-- 0.5 -->
      <g transform="translate(24.6 18.398438)scale(0.1 -0.1)">
       <defs>
        <path id="DejaVuSans-35" d="M 691 4666 
L 3169 4666 
L 3169 4134 
L 1269 4134 
L 1269 2991 
Q 1406 3038 1543 3061 
Q 1681 3084 1819 3084 
Q 2600 3084 3056 2656 
Q 3513 2228 3513 1497 
Q 3513 744 3044 326 
Q 2575 -91 1722 -91 
Q 1428 -91 1123 -41 
Q 819 9 494 109 
L 494 744 
Q 775 591 1075 516 
Q 1375 441 1709 441 
Q 2250 441 2565 725 
Q 2881 1009 2881 1497 
Q 2881 1984 2565 2268 
Q 2250 2553 1709 2553 
Q 1456 2553 1204 2497 
Q 953 2441 691 2322 
L 691 4666 
z
" transform="scale(0.015625)"/>
       </defs>
       <use xlink:href="#DejaVuSans-30"/>
       <use xlink:href="#DejaVuSans-2e" x="63.623047"/>
       <use xlink:href="#DejaVuSans-35" x="95.410156"/>
      </g>
     </g>
    </g>
    <g id="text_13">
     <!-- $\beta * b(r)$ -->
     <g transform="translate(18.5 111.521484)rotate(-90)scale(0.1 -0.1)">
      <defs>
       <path id="DejaVuSans-Oblique-3b2" d="M 872 216 
L 572 -1331 
L -6 -1331 
L 928 3478 
Q 1206 4903 2538 4903 
Q 3888 4903 3659 3700 
Q 3503 2844 2894 2531 
Q 3713 2250 3553 1416 
Q 3272 -69 1759 -66 
Q 1097 -63 872 216 
z
M 1019 966 
Q 1259 422 1875 425 
Q 2775 425 2966 1406 
Q 3138 2288 1675 2219 
L 1778 2750 
Q 2909 2731 3106 3750 
Q 3241 4438 2509 4434 
Q 1691 4434 1503 3459 
L 1019 966 
z
" transform="scale(0.015625)"/>
       <path id="DejaVuSans-2a" d="M 3009 3897 
L 1888 3291 
L 3009 2681 
L 2828 2375 
L 1778 3009 
L 1778 1831 
L 1422 1831 
L 1422 3009 
L 372 2375 
L 191 2681 
L 1313 3291 
L 191 3897 
L 372 4206 
L 1422 3572 
L 1422 4750 
L 1778 4750 
L 1778 3572 
L 2828 4206 
L 3009 3897 
z
" transform="scale(0.015625)"/>
       <path id="DejaVuSans-Oblique-62" d="M 3169 2138 
Q 3169 2591 2961 2847 
Q 2753 3103 2388 3103 
Q 2122 3103 1889 2973 
Q 1656 2844 1484 2597 
Q 1303 2338 1198 1995 
Q 1094 1653 1094 1313 
Q 1094 881 1298 636 
Q 1503 391 1863 391 
Q 2134 391 2365 517 
Q 2597 644 2772 891 
Q 2950 1147 3059 1487 
Q 3169 1828 3169 2138 
z
M 1381 2969 
Q 1594 3256 1914 3420 
Q 2234 3584 2584 3584 
Q 3122 3584 3439 3221 
Q 3756 2859 3756 2241 
Q 3756 1734 3570 1259 
Q 3384 784 3041 416 
Q 2816 172 2522 40 
Q 2228 -91 1906 -91 
Q 1566 -91 1316 65 
Q 1066 222 909 531 
L 806 0 
L 231 0 
L 1178 4863 
L 1753 4863 
L 1381 2969 
z
" transform="scale(0.015625)"/>
       <path id="DejaVuSans-28" d="M 1984 4856 
Q 1566 4138 1362 3434 
Q 1159 2731 1159 2009 
Q 1159 1288 1364 580 
Q 1569 -128 1984 -844 
L 1484 -844 
Q 1016 -109 783 600 
Q 550 1309 550 2009 
Q 550 2706 781 3412 
Q 1013 4119 1484 4856 
L 1984 4856 
z
" transform="scale(0.015625)"/>
       <path id="DejaVuSans-Oblique-72" d="M 2853 2969 
Q 2766 3016 2653 3041 
Q 2541 3066 2413 3066 
Q 1953 3066 1609 2717 
Q 1266 2369 1153 1784 
L 800 0 
L 225 0 
L 909 3500 
L 1484 3500 
L 1375 2956 
Q 1603 3259 1920 3421 
Q 2238 3584 2597 3584 
Q 2691 3584 2781 3573 
Q 2872 3563 2963 3538 
L 2853 2969 
z
" transform="scale(0.015625)"/>
       <path id="DejaVuSans-29" d="M 513 4856 
L 1013 4856 
Q 1481 4119 1714 3412 
Q 1947 2706 1947 2009 
Q 1947 1309 1714 600 
Q 1481 -109 1013 -844 
L 513 -844 
Q 928 -128 1133 580 
Q 1338 1288 1338 2009 
Q 1338 2731 1133 3434 
Q 928 4138 513 4856 
z
" transform="scale(0.015625)"/>
      </defs>
      <use xlink:href="#DejaVuSans-Oblique-3b2" transform="translate(0 0.390625)"/>
      <use xlink:href="#DejaVuSans-2a" transform="translate(83.300781 0.390625)"/>
      <use xlink:href="#DejaVuSans-Oblique-62" transform="translate(152.783203 0.390625)"/>
      <use xlink:href="#DejaVuSans-28" transform="translate(216.259766 0.390625)"/>
      <use xlink:href="#DejaVuSans-Oblique-72" transform="translate(255.273438 0.390625)"/>
      <use xlink:href="#DejaVuSans-29" transform="translate(296.386719 0.390625)"/>
     </g>
    </g>
   </g>
   <g id="line2d_12">
    <path d="M 63.9025 -1 
L 63.983045 2.044448 
L 64.215321 10.196896 
L 64.447596 17.787107 
L 64.679871 24.871304 
L 64.912146 31.498456 
L 65.144421 37.711411 
L 65.376696 43.547823 
L 65.608971 49.040917 
L 65.841246 54.220119 
L 66.073522 59.111589 
L 66.305797 63.738654 
L 66.538072 68.12219 
L 66.770347 72.280929 
L 67.002622 76.231731 
L 67.234897 79.989811 
L 67.467172 83.568935 
L 67.699447 86.981588 
L 67.931723 90.23912 
L 68.163998 93.351873 
L 68.396273 96.329289 
L 68.628548 99.180007 
L 68.860823 101.911944 
L 69.093098 104.532374 
L 69.325373 107.047987 
L 69.557648 109.464948 
L 69.789924 111.788949 
L 70.022199 114.025252 
L 70.254474 116.178729 
L 70.486749 118.253898 
L 70.719024 120.254954 
L 70.951299 122.185797 
L 71.183574 124.050059 
L 71.41585 125.851126 
L 71.648125 127.592157 
L 71.8804 129.276106 
L 72.112675 130.905733 
L 72.34495 132.483627 
L 72.577225 134.012211 
L 72.8095 135.493762 
L 73.041775 136.930417 
L 73.274051 138.324187 
L 73.506326 139.676964 
L 73.738601 140.99053 
L 73.970876 142.266565 
L 74.203151 143.506656 
L 74.435426 144.7123 
L 74.667701 145.884912 
L 74.899976 147.025832 
L 75.132252 148.136328 
L 75.364527 149.2176 
L 75.596802 150.270787 
L 75.829077 151.29697 
L 76.061352 152.297173 
L 76.293627 153.272371 
L 76.525902 154.22349 
L 76.758177 155.151411 
L 76.990453 156.056972 
L 77.222728 156.940973 
L 77.455003 157.804173 
L 77.687278 158.647299 
L 77.919553 159.471043 
L 78.151828 160.276065 
L 78.384103 161.062997 
L 78.616379 161.832442 
L 78.848654 162.584976 
L 79.080929 163.32115 
L 79.313204 164.041493 
L 79.545479 164.746509 
L 79.777754 165.436682 
L 80.010029 166.112477 
L 80.242304 166.774339 
L 80.47458 167.422692 
L 80.706855 168.057948 
L 80.93913 168.680499 
" clip-path="url(#p8eea617706)" style="fill: none; stroke: #1f77b4; stroke-width: 2; stroke-linecap: square"/>
   </g>
   <g id="line2d_13">
    <path d="M 88.663957 -1 
L 89.554426 5.525997 
L 90.725186 13.497621 
L 91.895946 20.923214 
L 93.066707 27.857019 
L 94.237467 34.346326 
L 95.408228 40.432551 
L 96.578988 46.152118 
L 97.749749 51.537192 
L 98.920509 56.616282 
L 100.09127 61.414747 
L 101.26203 65.955218 
L 102.432791 70.257959 
L 103.603551 74.341163 
L 104.774312 78.221214 
L 105.945072 81.912906 
L 107.115833 85.42963 
L 108.286593 88.783537 
L 109.457354 91.985677 
L 110.628114 95.046125 
L 111.798875 97.974081 
L 112.969635 100.777967 
L 114.140396 103.465506 
L 115.311156 106.043791 
L 116.481917 108.519353 
L 117.652677 110.898209 
L 118.823438 113.18592 
L 119.994198 115.387623 
L 121.164959 117.50808 
L 122.335719 119.551707 
L 123.50648 121.522605 
L 124.67724 123.424589 
L 125.848001 125.26121 
L 127.018761 127.035782 
L 128.189522 128.751396 
L 129.360282 130.410943 
L 130.531043 132.017127 
L 131.701803 133.572481 
L 132.872564 135.079381 
L 134.043324 136.540055 
L 135.214085 137.956599 
L 136.384845 139.330983 
L 137.555606 140.665062 
L 138.726366 141.960583 
L 139.897127 143.219193 
L 141.067887 144.442448 
L 142.238648 145.631818 
L 143.409408 146.78869 
L 144.580169 147.914379 
L 145.750929 149.010129 
L 146.92169 150.077118 
L 148.09245 151.116465 
L 149.263211 152.129229 
L 150.433971 153.116418 
L 151.604732 154.078988 
L 152.775492 155.01785 
L 153.946253 155.933867 
L 155.117013 156.827864 
L 156.287774 157.700626 
L 157.458534 158.5529 
L 158.629295 159.3854 
L 159.800055 160.198805 
L 160.970816 160.993765 
L 162.141576 161.7709 
L 163.312337 162.530804 
L 164.483097 163.274043 
L 165.653858 164.001159 
L 166.824618 164.712672 
L 167.995379 165.409078 
L 169.166139 166.090854 
L 170.3369 166.758455 
L 171.50766 167.412319 
L 172.678421 168.052866 
L 173.849181 168.680499 
" clip-path="url(#p8eea617706)" style="fill: none; stroke: #ff7f0e; stroke-width: 2; stroke-linecap: square"/>
   </g>
   <g id="line2d_14">
    <path d="M 113.428285 -1 
L 114.89353 4.994743 
L 117.002776 13.010299 
L 119.112022 20.47515 
L 121.221268 27.444164 
L 123.330514 33.965155 
L 125.43976 40.079983 
L 127.549006 45.825447 
L 129.658252 51.234034 
L 131.767497 56.334528 
L 133.876743 61.152526 
L 135.985989 65.710864 
L 138.095235 70.029983 
L 140.204481 74.128232 
L 142.313727 78.022131 
L 144.422973 81.726593 
L 146.532218 85.255113 
L 148.641464 88.619936 
L 150.75071 91.832193 
L 152.859956 94.902032 
L 154.969202 97.838719 
L 157.078448 100.650732 
L 159.187694 103.345847 
L 161.29694 105.931203 
L 163.406185 108.413372 
L 165.515431 110.798411 
L 167.624677 113.091912 
L 169.733923 115.299045 
L 171.843169 117.424598 
L 173.952415 119.473014 
L 176.061661 121.448415 
L 178.170907 123.354637 
L 180.280152 125.195252 
L 182.389398 126.97359 
L 184.498644 128.692758 
L 186.60789 130.355662 
L 188.717136 131.965019 
L 190.826382 133.523374 
L 192.935628 135.033115 
L 195.044873 136.49648 
L 197.154119 137.915575 
L 199.263365 139.292378 
L 201.372611 140.628753 
L 203.481857 141.926453 
L 205.591103 143.187135 
L 207.700349 144.41236 
L 209.809595 145.603602 
L 211.91884 146.762257 
L 214.028086 147.889644 
L 216.137332 148.987011 
L 218.246578 150.055542 
L 220.355824 151.096358 
L 222.46507 152.110524 
L 224.574316 153.099051 
L 226.683561 154.062899 
L 228.792807 155.00298 
L 230.902053 155.920163 
L 233.011299 156.815275 
L 235.120545 157.689103 
L 237.229791 158.542396 
L 239.339037 159.375871 
L 241.448283 160.190209 
L 243.557528 160.986064 
L 245.666774 161.764055 
L 247.77602 162.52478 
L 249.885266 163.268805 
L 251.994512 163.996675 
L 254.103758 164.708911 
L 256.213004 165.40601 
L 258.322249 166.08845 
L 260.431495 166.75669 
L 262.540741 167.411166 
L 264.649987 168.052302 
L 266.759233 168.680499 
" clip-path="url(#p8eea617706)" style="fill: none; stroke: #2ca02c; stroke-width: 2; stroke-linecap: square"/>
   </g>
   <g id="patch_3">
    <path d="M 47.503125 174.84375 
L 47.503125 14.599219 
" style="fill: none; stroke: #000000; stroke-width: 0.8; stroke-linejoin: miter; stroke-linecap: square"/>
   </g>
   <g id="patch_4">
    <path d="M 277.2 174.84375 
L 277.2 14.599219 
" style="fill: none; stroke: #000000; stroke-width: 0.8; stroke-linejoin: miter; stroke-linecap: square"/>
   </g>
   <g id="patch_5">
    <path d="M 47.503125 174.84375 
L 277.2 174.84375 
" style="fill: none; stroke: #000000; stroke-width: 0.8; stroke-linejoin: miter; stroke-linecap: square"/>
   </g>
   <g id="patch_6">
    <path d="M 47.503125 14.599219 
L 277.2 14.599219 
" style="fill: none; stroke: #000000; stroke-width: 0.8; stroke-linejoin: miter; stroke-linecap: square"/>
   </g>
   <g id="legend_1">
    <g id="patch_7">
     <path d="M 187.9 66.633594 
L 270.2 66.633594 
Q 272.2 66.633594 272.2 64.633594 
L 272.2 21.599219 
Q 272.2 19.599219 270.2 19.599219 
L 187.9 19.599219 
Q 185.9 19.599219 185.9 21.599219 
L 185.9 64.633594 
Q 185.9 66.633594 187.9 66.633594 
z
" style="fill: #ffffff; opacity: 0.8; stroke: #cccccc; stroke-linejoin: miter"/>
    </g>
    <g id="line2d_15">
     <path d="M 189.9 27.697656 
L 199.9 27.697656 
L 209.9 27.697656 
" style="fill: none; stroke: #1f77b4; stroke-width: 2; stroke-linecap: square"/>
    </g>
    <g id="text_14">
     <!-- $r_{max}$ = 0.1 -->
     <g transform="translate(217.9 31.197656)scale(0.1 -0.1)">
      <defs>
       <path id="DejaVuSans-Oblique-6d" d="M 5747 2113 
L 5338 0 
L 4763 0 
L 5166 2094 
Q 5191 2228 5203 2325 
Q 5216 2422 5216 2491 
Q 5216 2772 5059 2928 
Q 4903 3084 4622 3084 
Q 4203 3084 3875 2770 
Q 3547 2456 3450 1953 
L 3066 0 
L 2491 0 
L 2900 2094 
Q 2925 2209 2937 2307 
Q 2950 2406 2950 2484 
Q 2950 2769 2794 2926 
Q 2638 3084 2363 3084 
Q 1938 3084 1609 2770 
Q 1281 2456 1184 1953 
L 800 0 
L 225 0 
L 909 3500 
L 1484 3500 
L 1375 2956 
Q 1609 3263 1923 3423 
Q 2238 3584 2597 3584 
Q 2978 3584 3223 3384 
Q 3469 3184 3519 2828 
Q 3781 3197 4126 3390 
Q 4472 3584 4856 3584 
Q 5306 3584 5551 3325 
Q 5797 3066 5797 2591 
Q 5797 2488 5784 2364 
Q 5772 2241 5747 2113 
z
" transform="scale(0.015625)"/>
       <path id="DejaVuSans-Oblique-61" d="M 3438 1997 
L 3047 0 
L 2472 0 
L 2578 531 
Q 2325 219 2001 64 
Q 1678 -91 1281 -91 
Q 834 -91 548 182 
Q 263 456 263 884 
Q 263 1497 752 1853 
Q 1241 2209 2100 2209 
L 2900 2209 
L 2931 2363 
Q 2938 2388 2941 2417 
Q 2944 2447 2944 2509 
Q 2944 2788 2717 2942 
Q 2491 3097 2081 3097 
Q 1800 3097 1504 3025 
Q 1209 2953 897 2809 
L 997 3341 
Q 1322 3463 1633 3523 
Q 1944 3584 2234 3584 
Q 2853 3584 3176 3315 
Q 3500 3047 3500 2534 
Q 3500 2431 3484 2292 
Q 3469 2153 3438 1997 
z
M 2816 1759 
L 2241 1759 
Q 1534 1759 1195 1570 
Q 856 1381 856 984 
Q 856 709 1029 553 
Q 1203 397 1509 397 
Q 1978 397 2328 733 
Q 2678 1069 2791 1631 
L 2816 1759 
z
" transform="scale(0.015625)"/>
       <path id="DejaVuSans-Oblique-78" d="M 3841 3500 
L 2234 1784 
L 3219 0 
L 2559 0 
L 1819 1388 
L 531 0 
L -166 0 
L 1556 1844 
L 641 3500 
L 1300 3500 
L 1972 2234 
L 3144 3500 
L 3841 3500 
z
" transform="scale(0.015625)"/>
       <path id="DejaVuSans-20" transform="scale(0.015625)"/>
       <path id="DejaVuSans-3d" d="M 678 2906 
L 4684 2906 
L 4684 2381 
L 678 2381 
L 678 2906 
z
M 678 1631 
L 4684 1631 
L 4684 1100 
L 678 1100 
L 678 1631 
z
" transform="scale(0.015625)"/>
      </defs>
      <use xlink:href="#DejaVuSans-Oblique-72" transform="translate(0 0.78125)"/>
      <use xlink:href="#DejaVuSans-Oblique-6d" transform="translate(41.113281 -15.625)scale(0.7)"/>
      <use xlink:href="#DejaVuSans-Oblique-61" transform="translate(109.301758 -15.625)scale(0.7)"/>
      <use xlink:href="#DejaVuSans-Oblique-78" transform="translate(152.197266 -15.625)scale(0.7)"/>
      <use xlink:href="#DejaVuSans-20" transform="translate(196.357422 0.78125)"/>
      <use xlink:href="#DejaVuSans-3d" transform="translate(228.144531 0.78125)"/>
      <use xlink:href="#DejaVuSans-20" transform="translate(311.933594 0.78125)"/>
      <use xlink:href="#DejaVuSans-30" transform="translate(343.720703 0.78125)"/>
      <use xlink:href="#DejaVuSans-2e" transform="translate(407.34375 0.78125)"/>
      <use xlink:href="#DejaVuSans-31" transform="translate(439.130859 0.78125)"/>
     </g>
    </g>
    <g id="line2d_16">
     <path d="M 189.9 42.375781 
L 199.9 42.375781 
L 209.9 42.375781 
" style="fill: none; stroke: #ff7f0e; stroke-width: 2; stroke-linecap: square"/>
    </g>
    <g id="text_15">
     <!-- $r_{max}$ = 0.5 -->
     <g transform="translate(217.9 45.875781)scale(0.1 -0.1)">
      <use xlink:href="#DejaVuSans-Oblique-72" transform="translate(0 0.78125)"/>
      <use xlink:href="#DejaVuSans-Oblique-6d" transform="translate(41.113281 -15.625)scale(0.7)"/>
      <use xlink:href="#DejaVuSans-Oblique-61" transform="translate(109.301758 -15.625)scale(0.7)"/>
      <use xlink:href="#DejaVuSans-Oblique-78" transform="translate(152.197266 -15.625)scale(0.7)"/>
      <use xlink:href="#DejaVuSans-20" transform="translate(196.357422 0.78125)"/>
      <use xlink:href="#DejaVuSans-3d" transform="translate(228.144531 0.78125)"/>
      <use xlink:href="#DejaVuSans-20" transform="translate(311.933594 0.78125)"/>
      <use xlink:href="#DejaVuSans-30" transform="translate(343.720703 0.78125)"/>
      <use xlink:href="#DejaVuSans-2e" transform="translate(407.34375 0.78125)"/>
      <use xlink:href="#DejaVuSans-35" transform="translate(439.130859 0.78125)"/>
     </g>
    </g>
    <g id="line2d_17">
     <path d="M 189.9 57.053906 
L 199.9 57.053906 
L 209.9 57.053906 
" style="fill: none; stroke: #2ca02c; stroke-width: 2; stroke-linecap: square"/>
    </g>
    <g id="text_16">
     <!-- $r_{max}$ = 0.9 -->
     <g transform="translate(217.9 60.553906)scale(0.1 -0.1)">
      <defs>
       <path id="DejaVuSans-39" d="M 703 97 
L 703 672 
Q 941 559 1184 500 
Q 1428 441 1663 441 
Q 2288 441 2617 861 
Q 2947 1281 2994 2138 
Q 2813 1869 2534 1725 
Q 2256 1581 1919 1581 
Q 1219 1581 811 2004 
Q 403 2428 403 3163 
Q 403 3881 828 4315 
Q 1253 4750 1959 4750 
Q 2769 4750 3195 4129 
Q 3622 3509 3622 2328 
Q 3622 1225 3098 567 
Q 2575 -91 1691 -91 
Q 1453 -91 1209 -44 
Q 966 3 703 97 
z
M 1959 2075 
Q 2384 2075 2632 2365 
Q 2881 2656 2881 3163 
Q 2881 3666 2632 3958 
Q 2384 4250 1959 4250 
Q 1534 4250 1286 3958 
Q 1038 3666 1038 3163 
Q 1038 2656 1286 2365 
Q 1534 2075 1959 2075 
z
" transform="scale(0.015625)"/>
      </defs>
      <use xlink:href="#DejaVuSans-Oblique-72" transform="translate(0 0.78125)"/>
      <use xlink:href="#DejaVuSans-Oblique-6d" transform="translate(41.113281 -15.625)scale(0.7)"/>
      <use xlink:href="#DejaVuSans-Oblique-61" transform="translate(109.301758 -15.625)scale(0.7)"/>
      <use xlink:href="#DejaVuSans-Oblique-78" transform="translate(152.197266 -15.625)scale(0.7)"/>
      <use xlink:href="#DejaVuSans-20" transform="translate(196.357422 0.78125)"/>
      <use xlink:href="#DejaVuSans-3d" transform="translate(228.144531 0.78125)"/>
      <use xlink:href="#DejaVuSans-20" transform="translate(311.933594 0.78125)"/>
      <use xlink:href="#DejaVuSans-30" transform="translate(343.720703 0.78125)"/>
      <use xlink:href="#DejaVuSans-2e" transform="translate(407.34375 0.78125)"/>
      <use xlink:href="#DejaVuSans-39" transform="translate(439.130859 0.78125)"/>
     </g>
    </g>
   </g>
  </g>
 </g>
 <defs>
  <clipPath id="p8eea617706">
   <rect x="47.503125" y="14.599219" width="229.696875" height="160.244531"/>
  </clipPath>
 </defs>
</svg>
