<?xml version="1.0" encoding="utf-8" standalone="no"?>
<!DOCTYPE svg PUBLIC "-//W3C//DTD SVG 1.1//EN"
  "http://www.w3.org/Graphics/SVG/1.1/DTD/svg11.dtd">
<svg xmlns:xlink="http://www.w3.org/1999/xlink" width="288pt" height="216pt" viewBox="0 0 288 216" xmlns="http://www.w3.org/2000/svg" version="1.1">
 <metadata>
  <rdf:RDF xmlns:dc="http://purl.org/dc/elements/1.1/" xmlns:cc="http://creativecommons.org/ns#" xmlns:rdf="http://www.w3.org/1999/02/22-rdf-syntax-ns#">
   <cc:Work>
    <dc:type rdf:resource="http://purl.org/dc/dcmitype/StillImage"/>
    <dc:date>2024-05-27T13:30:04.706196</dc:date>
    <dc:format>image/svg+xml</dc:format>
    <dc:creator>
     <cc:Agent>
      <dc:title>Matplotlib v3.5.3, https://matplotlib.org/</dc:title>
     </cc:Agent>
    </dc:creator>
   </cc:Work>
  </rdf:RDF>
 </metadata>
 <defs>
  <style type="text/css">*{stroke-linejoin: round; stroke-linecap: butt}</style>
 </defs>
 <g id="figure_1">
  <g id="patch_1">
   <path d="M 0 216 
L 288 216 
L 288 0 
L 0 0 
L 0 216 
z
" style="fill: none"/>
  </g>
  <g id="axes_1">
   <g id="patch_2">
    <path d="M 44.203125 174.84375 
L 277.2 174.84375 
L 277.2 14.599219 
L 44.203125 14.599219 
L 44.203125 174.84375 
z
" style="fill: none"/>
   </g>
   <g id="matplotlib.axis_1">
    <g id="xtick_1">
     <g id="line2d_1">
      <defs>
       <path id="m163deb1797" d="M 0 0 
L 0 3.5 
" style="stroke: #000000; stroke-width: 0.8"/>
      </defs>
      <g>
       <use xlink:href="#m163deb1797" x="52.413944" y="174.84375" style="stroke: #000000; stroke-width: 0.8"/>
      </g>
     </g>
     <g id="text_1">
      <!-- 0.0 -->
      <g transform="translate(44.462382 189.442188)scale(0.1 -0.1)">
       <defs>
        <path id="DejaVuSans-30" d="M 2034 4250 
Q 1547 4250 1301 3770 
Q 1056 3291 1056 2328 
Q 1056 1369 1301 889 
Q 1547 409 2034 409 
Q 2525 409 2770 889 
Q 3016 1369 3016 2328 
Q 3016 3291 2770 3770 
Q 2525 4250 2034 4250 
z
M 2034 4750 
Q 2819 4750 3233 4129 
Q 3647 3509 3647 2328 
Q 3647 1150 3233 529 
Q 2819 -91 2034 -91 
Q 1250 -91 836 529 
Q 422 1150 422 2328 
Q 422 3509 836 4129 
Q 1250 4750 2034 4750 
z
" transform="scale(0.015625)"/>
        <path id="DejaVuSans-2e" d="M 684 794 
L 1344 794 
L 1344 0 
L 684 0 
L 684 794 
z
" transform="scale(0.015625)"/>
       </defs>
       <use xlink:href="#DejaVuSans-30"/>
       <use xlink:href="#DejaVuSans-2e" x="63.623047"/>
       <use xlink:href="#DejaVuSans-30" x="95.410156"/>
      </g>
     </g>
    </g>
    <g id="xtick_2">
     <g id="line2d_2">
      <g>
       <use xlink:href="#m163deb1797" x="100.012897" y="174.84375" style="stroke: #000000; stroke-width: 0.8"/>
      </g>
     </g>
     <g id="text_2">
      <!-- 0.2 -->
      <g transform="translate(92.061335 189.442188)scale(0.1 -0.1)">
       <defs>
        <path id="DejaVuSans-32" d="M 1228 531 
L 3431 531 
L 3431 0 
L 469 0 
L 469 531 
Q 828 903 1448 1529 
Q 2069 2156 2228 2338 
Q 2531 2678 2651 2914 
Q 2772 3150 2772 3378 
Q 2772 3750 2511 3984 
Q 2250 4219 1831 4219 
Q 1534 4219 1204 4116 
Q 875 4013 500 3803 
L 500 4441 
Q 881 4594 1212 4672 
Q 1544 4750 1819 4750 
Q 2544 4750 2975 4387 
Q 3406 4025 3406 3419 
Q 3406 3131 3298 2873 
Q 3191 2616 2906 2266 
Q 2828 2175 2409 1742 
Q 1991 1309 1228 531 
z
" transform="scale(0.015625)"/>
       </defs>
       <use xlink:href="#DejaVuSans-30"/>
       <use xlink:href="#DejaVuSans-2e" x="63.623047"/>
       <use xlink:href="#DejaVuSans-32" x="95.410156"/>
      </g>
     </g>
    </g>
    <g id="xtick_3">
     <g id="line2d_3">
      <g>
       <use xlink:href="#m163deb1797" x="147.61185" y="174.84375" style="stroke: #000000; stroke-width: 0.8"/>
      </g>
     </g>
     <g id="text_3">
      <!-- 0.4 -->
      <g transform="translate(139.660288 189.442188)scale(0.1 -0.1)">
       <defs>
        <path id="DejaVuSans-34" d="M 2419 4116 
L 825 1625 
L 2419 1625 
L 2419 4116 
z
M 2253 4666 
L 3047 4666 
L 3047 1625 
L 3713 1625 
L 3713 1100 
L 3047 1100 
L 3047 0 
L 2419 0 
L 2419 1100 
L 313 1100 
L 313 1709 
L 2253 4666 
z
" transform="scale(0.015625)"/>
       </defs>
       <use xlink:href="#DejaVuSans-30"/>
       <use xlink:href="#DejaVuSans-2e" x="63.623047"/>
       <use xlink:href="#DejaVuSans-34" x="95.410156"/>
      </g>
     </g>
    </g>
    <g id="xtick_4">
     <g id="line2d_4">
      <g>
       <use xlink:href="#m163deb1797" x="195.210803" y="174.84375" style="stroke: #000000; stroke-width: 0.8"/>
      </g>
     </g>
     <g id="text_4">
      <!-- 0.6 -->
      <g transform="translate(187.259241 189.442188)scale(0.1 -0.1)">
       <defs>
        <path id="DejaVuSans-36" d="M 2113 2584 
Q 1688 2584 1439 2293 
Q 1191 2003 1191 1497 
Q 1191 994 1439 701 
Q 1688 409 2113 409 
Q 2538 409 2786 701 
Q 3034 994 3034 1497 
Q 3034 2003 2786 2293 
Q 2538 2584 2113 2584 
z
M 3366 4563 
L 3366 3988 
Q 3128 4100 2886 4159 
Q 2644 4219 2406 4219 
Q 1781 4219 1451 3797 
Q 1122 3375 1075 2522 
Q 1259 2794 1537 2939 
Q 1816 3084 2150 3084 
Q 2853 3084 3261 2657 
Q 3669 2231 3669 1497 
Q 3669 778 3244 343 
Q 2819 -91 2113 -91 
Q 1303 -91 875 529 
Q 447 1150 447 2328 
Q 447 3434 972 4092 
Q 1497 4750 2381 4750 
Q 2619 4750 2861 4703 
Q 3103 4656 3366 4563 
z
" transform="scale(0.015625)"/>
       </defs>
       <use xlink:href="#DejaVuSans-30"/>
       <use xlink:href="#DejaVuSans-2e" x="63.623047"/>
       <use xlink:href="#DejaVuSans-36" x="95.410156"/>
      </g>
     </g>
    </g>
    <g id="xtick_5">
     <g id="line2d_5">
      <g>
       <use xlink:href="#m163deb1797" x="242.809756" y="174.84375" style="stroke: #000000; stroke-width: 0.8"/>
      </g>
     </g>
     <g id="text_5">
      <!-- 0.8 -->
      <g transform="translate(234.858194 189.442188)scale(0.1 -0.1)">
       <defs>
        <path id="DejaVuSans-38" d="M 2034 2216 
Q 1584 2216 1326 1975 
Q 1069 1734 1069 1313 
Q 1069 891 1326 650 
Q 1584 409 2034 409 
Q 2484 409 2743 651 
Q 3003 894 3003 1313 
Q 3003 1734 2745 1975 
Q 2488 2216 2034 2216 
z
M 1403 2484 
Q 997 2584 770 2862 
Q 544 3141 544 3541 
Q 544 4100 942 4425 
Q 1341 4750 2034 4750 
Q 2731 4750 3128 4425 
Q 3525 4100 3525 3541 
Q 3525 3141 3298 2862 
Q 3072 2584 2669 2484 
Q 3125 2378 3379 2068 
Q 3634 1759 3634 1313 
Q 3634 634 3220 271 
Q 2806 -91 2034 -91 
Q 1263 -91 848 271 
Q 434 634 434 1313 
Q 434 1759 690 2068 
Q 947 2378 1403 2484 
z
M 1172 3481 
Q 1172 3119 1398 2916 
Q 1625 2713 2034 2713 
Q 2441 2713 2670 2916 
Q 2900 3119 2900 3481 
Q 2900 3844 2670 4047 
Q 2441 4250 2034 4250 
Q 1625 4250 1398 4047 
Q 1172 3844 1172 3481 
z
" transform="scale(0.015625)"/>
       </defs>
       <use xlink:href="#DejaVuSans-30"/>
       <use xlink:href="#DejaVuSans-2e" x="63.623047"/>
       <use xlink:href="#DejaVuSans-38" x="95.410156"/>
      </g>
     </g>
    </g>
    <g id="text_6">
     <!-- r -->
     <g transform="translate(158.646094 203.120313)scale(0.1 -0.1)">
      <defs>
       <path id="DejaVuSans-72" d="M 2631 2963 
Q 2534 3019 2420 3045 
Q 2306 3072 2169 3072 
Q 1681 3072 1420 2755 
Q 1159 2438 1159 1844 
L 1159 0 
L 581 0 
L 581 3500 
L 1159 3500 
L 1159 2956 
Q 1341 3275 1631 3429 
Q 1922 3584 2338 3584 
Q 2397 3584 2469 3576 
Q 2541 3569 2628 3553 
L 2631 2963 
z
" transform="scale(0.015625)"/>
      </defs>
      <use xlink:href="#DejaVuSans-72"/>
     </g>
    </g>
   </g>
   <g id="matplotlib.axis_2">
    <g id="ytick_1">
     <g id="line2d_6">
      <defs>
       <path id="m940cd466d2" d="M 0 0 
L -3.5 0 
" style="stroke: #000000; stroke-width: 0.8"/>
      </defs>
      <g>
       <use xlink:href="#m940cd466d2" x="44.203125" y="169.181761" style="stroke: #000000; stroke-width: 0.8"/>
      </g>
     </g>
     <g id="text_7">
      <!-- 0 -->
      <g transform="translate(30.840625 172.98098)scale(0.1 -0.1)">
       <use xlink:href="#DejaVuSans-30"/>
      </g>
     </g>
    </g>
    <g id="ytick_2">
     <g id="line2d_7">
      <g>
       <use xlink:href="#m940cd466d2" x="44.203125" y="143.418004" style="stroke: #000000; stroke-width: 0.8"/>
      </g>
     </g>
     <g id="text_8">
      <!-- 5 -->
      <g transform="translate(30.840625 147.217223)scale(0.1 -0.1)">
       <defs>
        <path id="DejaVuSans-35" d="M 691 4666 
L 3169 4666 
L 3169 4134 
L 1269 4134 
L 1269 2991 
Q 1406 3038 1543 3061 
Q 1681 3084 1819 3084 
Q 2600 3084 3056 2656 
Q 3513 2228 3513 1497 
Q 3513 744 3044 326 
Q 2575 -91 1722 -91 
Q 1428 -91 1123 -41 
Q 819 9 494 109 
L 494 744 
Q 775 591 1075 516 
Q 1375 441 1709 441 
Q 2250 441 2565 725 
Q 2881 1009 2881 1497 
Q 2881 1984 2565 2268 
Q 2250 2553 1709 2553 
Q 1456 2553 1204 2497 
Q 953 2441 691 2322 
L 691 4666 
z
" transform="scale(0.015625)"/>
       </defs>
       <use xlink:href="#DejaVuSans-35"/>
      </g>
     </g>
    </g>
    <g id="ytick_3">
     <g id="line2d_8">
      <g>
       <use xlink:href="#m940cd466d2" x="44.203125" y="117.654247" style="stroke: #000000; stroke-width: 0.8"/>
      </g>
     </g>
     <g id="text_9">
      <!-- 10 -->
      <g transform="translate(24.478125 121.453466)scale(0.1 -0.1)">
       <defs>
        <path id="DejaVuSans-31" d="M 794 531 
L 1825 531 
L 1825 4091 
L 703 3866 
L 703 4441 
L 1819 4666 
L 2450 4666 
L 2450 531 
L 3481 531 
L 3481 0 
L 794 0 
L 794 531 
z
" transform="scale(0.015625)"/>
       </defs>
       <use xlink:href="#DejaVuSans-31"/>
       <use xlink:href="#DejaVuSans-30" x="63.623047"/>
      </g>
     </g>
    </g>
    <g id="ytick_4">
     <g id="line2d_9">
      <g>
       <use xlink:href="#m940cd466d2" x="44.203125" y="91.89049" style="stroke: #000000; stroke-width: 0.8"/>
      </g>
     </g>
     <g id="text_10">
      <!-- 15 -->
      <g transform="translate(24.478125 95.689709)scale(0.1 -0.1)">
       <use xlink:href="#DejaVuSans-31"/>
       <use xlink:href="#DejaVuSans-35" x="63.623047"/>
      </g>
     </g>
    </g>
    <g id="ytick_5">
     <g id="line2d_10">
      <g>
       <use xlink:href="#m940cd466d2" x="44.203125" y="66.126733" style="stroke: #000000; stroke-width: 0.8"/>
      </g>
     </g>
     <g id="text_11">
      <!-- 20 -->
      <g transform="translate(24.478125 69.925952)scale(0.1 -0.1)">
       <use xlink:href="#DejaVuSans-32"/>
       <use xlink:href="#DejaVuSans-30" x="63.623047"/>
      </g>
     </g>
    </g>
    <g id="ytick_6">
     <g id="line2d_11">
      <g>
       <use xlink:href="#m940cd466d2" x="44.203125" y="40.362976" style="stroke: #000000; stroke-width: 0.8"/>
      </g>
     </g>
     <g id="text_12">
      <!-- 25 -->
      <g transform="translate(24.478125 44.162195)scale(0.1 -0.1)">
       <use xlink:href="#DejaVuSans-32"/>
       <use xlink:href="#DejaVuSans-35" x="63.623047"/>
      </g>
     </g>
    </g>
    <g id="ytick_7">
     <g id="line2d_12">
      <g>
       <use xlink:href="#m940cd466d2" x="44.203125" y="14.599219" style="stroke: #000000; stroke-width: 0.8"/>
      </g>
     </g>
     <g id="text_13">
      <!-- 30 -->
      <g transform="translate(24.478125 18.398438)scale(0.1 -0.1)">
       <defs>
        <path id="DejaVuSans-33" d="M 2597 2516 
Q 3050 2419 3304 2112 
Q 3559 1806 3559 1356 
Q 3559 666 3084 287 
Q 2609 -91 1734 -91 
Q 1441 -91 1130 -33 
Q 819 25 488 141 
L 488 750 
Q 750 597 1062 519 
Q 1375 441 1716 441 
Q 2309 441 2620 675 
Q 2931 909 2931 1356 
Q 2931 1769 2642 2001 
Q 2353 2234 1838 2234 
L 1294 2234 
L 1294 2753 
L 1863 2753 
Q 2328 2753 2575 2939 
Q 2822 3125 2822 3475 
Q 2822 3834 2567 4026 
Q 2313 4219 1838 4219 
Q 1578 4219 1281 4162 
Q 984 4106 628 3988 
L 628 4550 
Q 988 4650 1302 4700 
Q 1616 4750 1894 4750 
Q 2613 4750 3031 4423 
Q 3450 4097 3450 3541 
Q 3450 3153 3228 2886 
Q 3006 2619 2597 2516 
z
" transform="scale(0.015625)"/>
       </defs>
       <use xlink:href="#DejaVuSans-33"/>
       <use xlink:href="#DejaVuSans-30" x="63.623047"/>
      </g>
     </g>
    </g>
    <g id="text_14">
     <!-- $R_0$ -->
     <g transform="translate(18.398438 100.571484)rotate(-90)scale(0.1 -0.1)">
      <defs>
       <path id="DejaVuSans-Oblique-52" d="M 1613 4147 
L 1294 2491 
L 2106 2491 
Q 2584 2491 2879 2755 
Q 3175 3019 3175 3444 
Q 3175 3784 2976 3965 
Q 2778 4147 2406 4147 
L 1613 4147 
z
M 2772 2241 
Q 2972 2194 3105 2009 
Q 3238 1825 3413 1275 
L 3809 0 
L 3144 0 
L 2778 1197 
Q 2638 1659 2453 1815 
Q 2269 1972 1888 1972 
L 1191 1972 
L 806 0 
L 172 0 
L 1081 4666 
L 2503 4666 
Q 3150 4666 3495 4373 
Q 3841 4081 3841 3531 
Q 3841 3044 3547 2687 
Q 3253 2331 2772 2241 
z
" transform="scale(0.015625)"/>
      </defs>
      <use xlink:href="#DejaVuSans-Oblique-52" transform="translate(0 0.09375)"/>
      <use xlink:href="#DejaVuSans-30" transform="translate(69.482422 -16.3125)scale(0.7)"/>
     </g>
    </g>
   </g>
   <g id="line2d_13">
    <path d="M 54.793892 169.181761 
L 55.010251 169.181761 
L 55.22661 169.181761 
L 55.442969 169.181761 
L 55.659328 169.181761 
L 55.875686 169.181409 
L 56.092045 169.16779 
L 56.308404 169.071293 
L 56.524763 168.787104 
L 56.741122 168.261588 
L 56.957481 167.506161 
L 57.17384 166.562739 
L 57.390199 165.476682 
L 57.606557 164.286006 
L 57.822916 163.01954 
L 58.039275 161.69824 
L 58.255634 160.337113 
L 58.471993 158.946885 
L 58.688352 157.53527 
L 58.904711 156.107867 
L 59.12107 154.668787 
L 59.337428 153.221082 
L 59.553787 151.76705 
L 59.770146 150.308436 
L 59.986505 148.846579 
L 60.202864 147.382518 
L 60.419223 145.917058 
L 60.635582 144.450831 
L 60.851941 142.984331 
L 61.068299 141.517941 
L 61.284658 140.051958 
L 61.501017 138.586609 
L 61.717376 137.122062 
L 61.933735 135.658438 
L 62.150094 134.195818 
L 62.366453 132.73425 
L 62.582812 131.273756 
L 62.799171 129.814334 
L 63.015529 128.355964 
L 63.231888 126.898613 
L 63.448247 125.442235 
L 63.664606 123.986777 
L 63.880965 122.532178 
L 64.097324 121.078379 
L 64.313683 119.625315 
L 64.530042 118.172929 
L 64.7464 116.721165 
L 64.962759 115.269977 
L 65.179118 113.819325 
L 65.395477 112.369184 
L 65.611836 110.919542 
L 65.828195 109.470406 
L 66.044554 108.021801 
L 66.260913 106.573774 
L 66.477271 105.1264 
L 66.69363 103.67978 
L 66.909989 102.234047 
L 67.126348 100.78937 
L 67.342707 99.345957 
L 67.559066 97.90406 
L 67.775425 96.463975 
L 67.991784 95.026054 
L 68.208142 93.590705 
L 68.424501 92.158397 
L 68.64086 90.72967 
L 68.857219 89.305139 
L 69.073578 87.885502 
L 69.289937 86.471545 
L 69.506296 85.064155 
L 69.722655 83.664326 
L 69.939013 82.27317 
L 70.155372 80.891925 
L 70.371731 79.521969 
L 70.58809 78.164831 
L 70.804449 76.822202 
L 71.020808 75.495948 
L 71.237167 74.188124 
L 71.453526 72.900983 
L 71.669884 71.636992 
L 71.886243 70.398838 
L 72.102602 69.189438 
L 72.318961 68.011943 
L 72.53532 66.869731 
L 72.751679 65.766405 
L 72.968038 64.705763 
L 73.184397 63.691767 
L 73.400755 62.728485 
L 73.617114 61.820006 
L 73.833473 60.970327 
L 74.049832 60.183197 
L 74.266191 59.461914 
L 74.48255 58.809086 
L 74.698909 58.226337 
L 74.915268 57.714011 
L 75.131627 57.2709 
L 75.347985 56.894083 
L 75.564344 56.578975 
L 75.780703 56.31967 
L 75.997062 56.10955 
L 76.213421 55.941984 
" clip-path="url(#pb869caf6aa)" style="fill: none; stroke: #1f77b4; stroke-width: 2; stroke-linecap: square"/>
   </g>
   <g id="line2d_14">
    <path d="M 54.793892 169.181761 
L 55.971846 169.181761 
L 57.1498 169.181761 
L 58.327754 169.181761 
L 59.505708 169.181761 
L 60.683661 169.181761 
L 61.861615 169.181761 
L 63.039569 169.181761 
L 64.217523 169.181761 
L 65.395477 169.181761 
L 66.573431 169.181761 
L 67.751385 169.181761 
L 68.929339 169.181761 
L 70.107293 169.181753 
L 71.285246 169.180037 
L 72.4632 169.152095 
L 73.641154 169.022324 
L 74.819108 168.712875 
L 75.997062 168.198745 
L 77.175016 167.500253 
L 78.35297 166.655231 
L 79.530924 165.701402 
L 80.708878 164.669926 
L 81.886831 163.584581 
L 83.064785 162.462901 
L 84.242739 161.317652 
L 85.420693 160.158119 
L 86.598647 158.991091 
L 87.776601 157.82157 
L 88.954555 156.653285 
L 90.132509 155.489041 
L 91.310463 154.330976 
L 92.488416 153.180737 
L 93.66637 152.039606 
L 94.844324 150.908594 
L 96.022278 149.788502 
L 97.200232 148.679977 
L 98.378186 147.583542 
L 99.55614 146.499627 
L 100.734094 145.428587 
L 101.912048 144.370722 
L 103.090001 143.326284 
L 104.267955 142.295491 
L 105.445909 141.278535 
L 106.623863 140.275586 
L 107.801817 139.286797 
L 108.979771 138.312314 
L 110.157725 137.352274 
L 111.335679 136.40681 
L 112.513633 135.476056 
L 113.691586 134.560148 
L 114.86954 133.659226 
L 116.047494 132.773441 
L 117.225448 131.902951 
L 118.403402 131.047926 
L 119.581356 130.208552 
L 120.75931 129.385032 
L 121.937264 128.577586 
L 123.115218 127.786459 
L 124.293171 127.011915 
L 125.471125 126.25425 
L 126.649079 125.513786 
L 127.827033 124.790876 
L 129.004987 124.08591 
L 130.182941 123.399316 
L 131.360895 122.731564 
L 132.538849 122.083166 
L 133.716803 121.454688 
L 134.894756 120.846745 
L 136.07271 120.260013 
L 137.250664 119.695227 
L 138.428618 119.153191 
L 139.606572 118.634784 
L 140.784526 118.140959 
L 141.96248 117.672755 
L 143.140434 117.231299 
L 144.318388 116.817815 
L 145.496341 116.433626 
L 146.674295 116.080159 
L 147.852249 115.758952 
L 149.030203 115.471652 
L 150.208157 115.220017 
L 151.386111 115.005912 
L 152.564065 114.831301 
L 153.742019 114.698229 
L 154.919973 114.608802 
L 156.097926 114.565147 
L 157.27588 114.569361 
L 158.453834 114.623436 
L 159.631788 114.729164 
L 160.809742 114.888006 
L 161.987696 115.100933 
L 163.16565 115.368232 
L 164.343604 115.689303 
L 165.521557 116.062461 
L 166.699511 116.48481 
L 167.877465 116.952263 
L 169.055419 117.459791 
L 170.233373 118.0019 
L 171.411327 118.573196 
" clip-path="url(#pb869caf6aa)" style="fill: none; stroke: #ff7f0e; stroke-width: 2; stroke-linecap: square"/>
   </g>
   <g id="line2d_15">
    <path d="M 54.793892 169.181761 
L 56.933441 169.181761 
L 59.07299 169.181761 
L 61.212539 169.181761 
L 63.352088 169.181761 
L 65.491637 169.181761 
L 67.631185 169.181761 
L 69.770734 169.181761 
L 71.910283 169.181761 
L 74.049832 169.181761 
L 76.189381 169.181761 
L 78.32893 169.181761 
L 80.468479 169.181761 
L 82.608028 169.181761 
L 84.747577 169.181761 
L 86.887126 169.181747 
L 89.026674 169.180473 
L 91.166223 169.16448 
L 93.305772 169.094114 
L 95.445321 168.922822 
L 97.58487 168.626451 
L 99.724419 168.207574 
L 101.863968 167.684408 
L 104.003517 167.080041 
L 106.143066 166.41645 
L 108.282614 165.712239 
L 110.422163 164.982278 
L 112.561712 164.23813 
L 114.701261 163.48867 
L 116.84081 162.74069 
L 118.980359 161.999391 
L 121.119908 161.268777 
L 123.259457 160.551949 
L 125.399006 159.851327 
L 127.538555 159.168819 
L 129.678103 158.505937 
L 131.817652 157.863897 
L 133.957201 157.243681 
L 136.09675 156.646094 
L 138.236299 156.071801 
L 140.375848 155.521358 
L 142.515397 154.995236 
L 144.654946 154.493836 
L 146.794495 154.017509 
L 148.934044 153.566562 
L 151.073592 153.141267 
L 153.213141 152.741871 
L 155.35269 152.368601 
L 157.492239 152.021664 
L 159.631788 151.701258 
L 161.771337 151.407566 
L 163.910886 151.140767 
L 166.050435 150.901032 
L 168.189984 150.688526 
L 170.329533 150.503413 
L 172.469081 150.34585 
L 174.60863 150.215992 
L 176.748179 150.113994 
L 178.887728 150.040003 
L 181.027277 149.994167 
L 183.166826 149.976626 
L 185.306375 149.987518 
L 187.445924 150.026974 
L 189.585473 150.095114 
L 191.725022 150.192054 
L 193.86457 150.317892 
L 196.004119 150.472717 
L 198.143668 150.656596 
L 200.283217 150.869579 
L 202.422766 151.111686 
L 204.562315 151.382911 
L 206.701864 151.683211 
L 208.841413 152.012499 
L 210.980962 152.370641 
L 213.120511 152.757441 
L 215.260059 153.172639 
L 217.399608 153.615892 
L 219.539157 154.086764 
L 221.678706 154.58471 
L 223.818255 155.109061 
L 225.957804 155.658999 
L 228.097353 156.233536 
L 230.236902 156.831491 
L 232.376451 157.451453 
L 234.515999 158.091754 
L 236.655548 158.750426 
L 238.795097 159.425162 
L 240.934646 160.11327 
L 243.074195 160.811624 
L 245.213744 161.516618 
L 247.353293 162.224115 
L 249.492842 162.929414 
L 251.632391 163.627219 
L 253.77194 164.311645 
L 255.911488 164.976248 
L 258.051037 165.61412 
L 260.190586 166.218035 
L 262.330135 166.780658 
L 264.469684 167.294809 
L 266.609233 167.75375 
" clip-path="url(#pb869caf6aa)" style="fill: none; stroke: #2ca02c; stroke-width: 2; stroke-linecap: square"/>
   </g>
   <g id="PathCollection_1">
    <defs>
     <path id="mc41b9d469d" d="M 0 3 
C 0.795609 3 1.55874 2.683901 2.12132 2.12132 
C 2.683901 1.55874 3 0.795609 3 0 
C 3 -0.795609 2.683901 -1.55874 2.12132 -2.12132 
C 1.55874 -2.683901 0.795609 -3 0 -3 
C -0.795609 -3 -1.55874 -2.683901 -2.12132 -2.12132 
C -2.683901 -1.55874 -3 -0.795609 -3 0 
C -3 0.795609 -2.683901 1.55874 -2.12132 2.12132 
C -1.55874 2.683901 -0.795609 3 0 3 
z
" style="stroke: #000000"/>
    </defs>
    <g clip-path="url(#pb869caf6aa)">
     <use xlink:href="#mc41b9d469d" x="76.213421" y="55.941984" style="stroke: #000000"/>
    </g>
   </g>
   <g id="text_15">
    <!-- (0.1,21.977) -->
    <g transform="translate(66.213421 48.939743)scale(0.1 -0.1)">
     <defs>
      <path id="DejaVuSans-28" d="M 1984 4856 
Q 1566 4138 1362 3434 
Q 1159 2731 1159 2009 
Q 1159 1288 1364 580 
Q 1569 -128 1984 -844 
L 1484 -844 
Q 1016 -109 783 600 
Q 550 1309 550 2009 
Q 550 2706 781 3412 
Q 1013 4119 1484 4856 
L 1984 4856 
z
" transform="scale(0.015625)"/>
      <path id="DejaVuSans-2c" d="M 750 794 
L 1409 794 
L 1409 256 
L 897 -744 
L 494 -744 
L 750 256 
L 750 794 
z
" transform="scale(0.015625)"/>
      <path id="DejaVuSans-39" d="M 703 97 
L 703 672 
Q 941 559 1184 500 
Q 1428 441 1663 441 
Q 2288 441 2617 861 
Q 2947 1281 2994 2138 
Q 2813 1869 2534 1725 
Q 2256 1581 1919 1581 
Q 1219 1581 811 2004 
Q 403 2428 403 3163 
Q 403 3881 828 4315 
Q 1253 4750 1959 4750 
Q 2769 4750 3195 4129 
Q 3622 3509 3622 2328 
Q 3622 1225 3098 567 
Q 2575 -91 1691 -91 
Q 1453 -91 1209 -44 
Q 966 3 703 97 
z
M 1959 2075 
Q 2384 2075 2632 2365 
Q 2881 2656 2881 3163 
Q 2881 3666 2632 3958 
Q 2384 4250 1959 4250 
Q 1534 4250 1286 3958 
Q 1038 3666 1038 3163 
Q 1038 2656 1286 2365 
Q 1534 2075 1959 2075 
z
" transform="scale(0.015625)"/>
      <path id="DejaVuSans-37" d="M 525 4666 
L 3525 4666 
L 3525 4397 
L 1831 0 
L 1172 0 
L 2766 4134 
L 525 4134 
L 525 4666 
z
" transform="scale(0.015625)"/>
      <path id="DejaVuSans-29" d="M 513 4856 
L 1013 4856 
Q 1481 4119 1714 3412 
Q 1947 2706 1947 2009 
Q 1947 1309 1714 600 
Q 1481 -109 1013 -844 
L 513 -844 
Q 928 -128 1133 580 
Q 1338 1288 1338 2009 
Q 1338 2731 1133 3434 
Q 928 4138 513 4856 
z
" transform="scale(0.015625)"/>
     </defs>
     <use xlink:href="#DejaVuSans-28"/>
     <use xlink:href="#DejaVuSans-30" x="39.013672"/>
     <use xlink:href="#DejaVuSans-2e" x="102.636719"/>
     <use xlink:href="#DejaVuSans-31" x="134.423828"/>
     <use xlink:href="#DejaVuSans-2c" x="198.046875"/>
     <use xlink:href="#DejaVuSans-32" x="229.833984"/>
     <use xlink:href="#DejaVuSans-31" x="293.457031"/>
     <use xlink:href="#DejaVuSans-2e" x="357.080078"/>
     <use xlink:href="#DejaVuSans-39" x="388.867188"/>
     <use xlink:href="#DejaVuSans-37" x="452.490234"/>
     <use xlink:href="#DejaVuSans-37" x="516.113281"/>
     <use xlink:href="#DejaVuSans-29" x="579.736328"/>
    </g>
   </g>
   <g id="PathCollection_2">
    <g clip-path="url(#pb869caf6aa)">
     <use xlink:href="#mc41b9d469d" x="156.097926" y="114.565147" style="stroke: #000000"/>
    </g>
   </g>
   <g id="text_16">
    <!-- (0.44,10.6) -->
    <g transform="translate(117.131641 107.562596)scale(0.1 -0.1)">
     <use xlink:href="#DejaVuSans-28"/>
     <use xlink:href="#DejaVuSans-30" x="39.013672"/>
     <use xlink:href="#DejaVuSans-2e" x="102.636719"/>
     <use xlink:href="#DejaVuSans-34" x="134.423828"/>
     <use xlink:href="#DejaVuSans-34" x="198.046875"/>
     <use xlink:href="#DejaVuSans-2c" x="261.669922"/>
     <use xlink:href="#DejaVuSans-31" x="293.457031"/>
     <use xlink:href="#DejaVuSans-30" x="357.080078"/>
     <use xlink:href="#DejaVuSans-2e" x="420.703125"/>
     <use xlink:href="#DejaVuSans-36" x="452.490234"/>
     <use xlink:href="#DejaVuSans-29" x="516.113281"/>
    </g>
   </g>
   <g id="PathCollection_3">
    <g clip-path="url(#pb869caf6aa)">
     <use xlink:href="#mc41b9d469d" x="183.166826" y="149.976626" style="stroke: #000000"/>
    </g>
   </g>
   <g id="text_17">
    <!-- (0.55,3.727) -->
    <g transform="translate(153.311065 142.977457)scale(0.1 -0.1)">
     <use xlink:href="#DejaVuSans-28"/>
     <use xlink:href="#DejaVuSans-30" x="39.013672"/>
     <use xlink:href="#DejaVuSans-2e" x="102.636719"/>
     <use xlink:href="#DejaVuSans-35" x="134.423828"/>
     <use xlink:href="#DejaVuSans-35" x="198.046875"/>
     <use xlink:href="#DejaVuSans-2c" x="261.669922"/>
     <use xlink:href="#DejaVuSans-33" x="293.457031"/>
     <use xlink:href="#DejaVuSans-2e" x="357.080078"/>
     <use xlink:href="#DejaVuSans-37" x="388.867188"/>
     <use xlink:href="#DejaVuSans-32" x="452.490234"/>
     <use xlink:href="#DejaVuSans-37" x="516.113281"/>
     <use xlink:href="#DejaVuSans-29" x="579.736328"/>
    </g>
   </g>
   <g id="patch_3">
    <path d="M 44.203125 174.84375 
L 44.203125 14.599219 
" style="fill: none; stroke: #000000; stroke-width: 0.8; stroke-linejoin: miter; stroke-linecap: square"/>
   </g>
   <g id="patch_4">
    <path d="M 277.2 174.84375 
L 277.2 14.599219 
" style="fill: none; stroke: #000000; stroke-width: 0.8; stroke-linejoin: miter; stroke-linecap: square"/>
   </g>
   <g id="patch_5">
    <path d="M 44.203125 174.84375 
L 277.2 174.84375 
" style="fill: none; stroke: #000000; stroke-width: 0.8; stroke-linejoin: miter; stroke-linecap: square"/>
   </g>
   <g id="patch_6">
    <path d="M 44.203125 14.599219 
L 277.2 14.599219 
" style="fill: none; stroke: #000000; stroke-width: 0.8; stroke-linejoin: miter; stroke-linecap: square"/>
   </g>
   <g id="legend_1">
    <g id="patch_7">
     <path d="M 187.9 66.633594 
L 270.2 66.633594 
Q 272.2 66.633594 272.2 64.633594 
L 272.2 21.599219 
Q 272.2 19.599219 270.2 19.599219 
L 187.9 19.599219 
Q 185.9 19.599219 185.9 21.599219 
L 185.9 64.633594 
Q 185.9 66.633594 187.9 66.633594 
z
" style="fill: #ffffff; opacity: 0.8; stroke: #cccccc; stroke-linejoin: miter"/>
    </g>
    <g id="line2d_16">
     <path d="M 189.9 27.697656 
L 199.9 27.697656 
L 209.9 27.697656 
" style="fill: none; stroke: #1f77b4; stroke-width: 2; stroke-linecap: square"/>
    </g>
    <g id="text_18">
     <!-- $r_{max}$ = 0.1 -->
     <g transform="translate(217.9 31.197656)scale(0.1 -0.1)">
      <defs>
       <path id="DejaVuSans-Oblique-72" d="M 2853 2969 
Q 2766 3016 2653 3041 
Q 2541 3066 2413 3066 
Q 1953 3066 1609 2717 
Q 1266 2369 1153 1784 
L 800 0 
L 225 0 
L 909 3500 
L 1484 3500 
L 1375 2956 
Q 1603 3259 1920 3421 
Q 2238 3584 2597 3584 
Q 2691 3584 2781 3573 
Q 2872 3563 2963 3538 
L 2853 2969 
z
" transform="scale(0.015625)"/>
       <path id="DejaVuSans-Oblique-6d" d="M 5747 2113 
L 5338 0 
L 4763 0 
L 5166 2094 
Q 5191 2228 5203 2325 
Q 5216 2422 5216 2491 
Q 5216 2772 5059 2928 
Q 4903 3084 4622 3084 
Q 4203 3084 3875 2770 
Q 3547 2456 3450 1953 
L 3066 0 
L 2491 0 
L 2900 2094 
Q 2925 2209 2937 2307 
Q 2950 2406 2950 2484 
Q 2950 2769 2794 2926 
Q 2638 3084 2363 3084 
Q 1938 3084 1609 2770 
Q 1281 2456 1184 1953 
L 800 0 
L 225 0 
L 909 3500 
L 1484 3500 
L 1375 2956 
Q 1609 3263 1923 3423 
Q 2238 3584 2597 3584 
Q 2978 3584 3223 3384 
Q 3469 3184 3519 2828 
Q 3781 3197 4126 3390 
Q 4472 3584 4856 3584 
Q 5306 3584 5551 3325 
Q 5797 3066 5797 2591 
Q 5797 2488 5784 2364 
Q 5772 2241 5747 2113 
z
" transform="scale(0.015625)"/>
       <path id="DejaVuSans-Oblique-61" d="M 3438 1997 
L 3047 0 
L 2472 0 
L 2578 531 
Q 2325 219 2001 64 
Q 1678 -91 1281 -91 
Q 834 -91 548 182 
Q 263 456 263 884 
Q 263 1497 752 1853 
Q 1241 2209 2100 2209 
L 2900 2209 
L 2931 2363 
Q 2938 2388 2941 2417 
Q 2944 2447 2944 2509 
Q 2944 2788 2717 2942 
Q 2491 3097 2081 3097 
Q 1800 3097 1504 3025 
Q 1209 2953 897 2809 
L 997 3341 
Q 1322 3463 1633 3523 
Q 1944 3584 2234 3584 
Q 2853 3584 3176 3315 
Q 3500 3047 3500 2534 
Q 3500 2431 3484 2292 
Q 3469 2153 3438 1997 
z
M 2816 1759 
L 2241 1759 
Q 1534 1759 1195 1570 
Q 856 1381 856 984 
Q 856 709 1029 553 
Q 1203 397 1509 397 
Q 1978 397 2328 733 
Q 2678 1069 2791 1631 
L 2816 1759 
z
" transform="scale(0.015625)"/>
       <path id="DejaVuSans-Oblique-78" d="M 3841 3500 
L 2234 1784 
L 3219 0 
L 2559 0 
L 1819 1388 
L 531 0 
L -166 0 
L 1556 1844 
L 641 3500 
L 1300 3500 
L 1972 2234 
L 3144 3500 
L 3841 3500 
z
" transform="scale(0.015625)"/>
       <path id="DejaVuSans-20" transform="scale(0.015625)"/>
       <path id="DejaVuSans-3d" d="M 678 2906 
L 4684 2906 
L 4684 2381 
L 678 2381 
L 678 2906 
z
M 678 1631 
L 4684 1631 
L 4684 1100 
L 678 1100 
L 678 1631 
z
" transform="scale(0.015625)"/>
      </defs>
      <use xlink:href="#DejaVuSans-Oblique-72" transform="translate(0 0.78125)"/>
      <use xlink:href="#DejaVuSans-Oblique-6d" transform="translate(41.113281 -15.625)scale(0.7)"/>
      <use xlink:href="#DejaVuSans-Oblique-61" transform="translate(109.301758 -15.625)scale(0.7)"/>
      <use xlink:href="#DejaVuSans-Oblique-78" transform="translate(152.197266 -15.625)scale(0.7)"/>
      <use xlink:href="#DejaVuSans-20" transform="translate(196.357422 0.78125)"/>
      <use xlink:href="#DejaVuSans-3d" transform="translate(228.144531 0.78125)"/>
      <use xlink:href="#DejaVuSans-20" transform="translate(311.933594 0.78125)"/>
      <use xlink:href="#DejaVuSans-30" transform="translate(343.720703 0.78125)"/>
      <use xlink:href="#DejaVuSans-2e" transform="translate(407.34375 0.78125)"/>
      <use xlink:href="#DejaVuSans-31" transform="translate(439.130859 0.78125)"/>
     </g>
    </g>
    <g id="line2d_17">
     <path d="M 189.9 42.375781 
L 199.9 42.375781 
L 209.9 42.375781 
" style="fill: none; stroke: #ff7f0e; stroke-width: 2; stroke-linecap: square"/>
    </g>
    <g id="text_19">
     <!-- $r_{max}$ = 0.5 -->
     <g transform="translate(217.9 45.875781)scale(0.1 -0.1)">
      <use xlink:href="#DejaVuSans-Oblique-72" transform="translate(0 0.78125)"/>
      <use xlink:href="#DejaVuSans-Oblique-6d" transform="translate(41.113281 -15.625)scale(0.7)"/>
      <use xlink:href="#DejaVuSans-Oblique-61" transform="translate(109.301758 -15.625)scale(0.7)"/>
      <use xlink:href="#DejaVuSans-Oblique-78" transform="translate(152.197266 -15.625)scale(0.7)"/>
      <use xlink:href="#DejaVuSans-20" transform="translate(196.357422 0.78125)"/>
      <use xlink:href="#DejaVuSans-3d" transform="translate(228.144531 0.78125)"/>
      <use xlink:href="#DejaVuSans-20" transform="translate(311.933594 0.78125)"/>
      <use xlink:href="#DejaVuSans-30" transform="translate(343.720703 0.78125)"/>
      <use xlink:href="#DejaVuSans-2e" transform="translate(407.34375 0.78125)"/>
      <use xlink:href="#DejaVuSans-35" transform="translate(439.130859 0.78125)"/>
     </g>
    </g>
    <g id="line2d_18">
     <path d="M 189.9 57.053906 
L 199.9 57.053906 
L 209.9 57.053906 
" style="fill: none; stroke: #2ca02c; stroke-width: 2; stroke-linecap: square"/>
    </g>
    <g id="text_20">
     <!-- $r_{max}$ = 0.9 -->
     <g transform="translate(217.9 60.553906)scale(0.1 -0.1)">
      <use xlink:href="#DejaVuSans-Oblique-72" transform="translate(0 0.78125)"/>
      <use xlink:href="#DejaVuSans-Oblique-6d" transform="translate(41.113281 -15.625)scale(0.7)"/>
      <use xlink:href="#DejaVuSans-Oblique-61" transform="translate(109.301758 -15.625)scale(0.7)"/>
      <use xlink:href="#DejaVuSans-Oblique-78" transform="translate(152.197266 -15.625)scale(0.7)"/>
      <use xlink:href="#DejaVuSans-20" transform="translate(196.357422 0.78125)"/>
      <use xlink:href="#DejaVuSans-3d" transform="translate(228.144531 0.78125)"/>
      <use xlink:href="#DejaVuSans-20" transform="translate(311.933594 0.78125)"/>
      <use xlink:href="#DejaVuSans-30" transform="translate(343.720703 0.78125)"/>
      <use xlink:href="#DejaVuSans-2e" transform="translate(407.34375 0.78125)"/>
      <use xlink:href="#DejaVuSans-39" transform="translate(439.130859 0.78125)"/>
     </g>
    </g>
   </g>
  </g>
 </g>
 <defs>
  <clipPath id="pb869caf6aa">
   <rect x="44.203125" y="14.599219" width="232.996875" height="160.244531"/>
  </clipPath>
 </defs>
</svg>
