<?xml version="1.0" encoding="utf-8" standalone="no"?>
<!DOCTYPE svg PUBLIC "-//W3C//DTD SVG 1.1//EN"
  "http://www.w3.org/Graphics/SVG/1.1/DTD/svg11.dtd">
<svg xmlns:xlink="http://www.w3.org/1999/xlink" width="288pt" height="216pt" viewBox="0 0 288 216" xmlns="http://www.w3.org/2000/svg" version="1.1">
 <metadata>
  <rdf:RDF xmlns:dc="http://purl.org/dc/elements/1.1/" xmlns:cc="http://creativecommons.org/ns#" xmlns:rdf="http://www.w3.org/1999/02/22-rdf-syntax-ns#">
   <cc:Work>
    <dc:type rdf:resource="http://purl.org/dc/dcmitype/StillImage"/>
    <dc:date>2024-01-01T15:37:46.974879</dc:date>
    <dc:format>image/svg+xml</dc:format>
    <dc:creator>
     <cc:Agent>
      <dc:title>Matplotlib v3.5.3, https://matplotlib.org/</dc:title>
     </cc:Agent>
    </dc:creator>
   </cc:Work>
  </rdf:RDF>
 </metadata>
 <defs>
  <style type="text/css">*{stroke-linejoin: round; stroke-linecap: butt}</style>
 </defs>
 <g id="figure_1">
  <g id="patch_1">
   <path d="M 0 216 
L 288 216 
L 288 0 
L 0 0 
L 0 216 
z
" style="fill: none"/>
  </g>
  <g id="axes_1">
   <g id="patch_2">
    <path d="M 53.74375 174.84375 
L 277.2 174.84375 
L 277.2 14.599219 
L 53.74375 14.599219 
L 53.74375 174.84375 
z
" style="fill: none"/>
   </g>
   <g id="matplotlib.axis_1">
    <g id="xtick_1">
     <g id="line2d_1">
      <defs>
       <path id="m6f83697158" d="M 0 0 
L 0 3.5 
" style="stroke: #000000; stroke-width: 0.8"/>
      </defs>
      <g>
       <use xlink:href="#m6f83697158" x="61.618357" y="174.84375" style="stroke: #000000; stroke-width: 0.8"/>
      </g>
     </g>
     <g id="text_1">
      <!-- 0.0 -->
      <g transform="translate(53.666795 189.442188)scale(0.1 -0.1)">
       <defs>
        <path id="DejaVuSans-30" d="M 2034 4250 
Q 1547 4250 1301 3770 
Q 1056 3291 1056 2328 
Q 1056 1369 1301 889 
Q 1547 409 2034 409 
Q 2525 409 2770 889 
Q 3016 1369 3016 2328 
Q 3016 3291 2770 3770 
Q 2525 4250 2034 4250 
z
M 2034 4750 
Q 2819 4750 3233 4129 
Q 3647 3509 3647 2328 
Q 3647 1150 3233 529 
Q 2819 -91 2034 -91 
Q 1250 -91 836 529 
Q 422 1150 422 2328 
Q 422 3509 836 4129 
Q 1250 4750 2034 4750 
z
" transform="scale(0.015625)"/>
        <path id="DejaVuSans-2e" d="M 684 794 
L 1344 794 
L 1344 0 
L 684 0 
L 684 794 
z
" transform="scale(0.015625)"/>
       </defs>
       <use xlink:href="#DejaVuSans-30"/>
       <use xlink:href="#DejaVuSans-2e" x="63.623047"/>
       <use xlink:href="#DejaVuSans-30" x="95.410156"/>
      </g>
     </g>
    </g>
    <g id="xtick_2">
     <g id="line2d_2">
      <g>
       <use xlink:href="#m6f83697158" x="107.268255" y="174.84375" style="stroke: #000000; stroke-width: 0.8"/>
      </g>
     </g>
     <g id="text_2">
      <!-- 0.2 -->
      <g transform="translate(99.316693 189.442188)scale(0.1 -0.1)">
       <defs>
        <path id="DejaVuSans-32" d="M 1228 531 
L 3431 531 
L 3431 0 
L 469 0 
L 469 531 
Q 828 903 1448 1529 
Q 2069 2156 2228 2338 
Q 2531 2678 2651 2914 
Q 2772 3150 2772 3378 
Q 2772 3750 2511 3984 
Q 2250 4219 1831 4219 
Q 1534 4219 1204 4116 
Q 875 4013 500 3803 
L 500 4441 
Q 881 4594 1212 4672 
Q 1544 4750 1819 4750 
Q 2544 4750 2975 4387 
Q 3406 4025 3406 3419 
Q 3406 3131 3298 2873 
Q 3191 2616 2906 2266 
Q 2828 2175 2409 1742 
Q 1991 1309 1228 531 
z
" transform="scale(0.015625)"/>
       </defs>
       <use xlink:href="#DejaVuSans-30"/>
       <use xlink:href="#DejaVuSans-2e" x="63.623047"/>
       <use xlink:href="#DejaVuSans-32" x="95.410156"/>
      </g>
     </g>
    </g>
    <g id="xtick_3">
     <g id="line2d_3">
      <g>
       <use xlink:href="#m6f83697158" x="152.918153" y="174.84375" style="stroke: #000000; stroke-width: 0.8"/>
      </g>
     </g>
     <g id="text_3">
      <!-- 0.4 -->
      <g transform="translate(144.966591 189.442188)scale(0.1 -0.1)">
       <defs>
        <path id="DejaVuSans-34" d="M 2419 4116 
L 825 1625 
L 2419 1625 
L 2419 4116 
z
M 2253 4666 
L 3047 4666 
L 3047 1625 
L 3713 1625 
L 3713 1100 
L 3047 1100 
L 3047 0 
L 2419 0 
L 2419 1100 
L 313 1100 
L 313 1709 
L 2253 4666 
z
" transform="scale(0.015625)"/>
       </defs>
       <use xlink:href="#DejaVuSans-30"/>
       <use xlink:href="#DejaVuSans-2e" x="63.623047"/>
       <use xlink:href="#DejaVuSans-34" x="95.410156"/>
      </g>
     </g>
    </g>
    <g id="xtick_4">
     <g id="line2d_4">
      <g>
       <use xlink:href="#m6f83697158" x="198.568051" y="174.84375" style="stroke: #000000; stroke-width: 0.8"/>
      </g>
     </g>
     <g id="text_4">
      <!-- 0.6 -->
      <g transform="translate(190.616488 189.442188)scale(0.1 -0.1)">
       <defs>
        <path id="DejaVuSans-36" d="M 2113 2584 
Q 1688 2584 1439 2293 
Q 1191 2003 1191 1497 
Q 1191 994 1439 701 
Q 1688 409 2113 409 
Q 2538 409 2786 701 
Q 3034 994 3034 1497 
Q 3034 2003 2786 2293 
Q 2538 2584 2113 2584 
z
M 3366 4563 
L 3366 3988 
Q 3128 4100 2886 4159 
Q 2644 4219 2406 4219 
Q 1781 4219 1451 3797 
Q 1122 3375 1075 2522 
Q 1259 2794 1537 2939 
Q 1816 3084 2150 3084 
Q 2853 3084 3261 2657 
Q 3669 2231 3669 1497 
Q 3669 778 3244 343 
Q 2819 -91 2113 -91 
Q 1303 -91 875 529 
Q 447 1150 447 2328 
Q 447 3434 972 4092 
Q 1497 4750 2381 4750 
Q 2619 4750 2861 4703 
Q 3103 4656 3366 4563 
z
" transform="scale(0.015625)"/>
       </defs>
       <use xlink:href="#DejaVuSans-30"/>
       <use xlink:href="#DejaVuSans-2e" x="63.623047"/>
       <use xlink:href="#DejaVuSans-36" x="95.410156"/>
      </g>
     </g>
    </g>
    <g id="xtick_5">
     <g id="line2d_5">
      <g>
       <use xlink:href="#m6f83697158" x="244.217949" y="174.84375" style="stroke: #000000; stroke-width: 0.8"/>
      </g>
     </g>
     <g id="text_5">
      <!-- 0.8 -->
      <g transform="translate(236.266386 189.442188)scale(0.1 -0.1)">
       <defs>
        <path id="DejaVuSans-38" d="M 2034 2216 
Q 1584 2216 1326 1975 
Q 1069 1734 1069 1313 
Q 1069 891 1326 650 
Q 1584 409 2034 409 
Q 2484 409 2743 651 
Q 3003 894 3003 1313 
Q 3003 1734 2745 1975 
Q 2488 2216 2034 2216 
z
M 1403 2484 
Q 997 2584 770 2862 
Q 544 3141 544 3541 
Q 544 4100 942 4425 
Q 1341 4750 2034 4750 
Q 2731 4750 3128 4425 
Q 3525 4100 3525 3541 
Q 3525 3141 3298 2862 
Q 3072 2584 2669 2484 
Q 3125 2378 3379 2068 
Q 3634 1759 3634 1313 
Q 3634 634 3220 271 
Q 2806 -91 2034 -91 
Q 1263 -91 848 271 
Q 434 634 434 1313 
Q 434 1759 690 2068 
Q 947 2378 1403 2484 
z
M 1172 3481 
Q 1172 3119 1398 2916 
Q 1625 2713 2034 2713 
Q 2441 2713 2670 2916 
Q 2900 3119 2900 3481 
Q 2900 3844 2670 4047 
Q 2441 4250 2034 4250 
Q 1625 4250 1398 4047 
Q 1172 3844 1172 3481 
z
" transform="scale(0.015625)"/>
       </defs>
       <use xlink:href="#DejaVuSans-30"/>
       <use xlink:href="#DejaVuSans-2e" x="63.623047"/>
       <use xlink:href="#DejaVuSans-38" x="95.410156"/>
      </g>
     </g>
    </g>
    <g id="text_6">
     <!-- r -->
     <g transform="translate(163.416406 203.120313)scale(0.1 -0.1)">
      <defs>
       <path id="DejaVuSans-72" d="M 2631 2963 
Q 2534 3019 2420 3045 
Q 2306 3072 2169 3072 
Q 1681 3072 1420 2755 
Q 1159 2438 1159 1844 
L 1159 0 
L 581 0 
L 581 3500 
L 1159 3500 
L 1159 2956 
Q 1341 3275 1631 3429 
Q 1922 3584 2338 3584 
Q 2397 3584 2469 3576 
Q 2541 3569 2628 3553 
L 2631 2963 
z
" transform="scale(0.015625)"/>
      </defs>
      <use xlink:href="#DejaVuSans-72"/>
     </g>
    </g>
   </g>
   <g id="matplotlib.axis_2">
    <g id="ytick_1">
     <g id="line2d_6">
      <defs>
       <path id="m55d2da51be" d="M 0 0 
L -3.5 0 
" style="stroke: #000000; stroke-width: 0.8"/>
      </defs>
      <g>
       <use xlink:href="#m55d2da51be" x="53.74375" y="170.795368" style="stroke: #000000; stroke-width: 0.8"/>
      </g>
     </g>
     <g id="text_7">
      <!-- 0.00 -->
      <g transform="translate(24.478125 174.594587)scale(0.1 -0.1)">
       <use xlink:href="#DejaVuSans-30"/>
       <use xlink:href="#DejaVuSans-2e" x="63.623047"/>
       <use xlink:href="#DejaVuSans-30" x="95.410156"/>
       <use xlink:href="#DejaVuSans-30" x="159.033203"/>
      </g>
     </g>
    </g>
    <g id="ytick_2">
     <g id="line2d_7">
      <g>
       <use xlink:href="#m55d2da51be" x="53.74375" y="144.762676" style="stroke: #000000; stroke-width: 0.8"/>
      </g>
     </g>
     <g id="text_8">
      <!-- 0.05 -->
      <g transform="translate(24.478125 148.561895)scale(0.1 -0.1)">
       <defs>
        <path id="DejaVuSans-35" d="M 691 4666 
L 3169 4666 
L 3169 4134 
L 1269 4134 
L 1269 2991 
Q 1406 3038 1543 3061 
Q 1681 3084 1819 3084 
Q 2600 3084 3056 2656 
Q 3513 2228 3513 1497 
Q 3513 744 3044 326 
Q 2575 -91 1722 -91 
Q 1428 -91 1123 -41 
Q 819 9 494 109 
L 494 744 
Q 775 591 1075 516 
Q 1375 441 1709 441 
Q 2250 441 2565 725 
Q 2881 1009 2881 1497 
Q 2881 1984 2565 2268 
Q 2250 2553 1709 2553 
Q 1456 2553 1204 2497 
Q 953 2441 691 2322 
L 691 4666 
z
" transform="scale(0.015625)"/>
       </defs>
       <use xlink:href="#DejaVuSans-30"/>
       <use xlink:href="#DejaVuSans-2e" x="63.623047"/>
       <use xlink:href="#DejaVuSans-30" x="95.410156"/>
       <use xlink:href="#DejaVuSans-35" x="159.033203"/>
      </g>
     </g>
    </g>
    <g id="ytick_3">
     <g id="line2d_8">
      <g>
       <use xlink:href="#m55d2da51be" x="53.74375" y="118.729985" style="stroke: #000000; stroke-width: 0.8"/>
      </g>
     </g>
     <g id="text_9">
      <!-- 0.10 -->
      <g transform="translate(24.478125 122.529204)scale(0.1 -0.1)">
       <defs>
        <path id="DejaVuSans-31" d="M 794 531 
L 1825 531 
L 1825 4091 
L 703 3866 
L 703 4441 
L 1819 4666 
L 2450 4666 
L 2450 531 
L 3481 531 
L 3481 0 
L 794 0 
L 794 531 
z
" transform="scale(0.015625)"/>
       </defs>
       <use xlink:href="#DejaVuSans-30"/>
       <use xlink:href="#DejaVuSans-2e" x="63.623047"/>
       <use xlink:href="#DejaVuSans-31" x="95.410156"/>
       <use xlink:href="#DejaVuSans-30" x="159.033203"/>
      </g>
     </g>
    </g>
    <g id="ytick_4">
     <g id="line2d_9">
      <g>
       <use xlink:href="#m55d2da51be" x="53.74375" y="92.697293" style="stroke: #000000; stroke-width: 0.8"/>
      </g>
     </g>
     <g id="text_10">
      <!-- 0.15 -->
      <g transform="translate(24.478125 96.496512)scale(0.1 -0.1)">
       <use xlink:href="#DejaVuSans-30"/>
       <use xlink:href="#DejaVuSans-2e" x="63.623047"/>
       <use xlink:href="#DejaVuSans-31" x="95.410156"/>
       <use xlink:href="#DejaVuSans-35" x="159.033203"/>
      </g>
     </g>
    </g>
    <g id="ytick_5">
     <g id="line2d_10">
      <g>
       <use xlink:href="#m55d2da51be" x="53.74375" y="66.664602" style="stroke: #000000; stroke-width: 0.8"/>
      </g>
     </g>
     <g id="text_11">
      <!-- 0.20 -->
      <g transform="translate(24.478125 70.463821)scale(0.1 -0.1)">
       <use xlink:href="#DejaVuSans-30"/>
       <use xlink:href="#DejaVuSans-2e" x="63.623047"/>
       <use xlink:href="#DejaVuSans-32" x="95.410156"/>
       <use xlink:href="#DejaVuSans-30" x="159.033203"/>
      </g>
     </g>
    </g>
    <g id="ytick_6">
     <g id="line2d_11">
      <g>
       <use xlink:href="#m55d2da51be" x="53.74375" y="40.63191" style="stroke: #000000; stroke-width: 0.8"/>
      </g>
     </g>
     <g id="text_12">
      <!-- 0.25 -->
      <g transform="translate(24.478125 44.431129)scale(0.1 -0.1)">
       <use xlink:href="#DejaVuSans-30"/>
       <use xlink:href="#DejaVuSans-2e" x="63.623047"/>
       <use xlink:href="#DejaVuSans-32" x="95.410156"/>
       <use xlink:href="#DejaVuSans-35" x="159.033203"/>
      </g>
     </g>
    </g>
    <g id="ytick_7">
     <g id="line2d_12">
      <g>
       <use xlink:href="#m55d2da51be" x="53.74375" y="14.599219" style="stroke: #000000; stroke-width: 0.8"/>
      </g>
     </g>
     <g id="text_13">
      <!-- 0.30 -->
      <g transform="translate(24.478125 18.398438)scale(0.1 -0.1)">
       <defs>
        <path id="DejaVuSans-33" d="M 2597 2516 
Q 3050 2419 3304 2112 
Q 3559 1806 3559 1356 
Q 3559 666 3084 287 
Q 2609 -91 1734 -91 
Q 1441 -91 1130 -33 
Q 819 25 488 141 
L 488 750 
Q 750 597 1062 519 
Q 1375 441 1716 441 
Q 2309 441 2620 675 
Q 2931 909 2931 1356 
Q 2931 1769 2642 2001 
Q 2353 2234 1838 2234 
L 1294 2234 
L 1294 2753 
L 1863 2753 
Q 2328 2753 2575 2939 
Q 2822 3125 2822 3475 
Q 2822 3834 2567 4026 
Q 2313 4219 1838 4219 
Q 1578 4219 1281 4162 
Q 984 4106 628 3988 
L 628 4550 
Q 988 4650 1302 4700 
Q 1616 4750 1894 4750 
Q 2613 4750 3031 4423 
Q 3450 4097 3450 3541 
Q 3450 3153 3228 2886 
Q 3006 2619 2597 2516 
z
" transform="scale(0.015625)"/>
       </defs>
       <use xlink:href="#DejaVuSans-30"/>
       <use xlink:href="#DejaVuSans-2e" x="63.623047"/>
       <use xlink:href="#DejaVuSans-33" x="95.410156"/>
       <use xlink:href="#DejaVuSans-30" x="159.033203"/>
      </g>
     </g>
    </g>
    <g id="text_14">
     <!-- $g$ -->
     <g transform="translate(18.378125 97.921484)rotate(-90)scale(0.1 -0.1)">
      <defs>
       <path id="DejaVuSans-Oblique-67" d="M 3816 3500 
L 3219 434 
Q 3047 -456 2561 -893 
Q 2075 -1331 1253 -1331 
Q 950 -1331 690 -1286 
Q 431 -1241 206 -1147 
L 313 -588 
Q 525 -725 762 -790 
Q 1000 -856 1269 -856 
Q 1816 -856 2167 -557 
Q 2519 -259 2631 300 
L 2681 563 
Q 2441 288 2122 144 
Q 1803 0 1434 0 
Q 903 0 598 351 
Q 294 703 294 1319 
Q 294 1803 478 2267 
Q 663 2731 997 3091 
Q 1219 3328 1514 3456 
Q 1809 3584 2131 3584 
Q 2484 3584 2746 3420 
Q 3009 3256 3138 2956 
L 3238 3500 
L 3816 3500 
z
M 2950 2216 
Q 2950 2641 2750 2872 
Q 2550 3103 2181 3103 
Q 1953 3103 1747 3012 
Q 1541 2922 1394 2759 
Q 1156 2491 1023 2127 
Q 891 1763 891 1375 
Q 891 944 1092 712 
Q 1294 481 1672 481 
Q 2219 481 2584 976 
Q 2950 1472 2950 2216 
z
" transform="scale(0.015625)"/>
      </defs>
      <use xlink:href="#DejaVuSans-Oblique-67"/>
     </g>
    </g>
   </g>
   <g id="line2d_13">
    <path d="M 63.900852 170.795368 
L 64.108352 170.795368 
L 64.315851 170.795368 
L 64.523351 170.795368 
L 64.73085 170.795368 
L 64.93835 170.795368 
L 65.145849 170.795368 
L 65.353349 170.795368 
L 65.560849 170.795368 
L 65.768348 170.795368 
L 65.975848 170.795368 
L 66.183347 170.795368 
L 66.390847 170.795368 
L 66.598346 170.795368 
L 66.805846 160.957858 
L 67.013345 150.657252 
L 67.220845 142.178315 
L 67.428344 135.111045 
L 67.635844 129.15895 
L 67.843343 124.102167 
L 68.050843 119.774574 
L 68.258343 116.047469 
L 68.465842 112.820394 
L 68.673342 110.013685 
L 68.880841 107.562812 
L 69.088341 105.415639 
L 69.29584 103.529087 
L 69.50334 101.867525 
L 69.710839 100.40116 
L 69.918339 99.104848 
L 70.125838 97.957557 
L 70.333338 96.941111 
L 70.540837 96.039485 
L 70.748337 95.239866 
L 70.955836 94.530339 
L 71.163336 93.90113 
L 71.370836 93.343185 
L 71.578335 92.849352 
L 71.785835 92.412243 
L 71.993334 92.026019 
L 72.200834 91.685317 
L 72.408333 91.386264 
L 72.615833 91.123915 
L 72.823332 90.894874 
L 73.030832 90.695744 
L 73.238331 90.523665 
L 73.445831 90.376254 
L 73.65333 90.251008 
L 73.86083 90.145425 
L 74.06833 90.057956 
L 74.275829 89.986932 
L 74.483329 89.930744 
L 74.690828 89.887903 
L 74.898328 89.857336 
L 75.105827 89.837852 
L 75.313327 89.828259 
L 75.520826 89.827723 
L 75.728326 89.83535 
L 75.935825 89.850603 
L 76.143325 89.872649 
L 76.350824 89.900713 
L 76.558324 89.934319 
L 76.765823 89.972989 
L 76.973323 90.016366 
L 77.180823 90.063795 
L 77.388322 90.115157 
L 77.595822 90.169497 
L 77.803321 90.227294 
L 78.010821 90.287831 
L 78.21832 90.350871 
L 78.42582 90.416295 
L 78.633319 90.483863 
L 78.840819 90.553338 
L 79.048318 90.624482 
L 79.255818 90.697174 
L 79.463317 90.771654 
L 79.670817 90.847326 
L 79.878317 90.92413 
L 80.085816 91.002006 
L 80.293316 91.081134 
L 80.500815 91.160977 
L 80.708315 91.242011 
L 80.915814 91.323343 
L 81.123314 91.405629 
L 81.330813 91.488451 
L 81.538313 91.572345 
L 81.745812 91.656716 
L 81.953312 91.741207 
L 82.160811 91.826531 
L 82.368311 91.912154 
L 82.57581 91.998372 
L 82.78331 92.084888 
L 82.99081 92.171821 
L 83.198309 92.259052 
L 83.405809 92.346462 
L 83.613308 92.434587 
L 83.820808 92.522831 
L 84.028307 92.611373 
L 84.235807 92.700094 
L 84.443306 92.789291 
" clip-path="url(#p8c1a679be3)" style="fill: none; stroke: #1f77b4; stroke-width: 2; stroke-linecap: square"/>
   </g>
   <g id="line2d_14">
    <path d="M 63.900852 170.795368 
L 65.030572 170.795368 
L 66.160292 170.795368 
L 67.290011 170.795368 
L 68.419731 170.795368 
L 69.549451 170.795368 
L 70.67917 170.795368 
L 71.80889 170.795368 
L 72.93861 170.795368 
L 74.06833 170.795368 
L 75.198049 170.795368 
L 76.327769 170.795368 
L 77.457489 170.795368 
L 78.587208 170.795368 
L 79.716928 170.795368 
L 80.846648 170.795368 
L 81.976367 170.795368 
L 83.106087 170.795368 
L 84.235807 170.795368 
L 85.365526 170.795368 
L 86.495246 170.795368 
L 87.624966 170.795368 
L 88.754686 170.795368 
L 89.884405 166.699286 
L 91.014125 157.938906 
L 92.143845 150.753421 
L 93.273564 144.797871 
L 94.403284 139.820691 
L 95.533004 135.633121 
L 96.662723 132.091442 
L 97.792443 129.084113 
L 98.922163 126.52295 
L 100.051882 124.338239 
L 101.181602 122.473138 
L 102.311322 120.881527 
L 103.441042 119.525393 
L 104.570761 118.37244 
L 105.700481 117.396989 
L 106.830201 116.576218 
L 107.95992 115.891358 
L 109.08964 115.326263 
L 110.21936 114.866869 
L 111.349079 114.501142 
L 112.478799 114.218594 
L 113.608519 114.010884 
L 114.738239 113.869551 
L 115.867958 113.787742 
L 116.997678 113.75938 
L 118.127398 113.77934 
L 119.257117 113.842499 
L 120.386837 113.944984 
L 121.516557 114.082981 
L 122.646276 114.253034 
L 123.775996 114.452164 
L 124.905716 114.677988 
L 126.035435 114.927883 
L 127.165155 115.199706 
L 128.294875 115.491549 
L 129.424595 115.801684 
L 130.554314 116.128503 
L 131.684034 116.470575 
L 132.813754 116.82671 
L 133.943473 117.195476 
L 135.073193 117.576039 
L 136.202913 117.967149 
L 137.332632 118.368567 
L 138.462352 118.778804 
L 139.592072 119.197204 
L 140.721791 119.623349 
L 141.851511 120.056645 
L 142.981231 120.496077 
L 144.110951 120.941588 
L 145.24067 121.392461 
L 146.37039 121.848398 
L 147.50011 122.308864 
L 148.629829 122.773531 
L 149.759549 123.24207 
L 150.889269 123.714155 
L 152.018988 124.189398 
L 153.148708 124.667739 
L 154.278428 125.148821 
L 155.408148 125.632346 
L 156.537867 126.118195 
L 157.667587 126.606189 
L 158.797307 127.09603 
L 159.927026 127.587718 
L 161.056746 128.081193 
L 162.186466 128.575682 
L 163.316185 129.071838 
L 164.445905 129.569187 
L 165.575625 130.067727 
L 166.705344 130.567221 
L 167.835064 131.067727 
L 168.964784 131.569127 
L 170.094504 132.071421 
L 171.224223 132.574252 
L 172.353943 133.077916 
L 173.483663 133.582236 
L 174.613382 134.087271 
L 175.743102 134.592663 
" clip-path="url(#p8c1a679be3)" style="fill: none; stroke: #ff7f0e; stroke-width: 2; stroke-linecap: square"/>
   </g>
   <g id="line2d_15">
    <path d="M 63.900852 170.795368 
L 65.952792 170.795368 
L 68.004732 170.795368 
L 70.056672 170.795368 
L 72.108612 170.795368 
L 74.160552 170.795368 
L 76.212491 170.795368 
L 78.264431 170.795368 
L 80.316371 170.795368 
L 82.368311 170.795368 
L 84.420251 170.795368 
L 86.472191 170.795368 
L 88.524131 170.795368 
L 90.57607 170.795368 
L 92.62801 170.795368 
L 94.67995 170.795368 
L 96.73189 170.795368 
L 98.78383 170.795368 
L 100.83577 170.795368 
L 102.887709 170.795368 
L 104.939649 170.795368 
L 106.991589 170.795368 
L 109.043529 170.795368 
L 111.095469 170.795368 
L 113.147409 170.795368 
L 115.199349 170.795368 
L 117.251288 170.795368 
L 119.303228 170.795368 
L 121.355168 166.667559 
L 123.407108 161.777481 
L 125.459048 157.693062 
L 127.510988 154.270075 
L 129.562928 151.395737 
L 131.614867 148.980675 
L 133.666807 146.954041 
L 135.718747 145.258456 
L 137.770687 143.84667 
L 139.822627 142.679656 
L 141.874567 141.725357 
L 143.926507 140.880812 
L 145.978446 140.350334 
L 148.030386 139.887426 
L 150.082326 139.550895 
L 152.134266 139.326739 
L 154.186206 139.202566 
L 156.238146 139.167769 
L 158.290086 139.212874 
L 160.342025 139.329718 
L 162.393965 139.51139 
L 164.445905 139.751335 
L 166.497845 140.044013 
L 168.549785 140.384714 
L 170.601725 140.768794 
L 172.653664 141.192437 
L 174.705604 141.652068 
L 176.757544 142.144739 
L 178.809484 142.667381 
L 180.861424 143.217939 
L 182.913364 143.793461 
L 184.965304 144.392282 
L 187.017243 145.012493 
L 189.069183 145.652307 
L 191.121123 146.310413 
L 193.173063 146.985114 
L 195.225003 147.675276 
L 197.276943 148.379739 
L 199.328883 149.09737 
L 201.380822 149.827186 
L 203.432762 150.568412 
L 205.484702 151.320066 
L 207.536642 152.081461 
L 209.588582 152.851883 
L 211.640522 153.630618 
L 213.692462 154.417247 
L 215.744401 155.211056 
L 217.796341 156.011599 
L 219.848281 156.818308 
L 221.900221 157.630886 
L 223.952161 158.448782 
L 226.004101 159.271698 
L 228.056041 160.099217 
L 230.10798 160.931041 
L 232.15992 161.766857 
L 234.21186 162.606129 
L 236.2638 163.449303 
L 238.31574 164.293551 
L 240.36768 165.144426 
L 242.419619 165.996175 
L 244.471559 166.8505 
L 246.523499 167.707189 
L 248.575439 168.566115 
L 250.627379 169.427152 
L 252.679319 170.290273 
L 254.731259 170.795368 
L 256.783198 170.795368 
L 258.835138 170.795368 
L 260.887078 170.795368 
L 262.939018 170.795368 
L 264.990958 170.795368 
L 267.042898 170.795368 
" clip-path="url(#p8c1a679be3)" style="fill: none; stroke: #2ca02c; stroke-width: 2; stroke-linecap: square"/>
   </g>
   <g id="PathCollection_1">
    <defs>
     <path id="mada99dc15a" d="M 0 3 
C 0.795609 3 1.55874 2.683901 2.12132 2.12132 
C 2.683901 1.55874 3 0.795609 3 0 
C 3 -0.795609 2.683901 -1.55874 2.12132 -2.12132 
C 1.55874 -2.683901 0.795609 -3 0 -3 
C -0.795609 -3 -1.55874 -2.683901 -2.12132 -2.12132 
C -2.683901 -1.55874 -3 -0.795609 -3 0 
C -3 0.795609 -2.683901 1.55874 -2.12132 2.12132 
C -1.55874 2.683901 -0.795609 3 0 3 
z
" style="stroke: #000000"/>
    </defs>
    <g clip-path="url(#p8c1a679be3)">
     <use xlink:href="#mada99dc15a" x="75.520826" y="89.827723" style="stroke: #000000"/>
    </g>
   </g>
   <g id="text_15">
    <!-- (0.06,0.156) -->
    <g transform="translate(65.313327 82.57337)scale(0.1 -0.1)">
     <defs>
      <path id="DejaVuSans-28" d="M 1984 4856 
Q 1566 4138 1362 3434 
Q 1159 2731 1159 2009 
Q 1159 1288 1364 580 
Q 1569 -128 1984 -844 
L 1484 -844 
Q 1016 -109 783 600 
Q 550 1309 550 2009 
Q 550 2706 781 3412 
Q 1013 4119 1484 4856 
L 1984 4856 
z
" transform="scale(0.015625)"/>
      <path id="DejaVuSans-2c" d="M 750 794 
L 1409 794 
L 1409 256 
L 897 -744 
L 494 -744 
L 750 256 
L 750 794 
z
" transform="scale(0.015625)"/>
      <path id="DejaVuSans-29" d="M 513 4856 
L 1013 4856 
Q 1481 4119 1714 3412 
Q 1947 2706 1947 2009 
Q 1947 1309 1714 600 
Q 1481 -109 1013 -844 
L 513 -844 
Q 928 -128 1133 580 
Q 1338 1288 1338 2009 
Q 1338 2731 1133 3434 
Q 928 4138 513 4856 
z
" transform="scale(0.015625)"/>
     </defs>
     <use xlink:href="#DejaVuSans-28"/>
     <use xlink:href="#DejaVuSans-30" x="39.013672"/>
     <use xlink:href="#DejaVuSans-2e" x="102.636719"/>
     <use xlink:href="#DejaVuSans-30" x="134.423828"/>
     <use xlink:href="#DejaVuSans-36" x="198.046875"/>
     <use xlink:href="#DejaVuSans-2c" x="261.669922"/>
     <use xlink:href="#DejaVuSans-30" x="293.457031"/>
     <use xlink:href="#DejaVuSans-2e" x="357.080078"/>
     <use xlink:href="#DejaVuSans-31" x="388.867188"/>
     <use xlink:href="#DejaVuSans-35" x="452.490234"/>
     <use xlink:href="#DejaVuSans-36" x="516.113281"/>
     <use xlink:href="#DejaVuSans-29" x="579.736328"/>
    </g>
   </g>
   <g id="PathCollection_2">
    <g clip-path="url(#p8c1a679be3)">
     <use xlink:href="#mada99dc15a" x="116.997678" y="113.75938" style="stroke: #000000"/>
    </g>
   </g>
   <g id="text_16">
    <!-- (0.24,0.11) -->
    <g transform="translate(96.398235 106.523446)scale(0.1 -0.1)">
     <use xlink:href="#DejaVuSans-28"/>
     <use xlink:href="#DejaVuSans-30" x="39.013672"/>
     <use xlink:href="#DejaVuSans-2e" x="102.636719"/>
     <use xlink:href="#DejaVuSans-32" x="134.423828"/>
     <use xlink:href="#DejaVuSans-34" x="198.046875"/>
     <use xlink:href="#DejaVuSans-2c" x="261.669922"/>
     <use xlink:href="#DejaVuSans-30" x="293.457031"/>
     <use xlink:href="#DejaVuSans-2e" x="357.080078"/>
     <use xlink:href="#DejaVuSans-31" x="388.867188"/>
     <use xlink:href="#DejaVuSans-31" x="452.490234"/>
     <use xlink:href="#DejaVuSans-29" x="516.113281"/>
    </g>
   </g>
   <g id="PathCollection_3">
    <g clip-path="url(#p8c1a679be3)">
     <use xlink:href="#mada99dc15a" x="156.238146" y="139.167769" style="stroke: #000000"/>
    </g>
   </g>
   <g id="text_17">
    <!-- (0.41,0.061) -->
    <g transform="translate(135.200648 159.035484)scale(0.1 -0.1)">
     <use xlink:href="#DejaVuSans-28"/>
     <use xlink:href="#DejaVuSans-30" x="39.013672"/>
     <use xlink:href="#DejaVuSans-2e" x="102.636719"/>
     <use xlink:href="#DejaVuSans-34" x="134.423828"/>
     <use xlink:href="#DejaVuSans-31" x="198.046875"/>
     <use xlink:href="#DejaVuSans-2c" x="261.669922"/>
     <use xlink:href="#DejaVuSans-30" x="293.457031"/>
     <use xlink:href="#DejaVuSans-2e" x="357.080078"/>
     <use xlink:href="#DejaVuSans-30" x="388.867188"/>
     <use xlink:href="#DejaVuSans-36" x="452.490234"/>
     <use xlink:href="#DejaVuSans-31" x="516.113281"/>
     <use xlink:href="#DejaVuSans-29" x="579.736328"/>
    </g>
   </g>
   <g id="patch_3">
    <path d="M 53.74375 174.84375 
L 53.74375 14.599219 
" style="fill: none; stroke: #000000; stroke-width: 0.8; stroke-linejoin: miter; stroke-linecap: square"/>
   </g>
   <g id="patch_4">
    <path d="M 277.2 174.84375 
L 277.2 14.599219 
" style="fill: none; stroke: #000000; stroke-width: 0.8; stroke-linejoin: miter; stroke-linecap: square"/>
   </g>
   <g id="patch_5">
    <path d="M 53.74375 174.84375 
L 277.2 174.84375 
" style="fill: none; stroke: #000000; stroke-width: 0.8; stroke-linejoin: miter; stroke-linecap: square"/>
   </g>
   <g id="patch_6">
    <path d="M 53.74375 14.599219 
L 277.2 14.599219 
" style="fill: none; stroke: #000000; stroke-width: 0.8; stroke-linejoin: miter; stroke-linecap: square"/>
   </g>
   <g id="legend_1">
    <g id="patch_7">
     <path d="M 187.9 66.633594 
L 270.2 66.633594 
Q 272.2 66.633594 272.2 64.633594 
L 272.2 21.599219 
Q 272.2 19.599219 270.2 19.599219 
L 187.9 19.599219 
Q 185.9 19.599219 185.9 21.599219 
L 185.9 64.633594 
Q 185.9 66.633594 187.9 66.633594 
z
" style="fill: #ffffff; opacity: 0.8; stroke: #cccccc; stroke-linejoin: miter"/>
    </g>
    <g id="line2d_16">
     <path d="M 189.9 27.697656 
L 199.9 27.697656 
L 209.9 27.697656 
" style="fill: none; stroke: #1f77b4; stroke-width: 2; stroke-linecap: square"/>
    </g>
    <g id="text_18">
     <!-- $r_{max}$ = 0.1 -->
     <g transform="translate(217.9 31.197656)scale(0.1 -0.1)">
      <defs>
       <path id="DejaVuSans-Oblique-72" d="M 2853 2969 
Q 2766 3016 2653 3041 
Q 2541 3066 2413 3066 
Q 1953 3066 1609 2717 
Q 1266 2369 1153 1784 
L 800 0 
L 225 0 
L 909 3500 
L 1484 3500 
L 1375 2956 
Q 1603 3259 1920 3421 
Q 2238 3584 2597 3584 
Q 2691 3584 2781 3573 
Q 2872 3563 2963 3538 
L 2853 2969 
z
" transform="scale(0.015625)"/>
       <path id="DejaVuSans-Oblique-6d" d="M 5747 2113 
L 5338 0 
L 4763 0 
L 5166 2094 
Q 5191 2228 5203 2325 
Q 5216 2422 5216 2491 
Q 5216 2772 5059 2928 
Q 4903 3084 4622 3084 
Q 4203 3084 3875 2770 
Q 3547 2456 3450 1953 
L 3066 0 
L 2491 0 
L 2900 2094 
Q 2925 2209 2937 2307 
Q 2950 2406 2950 2484 
Q 2950 2769 2794 2926 
Q 2638 3084 2363 3084 
Q 1938 3084 1609 2770 
Q 1281 2456 1184 1953 
L 800 0 
L 225 0 
L 909 3500 
L 1484 3500 
L 1375 2956 
Q 1609 3263 1923 3423 
Q 2238 3584 2597 3584 
Q 2978 3584 3223 3384 
Q 3469 3184 3519 2828 
Q 3781 3197 4126 3390 
Q 4472 3584 4856 3584 
Q 5306 3584 5551 3325 
Q 5797 3066 5797 2591 
Q 5797 2488 5784 2364 
Q 5772 2241 5747 2113 
z
" transform="scale(0.015625)"/>
       <path id="DejaVuSans-Oblique-61" d="M 3438 1997 
L 3047 0 
L 2472 0 
L 2578 531 
Q 2325 219 2001 64 
Q 1678 -91 1281 -91 
Q 834 -91 548 182 
Q 263 456 263 884 
Q 263 1497 752 1853 
Q 1241 2209 2100 2209 
L 2900 2209 
L 2931 2363 
Q 2938 2388 2941 2417 
Q 2944 2447 2944 2509 
Q 2944 2788 2717 2942 
Q 2491 3097 2081 3097 
Q 1800 3097 1504 3025 
Q 1209 2953 897 2809 
L 997 3341 
Q 1322 3463 1633 3523 
Q 1944 3584 2234 3584 
Q 2853 3584 3176 3315 
Q 3500 3047 3500 2534 
Q 3500 2431 3484 2292 
Q 3469 2153 3438 1997 
z
M 2816 1759 
L 2241 1759 
Q 1534 1759 1195 1570 
Q 856 1381 856 984 
Q 856 709 1029 553 
Q 1203 397 1509 397 
Q 1978 397 2328 733 
Q 2678 1069 2791 1631 
L 2816 1759 
z
" transform="scale(0.015625)"/>
       <path id="DejaVuSans-Oblique-78" d="M 3841 3500 
L 2234 1784 
L 3219 0 
L 2559 0 
L 1819 1388 
L 531 0 
L -166 0 
L 1556 1844 
L 641 3500 
L 1300 3500 
L 1972 2234 
L 3144 3500 
L 3841 3500 
z
" transform="scale(0.015625)"/>
       <path id="DejaVuSans-20" transform="scale(0.015625)"/>
       <path id="DejaVuSans-3d" d="M 678 2906 
L 4684 2906 
L 4684 2381 
L 678 2381 
L 678 2906 
z
M 678 1631 
L 4684 1631 
L 4684 1100 
L 678 1100 
L 678 1631 
z
" transform="scale(0.015625)"/>
      </defs>
      <use xlink:href="#DejaVuSans-Oblique-72" transform="translate(0 0.78125)"/>
      <use xlink:href="#DejaVuSans-Oblique-6d" transform="translate(41.113281 -15.625)scale(0.7)"/>
      <use xlink:href="#DejaVuSans-Oblique-61" transform="translate(109.301758 -15.625)scale(0.7)"/>
      <use xlink:href="#DejaVuSans-Oblique-78" transform="translate(152.197266 -15.625)scale(0.7)"/>
      <use xlink:href="#DejaVuSans-20" transform="translate(196.357422 0.78125)"/>
      <use xlink:href="#DejaVuSans-3d" transform="translate(228.144531 0.78125)"/>
      <use xlink:href="#DejaVuSans-20" transform="translate(311.933594 0.78125)"/>
      <use xlink:href="#DejaVuSans-30" transform="translate(343.720703 0.78125)"/>
      <use xlink:href="#DejaVuSans-2e" transform="translate(407.34375 0.78125)"/>
      <use xlink:href="#DejaVuSans-31" transform="translate(439.130859 0.78125)"/>
     </g>
    </g>
    <g id="line2d_17">
     <path d="M 189.9 42.375781 
L 199.9 42.375781 
L 209.9 42.375781 
" style="fill: none; stroke: #ff7f0e; stroke-width: 2; stroke-linecap: square"/>
    </g>
    <g id="text_19">
     <!-- $r_{max}$ = 0.5 -->
     <g transform="translate(217.9 45.875781)scale(0.1 -0.1)">
      <use xlink:href="#DejaVuSans-Oblique-72" transform="translate(0 0.78125)"/>
      <use xlink:href="#DejaVuSans-Oblique-6d" transform="translate(41.113281 -15.625)scale(0.7)"/>
      <use xlink:href="#DejaVuSans-Oblique-61" transform="translate(109.301758 -15.625)scale(0.7)"/>
      <use xlink:href="#DejaVuSans-Oblique-78" transform="translate(152.197266 -15.625)scale(0.7)"/>
      <use xlink:href="#DejaVuSans-20" transform="translate(196.357422 0.78125)"/>
      <use xlink:href="#DejaVuSans-3d" transform="translate(228.144531 0.78125)"/>
      <use xlink:href="#DejaVuSans-20" transform="translate(311.933594 0.78125)"/>
      <use xlink:href="#DejaVuSans-30" transform="translate(343.720703 0.78125)"/>
      <use xlink:href="#DejaVuSans-2e" transform="translate(407.34375 0.78125)"/>
      <use xlink:href="#DejaVuSans-35" transform="translate(439.130859 0.78125)"/>
     </g>
    </g>
    <g id="line2d_18">
     <path d="M 189.9 57.053906 
L 199.9 57.053906 
L 209.9 57.053906 
" style="fill: none; stroke: #2ca02c; stroke-width: 2; stroke-linecap: square"/>
    </g>
    <g id="text_20">
     <!-- $r_{max}$ = 0.9 -->
     <g transform="translate(217.9 60.553906)scale(0.1 -0.1)">
      <defs>
       <path id="DejaVuSans-39" d="M 703 97 
L 703 672 
Q 941 559 1184 500 
Q 1428 441 1663 441 
Q 2288 441 2617 861 
Q 2947 1281 2994 2138 
Q 2813 1869 2534 1725 
Q 2256 1581 1919 1581 
Q 1219 1581 811 2004 
Q 403 2428 403 3163 
Q 403 3881 828 4315 
Q 1253 4750 1959 4750 
Q 2769 4750 3195 4129 
Q 3622 3509 3622 2328 
Q 3622 1225 3098 567 
Q 2575 -91 1691 -91 
Q 1453 -91 1209 -44 
Q 966 3 703 97 
z
M 1959 2075 
Q 2384 2075 2632 2365 
Q 2881 2656 2881 3163 
Q 2881 3666 2632 3958 
Q 2384 4250 1959 4250 
Q 1534 4250 1286 3958 
Q 1038 3666 1038 3163 
Q 1038 2656 1286 2365 
Q 1534 2075 1959 2075 
z
" transform="scale(0.015625)"/>
      </defs>
      <use xlink:href="#DejaVuSans-Oblique-72" transform="translate(0 0.78125)"/>
      <use xlink:href="#DejaVuSans-Oblique-6d" transform="translate(41.113281 -15.625)scale(0.7)"/>
      <use xlink:href="#DejaVuSans-Oblique-61" transform="translate(109.301758 -15.625)scale(0.7)"/>
      <use xlink:href="#DejaVuSans-Oblique-78" transform="translate(152.197266 -15.625)scale(0.7)"/>
      <use xlink:href="#DejaVuSans-20" transform="translate(196.357422 0.78125)"/>
      <use xlink:href="#DejaVuSans-3d" transform="translate(228.144531 0.78125)"/>
      <use xlink:href="#DejaVuSans-20" transform="translate(311.933594 0.78125)"/>
      <use xlink:href="#DejaVuSans-30" transform="translate(343.720703 0.78125)"/>
      <use xlink:href="#DejaVuSans-2e" transform="translate(407.34375 0.78125)"/>
      <use xlink:href="#DejaVuSans-39" transform="translate(439.130859 0.78125)"/>
     </g>
    </g>
   </g>
  </g>
 </g>
 <defs>
  <clipPath id="p8c1a679be3">
   <rect x="53.74375" y="14.599219" width="223.45625" height="160.244531"/>
  </clipPath>
 </defs>
</svg>
