<?xml version="1.0" encoding="utf-8" standalone="no"?>
<!DOCTYPE svg PUBLIC "-//W3C//DTD SVG 1.1//EN"
  "http://www.w3.org/Graphics/SVG/1.1/DTD/svg11.dtd">
<svg xmlns:xlink="http://www.w3.org/1999/xlink" width="225.770691pt" height="226.270884pt" viewBox="0 0 225.770691 226.270884" xmlns="http://www.w3.org/2000/svg" version="1.1">
 <metadata>
  <rdf:RDF xmlns:dc="http://purl.org/dc/elements/1.1/" xmlns:cc="http://creativecommons.org/ns#" xmlns:rdf="http://www.w3.org/1999/02/22-rdf-syntax-ns#">
   <cc:Work>
    <dc:type rdf:resource="http://purl.org/dc/dcmitype/StillImage"/>
    <dc:date>2024-06-28T17:07:29.277868</dc:date>
    <dc:format>image/svg+xml</dc:format>
    <dc:creator>
     <cc:Agent>
      <dc:title>Matplotlib v3.5.3, https://matplotlib.org/</dc:title>
     </cc:Agent>
    </dc:creator>
   </cc:Work>
  </rdf:RDF>
 </metadata>
 <defs>
  <style type="text/css">*{stroke-linejoin: round; stroke-linecap: butt}</style>
 </defs>
 <g id="figure_1">
  <g id="patch_1">
   <path d="M 0 226.270884 
L 225.770691 226.270884 
L 225.770691 0 
L 0 0 
L 0 226.270884 
z
" style="fill: none"/>
  </g>
  <g id="patch_2">
   <path d="M 24.170691 201.6 
L 218.570691 201.6 
L 218.570691 7.2 
L 24.170691 7.2 
L 24.170691 201.6 
z
" style="fill: none"/>
  </g>
  <g id="pane3d_1">
   <g id="patch_3">
    <path d="M 199.277183 162.46224 
L 165.136015 61.882404 
L 168.324029 11.77593 
L 205.467684 117.562975 
" style="fill: #f2f2f2; opacity: 0.5; stroke: #f2f2f2; stroke-linejoin: miter"/>
   </g>
  </g>
  <g id="pane3d_2">
   <g id="patch_4">
    <path d="M 51.708221 87.762272 
L 165.136015 61.882404 
L 168.324029 11.77593 
L 46.01829 38.907033 
" style="fill: #e6e6e6; opacity: 0.5; stroke: #e6e6e6; stroke-linejoin: miter"/>
   </g>
  </g>
  <g id="pane3d_3">
   <g id="patch_5">
    <path d="M 79.866995 191.372907 
L 199.277183 162.46224 
L 165.136015 61.882404 
L 51.708221 87.762272 
" style="fill: #ececec; opacity: 0.5; stroke: #ececec; stroke-linejoin: miter"/>
   </g>
  </g>
  <g id="axis3d_1">
   <g id="line2d_1">
    <path d="M 199.277183 162.46224 
L 79.866995 191.372907 
" style="fill: none; stroke: #000000; stroke-width: 0.8; stroke-linecap: square"/>
   </g>
   <g id="text_1">
    <!-- $r_2$ -->
    <g transform="translate(144.152165 217.049595)rotate(-13.610109)scale(0.1 -0.1)">
     <defs>
      <path id="DejaVuSans-Oblique-72" d="M 2853 2969 
Q 2766 3016 2653 3041 
Q 2541 3066 2413 3066 
Q 1953 3066 1609 2717 
Q 1266 2369 1153 1784 
L 800 0 
L 225 0 
L 909 3500 
L 1484 3500 
L 1375 2956 
Q 1603 3259 1920 3421 
Q 2238 3584 2597 3584 
Q 2691 3584 2781 3573 
Q 2872 3563 2963 3538 
L 2853 2969 
z
" transform="scale(0.015625)"/>
      <path id="DejaVuSans-32" d="M 1228 531 
L 3431 531 
L 3431 0 
L 469 0 
L 469 531 
Q 828 903 1448 1529 
Q 2069 2156 2228 2338 
Q 2531 2678 2651 2914 
Q 2772 3150 2772 3378 
Q 2772 3750 2511 3984 
Q 2250 4219 1831 4219 
Q 1534 4219 1204 4116 
Q 875 4013 500 3803 
L 500 4441 
Q 881 4594 1212 4672 
Q 1544 4750 1819 4750 
Q 2544 4750 2975 4387 
Q 3406 4025 3406 3419 
Q 3406 3131 3298 2873 
Q 3191 2616 2906 2266 
Q 2828 2175 2409 1742 
Q 1991 1309 1228 531 
z
" transform="scale(0.015625)"/>
     </defs>
     <use xlink:href="#DejaVuSans-Oblique-72"/>
     <use xlink:href="#DejaVuSans-32" transform="translate(41.113281 -16.40625)scale(0.7)"/>
    </g>
   </g>
   <g id="Line3DCollection_1">
    <path d="M 87.575094 189.506682 
L 59.024521 86.092973 
L 53.915557 37.155181 
" style="fill: none; stroke: #b0b0b0; stroke-width: 0.8"/>
    <path d="M 113.888867 183.135796 
L 84.006626 80.393016 
L 80.872764 31.175259 
" style="fill: none; stroke: #b0b0b0; stroke-width: 0.8"/>
    <path d="M 140.02748 176.807318 
L 108.831393 74.728957 
L 107.646934 25.235941 
" style="fill: none; stroke: #b0b0b0; stroke-width: 0.8"/>
    <path d="M 165.992676 170.520827 
L 133.500304 69.100459 
L 134.239925 19.336813 
" style="fill: none; stroke: #b0b0b0; stroke-width: 0.8"/>
    <path d="M 191.786176 164.275905 
L 158.014821 63.507187 
L 160.653571 13.477469 
" style="fill: none; stroke: #b0b0b0; stroke-width: 0.8"/>
   </g>
   <g id="xtick_1">
    <g id="line2d_2">
     <path d="M 87.333709 188.632358 
L 88.058527 191.257738 
" style="fill: none; stroke: #000000; stroke-width: 0.8; stroke-linecap: square"/>
    </g>
    <g id="text_2">
     <!-- 0.0 -->
     <g transform="translate(83.362633 214.029231)scale(0.1 -0.1)">
      <defs>
       <path id="DejaVuSans-30" d="M 2034 4250 
Q 1547 4250 1301 3770 
Q 1056 3291 1056 2328 
Q 1056 1369 1301 889 
Q 1547 409 2034 409 
Q 2525 409 2770 889 
Q 3016 1369 3016 2328 
Q 3016 3291 2770 3770 
Q 2525 4250 2034 4250 
z
M 2034 4750 
Q 2819 4750 3233 4129 
Q 3647 3509 3647 2328 
Q 3647 1150 3233 529 
Q 2819 -91 2034 -91 
Q 1250 -91 836 529 
Q 422 1150 422 2328 
Q 422 3509 836 4129 
Q 1250 4750 2034 4750 
z
" transform="scale(0.015625)"/>
       <path id="DejaVuSans-2e" d="M 684 794 
L 1344 794 
L 1344 0 
L 684 0 
L 684 794 
z
" transform="scale(0.015625)"/>
      </defs>
      <use xlink:href="#DejaVuSans-30"/>
      <use xlink:href="#DejaVuSans-2e" x="63.623047"/>
      <use xlink:href="#DejaVuSans-30" x="95.410156"/>
     </g>
    </g>
   </g>
   <g id="xtick_2">
    <g id="line2d_3">
     <path d="M 113.636269 182.2673 
L 114.394755 184.875171 
" style="fill: none; stroke: #000000; stroke-width: 0.8; stroke-linecap: square"/>
    </g>
    <g id="text_3">
     <!-- 0.1 -->
     <g transform="translate(109.605204 207.616177)scale(0.1 -0.1)">
      <defs>
       <path id="DejaVuSans-31" d="M 794 531 
L 1825 531 
L 1825 4091 
L 703 3866 
L 703 4441 
L 1819 4666 
L 2450 4666 
L 2450 531 
L 3481 531 
L 3481 0 
L 794 0 
L 794 531 
z
" transform="scale(0.015625)"/>
      </defs>
      <use xlink:href="#DejaVuSans-30"/>
      <use xlink:href="#DejaVuSans-2e" x="63.623047"/>
      <use xlink:href="#DejaVuSans-31" x="95.410156"/>
     </g>
    </g>
   </g>
   <g id="xtick_3">
    <g id="line2d_4">
     <path d="M 139.763823 175.944593 
L 140.555515 178.535129 
" style="fill: none; stroke: #000000; stroke-width: 0.8; stroke-linecap: square"/>
    </g>
    <g id="text_4">
     <!-- 0.2 -->
     <g transform="translate(135.673477 201.245717)scale(0.1 -0.1)">
      <use xlink:href="#DejaVuSans-30"/>
      <use xlink:href="#DejaVuSans-2e" x="63.623047"/>
      <use xlink:href="#DejaVuSans-32" x="95.410156"/>
     </g>
    </g>
   </g>
   <g id="xtick_4">
    <g id="line2d_5">
     <path d="M 165.718112 169.663814 
L 166.542553 172.237188 
" style="fill: none; stroke: #000000; stroke-width: 0.8; stroke-linecap: square"/>
    </g>
    <g id="text_5">
     <!-- 0.3 -->
     <g transform="translate(161.569185 194.917429)scale(0.1 -0.1)">
      <defs>
       <path id="DejaVuSans-33" d="M 2597 2516 
Q 3050 2419 3304 2112 
Q 3559 1806 3559 1356 
Q 3559 666 3084 287 
Q 2609 -91 1734 -91 
Q 1441 -91 1130 -33 
Q 819 25 488 141 
L 488 750 
Q 750 597 1062 519 
Q 1375 441 1716 441 
Q 2309 441 2620 675 
Q 2931 909 2931 1356 
Q 2931 1769 2642 2001 
Q 2353 2234 1838 2234 
L 1294 2234 
L 1294 2753 
L 1863 2753 
Q 2328 2753 2575 2939 
Q 2822 3125 2822 3475 
Q 2822 3834 2567 4026 
Q 2313 4219 1838 4219 
Q 1578 4219 1281 4162 
Q 984 4106 628 3988 
L 628 4550 
Q 988 4650 1302 4700 
Q 1616 4750 1894 4750 
Q 2613 4750 3031 4423 
Q 3450 4097 3450 3541 
Q 3450 3153 3228 2886 
Q 3006 2619 2597 2516 
z
" transform="scale(0.015625)"/>
      </defs>
      <use xlink:href="#DejaVuSans-30"/>
      <use xlink:href="#DejaVuSans-2e" x="63.623047"/>
      <use xlink:href="#DejaVuSans-33" x="95.410156"/>
     </g>
    </g>
   </g>
   <g id="xtick_5">
    <g id="line2d_6">
     <path d="M 191.500855 163.424549 
L 192.357594 165.98093 
" style="fill: none; stroke: #000000; stroke-width: 0.8; stroke-linecap: square"/>
    </g>
    <g id="text_6">
     <!-- 0.4 -->
     <g transform="translate(187.294034 188.630893)scale(0.1 -0.1)">
      <defs>
       <path id="DejaVuSans-34" d="M 2419 4116 
L 825 1625 
L 2419 1625 
L 2419 4116 
z
M 2253 4666 
L 3047 4666 
L 3047 1625 
L 3713 1625 
L 3713 1100 
L 3047 1100 
L 3047 0 
L 2419 0 
L 2419 1100 
L 313 1100 
L 313 1709 
L 2253 4666 
z
" transform="scale(0.015625)"/>
      </defs>
      <use xlink:href="#DejaVuSans-30"/>
      <use xlink:href="#DejaVuSans-2e" x="63.623047"/>
      <use xlink:href="#DejaVuSans-34" x="95.410156"/>
     </g>
    </g>
   </g>
  </g>
  <g id="axis3d_2">
   <g id="line2d_7">
    <path d="M 51.708221 87.762272 
L 79.866995 191.372907 
" style="fill: none; stroke: #000000; stroke-width: 0.8; stroke-linecap: square"/>
   </g>
   <g id="text_7">
    <!-- $r_1$ -->
    <g transform="translate(33.904766 151.709637)rotate(-285.204319)scale(0.1 -0.1)">
     <use xlink:href="#DejaVuSans-Oblique-72"/>
     <use xlink:href="#DejaVuSans-31" transform="translate(41.113281 -16.40625)scale(0.7)"/>
    </g>
   </g>
   <g id="Line3DCollection_2">
    <path d="M 202.969188 110.447129 
L 196.990033 155.7243 
L 77.979165 184.426607 
" style="fill: none; stroke: #b0b0b0; stroke-width: 0.8"/>
    <path d="M 194.54803 86.463238 
L 189.271281 132.984864 
L 71.609584 160.989639 
" style="fill: none; stroke: #b0b0b0; stroke-width: 0.8"/>
    <path d="M 186.344901 63.100302 
L 181.737602 110.790659 
L 65.395011 138.123023 
" style="fill: none; stroke: #b0b0b0; stroke-width: 0.8"/>
    <path d="M 178.35144 40.334514 
L 174.382421 89.122306 
L 59.329855 115.80619 
" style="fill: none; stroke: #b0b0b0; stroke-width: 0.8"/>
    <path d="M 170.559711 18.143269 
L 167.199468 67.961335 
L 53.408792 94.019548 
" style="fill: none; stroke: #b0b0b0; stroke-width: 0.8"/>
   </g>
   <g id="xtick_6">
    <g id="line2d_8">
     <path d="M 78.945715 184.1935 
L 76.045353 184.892992 
" style="fill: none; stroke: #000000; stroke-width: 0.8; stroke-linecap: square"/>
    </g>
    <g id="text_8">
     <!-- 0.0 -->
     <g transform="translate(56.797584 199.855669)scale(0.1 -0.1)">
      <use xlink:href="#DejaVuSans-30"/>
      <use xlink:href="#DejaVuSans-2e" x="63.623047"/>
      <use xlink:href="#DejaVuSans-30" x="95.410156"/>
     </g>
    </g>
   </g>
   <g id="xtick_7">
    <g id="line2d_9">
     <path d="M 72.565001 160.762239 
L 69.698056 161.444604 
" style="fill: none; stroke: #000000; stroke-width: 0.8; stroke-linecap: square"/>
    </g>
    <g id="text_9">
     <!-- 0.1 -->
     <g transform="translate(50.633532 176.483641)scale(0.1 -0.1)">
      <use xlink:href="#DejaVuSans-30"/>
      <use xlink:href="#DejaVuSans-2e" x="63.623047"/>
      <use xlink:href="#DejaVuSans-31" x="95.410156"/>
     </g>
    </g>
   </g>
   <g id="xtick_8">
    <g id="line2d_10">
     <path d="M 66.339547 137.901124 
L 63.505261 138.566982 
" style="fill: none; stroke: #000000; stroke-width: 0.8; stroke-linecap: square"/>
    </g>
    <g id="text_10">
     <!-- 0.2 -->
     <g transform="translate(44.618469 153.676531)scale(0.1 -0.1)">
      <use xlink:href="#DejaVuSans-30"/>
      <use xlink:href="#DejaVuSans-2e" x="63.623047"/>
      <use xlink:href="#DejaVuSans-32" x="95.410156"/>
     </g>
    </g>
   </g>
   <g id="xtick_9">
    <g id="line2d_11">
     <path d="M 60.263754 115.589593 
L 57.461395 116.239538 
" style="fill: none; stroke: #000000; stroke-width: 0.8; stroke-linecap: square"/>
    </g>
    <g id="text_11">
     <!-- 0.3 -->
     <g transform="translate(38.747059 131.414102)scale(0.1 -0.1)">
      <use xlink:href="#DejaVuSans-30"/>
      <use xlink:href="#DejaVuSans-2e" x="63.623047"/>
      <use xlink:href="#DejaVuSans-33" x="95.410156"/>
     </g>
    </g>
   </g>
   <g id="xtick_10">
    <g id="line2d_12">
     <path d="M 54.332289 93.808066 
L 51.561149 94.44266 
" style="fill: none; stroke: #000000; stroke-width: 0.8; stroke-linecap: square"/>
    </g>
    <g id="text_12">
     <!-- 0.4 -->
     <g transform="translate(33.014216 109.677073)scale(0.1 -0.1)">
      <use xlink:href="#DejaVuSans-30"/>
      <use xlink:href="#DejaVuSans-2e" x="63.623047"/>
      <use xlink:href="#DejaVuSans-34" x="95.410156"/>
     </g>
    </g>
   </g>
  </g>
  <g id="axis3d_3">
   <g id="line2d_13">
    <path d="M 51.708221 87.762272 
L 46.01829 38.907033 
" style="fill: none; stroke: #000000; stroke-width: 0.8; stroke-linecap: square"/>
   </g>
   <g id="text_13">
    <!-- $R_0$ -->
    <g transform="translate(7.2 49.058489)scale(0.1 -0.1)">
     <defs>
      <path id="DejaVuSans-Oblique-52" d="M 1613 4147 
L 1294 2491 
L 2106 2491 
Q 2584 2491 2879 2755 
Q 3175 3019 3175 3444 
Q 3175 3784 2976 3965 
Q 2778 4147 2406 4147 
L 1613 4147 
z
M 2772 2241 
Q 2972 2194 3105 2009 
Q 3238 1825 3413 1275 
L 3809 0 
L 3144 0 
L 2778 1197 
Q 2638 1659 2453 1815 
Q 2269 1972 1888 1972 
L 1191 1972 
L 806 0 
L 172 0 
L 1081 4666 
L 2503 4666 
Q 3150 4666 3495 4373 
Q 3841 4081 3841 3531 
Q 3841 3044 3547 2687 
Q 3253 2331 2772 2241 
z
" transform="scale(0.015625)"/>
     </defs>
     <use xlink:href="#DejaVuSans-Oblique-52" transform="translate(0 0.09375)"/>
     <use xlink:href="#DejaVuSans-30" transform="translate(69.482422 -16.3125)scale(0.7)"/>
    </g>
   </g>
   <g id="Line3DCollection_3">
    <path d="M 51.40348 85.145685 
L 165.306941 59.19594 
L 199.607712 160.064938 
" style="fill: none; stroke: #b0b0b0; stroke-width: 0.8"/>
    <path d="M 50.432328 76.807119 
L 165.851511 50.63685 
L 200.661814 152.419609 
" style="fill: none; stroke: #b0b0b0; stroke-width: 0.8"/>
    <path d="M 49.43484 68.242425 
L 166.410631 41.849081 
L 201.745723 144.558095 
" style="fill: none; stroke: #b0b0b0; stroke-width: 0.8"/>
    <path d="M 48.40993 59.442277 
L 166.984892 32.823343 
L 202.860721 136.471093 
" style="fill: none; stroke: #b0b0b0; stroke-width: 0.8"/>
    <path d="M 47.356451 50.396831 
L 167.574917 23.549838 
L 204.008165 128.148763 
" style="fill: none; stroke: #b0b0b0; stroke-width: 0.8"/>
    <path d="M 46.273192 41.095685 
L 168.181364 14.018221 
L 205.189493 119.580679 
" style="fill: none; stroke: #b0b0b0; stroke-width: 0.8"/>
   </g>
   <g id="xtick_11">
    <g id="line2d_14">
     <path d="M 52.327903 84.935081 
L 49.553986 85.567041 
" style="fill: none; stroke: #000000; stroke-width: 0.8; stroke-linecap: square"/>
    </g>
    <g id="text_14">
     <!-- 1 -->
     <g transform="translate(32.133441 84.611022)scale(0.1 -0.1)">
      <use xlink:href="#DejaVuSans-31"/>
     </g>
    </g>
   </g>
   <g id="xtick_12">
    <g id="line2d_15">
     <path d="M 51.369231 76.594685 
L 48.557856 77.232139 
" style="fill: none; stroke: #000000; stroke-width: 0.8; stroke-linecap: square"/>
    </g>
    <g id="text_15">
     <!-- 2 -->
     <g transform="translate(30.952478 76.202256)scale(0.1 -0.1)">
      <use xlink:href="#DejaVuSans-32"/>
     </g>
    </g>
   </g>
   <g id="xtick_13">
    <g id="line2d_16">
     <path d="M 50.384565 68.028138 
L 47.534706 68.671154 
" style="fill: none; stroke: #000000; stroke-width: 0.8; stroke-linecap: square"/>
    </g>
    <g id="text_16">
     <!-- 3 -->
     <g transform="translate(29.739637 67.566514)scale(0.1 -0.1)">
      <use xlink:href="#DejaVuSans-33"/>
     </g>
    </g>
   </g>
   <g id="xtick_14">
    <g id="line2d_17">
     <path d="M 49.372832 59.226115 
L 46.483422 59.874759 
" style="fill: none; stroke: #000000; stroke-width: 0.8; stroke-linecap: square"/>
    </g>
    <g id="text_17">
     <!-- 4 -->
     <g transform="translate(28.493611 58.69448)scale(0.1 -0.1)">
      <use xlink:href="#DejaVuSans-34"/>
     </g>
    </g>
   </g>
   <g id="xtick_15">
    <g id="line2d_18">
     <path d="M 48.332902 50.178771 
L 45.402827 50.833111 
" style="fill: none; stroke: #000000; stroke-width: 0.8; stroke-linecap: square"/>
    </g>
    <g id="text_18">
     <!-- 5 -->
     <g transform="translate(27.213017 49.576321)scale(0.1 -0.1)">
      <defs>
       <path id="DejaVuSans-35" d="M 691 4666 
L 3169 4666 
L 3169 4134 
L 1269 4134 
L 1269 2991 
Q 1406 3038 1543 3061 
Q 1681 3084 1819 3084 
Q 2600 3084 3056 2656 
Q 3513 2228 3513 1497 
Q 3513 744 3044 326 
Q 2575 -91 1722 -91 
Q 1428 -91 1123 -41 
Q 819 9 494 109 
L 494 744 
Q 775 591 1075 516 
Q 1375 441 1709 441 
Q 2250 441 2565 725 
Q 2881 1009 2881 1497 
Q 2881 1984 2565 2268 
Q 2250 2553 1709 2553 
Q 1456 2553 1204 2497 
Q 953 2441 691 2322 
L 691 4666 
z
" transform="scale(0.015625)"/>
      </defs>
      <use xlink:href="#DejaVuSans-35"/>
     </g>
    </g>
   </g>
   <g id="xtick_16">
    <g id="line2d_19">
     <path d="M 47.263578 40.875707 
L 44.291677 41.535807 
" style="fill: none; stroke: #000000; stroke-width: 0.8; stroke-linecap: square"/>
    </g>
    <g id="text_19">
     <!-- 6 -->
     <g transform="translate(25.896398 40.201652)scale(0.1 -0.1)">
      <defs>
       <path id="DejaVuSans-36" d="M 2113 2584 
Q 1688 2584 1439 2293 
Q 1191 2003 1191 1497 
Q 1191 994 1439 701 
Q 1688 409 2113 409 
Q 2538 409 2786 701 
Q 3034 994 3034 1497 
Q 3034 2003 2786 2293 
Q 2538 2584 2113 2584 
z
M 3366 4563 
L 3366 3988 
Q 3128 4100 2886 4159 
Q 2644 4219 2406 4219 
Q 1781 4219 1451 3797 
Q 1122 3375 1075 2522 
Q 1259 2794 1537 2939 
Q 1816 3084 2150 3084 
Q 2853 3084 3261 2657 
Q 3669 2231 3669 1497 
Q 3669 778 3244 343 
Q 2819 -91 2113 -91 
Q 1303 -91 875 529 
Q 447 1150 447 2328 
Q 447 3434 972 4092 
Q 1497 4750 2381 4750 
Q 2619 4750 2861 4703 
Q 3103 4656 3366 4563 
z
" transform="scale(0.015625)"/>
      </defs>
      <use xlink:href="#DejaVuSans-36"/>
     </g>
    </g>
   </g>
  </g>
  <g id="axes_1">
   <g id="Poly3DCollection_1">
    <path d="M 140.872535 75.742484 
L 146.124748 73.676382 
L 144.597032 71.446577 
L 139.379227 73.417455 
z
" clip-path="url(#p7f9f2b506a)" style="fill: #3c4ec2"/>
    <path d="M 135.64701 76.758295 
L 140.872535 75.742484 
L 139.379227 73.417455 
L 134.183155 74.400294 
z
" clip-path="url(#p7f9f2b506a)" style="fill: #3b4cc0"/>
    <path d="M 146.124748 73.676382 
L 151.444352 70.212093 
L 149.879393 68.022142 
L 144.597032 71.446577 
z
" clip-path="url(#p7f9f2b506a)" style="fill: #485fd1"/>
    <path d="M 130.419633 76.972928 
L 135.64701 76.758295 
L 134.183155 74.400294 
L 128.982635 74.639319 
z
" clip-path="url(#p7f9f2b506a)" style="fill: #3e51c5"/>
    <path d="M 125.17005 76.544895 
L 130.419633 76.972928 
L 128.982635 74.639319 
L 123.759251 74.268551 
z
" clip-path="url(#p7f9f2b506a)" style="fill: #485fd1"/>
    <path d="M 159.543517 80.24228 
L 164.632865 81.242139 
L 163.269568 74.546687 
L 158.170652 73.492192 
z
" clip-path="url(#p7f9f2b506a)" style="fill: #485fd1"/>
    <path d="M 160.994489 85.613807 
L 166.089134 86.509026 
L 164.632865 81.242139 
L 159.543517 80.24228 
z
" clip-path="url(#p7f9f2b506a)" style="fill: #3c4ec2"/>
    <path d="M 142.375645 78.362484 
L 147.648086 76.542789 
L 146.124748 73.676382 
L 140.872535 75.742484 
z
" clip-path="url(#p7f9f2b506a)" style="fill: #4a63d3"/>
    <path d="M 151.444352 70.212093 
L 156.831473 66.011171 
L 155.281791 62.721285 
L 149.879393 68.022142 
z
" clip-path="url(#p7f9f2b506a)" style="fill: #5d7ce6"/>
    <path d="M 137.124665 79.304951 
L 142.375645 78.362484 
L 140.872535 75.742484 
L 135.64701 76.758295 
z
" clip-path="url(#p7f9f2b506a)" style="fill: #4961d2"/>
    <path d="M 147.648086 76.542789 
L 152.94555 74.243487 
L 151.444352 70.212093 
L 146.124748 73.676382 
z
" clip-path="url(#p7f9f2b506a)" style="fill: #536edd"/>
    <path d="M 158.170652 73.492192 
L 163.269568 74.546687 
L 162.013 65.986613 
L 156.831473 66.011171 
z
" clip-path="url(#p7f9f2b506a)" style="fill: #5d7ce6"/>
    <path d="M 162.513068 89.964439 
L 167.617509 90.82011 
L 166.089134 86.509026 
L 160.994489 85.613807 
z
" clip-path="url(#p7f9f2b506a)" style="fill: #3b4cc0"/>
    <path d="M 131.871945 79.470854 
L 137.124665 79.304951 
L 135.64701 76.758295 
L 130.419633 76.972928 
z
" clip-path="url(#p7f9f2b506a)" style="fill: #4c66d6"/>
    <path d="M 119.882869 75.613296 
L 125.17005 76.544895 
L 123.759251 74.268551 
L 118.498692 73.405502 
z
" clip-path="url(#p7f9f2b506a)" style="fill: #5572df"/>
    <path d="M 156.831473 66.011171 
L 162.013 65.986613 
L 160.629923 59.425617 
L 155.281791 62.721285 
z
" clip-path="url(#p7f9f2b506a)" style="fill: #6b8df0"/>
    <path d="M 152.94555 74.243487 
L 158.170652 73.492192 
L 156.831473 66.011171 
L 151.444352 70.212093 
z
" clip-path="url(#p7f9f2b506a)" style="fill: #5e7de7"/>
    <path d="M 154.381985 79.841631 
L 159.543517 80.24228 
L 158.170652 73.492192 
L 152.94555 74.243487 
z
" clip-path="url(#p7f9f2b506a)" style="fill: #536edd"/>
    <path d="M 155.844747 84.977016 
L 160.994489 85.613807 
L 159.543517 80.24228 
L 154.381985 79.841631 
z
" clip-path="url(#p7f9f2b506a)" style="fill: #4a63d3"/>
    <path d="M 149.143015 80.535115 
L 154.381985 79.841631 
L 152.94555 74.243487 
L 147.648086 76.542789 
z
" clip-path="url(#p7f9f2b506a)" style="fill: #5572df"/>
    <path d="M 143.876163 81.614283 
L 149.143015 80.535115 
L 147.648086 76.542789 
L 142.375645 78.362484 
z
" clip-path="url(#p7f9f2b506a)" style="fill: #5470de"/>
    <path d="M 126.597294 78.995545 
L 131.871945 79.470854 
L 130.419633 76.972928 
L 125.17005 76.544895 
z
" clip-path="url(#p7f9f2b506a)" style="fill: #5673e0"/>
    <path d="M 164.091649 93.550283 
L 169.208348 94.425235 
L 167.617509 90.82011 
L 162.513068 89.964439 
z
" clip-path="url(#p7f9f2b506a)" style="fill: #3e51c5"/>
    <path d="M 138.609755 82.275347 
L 143.876163 81.614283 
L 142.375645 78.362484 
L 137.124665 79.304951 
z
" clip-path="url(#p7f9f2b506a)" style="fill: #5470de"/>
    <path d="M 157.358729 89.261187 
L 162.513068 89.964439 
L 160.994489 85.613807 
L 155.844747 84.977016 
z
" clip-path="url(#p7f9f2b506a)" style="fill: #4961d2"/>
    <path d="M 150.63163 84.936463 
L 155.844747 84.977016 
L 154.381985 79.841631 
L 149.143015 80.535115 
z
" clip-path="url(#p7f9f2b506a)" style="fill: #5470de"/>
    <path d="M 114.547618 74.344805 
L 119.882869 75.613296 
L 118.498692 73.405502 
L 113.19099 72.202121 
z
" clip-path="url(#p7f9f2b506a)" style="fill: #6687ed"/>
    <path d="M 61.7344 94.244841 
L 66.652192 88.622772 
L 65.538336 85.800411 
L 60.623542 91.118122 
z
" clip-path="url(#p7f9f2b506a)" style="fill: #4961d2"/>
    <path d="M 133.336156 82.317117 
L 138.609755 82.275347 
L 137.124665 79.304951 
L 131.871945 79.470854 
z
" clip-path="url(#p7f9f2b506a)" style="fill: #5a78e4"/>
    <path d="M 145.375454 85.329688 
L 150.63163 84.936463 
L 149.143015 80.535115 
L 143.876163 81.614283 
z
" clip-path="url(#p7f9f2b506a)" style="fill: #5977e3"/>
    <path d="M 121.284906 78.020559 
L 126.597294 78.995545 
L 125.17005 76.544895 
L 119.882869 75.613296 
z
" clip-path="url(#p7f9f2b506a)" style="fill: #6687ed"/>
    <path d="M 152.147362 88.944867 
L 157.358729 89.261187 
L 155.844747 84.977016 
L 150.63163 84.936463 
z
" clip-path="url(#p7f9f2b506a)" style="fill: #5470de"/>
    <path d="M 158.925211 92.802899 
L 164.091649 93.550283 
L 162.513068 89.964439 
L 157.358729 89.261187 
z
" clip-path="url(#p7f9f2b506a)" style="fill: #4c66d6"/>
    <path d="M 140.100938 85.617408 
L 145.375454 85.329688 
L 143.876163 81.614283 
L 138.609755 82.275347 
z
" clip-path="url(#p7f9f2b506a)" style="fill: #5e7de7"/>
    <path d="M 165.726204 96.535457 
L 170.857794 97.463469 
L 169.208348 94.425235 
L 164.091649 93.550283 
z
" clip-path="url(#p7f9f2b506a)" style="fill: #485fd1"/>
    <path d="M 128.039254 81.779046 
L 133.336156 82.317117 
L 131.871945 79.470854 
L 126.597294 78.995545 
z
" clip-path="url(#p7f9f2b506a)" style="fill: #6485ec"/>
    <path d="M 109.16053 72.958077 
L 114.547618 74.344805 
L 113.19099 72.202121 
L 107.832586 70.867616 
z
" clip-path="url(#p7f9f2b506a)" style="fill: #7a9df8"/>
    <path d="M 146.890289 88.967132 
L 152.147362 88.944867 
L 150.63163 84.936463 
L 145.375454 85.329688 
z
" clip-path="url(#p7f9f2b506a)" style="fill: #5e7de7"/>
    <path d="M 134.810759 85.480687 
L 140.100938 85.617408 
L 138.609755 82.275347 
L 133.336156 82.317117 
z
" clip-path="url(#p7f9f2b506a)" style="fill: #6687ed"/>
    <path d="M 62.850836 97.350004 
L 67.776241 91.456146 
L 66.652192 88.622772 
L 61.7344 94.244841 
z
" clip-path="url(#p7f9f2b506a)" style="fill: #5470de"/>
    <path d="M 115.923987 76.717402 
L 121.284906 78.020559 
L 119.882869 75.613296 
L 114.547618 74.344805 
z
" clip-path="url(#p7f9f2b506a)" style="fill: #779af7"/>
    <path d="M 153.703134 92.365968 
L 158.925211 92.802899 
L 157.358729 89.261187 
L 152.147362 88.944867 
z
" clip-path="url(#p7f9f2b506a)" style="fill: #5a78e4"/>
    <path d="M 66.652192 88.622772 
L 71.655953 83.18892 
L 70.528447 80.611116 
L 65.538336 85.800411 
z
" clip-path="url(#p7f9f2b506a)" style="fill: #688aef"/>
    <path d="M 160.542545 95.743803 
L 165.726204 96.535457 
L 164.091649 93.550283 
L 158.925211 92.802899 
z
" clip-path="url(#p7f9f2b506a)" style="fill: #5673e0"/>
    <path d="M 122.704266 80.774452 
L 128.039254 81.779046 
L 126.597294 78.995545 
L 121.284906 78.020559 
z
" clip-path="url(#p7f9f2b506a)" style="fill: #7597f6"/>
    <path d="M 141.605815 88.979376 
L 146.890289 88.967132 
L 145.375454 85.329688 
L 140.100938 85.617408 
z
" clip-path="url(#p7f9f2b506a)" style="fill: #6687ed"/>
    <path d="M 129.494358 84.862736 
L 134.810759 85.480687 
L 133.336156 82.317117 
L 128.039254 81.779046 
z
" clip-path="url(#p7f9f2b506a)" style="fill: #7295f4"/>
    <path d="M 167.412495 99.063045 
L 172.561946 100.056074 
L 170.857794 97.463469 
L 165.726204 96.535457 
z
" clip-path="url(#p7f9f2b506a)" style="fill: #5572df"/>
    <path d="M 148.434177 92.211427 
L 153.703134 92.365968 
L 152.147362 88.944867 
L 146.890289 88.967132 
z
" clip-path="url(#p7f9f2b506a)" style="fill: #6687ed"/>
    <path d="M 103.727054 71.73087 
L 109.16053 72.958077 
L 107.832586 70.867616 
L 102.428962 69.673249 
z
" clip-path="url(#p7f9f2b506a)" style="fill: #8fb1fe"/>
    <path d="M 136.299294 88.687727 
L 141.605815 88.979376 
L 140.100938 85.617408 
L 134.810759 85.480687 
z
" clip-path="url(#p7f9f2b506a)" style="fill: #6f92f3"/>
    <path d="M 63.974286 100.444886 
L 68.911366 94.307804 
L 67.776241 91.456146 
L 62.850836 97.350004 
z
" clip-path="url(#p7f9f2b506a)" style="fill: #6180e9"/>
    <path d="M 110.510488 75.306305 
L 115.923987 76.717402 
L 114.547618 74.344805 
L 109.16053 72.958077 
z
" clip-path="url(#p7f9f2b506a)" style="fill: #8caffe"/>
    <path d="M 155.301949 95.245697 
L 160.542545 95.743803 
L 158.925211 92.802899 
L 153.703134 92.365968 
z
" clip-path="url(#p7f9f2b506a)" style="fill: #6485ec"/>
    <path d="M 117.320624 79.463366 
L 122.704266 80.774452 
L 121.284906 78.020559 
L 115.923987 76.717402 
z
" clip-path="url(#p7f9f2b506a)" style="fill: #88abfd"/>
    <path d="M 71.655953 83.18892 
L 76.776518 78.428111 
L 75.628 76.046732 
L 70.528447 80.611116 
z
" clip-path="url(#p7f9f2b506a)" style="fill: #86a9fc"/>
    <path d="M 143.133735 92.068953 
L 148.434177 92.211427 
L 146.890289 88.967132 
L 141.605815 88.979376 
z
" clip-path="url(#p7f9f2b506a)" style="fill: #6f92f3"/>
    <path d="M 67.776241 91.456146 
L 72.797643 85.810662 
L 71.655953 83.18892 
L 66.652192 88.622772 
z
" clip-path="url(#p7f9f2b506a)" style="fill: #779af7"/>
    <path d="M 124.139076 83.833704 
L 129.494358 84.862736 
L 128.039254 81.779046 
L 122.704266 80.774452 
z
" clip-path="url(#p7f9f2b506a)" style="fill: #82a6fb"/>
    <path d="M 162.207406 98.229843 
L 167.412495 99.063045 
L 165.726204 96.535457 
L 160.542545 95.743803 
z
" clip-path="url(#p7f9f2b506a)" style="fill: #6687ed"/>
    <path d="M 98.263991 70.988228 
L 103.727054 71.73087 
L 102.428962 69.673249 
L 96.996785 68.938744 
z
" clip-path="url(#p7f9f2b506a)" style="fill: #9fbfff"/>
    <path d="M 130.963714 87.996521 
L 136.299294 88.687727 
L 134.810759 85.480687 
L 129.494358 84.862736 
z
" clip-path="url(#p7f9f2b506a)" style="fill: #7da0f9"/>
    <path d="M 150.012948 95.011387 
L 155.301949 95.245697 
L 153.703134 92.365968 
L 148.434177 92.211427 
z
" clip-path="url(#p7f9f2b506a)" style="fill: #7295f4"/>
    <path d="M 169.14289 101.301048 
L 174.312956 102.356094 
L 172.561946 100.056074 
L 167.412495 99.063045 
z
" clip-path="url(#p7f9f2b506a)" style="fill: #6687ed"/>
    <path d="M 137.807722 91.677217 
L 143.133735 92.068953 
L 141.605815 88.979376 
L 136.299294 88.687727 
z
" clip-path="url(#p7f9f2b506a)" style="fill: #7b9ff9"/>
    <path d="M 105.049466 74.062745 
L 110.510488 75.306305 
L 109.16053 72.958077 
L 103.727054 71.73087 
z
" clip-path="url(#p7f9f2b506a)" style="fill: #a1c0ff"/>
    <path d="M 76.776518 78.428111 
L 82.020411 74.712394 
L 80.845622 72.480026 
L 75.628 76.046732 
z
" clip-path="url(#p7f9f2b506a)" style="fill: #9ebeff"/>
    <path d="M 65.105431 103.533525 
L 70.057366 97.173091 
L 68.911366 94.307804 
L 63.974286 100.444886 
z
" clip-path="url(#p7f9f2b506a)" style="fill: #6e90f2"/>
    <path d="M 92.79989 71.066596 
L 98.263991 70.988228 
L 96.996785 68.938744 
L 91.564189 68.995003 
z
" clip-path="url(#p7f9f2b506a)" style="fill: #abc8fd"/>
    <path d="M 111.884061 78.054139 
L 117.320624 79.463366 
L 115.923987 76.717402 
L 110.510488 75.306305 
z
" clip-path="url(#p7f9f2b506a)" style="fill: #9dbdff"/>
    <path d="M 156.942608 97.702129 
L 162.207406 98.229843 
L 160.542545 95.743803 
L 155.301949 95.245697 
z
" clip-path="url(#p7f9f2b506a)" style="fill: #7597f6"/>
    <path d="M 118.735104 82.530425 
L 124.139076 83.833704 
L 122.704266 80.774452 
L 117.320624 79.463366 
z
" clip-path="url(#p7f9f2b506a)" style="fill: #96b7ff"/>
    <path d="M 144.690405 94.794906 
L 150.012948 95.011387 
L 148.434177 92.211427 
L 143.133735 92.068953 
z
" clip-path="url(#p7f9f2b506a)" style="fill: #7da0f9"/>
    <path d="M 125.588312 86.945755 
L 130.963714 87.996521 
L 129.494358 84.862736 
L 124.139076 83.833704 
z
" clip-path="url(#p7f9f2b506a)" style="fill: #8fb1fe"/>
    <path d="M 68.911366 94.307804 
L 73.954297 88.484521 
L 72.797643 85.810662 
L 67.776241 91.456146 
z
" clip-path="url(#p7f9f2b506a)" style="fill: #86a9fc"/>
    <path d="M 72.797643 85.810662 
L 77.943171 80.894874 
L 76.776518 78.428111 
L 71.655953 83.18892 
z
" clip-path="url(#p7f9f2b506a)" style="fill: #97b8ff"/>
    <path d="M 82.020411 74.712394 
L 87.372197 72.253125 
L 86.167761 70.12271 
L 80.845622 72.480026 
z
" clip-path="url(#p7f9f2b506a)" style="fill: #adc9fd"/>
    <path d="M 87.372197 72.253125 
L 92.79989 71.066596 
L 91.564189 68.995003 
L 86.167761 70.12271 
z
" clip-path="url(#p7f9f2b506a)" style="fill: #b1cbfc"/>
    <path d="M 132.450799 90.932313 
L 137.807722 91.677217 
L 136.299294 88.687727 
L 130.963714 87.996521 
z
" clip-path="url(#p7f9f2b506a)" style="fill: #8badfd"/>
    <path d="M 163.913147 100.434268 
L 169.14289 101.301048 
L 167.412495 99.063045 
L 162.207406 98.229843 
z
" clip-path="url(#p7f9f2b506a)" style="fill: #779af7"/>
    <path d="M 99.557209 73.308308 
L 105.049466 74.062745 
L 103.727054 71.73087 
L 98.263991 70.988228 
z
" clip-path="url(#p7f9f2b506a)" style="fill: #b2ccfb"/>
    <path d="M 151.627456 97.441897 
L 156.942608 97.702129 
L 155.301949 95.245697 
L 150.012948 95.011387 
z
" clip-path="url(#p7f9f2b506a)" style="fill: #82a6fb"/>
    <path d="M 139.340702 94.348812 
L 144.690405 94.794906 
L 143.133735 92.068953 
L 137.807722 91.677217 
z
" clip-path="url(#p7f9f2b506a)" style="fill: #8badfd"/>
    <path d="M 106.398826 76.805247 
L 111.884061 78.054139 
L 110.510488 75.306305 
L 105.049466 74.062745 
z
" clip-path="url(#p7f9f2b506a)" style="fill: #b1cbfc"/>
    <path d="M 66.244506 106.6154 
L 71.213419 100.039772 
L 70.057366 97.173091 
L 65.105431 103.533525 
z
" clip-path="url(#p7f9f2b506a)" style="fill: #7b9ff9"/>
    <path d="M 170.904106 103.465456 
L 176.096594 104.569709 
L 174.312956 102.356094 
L 169.14289 101.301048 
z
" clip-path="url(#p7f9f2b506a)" style="fill: #7a9df8"/>
    <path d="M 113.278105 81.138855 
L 118.735104 82.530425 
L 117.320624 79.463366 
L 111.884061 78.054139 
z
" clip-path="url(#p7f9f2b506a)" style="fill: #aac7fd"/>
    <path d="M 77.943171 80.894874 
L 83.217123 77.082191 
L 82.020411 74.712394 
L 76.776518 78.428111 
z
" clip-path="url(#p7f9f2b506a)" style="fill: #afcafc"/>
    <path d="M 120.16407 85.651264 
L 125.588312 86.945755 
L 124.139076 83.833704 
L 118.735104 82.530425 
z
" clip-path="url(#p7f9f2b506a)" style="fill: #a2c1ff"/>
    <path d="M 127.053275 89.860538 
L 132.450799 90.932313 
L 130.963714 87.996521 
L 125.588312 86.945755 
z
" clip-path="url(#p7f9f2b506a)" style="fill: #9bbcff"/>
    <path d="M 94.061934 73.38057 
L 99.557209 73.308308 
L 98.263991 70.988228 
L 92.79989 71.066596 
z
" clip-path="url(#p7f9f2b506a)" style="fill: #bed2f6"/>
    <path d="M 158.620213 99.897526 
L 163.913147 100.434268 
L 162.207406 98.229843 
L 156.942608 97.702129 
z
" clip-path="url(#p7f9f2b506a)" style="fill: #88abfd"/>
    <path d="M 146.277691 97.201689 
L 151.627456 97.441897 
L 150.012948 95.011387 
L 144.690405 94.794906 
z
" clip-path="url(#p7f9f2b506a)" style="fill: #8fb1fe"/>
    <path d="M 70.057366 97.173091 
L 75.124868 91.196165 
L 73.954297 88.484521 
L 68.911366 94.307804 
z
" clip-path="url(#p7f9f2b506a)" style="fill: #96b7ff"/>
    <path d="M 73.954297 88.484521 
L 79.129115 83.46385 
L 77.943171 80.894874 
L 72.797643 85.810662 
z
" clip-path="url(#p7f9f2b506a)" style="fill: #a7c5fe"/>
    <path d="M 133.959222 93.567861 
L 139.340702 94.348812 
L 137.807722 91.677217 
L 132.450799 90.932313 
z
" clip-path="url(#p7f9f2b506a)" style="fill: #9abbff"/>
    <path d="M 83.217123 77.082191 
L 88.601531 74.577504 
L 87.372197 72.253125 
L 82.020411 74.712394 
z
" clip-path="url(#p7f9f2b506a)" style="fill: #bed2f6"/>
    <path d="M 88.601531 74.577504 
L 94.061934 73.38057 
L 92.79989 71.066596 
L 87.372197 72.253125 
z
" clip-path="url(#p7f9f2b506a)" style="fill: #c3d5f4"/>
    <path d="M 100.879793 76.020786 
L 106.398826 76.805247 
L 105.049466 74.062745 
L 99.557209 73.308308 
z
" clip-path="url(#p7f9f2b506a)" style="fill: #c1d4f4"/>
    <path d="M 165.648084 102.575243 
L 170.904106 103.465456 
L 169.14289 101.301048 
L 163.913147 100.434268 
z
" clip-path="url(#p7f9f2b506a)" style="fill: #8caffe"/>
    <path d="M 140.900429 96.733031 
L 146.277691 97.201689 
L 144.690405 94.794906 
L 139.340702 94.348812 
z
" clip-path="url(#p7f9f2b506a)" style="fill: #9bbcff"/>
    <path d="M 153.274765 99.64241 
L 158.620213 99.897526 
L 156.942608 97.702129 
L 151.627456 97.441897 
z
" clip-path="url(#p7f9f2b506a)" style="fill: #96b7ff"/>
    <path d="M 107.771299 79.889351 
L 113.278105 81.138855 
L 111.884061 78.054139 
L 106.398826 76.805247 
z
" clip-path="url(#p7f9f2b506a)" style="fill: #bed2f6"/>
    <path d="M 67.391705 109.689415 
L 72.378835 102.896197 
L 71.213419 100.039772 
L 66.244506 106.6154 
z
" clip-path="url(#p7f9f2b506a)" style="fill: #8badfd"/>
    <path d="M 114.686648 84.277346 
L 120.16407 85.651264 
L 118.735104 82.530425 
L 113.278105 81.138855 
z
" clip-path="url(#p7f9f2b506a)" style="fill: #b6cefa"/>
    <path d="M 121.606579 88.565663 
L 127.053275 89.860538 
L 125.588312 86.945755 
L 120.16407 85.651264 
z
" clip-path="url(#p7f9f2b506a)" style="fill: #afcafc"/>
    <path d="M 79.129115 83.46385 
L 84.437727 79.625508 
L 83.217123 77.082191 
L 77.943171 80.894874 
z
" clip-path="url(#p7f9f2b506a)" style="fill: #c0d4f5"/>
    <path d="M 172.675854 105.826097 
L 177.890964 106.959734 
L 176.096594 104.569709 
L 170.904106 103.465456 
z
" clip-path="url(#p7f9f2b506a)" style="fill: #8fb1fe"/>
    <path d="M 128.536624 92.474058 
L 133.959222 93.567861 
L 132.450799 90.932313 
L 127.053275 89.860538 
z
" clip-path="url(#p7f9f2b506a)" style="fill: #aac7fd"/>
    <path d="M 95.353794 76.033416 
L 100.879793 76.020786 
L 99.557209 73.308308 
L 94.061934 73.38057 
z
" clip-path="url(#p7f9f2b506a)" style="fill: #ccd9ed"/>
    <path d="M 71.213419 100.039772 
L 76.307132 93.914879 
L 75.124868 91.196165 
L 70.057366 97.173091 
z
" clip-path="url(#p7f9f2b506a)" style="fill: #a5c3fe"/>
    <path d="M 75.124868 91.196165 
L 80.332447 86.109818 
L 79.129115 83.46385 
L 73.954297 88.484521 
z
" clip-path="url(#p7f9f2b506a)" style="fill: #b7cff9"/>
    <path d="M 147.894193 99.408 
L 153.274765 99.64241 
L 151.627456 97.441897 
L 146.277691 97.201689 
z
" clip-path="url(#p7f9f2b506a)" style="fill: #a2c1ff"/>
    <path d="M 160.325411 102.03899 
L 165.648084 102.575243 
L 163.913147 100.434268 
L 158.620213 99.897526 
z
" clip-path="url(#p7f9f2b506a)" style="fill: #9dbdff"/>
    <path d="M 135.491311 95.929327 
L 140.900429 96.733031 
L 139.340702 94.348812 
L 133.959222 93.567861 
z
" clip-path="url(#p7f9f2b506a)" style="fill: #aac7fd"/>
    <path d="M 84.437727 79.625508 
L 89.858672 77.160813 
L 88.601531 74.577504 
L 83.217123 77.082191 
z
" clip-path="url(#p7f9f2b506a)" style="fill: #cdd9ec"/>
    <path d="M 89.858672 77.160813 
L 95.353794 76.033416 
L 94.061934 73.38057 
L 88.601531 74.577504 
z
" clip-path="url(#p7f9f2b506a)" style="fill: #d1dae9"/>
    <path d="M 102.227531 79.057682 
L 107.771299 79.889351 
L 106.398826 76.805247 
L 100.879793 76.020786 
z
" clip-path="url(#p7f9f2b506a)" style="fill: #cdd9ec"/>
    <path d="M 109.158357 83.027616 
L 114.686648 84.277346 
L 113.278105 81.138855 
L 107.771299 79.889351 
z
" clip-path="url(#p7f9f2b506a)" style="fill: #c9d7f0"/>
    <path d="M 116.106309 87.198388 
L 121.606579 88.565663 
L 120.16407 85.651264 
L 114.686648 84.277346 
z
" clip-path="url(#p7f9f2b506a)" style="fill: #c3d5f4"/>
    <path d="M 68.547472 112.756949 
L 73.553611 105.737877 
L 72.378835 102.896197 
L 67.391705 109.689415 
z
" clip-path="url(#p7f9f2b506a)" style="fill: #98b9ff"/>
    <path d="M 167.394301 104.921196 
L 172.675854 105.826097 
L 170.904106 103.465456 
L 165.648084 102.575243 
z
" clip-path="url(#p7f9f2b506a)" style="fill: #a1c0ff"/>
    <path d="M 142.486578 98.936717 
L 147.894193 99.408 
L 146.277691 97.201689 
L 140.900429 96.733031 
z
" clip-path="url(#p7f9f2b506a)" style="fill: #afcafc"/>
    <path d="M 123.064365 91.167218 
L 128.536624 92.474058 
L 127.053275 89.860538 
L 121.606579 88.565663 
z
" clip-path="url(#p7f9f2b506a)" style="fill: #bed2f6"/>
    <path d="M 154.948112 101.798491 
L 160.325411 102.03899 
L 158.620213 99.897526 
L 153.274765 99.64241 
z
" clip-path="url(#p7f9f2b506a)" style="fill: #aac7fd"/>
    <path d="M 80.332447 86.109818 
L 85.679485 82.305731 
L 84.437727 79.625508 
L 79.129115 83.46385 
z
" clip-path="url(#p7f9f2b506a)" style="fill: #cedaeb"/>
    <path d="M 174.430861 108.694075 
L 179.666729 109.831349 
L 177.890964 106.959734 
L 172.675854 105.826097 
z
" clip-path="url(#p7f9f2b506a)" style="fill: #9fbfff"/>
    <path d="M 184.392854 156.383261 
L 189.658183 156.394202 
L 188.471019 147.721775 
L 183.20884 147.406085 
z
" clip-path="url(#p7f9f2b506a)" style="fill: #4961d2"/>
    <path d="M 96.671401 78.965353 
L 102.227531 79.057682 
L 100.879793 76.020786 
L 95.353794 76.033416 
z
" clip-path="url(#p7f9f2b506a)" style="fill: #d8dce2"/>
    <path d="M 130.040838 94.813019 
L 135.491311 95.929327 
L 133.959222 93.567861 
L 128.536624 92.474058 
z
" clip-path="url(#p7f9f2b506a)" style="fill: #bcd2f7"/>
    <path d="M 72.378835 102.896197 
L 77.499106 96.610447 
L 76.307132 93.914879 
L 71.213419 100.039772 
z
" clip-path="url(#p7f9f2b506a)" style="fill: #b5cdfa"/>
    <path d="M 76.307132 93.914879 
L 81.548987 88.771992 
L 80.332447 86.109818 
L 75.124868 91.196165 
z
" clip-path="url(#p7f9f2b506a)" style="fill: #c6d6f1"/>
    <path d="M 103.590138 82.150153 
L 109.158357 83.027616 
L 107.771299 79.889351 
L 102.227531 79.057682 
z
" clip-path="url(#p7f9f2b506a)" style="fill: #d7dce3"/>
    <path d="M 85.679485 82.305731 
L 91.140118 79.95477 
L 89.858672 77.160813 
L 84.437727 79.625508 
z
" clip-path="url(#p7f9f2b506a)" style="fill: #d9dce1"/>
    <path d="M 91.140118 79.95477 
L 96.671401 78.965353 
L 95.353794 76.033416 
L 89.858672 77.160813 
z
" clip-path="url(#p7f9f2b506a)" style="fill: #dcdddd"/>
    <path d="M 149.535367 101.578465 
L 154.948112 101.798491 
L 153.274765 99.64241 
L 147.894193 99.408 
z
" clip-path="url(#p7f9f2b506a)" style="fill: #b6cefa"/>
    <path d="M 162.043551 104.379252 
L 167.394301 104.921196 
L 165.648084 102.575243 
L 160.325411 102.03899 
z
" clip-path="url(#p7f9f2b506a)" style="fill: #b1cbfc"/>
    <path d="M 137.047593 98.119874 
L 142.486578 98.936717 
L 140.900429 96.733031 
L 135.491311 95.929327 
z
" clip-path="url(#p7f9f2b506a)" style="fill: #bed2f6"/>
    <path d="M 110.554127 85.945196 
L 116.106309 87.198388 
L 114.686648 84.277346 
L 109.158357 83.027616 
z
" clip-path="url(#p7f9f2b506a)" style="fill: #d4dbe6"/>
    <path d="M 179.099774 156.32387 
L 184.392854 156.383261 
L 183.20884 147.406085 
L 177.91043 147.070054 
z
" clip-path="url(#p7f9f2b506a)" style="fill: #5470de"/>
    <path d="M 117.537852 89.793091 
L 123.064365 91.167218 
L 121.606579 88.565663 
L 116.106309 87.198388 
z
" clip-path="url(#p7f9f2b506a)" style="fill: #cfdaea"/>
    <path d="M 69.712573 115.822841 
L 74.738527 108.569344 
L 73.553611 105.737877 
L 68.547472 112.756949 
z
" clip-path="url(#p7f9f2b506a)" style="fill: #a7c5fe"/>
    <path d="M 183.20884 147.406085 
L 188.471019 147.721775 
L 187.253706 139.155108 
L 181.988481 138.588496 
z
" clip-path="url(#p7f9f2b506a)" style="fill: #688aef"/>
    <path d="M 169.127447 107.780864 
L 174.430861 108.694075 
L 172.675854 105.826097 
L 167.394301 104.921196 
z
" clip-path="url(#p7f9f2b506a)" style="fill: #b2ccfb"/>
    <path d="M 124.54014 93.485595 
L 130.040838 94.813019 
L 128.536624 92.474058 
L 123.064365 91.167218 
z
" clip-path="url(#p7f9f2b506a)" style="fill: #cdd9ec"/>
    <path d="M 176.137086 112.386332 
L 181.389729 113.495425 
L 179.666729 109.831349 
L 174.430861 108.694075 
z
" clip-path="url(#p7f9f2b506a)" style="fill: #abc8fd"/>
    <path d="M 98.004259 81.952144 
L 103.590138 82.150153 
L 102.227531 79.057682 
L 96.671401 78.965353 
z
" clip-path="url(#p7f9f2b506a)" style="fill: #e1dad6"/>
    <path d="M 81.548987 88.771992 
L 86.935779 85.017008 
L 85.679485 82.305731 
L 80.332447 86.109818 
z
" clip-path="url(#p7f9f2b506a)" style="fill: #dadce0"/>
    <path d="M 144.096287 101.11147 
L 149.535367 101.578465 
L 147.894193 99.408 
L 142.486578 98.936717 
z
" clip-path="url(#p7f9f2b506a)" style="fill: #c3d5f4"/>
    <path d="M 156.636437 104.136238 
L 162.043551 104.379252 
L 160.325411 102.03899 
L 154.948112 101.798491 
z
" clip-path="url(#p7f9f2b506a)" style="fill: #bed2f6"/>
    <path d="M 73.553611 105.737877 
L 78.700159 99.268007 
L 77.499106 96.610447 
L 72.378835 102.896197 
z
" clip-path="url(#p7f9f2b506a)" style="fill: #c4d5f3"/>
    <path d="M 173.776369 156.22566 
L 179.099774 156.32387 
L 177.91043 147.070054 
L 172.574324 146.719849 
z
" clip-path="url(#p7f9f2b506a)" style="fill: #6180e9"/>
    <path d="M 131.56727 96.98264 
L 137.047593 98.119874 
L 135.491311 95.929327 
L 130.040838 94.813019 
z
" clip-path="url(#p7f9f2b506a)" style="fill: #cdd9ec"/>
    <path d="M 77.499106 96.610447 
L 82.774831 91.387505 
L 81.548987 88.771992 
L 76.307132 93.914879 
z
" clip-path="url(#p7f9f2b506a)" style="fill: #d4dbe6"/>
    <path d="M 104.95966 85.035756 
L 110.554127 85.945196 
L 109.158357 83.027616 
L 103.590138 82.150153 
z
" clip-path="url(#p7f9f2b506a)" style="fill: #e1dad6"/>
    <path d="M 92.436837 82.79526 
L 98.004259 81.952144 
L 96.671401 78.965353 
L 91.140118 79.95477 
z
" clip-path="url(#p7f9f2b506a)" style="fill: #e7d7ce"/>
    <path d="M 86.935779 85.017008 
L 92.436837 82.79526 
L 91.140118 79.95477 
L 85.679485 82.305731 
z
" clip-path="url(#p7f9f2b506a)" style="fill: #e5d8d1"/>
    <path d="M 181.988481 138.588496 
L 187.253706 139.155108 
L 185.957608 131.164189 
L 180.688948 130.392011 
z
" clip-path="url(#p7f9f2b506a)" style="fill: #86a9fc"/>
    <path d="M 177.91043 147.070054 
L 183.20884 147.406085 
L 181.988481 138.588496 
L 176.679793 138.030704 
z
" clip-path="url(#p7f9f2b506a)" style="fill: #779af7"/>
    <path d="M 163.754201 107.211269 
L 169.127447 107.780864 
L 167.394301 104.921196 
L 162.043551 104.379252 
z
" clip-path="url(#p7f9f2b506a)" style="fill: #c1d4f4"/>
    <path d="M 111.958316 88.531314 
L 117.537852 89.793091 
L 116.106309 87.198388 
L 110.554127 85.945196 
z
" clip-path="url(#p7f9f2b506a)" style="fill: #dfdbd9"/>
    <path d="M 177.762699 117.167256 
L 183.026533 118.209668 
L 181.389729 113.495425 
L 176.137086 112.386332 
z
" clip-path="url(#p7f9f2b506a)" style="fill: #b1cbfc"/>
    <path d="M 151.193235 103.913735 
L 156.636437 104.136238 
L 154.948112 101.798491 
L 149.535367 101.578465 
z
" clip-path="url(#p7f9f2b506a)" style="fill: #c9d7f0"/>
    <path d="M 138.626548 100.286656 
L 144.096287 101.11147 
L 142.486578 98.936717 
L 137.047593 98.119874 
z
" clip-path="url(#p7f9f2b506a)" style="fill: #cfdaea"/>
    <path d="M 70.88801 118.894735 
L 75.93492 111.402193 
L 74.738527 108.569344 
L 69.712573 115.822841 
z
" clip-path="url(#p7f9f2b506a)" style="fill: #b7cff9"/>
    <path d="M 170.818238 111.473303 
L 176.137086 112.386332 
L 174.430861 108.694075 
L 169.127447 107.780864 
z
" clip-path="url(#p7f9f2b506a)" style="fill: #bed2f6"/>
    <path d="M 118.984284 92.094366 
L 124.54014 93.485595 
L 123.064365 91.167218 
L 117.537852 89.793091 
z
" clip-path="url(#p7f9f2b506a)" style="fill: #dddcdc"/>
    <path d="M 180.688948 130.392011 
L 185.957608 131.164189 
L 184.552181 124.110814 
L 179.283274 123.179692 
z
" clip-path="url(#p7f9f2b506a)" style="fill: #9ebeff"/>
    <path d="M 168.420958 156.091578 
L 173.776369 156.22566 
L 172.574324 146.719849 
L 167.200142 146.350449 
z
" clip-path="url(#p7f9f2b506a)" style="fill: #6e90f2"/>
    <path d="M 179.283274 123.179692 
L 184.552181 124.110814 
L 183.026533 118.209668 
L 177.762699 117.167256 
z
" clip-path="url(#p7f9f2b506a)" style="fill: #adc9fd"/>
    <path d="M 99.343444 84.766072 
L 104.95966 85.035756 
L 103.590138 82.150153 
L 98.004259 81.952144 
z
" clip-path="url(#p7f9f2b506a)" style="fill: #ebd3c6"/>
    <path d="M 82.774831 91.387505 
L 88.20034 87.646704 
L 86.935779 85.017008 
L 81.548987 88.771992 
z
" clip-path="url(#p7f9f2b506a)" style="fill: #e6d7cf"/>
    <path d="M 126.036171 95.631293 
L 131.56727 96.98264 
L 130.040838 94.813019 
L 124.54014 93.485595 
z
" clip-path="url(#p7f9f2b506a)" style="fill: #dddcdc"/>
    <path d="M 172.574324 146.719849 
L 177.91043 147.070054 
L 176.679793 138.030704 
L 171.3269 137.489061 
z
" clip-path="url(#p7f9f2b506a)" style="fill: #86a9fc"/>
    <path d="M 158.323653 106.922336 
L 163.754201 107.211269 
L 162.043551 104.379252 
L 156.636437 104.136238 
z
" clip-path="url(#p7f9f2b506a)" style="fill: #cdd9ec"/>
    <path d="M 176.679793 138.030704 
L 181.988481 138.588496 
L 180.688948 130.392011 
L 175.369999 129.666547 
z
" clip-path="url(#p7f9f2b506a)" style="fill: #97b8ff"/>
    <path d="M 145.723897 103.441775 
L 151.193235 103.913735 
L 149.535367 101.578465 
L 144.096287 101.11147 
z
" clip-path="url(#p7f9f2b506a)" style="fill: #d4dbe6"/>
    <path d="M 74.738527 108.569344 
L 79.911215 101.8924 
L 78.700159 99.268007 
L 73.553611 105.737877 
z
" clip-path="url(#p7f9f2b506a)" style="fill: #d2dbe8"/>
    <path d="M 106.334659 87.603973 
L 111.958316 88.531314 
L 110.554127 85.945196 
L 104.95966 85.035756 
z
" clip-path="url(#p7f9f2b506a)" style="fill: #ecd3c5"/>
    <path d="M 93.740564 85.50925 
L 99.343444 84.766072 
L 98.004259 81.952144 
L 92.436837 82.79526 
z
" clip-path="url(#p7f9f2b506a)" style="fill: #efcfbf"/>
    <path d="M 78.700159 99.268007 
L 84.008442 93.923036 
L 82.774831 91.387505 
L 77.499106 96.610447 
z
" clip-path="url(#p7f9f2b506a)" style="fill: #e0dbd8"/>
    <path d="M 172.436465 116.27409 
L 177.762699 117.167256 
L 176.137086 112.386332 
L 170.818238 111.473303 
z
" clip-path="url(#p7f9f2b506a)" style="fill: #c3d5f4"/>
    <path d="M 88.20034 87.646704 
L 93.740564 85.50925 
L 92.436837 82.79526 
L 86.935779 85.017008 
z
" clip-path="url(#p7f9f2b506a)" style="fill: #eed0c0"/>
    <path d="M 165.431547 110.850744 
L 170.818238 111.473303 
L 169.127447 107.780864 
L 163.754201 107.211269 
z
" clip-path="url(#p7f9f2b506a)" style="fill: #ccd9ed"/>
    <path d="M 133.115638 99.132163 
L 138.626548 100.286656 
L 137.047593 98.119874 
L 131.56727 96.98264 
z
" clip-path="url(#p7f9f2b506a)" style="fill: #dddcdc"/>
    <path d="M 163.032257 155.920292 
L 168.420958 156.091578 
L 167.200142 146.350449 
L 161.787788 145.949556 
z
" clip-path="url(#p7f9f2b506a)" style="fill: #7b9ff9"/>
    <path d="M 175.369999 129.666547 
L 180.688948 130.392011 
L 179.283274 123.179692 
L 173.957574 122.343999 
z
" clip-path="url(#p7f9f2b506a)" style="fill: #afcafc"/>
    <path d="M 173.957574 122.343999 
L 179.283274 123.179692 
L 177.762699 117.167256 
L 172.436465 116.27409 
z
" clip-path="url(#p7f9f2b506a)" style="fill: #bed2f6"/>
    <path d="M 113.374181 90.819904 
L 118.984284 92.094366 
L 117.537852 89.793091 
L 111.958316 88.531314 
z
" clip-path="url(#p7f9f2b506a)" style="fill: #ebd3c6"/>
    <path d="M 152.855555 106.654665 
L 158.323653 106.922336 
L 156.636437 104.136238 
L 151.193235 103.913735 
z
" clip-path="url(#p7f9f2b506a)" style="fill: #d7dce3"/>
    <path d="M 72.074904 121.981956 
L 77.144394 114.25215 
L 75.93492 111.402193 
L 70.88801 118.894735 
z
" clip-path="url(#p7f9f2b506a)" style="fill: #c5d6f2"/>
    <path d="M 167.200142 146.350449 
L 172.574324 146.719849 
L 171.3269 137.489061 
L 165.930898 136.949626 
z
" clip-path="url(#p7f9f2b506a)" style="fill: #96b7ff"/>
    <path d="M 171.3269 137.489061 
L 176.679793 138.030704 
L 175.369999 129.666547 
L 170.000392 129.003754 
z
" clip-path="url(#p7f9f2b506a)" style="fill: #a7c5fe"/>
    <path d="M 140.224299 102.60804 
L 145.723897 103.441775 
L 144.096287 101.11147 
L 138.626548 100.286656 
z
" clip-path="url(#p7f9f2b506a)" style="fill: #dfdbd9"/>
    <path d="M 100.686499 87.303068 
L 106.334659 87.603973 
L 104.95966 85.035756 
L 99.343444 84.766072 
z
" clip-path="url(#p7f9f2b506a)" style="fill: #f2cab5"/>
    <path d="M 120.448895 94.218449 
L 126.036171 95.631293 
L 124.54014 93.485595 
L 118.984284 92.094366 
z
" clip-path="url(#p7f9f2b506a)" style="fill: #ebd3c6"/>
    <path d="M 159.987902 110.463341 
L 165.431547 110.850744 
L 163.754201 107.211269 
L 158.323653 106.922336 
z
" clip-path="url(#p7f9f2b506a)" style="fill: #d8dce2"/>
    <path d="M 167.046907 115.593475 
L 172.436465 116.27409 
L 170.818238 111.473303 
L 165.431547 110.850744 
z
" clip-path="url(#p7f9f2b506a)" style="fill: #d1dae9"/>
    <path d="M 157.60895 155.709886 
L 163.032257 155.920292 
L 161.787788 145.949556 
L 156.336657 145.505234 
z
" clip-path="url(#p7f9f2b506a)" style="fill: #8badfd"/>
    <path d="M 84.008442 93.923036 
L 89.470685 90.135045 
L 88.20034 87.646704 
L 82.774831 91.387505 
z
" clip-path="url(#p7f9f2b506a)" style="fill: #f0cdbb"/>
    <path d="M 75.93492 111.402193 
L 81.134273 104.503772 
L 79.911215 101.8924 
L 74.738527 108.569344 
z
" clip-path="url(#p7f9f2b506a)" style="fill: #dedcdb"/>
    <path d="M 170.000392 129.003754 
L 175.369999 129.666547 
L 173.957574 122.343999 
L 168.574654 121.638649 
z
" clip-path="url(#p7f9f2b506a)" style="fill: #c0d4f5"/>
    <path d="M 127.553474 97.759446 
L 133.115638 99.132163 
L 131.56727 96.98264 
L 126.036171 95.631293 
z
" clip-path="url(#p7f9f2b506a)" style="fill: #ebd3c6"/>
    <path d="M 147.360139 106.151475 
L 152.855555 106.654665 
L 151.193235 103.913735 
L 145.723897 103.441775 
z
" clip-path="url(#p7f9f2b506a)" style="fill: #e1dad6"/>
    <path d="M 168.574654 121.638649 
L 173.957574 122.343999 
L 172.436465 116.27409 
L 167.046907 115.593475 
z
" clip-path="url(#p7f9f2b506a)" style="fill: #cdd9ec"/>
    <path d="M 95.048395 88.010141 
L 100.686499 87.303068 
L 99.343444 84.766072 
L 93.740564 85.50925 
z
" clip-path="url(#p7f9f2b506a)" style="fill: #f5c2aa"/>
    <path d="M 79.911215 101.8924 
L 85.250998 96.383977 
L 84.008442 93.923036 
L 78.700159 99.268007 
z
" clip-path="url(#p7f9f2b506a)" style="fill: #ecd3c5"/>
    <path d="M 107.718421 89.885228 
L 113.374181 90.819904 
L 111.958316 88.531314 
L 106.334659 87.603973 
z
" clip-path="url(#p7f9f2b506a)" style="fill: #f3c7b1"/>
    <path d="M 89.470685 90.135045 
L 95.048395 88.010141 
L 93.740564 85.50925 
L 88.20034 87.646704 
z
" clip-path="url(#p7f9f2b506a)" style="fill: #f5c4ac"/>
    <path d="M 161.787788 145.949556 
L 167.200142 146.350449 
L 165.930898 136.949626 
L 160.493357 136.382641 
z
" clip-path="url(#p7f9f2b506a)" style="fill: #a5c3fe"/>
    <path d="M 165.930898 136.949626 
L 171.3269 137.489061 
L 170.000392 129.003754 
L 164.583166 128.379704 
z
" clip-path="url(#p7f9f2b506a)" style="fill: #b7cff9"/>
    <path d="M 134.683627 101.441506 
L 140.224299 102.60804 
L 138.626548 100.286656 
L 133.115638 99.132163 
z
" clip-path="url(#p7f9f2b506a)" style="fill: #ebd3c6"/>
    <path d="M 154.504411 110.095538 
L 159.987902 110.463341 
L 158.323653 106.922336 
L 152.855555 106.654665 
z
" clip-path="url(#p7f9f2b506a)" style="fill: #e1dad6"/>
    <path d="M 73.27442 125.094926 
L 78.368666 117.137548 
L 77.144394 114.25215 
L 72.074904 121.981956 
z
" clip-path="url(#p7f9f2b506a)" style="fill: #d2dbe8"/>
    <path d="M 161.602335 115.080604 
L 167.046907 115.593475 
L 165.431547 110.850744 
L 159.987902 110.463341 
z
" clip-path="url(#p7f9f2b506a)" style="fill: #dcdddd"/>
    <path d="M 152.149508 155.460745 
L 157.60895 155.709886 
L 156.336657 145.505234 
L 150.845342 145.012187 
z
" clip-path="url(#p7f9f2b506a)" style="fill: #98b9ff"/>
    <path d="M 114.806056 92.930045 
L 120.448895 94.218449 
L 118.984284 92.094366 
L 113.374181 90.819904 
z
" clip-path="url(#p7f9f2b506a)" style="fill: #f4c6af"/>
    <path d="M 141.833872 105.301273 
L 147.360139 106.151475 
L 145.723897 103.441775 
L 140.224299 102.60804 
z
" clip-path="url(#p7f9f2b506a)" style="fill: #ecd3c5"/>
    <path d="M 164.583166 128.379704 
L 170.000392 129.003754 
L 168.574654 121.638649 
L 163.140026 121.029374 
z
" clip-path="url(#p7f9f2b506a)" style="fill: #cedaeb"/>
    <path d="M 163.140026 121.029374 
L 168.574654 121.638649 
L 167.046907 115.593475 
L 161.602335 115.080604 
z
" clip-path="url(#p7f9f2b506a)" style="fill: #d9dce1"/>
    <path d="M 102.03636 89.5854 
L 107.718421 89.885228 
L 106.334659 87.603973 
L 100.686499 87.303068 
z
" clip-path="url(#p7f9f2b506a)" style="fill: #f7ba9f"/>
    <path d="M 156.336657 145.505234 
L 161.787788 145.949556 
L 160.493357 136.382641 
L 155.014695 135.758381 
z
" clip-path="url(#p7f9f2b506a)" style="fill: #b5cdfa"/>
    <path d="M 121.934122 96.326935 
L 127.553474 97.759446 
L 126.036171 95.631293 
L 120.448895 94.218449 
z
" clip-path="url(#p7f9f2b506a)" style="fill: #f4c5ad"/>
    <path d="M 85.250998 96.383977 
L 90.74843 92.489343 
L 89.470685 90.135045 
L 84.008442 93.923036 
z
" clip-path="url(#p7f9f2b506a)" style="fill: #f6bfa6"/>
    <path d="M 160.493357 136.382641 
L 165.930898 136.949626 
L 164.583166 128.379704 
L 159.122544 127.736085 
z
" clip-path="url(#p7f9f2b506a)" style="fill: #c6d6f1"/>
    <path d="M 148.990542 109.525359 
L 154.504411 110.095538 
L 152.855555 106.654665 
L 147.360139 106.151475 
z
" clip-path="url(#p7f9f2b506a)" style="fill: #ebd3c6"/>
    <path d="M 77.144394 114.25215 
L 82.37182 107.130981 
L 81.134273 104.503772 
L 75.93492 111.402193 
z
" clip-path="url(#p7f9f2b506a)" style="fill: #ead4c8"/>
    <path d="M 156.115541 114.578191 
L 161.602335 115.080604 
L 159.987902 110.463341 
L 154.504411 110.095538 
z
" clip-path="url(#p7f9f2b506a)" style="fill: #e7d7ce"/>
    <path d="M 146.652266 155.176537 
L 152.149508 155.460745 
L 150.845342 145.012187 
L 145.311886 144.473658 
z
" clip-path="url(#p7f9f2b506a)" style="fill: #a7c5fe"/>
    <path d="M 129.091307 100.055961 
L 134.683627 101.441506 
L 133.115638 99.132163 
L 127.553474 97.759446 
z
" clip-path="url(#p7f9f2b506a)" style="fill: #f4c6af"/>
    <path d="M 96.362605 90.310991 
L 102.03636 89.5854 
L 100.686499 87.303068 
L 95.048395 88.010141 
z
" clip-path="url(#p7f9f2b506a)" style="fill: #f7b396"/>
    <path d="M 81.134273 104.503772 
L 86.505496 98.80535 
L 85.250998 96.383977 
L 79.911215 101.8924 
z
" clip-path="url(#p7f9f2b506a)" style="fill: #f4c6af"/>
    <path d="M 90.74843 92.489343 
L 96.362605 90.310991 
L 95.048395 88.010141 
L 89.470685 90.135045 
z
" clip-path="url(#p7f9f2b506a)" style="fill: #f7b497"/>
    <path d="M 109.116128 91.994975 
L 114.806056 92.930045 
L 113.374181 90.819904 
L 107.718421 89.885228 
z
" clip-path="url(#p7f9f2b506a)" style="fill: #f7b599"/>
    <path d="M 159.122544 127.736085 
L 164.583166 128.379704 
L 163.140026 121.029374 
L 157.661793 120.414858 
z
" clip-path="url(#p7f9f2b506a)" style="fill: #dadce0"/>
    <path d="M 157.661793 120.414858 
L 163.140026 121.029374 
L 161.602335 115.080604 
L 156.115541 114.578191 
z
" clip-path="url(#p7f9f2b506a)" style="fill: #e5d8d1"/>
    <path d="M 74.487813 128.245725 
L 79.609629 120.080594 
L 78.368666 117.137548 
L 73.27442 125.094926 
z
" clip-path="url(#p7f9f2b506a)" style="fill: #dddcdc"/>
    <path d="M 136.266228 104.129604 
L 141.833872 105.301273 
L 140.224299 102.60804 
L 134.683627 101.441506 
z
" clip-path="url(#p7f9f2b506a)" style="fill: #f3c7b1"/>
    <path d="M 150.845342 145.012187 
L 156.336657 145.505234 
L 155.014695 135.758381 
L 149.49353 135.061388 
z
" clip-path="url(#p7f9f2b506a)" style="fill: #c4d5f3"/>
    <path d="M 155.014695 135.758381 
L 160.493357 136.382641 
L 159.122544 127.736085 
L 153.620681 127.011733 
z
" clip-path="url(#p7f9f2b506a)" style="fill: #d4dbe6"/>
    <path d="M 143.443688 108.648393 
L 148.990542 109.525359 
L 147.360139 106.151475 
L 141.833872 105.301273 
z
" clip-path="url(#p7f9f2b506a)" style="fill: #f2cab5"/>
    <path d="M 150.593974 113.918077 
L 156.115541 114.578191 
L 154.504411 110.095538 
L 148.990542 109.525359 
z
" clip-path="url(#p7f9f2b506a)" style="fill: #efcfbf"/>
    <path d="M 116.257857 95.026585 
L 121.934122 96.326935 
L 120.448895 94.218449 
L 114.806056 92.930045 
z
" clip-path="url(#p7f9f2b506a)" style="fill: #f7b396"/>
    <path d="M 141.115602 154.863646 
L 146.652266 155.176537 
L 145.311886 144.473658 
L 139.734246 143.899711 
z
" clip-path="url(#p7f9f2b506a)" style="fill: #b7cff9"/>
    <path d="M 103.398556 91.715776 
L 109.116128 91.994975 
L 107.718421 89.885228 
L 102.03636 89.5854 
z
" clip-path="url(#p7f9f2b506a)" style="fill: #f7a688"/>
    <path d="M 123.440922 98.612429 
L 129.091307 100.055961 
L 127.553474 97.759446 
L 121.934122 96.326935 
z
" clip-path="url(#p7f9f2b506a)" style="fill: #f7b396"/>
    <path d="M 86.505496 98.80535 
L 92.037755 94.766185 
L 90.74843 92.489343 
L 85.250998 96.383977 
z
" clip-path="url(#p7f9f2b506a)" style="fill: #f7ad90"/>
    <path d="M 153.620681 127.011733 
L 159.122544 127.736085 
L 157.661793 120.414858 
L 152.144639 119.68578 
z
" clip-path="url(#p7f9f2b506a)" style="fill: #e6d7cf"/>
    <path d="M 78.368666 117.137548 
L 83.626516 109.808196 
L 82.37182 107.130981 
L 77.144394 114.25215 
z
" clip-path="url(#p7f9f2b506a)" style="fill: #f2cab5"/>
    <path d="M 152.144639 119.68578 
L 157.661793 120.414858 
L 156.115541 114.578191 
L 150.593974 113.918077 
z
" clip-path="url(#p7f9f2b506a)" style="fill: #eed0c0"/>
    <path d="M 145.311886 144.473658 
L 150.845342 145.012187 
L 149.49353 135.061388 
L 143.9272 134.294929 
z
" clip-path="url(#p7f9f2b506a)" style="fill: #d2dbe8"/>
    <path d="M 130.646593 102.746327 
L 136.266228 104.129604 
L 134.683627 101.441506 
L 129.091307 100.055961 
z
" clip-path="url(#p7f9f2b506a)" style="fill: #f7b599"/>
    <path d="M 82.37182 107.130981 
L 87.775695 101.238649 
L 86.505496 98.80535 
L 81.134273 104.503772 
z
" clip-path="url(#p7f9f2b506a)" style="fill: #f7b79b"/>
    <path d="M 149.49353 135.061388 
L 155.014695 135.758381 
L 153.620681 127.011733 
L 148.076231 126.173058 
z
" clip-path="url(#p7f9f2b506a)" style="fill: #e0dbd8"/>
    <path d="M 97.688357 92.493181 
L 103.398556 91.715776 
L 102.03636 89.5854 
L 96.362605 90.310991 
z
" clip-path="url(#p7f9f2b506a)" style="fill: #f59d7e"/>
    <path d="M 145.035873 113.013734 
L 150.593974 113.918077 
L 148.990542 109.525359 
L 143.443688 108.648393 
z
" clip-path="url(#p7f9f2b506a)" style="fill: #f5c2aa"/>
    <path d="M 135.538099 154.530154 
L 141.115602 154.863646 
L 139.734246 143.899711 
L 134.110686 143.304534 
z
" clip-path="url(#p7f9f2b506a)" style="fill: #c5d6f2"/>
    <path d="M 75.716595 131.450372 
L 80.869715 123.112763 
L 79.609629 120.080594 
L 74.487813 128.245725 
z
" clip-path="url(#p7f9f2b506a)" style="fill: #e9d5cb"/>
    <path d="M 137.854443 107.482494 
L 143.443688 108.648393 
L 141.833872 105.301273 
L 136.266228 104.129604 
z
" clip-path="url(#p7f9f2b506a)" style="fill: #f7ba9f"/>
    <path d="M 92.037755 94.766185 
L 97.688357 92.493181 
L 96.362605 90.310991 
L 90.74843 92.489343 
z
" clip-path="url(#p7f9f2b506a)" style="fill: #f59f80"/>
    <path d="M 110.533023 94.093883 
L 116.257857 95.026585 
L 114.806056 92.930045 
L 109.116128 91.994975 
z
" clip-path="url(#p7f9f2b506a)" style="fill: #f59f80"/>
    <path d="M 148.076231 126.173058 
L 153.620681 127.011733 
L 152.144639 119.68578 
L 146.587193 118.782415 
z
" clip-path="url(#p7f9f2b506a)" style="fill: #f0cdbb"/>
    <path d="M 146.587193 118.782415 
L 152.144639 119.68578 
L 150.593974 113.918077 
L 145.035873 113.013734 
z
" clip-path="url(#p7f9f2b506a)" style="fill: #f5c4ac"/>
    <path d="M 117.732337 97.305193 
L 123.440922 98.612429 
L 121.934122 96.326935 
L 116.257857 95.026585 
z
" clip-path="url(#p7f9f2b506a)" style="fill: #f59d7e"/>
    <path d="M 139.734246 143.899711 
L 145.311886 144.473658 
L 143.9272 134.294929 
L 138.312772 133.477086 
z
" clip-path="url(#p7f9f2b506a)" style="fill: #dedcdb"/>
    <path d="M 129.918639 154.185311 
L 135.538099 154.530154 
L 134.110686 143.304534 
L 128.439999 142.705051 
z
" clip-path="url(#p7f9f2b506a)" style="fill: #d2dbe8"/>
    <path d="M 143.9272 134.294929 
L 149.49353 135.061388 
L 148.076231 126.173058 
L 142.485349 125.223397 
z
" clip-path="url(#p7f9f2b506a)" style="fill: #ecd3c5"/>
    <path d="M 79.609629 120.080594 
L 84.901321 112.577711 
L 83.626516 109.808196 
L 78.368666 117.137548 
z
" clip-path="url(#p7f9f2b506a)" style="fill: #f7bca1"/>
    <path d="M 104.779163 93.839506 
L 110.533023 94.093883 
L 109.116128 91.994975 
L 103.398556 91.715776 
z
" clip-path="url(#p7f9f2b506a)" style="fill: #f18d6f"/>
    <path d="M 124.968287 101.307747 
L 130.646593 102.746327 
L 129.091307 100.055961 
L 123.440922 98.612429 
z
" clip-path="url(#p7f9f2b506a)" style="fill: #f59f80"/>
    <path d="M 139.433662 111.874604 
L 145.035873 113.013734 
L 143.443688 108.648393 
L 137.854443 107.482494 
z
" clip-path="url(#p7f9f2b506a)" style="fill: #f7b396"/>
    <path d="M 87.775695 101.238649 
L 93.343797 97.048952 
L 92.037755 94.766185 
L 86.505496 98.80535 
z
" clip-path="url(#p7f9f2b506a)" style="fill: #f4987a"/>
    <path d="M 132.212887 106.124871 
L 137.854443 107.482494 
L 136.266228 104.129604 
L 130.646593 102.746327 
z
" clip-path="url(#p7f9f2b506a)" style="fill: #f7a688"/>
    <path d="M 76.962943 134.734192 
L 82.152729 126.287737 
L 80.869715 123.112763 
L 75.716595 131.450372 
z
" clip-path="url(#p7f9f2b506a)" style="fill: #f1cdba"/>
    <path d="M 83.626516 109.808196 
L 89.06556 103.745205 
L 87.775695 101.238649 
L 82.37182 107.130981 
z
" clip-path="url(#p7f9f2b506a)" style="fill: #f6a385"/>
    <path d="M 99.031705 94.674567 
L 104.779163 93.839506 
L 103.398556 91.715776 
L 97.688357 92.493181 
z
" clip-path="url(#p7f9f2b506a)" style="fill: #ed8366"/>
    <path d="M 142.485349 125.223397 
L 148.076231 126.173058 
L 146.587193 118.782415 
L 140.983905 117.709325 
z
" clip-path="url(#p7f9f2b506a)" style="fill: #f6bfa6"/>
    <path d="M 140.983905 117.709325 
L 146.587193 118.782415 
L 145.035873 113.013734 
L 139.433662 111.874604 
z
" clip-path="url(#p7f9f2b506a)" style="fill: #f7b497"/>
    <path d="M 93.343797 97.048952 
L 99.031705 94.674567 
L 97.688357 92.493181 
L 92.037755 94.766185 
z
" clip-path="url(#p7f9f2b506a)" style="fill: #ee8669"/>
    <path d="M 134.110686 143.304534 
L 139.734246 143.899711 
L 138.312772 133.477086 
L 132.647864 132.634649 
z
" clip-path="url(#p7f9f2b506a)" style="fill: #ead4c8"/>
    <path d="M 111.973551 96.372289 
L 117.732337 97.305193 
L 116.257857 95.026585 
L 110.533023 94.093883 
z
" clip-path="url(#p7f9f2b506a)" style="fill: #ee8669"/>
    <path d="M 124.256468 153.840109 
L 129.918639 154.185311 
L 128.439999 142.705051 
L 122.721659 142.122215 
z
" clip-path="url(#p7f9f2b506a)" style="fill: #dddcdc"/>
    <path d="M 138.312772 133.477086 
L 143.9272 134.294929 
L 142.485349 125.223397 
L 136.843639 124.194888 
z
" clip-path="url(#p7f9f2b506a)" style="fill: #f4c6af"/>
    <path d="M 133.778942 110.577172 
L 139.433662 111.874604 
L 137.854443 107.482494 
L 132.212887 106.124871 
z
" clip-path="url(#p7f9f2b506a)" style="fill: #f59d7e"/>
    <path d="M 119.230707 100.00209 
L 124.968287 101.307747 
L 123.440922 98.612429 
L 117.732337 97.305193 
z
" clip-path="url(#p7f9f2b506a)" style="fill: #ee8669"/>
    <path d="M 126.512498 104.716232 
L 132.212887 106.124871 
L 130.646593 102.746327 
L 124.968287 101.307747 
z
" clip-path="url(#p7f9f2b506a)" style="fill: #f18d6f"/>
    <path d="M 80.869715 123.112763 
L 86.200164 115.501862 
L 84.901321 112.577711 
L 79.609629 120.080594 
z
" clip-path="url(#p7f9f2b506a)" style="fill: #f7ac8e"/>
    <path d="M 78.230594 138.144125 
L 83.465742 129.711528 
L 82.152729 126.287737 
L 76.962943 134.734192 
z
" clip-path="url(#p7f9f2b506a)" style="fill: #f5c2aa"/>
    <path d="M 106.18384 96.128839 
L 111.973551 96.372289 
L 110.533023 94.093883 
L 104.779163 93.839506 
z
" clip-path="url(#p7f9f2b506a)" style="fill: #e67259"/>
    <path d="M 89.06556 103.745205 
L 94.671843 99.437003 
L 93.343797 97.048952 
L 87.775695 101.238649 
z
" clip-path="url(#p7f9f2b506a)" style="fill: #ec7f63"/>
    <path d="M 136.843639 124.194888 
L 142.485349 125.223397 
L 140.983905 117.709325 
L 135.328417 116.519176 
z
" clip-path="url(#p7f9f2b506a)" style="fill: #f7ad90"/>
    <path d="M 118.551315 153.509542 
L 124.256468 153.840109 
L 122.721659 142.122215 
L 116.956101 141.586384 
z
" clip-path="url(#p7f9f2b506a)" style="fill: #e9d5cb"/>
    <path d="M 128.439999 142.705051 
L 134.110686 143.304534 
L 132.647864 132.634649 
L 126.931109 131.799986 
z
" clip-path="url(#p7f9f2b506a)" style="fill: #f2cab5"/>
    <path d="M 135.328417 116.519176 
L 140.983905 117.709325 
L 139.433662 111.874604 
L 133.778942 110.577172 
z
" clip-path="url(#p7f9f2b506a)" style="fill: #f59f80"/>
    <path d="M 84.901321 112.577711 
L 90.379459 106.401637 
L 89.06556 103.745205 
L 83.626516 109.808196 
z
" clip-path="url(#p7f9f2b506a)" style="fill: #f18f71"/>
    <path d="M 132.647864 132.634649 
L 138.312772 133.477086 
L 136.843639 124.194888 
L 131.147715 123.136191 
z
" clip-path="url(#p7f9f2b506a)" style="fill: #f7b79b"/>
    <path d="M 100.398635 96.995228 
L 106.18384 96.128839 
L 104.779163 93.839506 
L 99.031705 94.674567 
z
" clip-path="url(#p7f9f2b506a)" style="fill: #e16751"/>
    <path d="M 94.671843 99.437003 
L 100.398635 96.995228 
L 99.031705 94.674567 
L 93.343797 97.048952 
z
" clip-path="url(#p7f9f2b506a)" style="fill: #e36b54"/>
    <path d="M 113.441113 99.060627 
L 119.230707 100.00209 
L 117.732337 97.305193 
L 111.973551 96.372289 
z
" clip-path="url(#p7f9f2b506a)" style="fill: #e36c55"/>
    <path d="M 128.065906 109.234912 
L 133.778942 110.577172 
L 132.212887 106.124871 
L 126.512498 104.716232 
z
" clip-path="url(#p7f9f2b506a)" style="fill: #ed8366"/>
    <path d="M 120.752206 103.426144 
L 126.512498 104.716232 
L 124.968287 101.307747 
L 119.230707 100.00209 
z
" clip-path="url(#p7f9f2b506a)" style="fill: #e67259"/>
    <path d="M 112.803713 153.217948 
L 118.551315 153.509542 
L 116.956101 141.586384 
L 111.145508 141.150234 
z
" clip-path="url(#p7f9f2b506a)" style="fill: #f1cdba"/>
    <path d="M 122.721659 142.122215 
L 128.439999 142.705051 
L 126.931109 131.799986 
L 121.162457 131.013923 
z
" clip-path="url(#p7f9f2b506a)" style="fill: #f7bca1"/>
    <path d="M 82.152729 126.287737 
L 87.52949 118.69141 
L 86.200164 115.501862 
L 80.869715 123.112763 
z
" clip-path="url(#p7f9f2b506a)" style="fill: #f59c7d"/>
    <path d="M 79.526995 141.778613 
L 84.823458 133.614094 
L 83.465742 129.711528 
L 78.230594 138.144125 
z
" clip-path="url(#p7f9f2b506a)" style="fill: #f7b99e"/>
    <path d="M 131.147715 123.136191 
L 136.843639 124.194888 
L 135.328417 116.519176 
L 129.616086 115.291647 
z
" clip-path="url(#p7f9f2b506a)" style="fill: #f4987a"/>
    <path d="M 129.616086 115.291647 
L 135.328417 116.519176 
L 133.778942 110.577172 
L 128.065906 109.234912 
z
" clip-path="url(#p7f9f2b506a)" style="fill: #ee8669"/>
    <path d="M 126.931109 131.799986 
L 132.647864 132.634649 
L 131.147715 123.136191 
L 125.396047 122.106334 
z
" clip-path="url(#p7f9f2b506a)" style="fill: #f6a385"/>
    <path d="M 107.617763 98.793995 
L 113.441113 99.060627 
L 111.973551 96.372289 
L 106.18384 96.128839 
z
" clip-path="url(#p7f9f2b506a)" style="fill: #d85646"/>
    <path d="M 90.379459 106.401637 
L 96.027528 102.054263 
L 94.671843 99.437003 
L 89.06556 103.745205 
z
" clip-path="url(#p7f9f2b506a)" style="fill: #e0654f"/>
    <path d="M 86.200164 115.501862 
L 91.723204 109.322549 
L 90.379459 106.401637 
L 84.901321 112.577711 
z
" clip-path="url(#p7f9f2b506a)" style="fill: #e9785d"/>
    <path d="M 107.015869 153.011303 
L 112.803713 153.217948 
L 111.145508 141.150234 
L 105.295979 140.91899 
z
" clip-path="url(#p7f9f2b506a)" style="fill: #f5c2aa"/>
    <path d="M 122.293123 107.984981 
L 128.065906 109.234912 
L 126.512498 104.716232 
L 120.752206 103.426144 
z
" clip-path="url(#p7f9f2b506a)" style="fill: #e16751"/>
    <path d="M 114.938021 102.464651 
L 120.752206 103.426144 
L 119.230707 100.00209 
L 113.441113 99.060627 
z
" clip-path="url(#p7f9f2b506a)" style="fill: #d85646"/>
    <path d="M 116.956101 141.586384 
L 122.721659 142.122215 
L 121.162457 131.013923 
L 115.343807 130.337649 
z
" clip-path="url(#p7f9f2b506a)" style="fill: #f7ac8e"/>
    <path d="M 101.795169 99.628146 
L 107.617763 98.793995 
L 106.18384 96.128839 
L 100.398635 96.995228 
z
" clip-path="url(#p7f9f2b506a)" style="fill: #d1493f"/>
    <path d="M 96.027528 102.054263 
L 101.795169 99.628146 
L 100.398635 96.995228 
L 94.671843 99.437003 
z
" clip-path="url(#p7f9f2b506a)" style="fill: #d44e41"/>
    <path d="M 80.868583 145.862881 
L 86.257027 138.501322 
L 84.823458 133.614094 
L 79.526995 141.778613 
z
" clip-path="url(#p7f9f2b506a)" style="fill: #f7b194"/>
    <path d="M 125.396047 122.106334 
L 131.147715 123.136191 
L 129.616086 115.291647 
L 123.845328 114.123341 
z
" clip-path="url(#p7f9f2b506a)" style="fill: #ec7f63"/>
    <path d="M 83.465742 129.711528 
L 88.901549 122.368788 
L 87.52949 118.69141 
L 82.152729 126.287737 
z
" clip-path="url(#p7f9f2b506a)" style="fill: #f08b6e"/>
    <path d="M 123.845328 114.123341 
L 129.616086 115.291647 
L 128.065906 109.234912 
L 122.293123 107.984981 
z
" clip-path="url(#p7f9f2b506a)" style="fill: #e36b54"/>
    <path d="M 121.162457 131.013923 
L 126.931109 131.799986 
L 125.396047 122.106334 
L 119.589542 121.18031 
z
" clip-path="url(#p7f9f2b506a)" style="fill: #f18f71"/>
    <path d="M 101.194046 152.987198 
L 107.015869 153.011303 
L 105.295979 140.91899 
L 99.423409 141.122584 
z
" clip-path="url(#p7f9f2b506a)" style="fill: #f7b99e"/>
    <path d="M 83.862675 157.904053 
L 89.544613 154.685284 
L 87.819664 145.286557 
L 82.292215 150.918008 
z
" clip-path="url(#p7f9f2b506a)" style="fill: #f5c0a7"/>
    <path d="M 82.292215 150.918008 
L 87.819664 145.286557 
L 86.257027 138.501322 
L 80.868583 145.862881 
z
" clip-path="url(#p7f9f2b506a)" style="fill: #f7b194"/>
    <path d="M 109.086069 102.122194 
L 114.938021 102.464651 
L 113.441113 99.060627 
L 107.617763 98.793995 
z
" clip-path="url(#p7f9f2b506a)" style="fill: #cb3e38"/>
    <path d="M 111.145508 141.150234 
L 116.956101 141.586384 
L 115.343807 130.337649 
L 109.480768 129.881177 
z
" clip-path="url(#p7f9f2b506a)" style="fill: #f59c7d"/>
    <path d="M 91.723204 109.322549 
L 97.418051 105.083545 
L 96.027528 102.054263 
L 90.379459 106.401637 
z
" clip-path="url(#p7f9f2b506a)" style="fill: #d24b40"/>
    <path d="M 116.46489 106.999323 
L 122.293123 107.984981 
L 120.752206 103.426144 
L 114.938021 102.464651 
z
" clip-path="url(#p7f9f2b506a)" style="fill: #d1493f"/>
    <path d="M 87.52949 118.69141 
L 93.106283 112.711527 
L 91.723204 109.322549 
L 86.200164 115.501862 
z
" clip-path="url(#p7f9f2b506a)" style="fill: #df634e"/>
    <path d="M 95.355231 153.370624 
L 101.194046 152.987198 
L 99.423409 141.122584 
L 93.568347 142.269824 
z
" clip-path="url(#p7f9f2b506a)" style="fill: #f7b194"/>
    <path d="M 89.544613 154.685284 
L 95.355231 153.370624 
L 93.568347 142.269824 
L 87.819664 145.286557 
z
" clip-path="url(#p7f9f2b506a)" style="fill: #f7b194"/>
    <path d="M 119.589542 121.18031 
L 125.396047 122.106334 
L 123.845328 114.123341 
L 118.018581 113.136645 
z
" clip-path="url(#p7f9f2b506a)" style="fill: #e0654f"/>
    <path d="M 84.823458 133.614094 
L 90.340475 126.993313 
L 88.901549 122.368788 
L 83.465742 129.711528 
z
" clip-path="url(#p7f9f2b506a)" style="fill: #ec7f63"/>
    <path d="M 103.228314 102.81939 
L 109.086069 102.122194 
L 107.617763 98.793995 
L 101.795169 99.628146 
z
" clip-path="url(#p7f9f2b506a)" style="fill: #c32e31"/>
    <path d="M 118.018581 113.136645 
L 123.845328 114.123341 
L 122.293123 107.984981 
L 116.46489 106.999323 
z
" clip-path="url(#p7f9f2b506a)" style="fill: #d44e41"/>
    <path d="M 115.343807 130.337649 
L 121.162457 131.013923 
L 119.589542 121.18031 
L 113.732773 120.471835 
z
" clip-path="url(#p7f9f2b506a)" style="fill: #e9785d"/>
    <path d="M 97.418051 105.083545 
L 103.228314 102.81939 
L 101.795169 99.628146 
L 96.027528 102.054263 
z
" clip-path="url(#p7f9f2b506a)" style="fill: #c43032"/>
    <path d="M 105.295979 140.91899 
L 111.145508 141.150234 
L 109.480768 129.881177 
L 103.587441 129.867122 
z
" clip-path="url(#p7f9f2b506a)" style="fill: #f08b6e"/>
    <path d="M 110.593915 106.525453 
L 116.46489 106.999323 
L 114.938021 102.464651 
L 109.086069 102.122194 
z
" clip-path="url(#p7f9f2b506a)" style="fill: #c32e31"/>
    <path d="M 87.819664 145.286557 
L 93.568347 142.269824 
L 91.886113 133.375094 
L 86.257027 138.501322 
z
" clip-path="url(#p7f9f2b506a)" style="fill: #f18f71"/>
    <path d="M 86.257027 138.501322 
L 91.886113 133.375094 
L 90.340475 126.993313 
L 84.823458 133.614094 
z
" clip-path="url(#p7f9f2b506a)" style="fill: #eb7d62"/>
    <path d="M 88.901549 122.368788 
L 94.545622 116.956237 
L 93.106283 112.711527 
L 87.52949 118.69141 
z
" clip-path="url(#p7f9f2b506a)" style="fill: #d65244"/>
    <path d="M 93.106283 112.711527 
L 98.854311 108.833804 
L 97.418051 105.083545 
L 91.723204 109.322549 
z
" clip-path="url(#p7f9f2b506a)" style="fill: #c53334"/>
    <path d="M 113.732773 120.471835 
L 119.589542 121.18031 
L 118.018581 113.136645 
L 112.144318 112.51433 
z
" clip-path="url(#p7f9f2b506a)" style="fill: #d24b40"/>
    <path d="M 99.423409 141.122584 
L 105.295979 140.91899 
L 103.587441 129.867122 
L 97.698049 130.757885 
z
" clip-path="url(#p7f9f2b506a)" style="fill: #ec7f63"/>
    <path d="M 109.480768 129.881177 
L 115.343807 130.337649 
L 113.732773 120.471835 
L 107.837373 120.184759 
z
" clip-path="url(#p7f9f2b506a)" style="fill: #df634e"/>
    <path d="M 112.144318 112.51433 
L 118.018581 113.136645 
L 116.46489 106.999323 
L 110.593915 106.525453 
z
" clip-path="url(#p7f9f2b506a)" style="fill: #c43032"/>
    <path d="M 104.707209 106.95162 
L 110.593915 106.525453 
L 109.086069 102.122194 
L 103.228314 102.81939 
z
" clip-path="url(#p7f9f2b506a)" style="fill: #b70d28"/>
    <path d="M 93.568347 142.269824 
L 99.423409 141.122584 
L 97.698049 130.757885 
L 91.886113 133.375094 
z
" clip-path="url(#p7f9f2b506a)" style="fill: #eb7d62"/>
    <path d="M 98.854311 108.833804 
L 104.707209 106.95162 
L 103.228314 102.81939 
L 97.418051 105.083545 
z
" clip-path="url(#p7f9f2b506a)" style="fill: #b70d28"/>
    <path d="M 90.340475 126.993313 
L 96.06814 122.724877 
L 94.545622 116.956237 
L 88.901549 122.368788 
z
" clip-path="url(#p7f9f2b506a)" style="fill: #d24b40"/>
    <path d="M 103.587441 129.867122 
L 109.480768 129.881177 
L 107.837373 120.184759 
L 101.930283 120.709739 
z
" clip-path="url(#p7f9f2b506a)" style="fill: #d65244"/>
    <path d="M 107.837373 120.184759 
L 113.732773 120.471835 
L 112.144318 112.51433 
L 106.242147 112.567844 
z
" clip-path="url(#p7f9f2b506a)" style="fill: #c53334"/>
    <path d="M 106.242147 112.567844 
L 112.144318 112.51433 
L 110.593915 106.525453 
L 104.707209 106.95162 
z
" clip-path="url(#p7f9f2b506a)" style="fill: #b70d28"/>
    <path d="M 91.886113 133.375094 
L 97.698049 130.757885 
L 96.06814 122.724877 
L 90.340475 126.993313 
z
" clip-path="url(#p7f9f2b506a)" style="fill: #d95847"/>
    <path d="M 94.545622 116.956237 
L 100.352669 113.8211 
L 98.854311 108.833804 
L 93.106283 112.711527 
z
" clip-path="url(#p7f9f2b506a)" style="fill: #bd1f2d"/>
    <path d="M 97.698049 130.757885 
L 103.587441 129.867122 
L 101.930283 120.709739 
L 96.06814 122.724877 
z
" clip-path="url(#p7f9f2b506a)" style="fill: #d24b40"/>
    <path d="M 100.352669 113.8211 
L 106.242147 112.567844 
L 104.707209 106.95162 
L 98.854311 108.833804 
z
" clip-path="url(#p7f9f2b506a)" style="fill: #b40426"/>
    <path d="M 101.930283 120.709739 
L 107.837373 120.184759 
L 106.242147 112.567844 
L 100.352669 113.8211 
z
" clip-path="url(#p7f9f2b506a)" style="fill: #bd1f2d"/>
    <path d="M 96.06814 122.724877 
L 101.930283 120.709739 
L 100.352669 113.8211 
L 94.545622 116.956237 
z
" clip-path="url(#p7f9f2b506a)" style="fill: #c0282f"/>
   </g>
  </g>
 </g>
 <defs>
  <clipPath id="p7f9f2b506a">
   <rect x="24.170691" y="7.2" width="194.4" height="194.4"/>
  </clipPath>
 </defs>
</svg>
