<?xml version="1.0" encoding="utf-8" standalone="no"?>
<!DOCTYPE svg PUBLIC "-//W3C//DTD SVG 1.1//EN"
  "http://www.w3.org/Graphics/SVG/1.1/DTD/svg11.dtd">
<svg xmlns:xlink="http://www.w3.org/1999/xlink" width="288pt" height="216pt" viewBox="0 0 288 216" xmlns="http://www.w3.org/2000/svg" version="1.1">
 <metadata>
  <rdf:RDF xmlns:dc="http://purl.org/dc/elements/1.1/" xmlns:cc="http://creativecommons.org/ns#" xmlns:rdf="http://www.w3.org/1999/02/22-rdf-syntax-ns#">
   <cc:Work>
    <dc:type rdf:resource="http://purl.org/dc/dcmitype/StillImage"/>
    <dc:date>2024-01-01T15:37:45.506949</dc:date>
    <dc:format>image/svg+xml</dc:format>
    <dc:creator>
     <cc:Agent>
      <dc:title>Matplotlib v3.5.3, https://matplotlib.org/</dc:title>
     </cc:Agent>
    </dc:creator>
   </cc:Work>
  </rdf:RDF>
 </metadata>
 <defs>
  <style type="text/css">*{stroke-linejoin: round; stroke-linecap: butt}</style>
 </defs>
 <g id="figure_1">
  <g id="patch_1">
   <path d="M 0 216 
L 288 216 
L 288 0 
L 0 0 
L 0 216 
z
" style="fill: none"/>
  </g>
  <g id="axes_1">
   <g id="patch_2">
    <path d="M 53.74375 174.84375 
L 277.2 174.84375 
L 277.2 10.8 
L 53.74375 10.8 
L 53.74375 174.84375 
z
" style="fill: none"/>
   </g>
   <g id="matplotlib.axis_1">
    <g id="xtick_1">
     <g id="line2d_1">
      <defs>
       <path id="m92ae2259dd" d="M 0 0 
L 0 3.5 
" style="stroke: #000000; stroke-width: 0.8"/>
      </defs>
      <g>
       <use xlink:href="#m92ae2259dd" x="63.900852" y="174.84375" style="stroke: #000000; stroke-width: 0.8"/>
      </g>
     </g>
     <g id="text_1">
      <!-- 0.0 -->
      <g transform="translate(55.94929 189.442187)scale(0.1 -0.1)">
       <defs>
        <path id="DejaVuSans-30" d="M 2034 4250 
Q 1547 4250 1301 3770 
Q 1056 3291 1056 2328 
Q 1056 1369 1301 889 
Q 1547 409 2034 409 
Q 2525 409 2770 889 
Q 3016 1369 3016 2328 
Q 3016 3291 2770 3770 
Q 2525 4250 2034 4250 
z
M 2034 4750 
Q 2819 4750 3233 4129 
Q 3647 3509 3647 2328 
Q 3647 1150 3233 529 
Q 2819 -91 2034 -91 
Q 1250 -91 836 529 
Q 422 1150 422 2328 
Q 422 3509 836 4129 
Q 1250 4750 2034 4750 
z
" transform="scale(0.015625)"/>
        <path id="DejaVuSans-2e" d="M 684 794 
L 1344 794 
L 1344 0 
L 684 0 
L 684 794 
z
" transform="scale(0.015625)"/>
       </defs>
       <use xlink:href="#DejaVuSans-30"/>
       <use xlink:href="#DejaVuSans-2e" x="63.623047"/>
       <use xlink:href="#DejaVuSans-30" x="95.410156"/>
      </g>
     </g>
    </g>
    <g id="xtick_2">
     <g id="line2d_2">
      <g>
       <use xlink:href="#m92ae2259dd" x="104.529261" y="174.84375" style="stroke: #000000; stroke-width: 0.8"/>
      </g>
     </g>
     <g id="text_2">
      <!-- 0.1 -->
      <g transform="translate(96.577699 189.442187)scale(0.1 -0.1)">
       <defs>
        <path id="DejaVuSans-31" d="M 794 531 
L 1825 531 
L 1825 4091 
L 703 3866 
L 703 4441 
L 1819 4666 
L 2450 4666 
L 2450 531 
L 3481 531 
L 3481 0 
L 794 0 
L 794 531 
z
" transform="scale(0.015625)"/>
       </defs>
       <use xlink:href="#DejaVuSans-30"/>
       <use xlink:href="#DejaVuSans-2e" x="63.623047"/>
       <use xlink:href="#DejaVuSans-31" x="95.410156"/>
      </g>
     </g>
    </g>
    <g id="xtick_3">
     <g id="line2d_3">
      <g>
       <use xlink:href="#m92ae2259dd" x="145.15767" y="174.84375" style="stroke: #000000; stroke-width: 0.8"/>
      </g>
     </g>
     <g id="text_3">
      <!-- 0.2 -->
      <g transform="translate(137.206108 189.442187)scale(0.1 -0.1)">
       <defs>
        <path id="DejaVuSans-32" d="M 1228 531 
L 3431 531 
L 3431 0 
L 469 0 
L 469 531 
Q 828 903 1448 1529 
Q 2069 2156 2228 2338 
Q 2531 2678 2651 2914 
Q 2772 3150 2772 3378 
Q 2772 3750 2511 3984 
Q 2250 4219 1831 4219 
Q 1534 4219 1204 4116 
Q 875 4013 500 3803 
L 500 4441 
Q 881 4594 1212 4672 
Q 1544 4750 1819 4750 
Q 2544 4750 2975 4387 
Q 3406 4025 3406 3419 
Q 3406 3131 3298 2873 
Q 3191 2616 2906 2266 
Q 2828 2175 2409 1742 
Q 1991 1309 1228 531 
z
" transform="scale(0.015625)"/>
       </defs>
       <use xlink:href="#DejaVuSans-30"/>
       <use xlink:href="#DejaVuSans-2e" x="63.623047"/>
       <use xlink:href="#DejaVuSans-32" x="95.410156"/>
      </g>
     </g>
    </g>
    <g id="xtick_4">
     <g id="line2d_4">
      <g>
       <use xlink:href="#m92ae2259dd" x="185.78608" y="174.84375" style="stroke: #000000; stroke-width: 0.8"/>
      </g>
     </g>
     <g id="text_4">
      <!-- 0.3 -->
      <g transform="translate(177.834517 189.442187)scale(0.1 -0.1)">
       <defs>
        <path id="DejaVuSans-33" d="M 2597 2516 
Q 3050 2419 3304 2112 
Q 3559 1806 3559 1356 
Q 3559 666 3084 287 
Q 2609 -91 1734 -91 
Q 1441 -91 1130 -33 
Q 819 25 488 141 
L 488 750 
Q 750 597 1062 519 
Q 1375 441 1716 441 
Q 2309 441 2620 675 
Q 2931 909 2931 1356 
Q 2931 1769 2642 2001 
Q 2353 2234 1838 2234 
L 1294 2234 
L 1294 2753 
L 1863 2753 
Q 2328 2753 2575 2939 
Q 2822 3125 2822 3475 
Q 2822 3834 2567 4026 
Q 2313 4219 1838 4219 
Q 1578 4219 1281 4162 
Q 984 4106 628 3988 
L 628 4550 
Q 988 4650 1302 4700 
Q 1616 4750 1894 4750 
Q 2613 4750 3031 4423 
Q 3450 4097 3450 3541 
Q 3450 3153 3228 2886 
Q 3006 2619 2597 2516 
z
" transform="scale(0.015625)"/>
       </defs>
       <use xlink:href="#DejaVuSans-30"/>
       <use xlink:href="#DejaVuSans-2e" x="63.623047"/>
       <use xlink:href="#DejaVuSans-33" x="95.410156"/>
      </g>
     </g>
    </g>
    <g id="xtick_5">
     <g id="line2d_5">
      <g>
       <use xlink:href="#m92ae2259dd" x="226.414489" y="174.84375" style="stroke: #000000; stroke-width: 0.8"/>
      </g>
     </g>
     <g id="text_5">
      <!-- 0.4 -->
      <g transform="translate(218.462926 189.442187)scale(0.1 -0.1)">
       <defs>
        <path id="DejaVuSans-34" d="M 2419 4116 
L 825 1625 
L 2419 1625 
L 2419 4116 
z
M 2253 4666 
L 3047 4666 
L 3047 1625 
L 3713 1625 
L 3713 1100 
L 3047 1100 
L 3047 0 
L 2419 0 
L 2419 1100 
L 313 1100 
L 313 1709 
L 2253 4666 
z
" transform="scale(0.015625)"/>
       </defs>
       <use xlink:href="#DejaVuSans-30"/>
       <use xlink:href="#DejaVuSans-2e" x="63.623047"/>
       <use xlink:href="#DejaVuSans-34" x="95.410156"/>
      </g>
     </g>
    </g>
    <g id="xtick_6">
     <g id="line2d_6">
      <g>
       <use xlink:href="#m92ae2259dd" x="267.042898" y="174.84375" style="stroke: #000000; stroke-width: 0.8"/>
      </g>
     </g>
     <g id="text_6">
      <!-- 0.5 -->
      <g transform="translate(259.091335 189.442187)scale(0.1 -0.1)">
       <defs>
        <path id="DejaVuSans-35" d="M 691 4666 
L 3169 4666 
L 3169 4134 
L 1269 4134 
L 1269 2991 
Q 1406 3038 1543 3061 
Q 1681 3084 1819 3084 
Q 2600 3084 3056 2656 
Q 3513 2228 3513 1497 
Q 3513 744 3044 326 
Q 2575 -91 1722 -91 
Q 1428 -91 1123 -41 
Q 819 9 494 109 
L 494 744 
Q 775 591 1075 516 
Q 1375 441 1709 441 
Q 2250 441 2565 725 
Q 2881 1009 2881 1497 
Q 2881 1984 2565 2268 
Q 2250 2553 1709 2553 
Q 1456 2553 1204 2497 
Q 953 2441 691 2322 
L 691 4666 
z
" transform="scale(0.015625)"/>
       </defs>
       <use xlink:href="#DejaVuSans-30"/>
       <use xlink:href="#DejaVuSans-2e" x="63.623047"/>
       <use xlink:href="#DejaVuSans-35" x="95.410156"/>
      </g>
     </g>
    </g>
    <g id="text_7">
     <!-- r -->
     <g transform="translate(163.416406 203.120312)scale(0.1 -0.1)">
      <defs>
       <path id="DejaVuSans-72" d="M 2631 2963 
Q 2534 3019 2420 3045 
Q 2306 3072 2169 3072 
Q 1681 3072 1420 2755 
Q 1159 2438 1159 1844 
L 1159 0 
L 581 0 
L 581 3500 
L 1159 3500 
L 1159 2956 
Q 1341 3275 1631 3429 
Q 1922 3584 2338 3584 
Q 2397 3584 2469 3576 
Q 2541 3569 2628 3553 
L 2631 2963 
z
" transform="scale(0.015625)"/>
      </defs>
      <use xlink:href="#DejaVuSans-72"/>
     </g>
    </g>
   </g>
   <g id="matplotlib.axis_2">
    <g id="ytick_1">
     <g id="line2d_7">
      <defs>
       <path id="mfca1ac8bd2" d="M 0 0 
L -3.5 0 
" style="stroke: #000000; stroke-width: 0.8"/>
      </defs>
      <g>
       <use xlink:href="#mfca1ac8bd2" x="53.74375" y="168.996089" style="stroke: #000000; stroke-width: 0.8"/>
      </g>
     </g>
     <g id="text_8">
      <!-- 0.00 -->
      <g transform="translate(24.478125 172.795308)scale(0.1 -0.1)">
       <use xlink:href="#DejaVuSans-30"/>
       <use xlink:href="#DejaVuSans-2e" x="63.623047"/>
       <use xlink:href="#DejaVuSans-30" x="95.410156"/>
       <use xlink:href="#DejaVuSans-30" x="159.033203"/>
      </g>
     </g>
    </g>
    <g id="ytick_2">
     <g id="line2d_8">
      <g>
       <use xlink:href="#mfca1ac8bd2" x="53.74375" y="131.330354" style="stroke: #000000; stroke-width: 0.8"/>
      </g>
     </g>
     <g id="text_9">
      <!-- 0.05 -->
      <g transform="translate(24.478125 135.129573)scale(0.1 -0.1)">
       <use xlink:href="#DejaVuSans-30"/>
       <use xlink:href="#DejaVuSans-2e" x="63.623047"/>
       <use xlink:href="#DejaVuSans-30" x="95.410156"/>
       <use xlink:href="#DejaVuSans-35" x="159.033203"/>
      </g>
     </g>
    </g>
    <g id="ytick_3">
     <g id="line2d_9">
      <g>
       <use xlink:href="#mfca1ac8bd2" x="53.74375" y="93.664618" style="stroke: #000000; stroke-width: 0.8"/>
      </g>
     </g>
     <g id="text_10">
      <!-- 0.10 -->
      <g transform="translate(24.478125 97.463837)scale(0.1 -0.1)">
       <use xlink:href="#DejaVuSans-30"/>
       <use xlink:href="#DejaVuSans-2e" x="63.623047"/>
       <use xlink:href="#DejaVuSans-31" x="95.410156"/>
       <use xlink:href="#DejaVuSans-30" x="159.033203"/>
      </g>
     </g>
    </g>
    <g id="ytick_4">
     <g id="line2d_10">
      <g>
       <use xlink:href="#mfca1ac8bd2" x="53.74375" y="55.998883" style="stroke: #000000; stroke-width: 0.8"/>
      </g>
     </g>
     <g id="text_11">
      <!-- 0.15 -->
      <g transform="translate(24.478125 59.798101)scale(0.1 -0.1)">
       <use xlink:href="#DejaVuSans-30"/>
       <use xlink:href="#DejaVuSans-2e" x="63.623047"/>
       <use xlink:href="#DejaVuSans-31" x="95.410156"/>
       <use xlink:href="#DejaVuSans-35" x="159.033203"/>
      </g>
     </g>
    </g>
    <g id="ytick_5">
     <g id="line2d_11">
      <g>
       <use xlink:href="#mfca1ac8bd2" x="53.74375" y="18.333147" style="stroke: #000000; stroke-width: 0.8"/>
      </g>
     </g>
     <g id="text_12">
      <!-- 0.20 -->
      <g transform="translate(24.478125 22.132366)scale(0.1 -0.1)">
       <use xlink:href="#DejaVuSans-30"/>
       <use xlink:href="#DejaVuSans-2e" x="63.623047"/>
       <use xlink:href="#DejaVuSans-32" x="95.410156"/>
       <use xlink:href="#DejaVuSans-30" x="159.033203"/>
      </g>
     </g>
    </g>
    <g id="text_13">
     <!-- $g$ -->
     <g transform="translate(18.378125 96.021875)rotate(-90)scale(0.1 -0.1)">
      <defs>
       <path id="DejaVuSans-Oblique-67" d="M 3816 3500 
L 3219 434 
Q 3047 -456 2561 -893 
Q 2075 -1331 1253 -1331 
Q 950 -1331 690 -1286 
Q 431 -1241 206 -1147 
L 313 -588 
Q 525 -725 762 -790 
Q 1000 -856 1269 -856 
Q 1816 -856 2167 -557 
Q 2519 -259 2631 300 
L 2681 563 
Q 2441 288 2122 144 
Q 1803 0 1434 0 
Q 903 0 598 351 
Q 294 703 294 1319 
Q 294 1803 478 2267 
Q 663 2731 997 3091 
Q 1219 3328 1514 3456 
Q 1809 3584 2131 3584 
Q 2484 3584 2746 3420 
Q 3009 3256 3138 2956 
L 3238 3500 
L 3816 3500 
z
M 2950 2216 
Q 2950 2641 2750 2872 
Q 2550 3103 2181 3103 
Q 1953 3103 1747 3012 
Q 1541 2922 1394 2759 
Q 1156 2491 1023 2127 
Q 891 1763 891 1375 
Q 891 944 1092 712 
Q 1294 481 1672 481 
Q 2219 481 2584 976 
Q 2950 1472 2950 2216 
z
" transform="scale(0.015625)"/>
      </defs>
      <use xlink:href="#DejaVuSans-Oblique-67"/>
     </g>
    </g>
   </g>
   <g id="line2d_12">
    <path d="M 63.900852 168.996089 
L 65.952792 168.996089 
L 68.004732 168.996089 
L 70.056672 134.122409 
L 72.108612 84.641819 
L 74.160552 66.919279 
L 76.212491 59.036579 
L 78.264431 55.188508 
L 80.316371 53.268008 
L 82.368311 52.366337 
L 84.420251 52.042877 
L 86.472191 52.067361 
L 88.524131 52.310042 
L 90.57607 52.695401 
L 92.62801 53.177056 
L 94.67995 53.725007 
L 96.73189 54.320373 
L 98.78383 54.950224 
L 100.83577 55.605765 
L 102.887709 56.280531 
L 104.939649 56.970297 
L 106.991589 57.671357 
L 109.043529 58.3819 
L 111.095469 59.099685 
L 113.147409 59.823159 
L 115.199349 60.552151 
L 117.251288 61.285109 
L 119.303228 62.021515 
L 121.355168 62.760508 
L 123.407108 63.521052 
L 125.459048 64.245906 
L 127.510988 64.991451 
L 129.562928 65.738547 
L 131.614867 66.487022 
L 133.666807 67.236877 
L 135.718747 67.987594 
L 137.770687 68.739518 
L 139.822627 69.492131 
L 141.874567 70.245607 
L 143.926507 70.999427 
L 145.978446 71.75411 
L 148.030386 72.509482 
L 150.082326 73.265113 
L 152.134266 74.021261 
L 154.186206 74.778013 
L 156.238146 75.534764 
L 158.290086 76.292292 
L 160.342025 77.049992 
L 162.393965 77.80795 
L 164.445905 78.566254 
L 166.497845 79.324557 
L 168.549785 80.083206 
L 170.601725 80.842543 
L 172.653664 81.601364 
L 174.705604 82.360616 
L 176.757544 83.12004 
L 178.809484 83.879809 
L 180.861424 84.639233 
L 182.913364 85.399433 
L 184.965304 86.15959 
L 187.017243 86.919833 
L 189.069183 87.680033 
L 191.121123 88.440406 
L 193.173063 89.201037 
L 195.225003 89.961581 
L 197.276943 90.722299 
L 199.328883 91.483275 
L 201.380822 92.243647 
L 203.432762 93.004968 
L 205.484702 93.766116 
L 207.536642 94.527049 
L 209.588582 95.288197 
L 211.640522 96.049303 
L 213.692462 96.810666 
L 215.744401 97.571944 
L 217.796341 98.333351 
L 219.848281 99.094586 
L 221.900221 99.856165 
L 223.952161 100.617744 
L 226.004101 101.379324 
L 228.056041 102.140903 
L 230.10798 102.902482 
L 232.15992 103.664062 
L 234.21186 104.425814 
L 236.2638 105.187565 
L 238.31574 105.949145 
L 240.36768 106.711069 
L 242.419619 107.472821 
L 244.471559 108.234616 
L 246.523499 108.996411 
L 248.575439 109.758249 
L 250.627379 110.520173 
L 252.679319 111.282011 
L 254.731259 112.043935 
L 256.783198 112.805859 
L 258.835138 113.567784 
L 260.887078 114.329794 
L 262.939018 115.091373 
L 264.990958 115.853729 
L 267.042898 116.615739 
" clip-path="url(#pfe9a739c5f)" style="fill: none; stroke: #1f77b4; stroke-width: 2; stroke-linecap: square"/>
   </g>
   <g id="line2d_13">
    <path d="M 63.900852 168.996089 
L 65.952792 168.996089 
L 68.004732 168.996089 
L 70.056672 168.996089 
L 72.108612 168.996089 
L 74.160552 168.996089 
L 76.212491 168.996089 
L 78.264431 168.996089 
L 80.316371 168.996089 
L 82.368311 168.996089 
L 84.420251 168.996089 
L 86.472191 168.996089 
L 88.524131 168.996089 
L 90.57607 168.996089 
L 92.62801 168.996089 
L 94.67995 168.996089 
L 96.73189 168.996089 
L 98.78383 168.996089 
L 100.83577 168.996089 
L 102.887709 168.996089 
L 104.939649 168.996089 
L 106.991589 168.996089 
L 109.043529 168.996089 
L 111.095469 168.996089 
L 113.147409 168.996089 
L 115.199349 156.538736 
L 117.251288 144.840557 
L 119.303228 135.229863 
L 121.355168 127.257332 
L 123.407108 120.638126 
L 125.459048 114.986887 
L 127.510988 110.249646 
L 129.562928 106.233034 
L 131.614867 102.819204 
L 133.666807 99.915133 
L 135.718747 97.444008 
L 137.770687 95.34376 
L 139.822627 93.563436 
L 141.874567 92.059761 
L 143.926507 90.796698 
L 145.978446 89.745108 
L 148.030386 88.878008 
L 150.082326 88.17393 
L 152.134266 87.613824 
L 154.186206 87.181739 
L 156.238146 86.862934 
L 158.290086 86.645513 
L 160.342025 86.518612 
L 162.393965 86.473093 
L 164.445905 86.50068 
L 166.497845 86.593097 
L 168.549785 86.744913 
L 170.601725 86.950093 
L 172.653664 87.203464 
L 174.705604 87.500716 
L 176.757544 87.83728 
L 178.809484 88.209708 
L 180.861424 88.615584 
L 182.913364 89.050428 
L 184.965304 89.512858 
L 187.017243 89.999773 
L 189.069183 90.509532 
L 191.121123 91.039465 
L 193.173063 91.588882 
L 195.225003 92.155368 
L 197.276943 92.737458 
L 199.328883 93.334118 
L 201.380822 93.943881 
L 203.432762 94.5658 
L 205.484702 95.199272 
L 207.536642 95.842398 
L 209.588582 96.495526 
L 211.640522 97.156498 
L 213.692462 97.825574 
L 215.744401 98.502064 
L 217.796341 99.185106 
L 219.848281 99.873924 
L 221.900221 100.568734 
L 223.952161 101.268458 
L 226.004101 101.972966 
L 228.056041 102.681612 
L 230.10798 103.393966 
L 232.15992 104.110285 
L 234.21186 104.829449 
L 236.2638 105.552061 
L 238.31574 106.277088 
L 240.36768 107.0047 
L 242.419619 107.734511 
L 244.471559 108.466478 
L 246.523499 109.200384 
L 248.575439 109.936057 
L 250.627379 110.673368 
L 252.679319 111.412102 
L 254.731259 112.152129 
L 256.783198 112.893449 
L 258.835138 113.635803 
L 260.887078 114.379537 
L 262.939018 115.124047 
L 264.990958 115.869333 
L 267.042898 116.615739 
" clip-path="url(#pfe9a739c5f)" style="fill: none; stroke: #ff7f0e; stroke-width: 2; stroke-linecap: square"/>
   </g>
   <g id="line2d_14">
    <path d="M 63.900852 168.996089 
L 65.952792 168.996089 
L 68.004732 168.996089 
L 70.056672 168.996089 
L 72.108612 168.996089 
L 74.160552 168.996089 
L 76.212491 168.996089 
L 78.264431 168.996089 
L 80.316371 168.996089 
L 82.368311 168.996089 
L 84.420251 168.996089 
L 86.472191 168.996089 
L 88.524131 168.996089 
L 90.57607 168.996089 
L 92.62801 168.996089 
L 94.67995 168.996089 
L 96.73189 168.996089 
L 98.78383 168.996089 
L 100.83577 168.996089 
L 102.887709 168.996089 
L 104.939649 168.996089 
L 106.991589 168.996089 
L 109.043529 168.996089 
L 111.095469 168.996089 
L 113.147409 168.996089 
L 115.199349 168.996089 
L 117.251288 168.996089 
L 119.303228 168.996089 
L 121.355168 168.996089 
L 123.407108 168.996089 
L 125.459048 168.996089 
L 127.510988 168.996089 
L 129.562928 168.996089 
L 131.614867 168.996089 
L 133.666807 168.996089 
L 135.718747 168.996089 
L 137.770687 168.996089 
L 139.822627 168.996089 
L 141.874567 168.996089 
L 143.926507 168.996089 
L 145.978446 168.996089 
L 148.030386 168.996089 
L 150.082326 168.996089 
L 152.134266 168.996089 
L 154.186206 168.996089 
L 156.238146 168.996089 
L 158.290086 168.996089 
L 160.342025 168.996089 
L 162.393965 168.996089 
L 164.445905 168.996089 
L 166.497845 168.996089 
L 168.549785 168.996089 
L 170.601725 168.996089 
L 172.653664 168.996089 
L 174.705604 168.996089 
L 176.757544 168.996089 
L 178.809484 168.996089 
L 180.861424 168.996089 
L 182.913364 168.996089 
L 184.965304 168.996089 
L 187.017243 168.996089 
L 189.069183 168.996089 
L 191.121123 168.996089 
L 193.173063 168.996089 
L 195.225003 168.996089 
L 197.276943 168.996089 
L 199.328883 168.996089 
L 201.380822 168.996089 
L 203.432762 168.996089 
L 205.484702 168.996089 
L 207.536642 168.996089 
L 209.588582 168.996089 
L 211.640522 168.996089 
L 213.692462 168.996089 
L 215.744401 168.996089 
L 217.796341 168.996089 
L 219.848281 168.996089 
L 221.900221 168.996089 
L 223.952161 168.996089 
L 226.004101 168.996089 
L 228.056041 168.996089 
L 230.10798 168.996089 
L 232.15992 168.996089 
L 234.21186 168.996089 
L 236.2638 166.241782 
L 238.31574 155.830958 
L 240.36768 147.154003 
L 242.419619 139.927792 
L 244.471559 133.934558 
L 246.523499 129.005327 
L 248.575439 125.006906 
L 250.627379 121.830972 
L 252.679319 119.39015 
L 254.731259 117.60862 
L 256.783198 116.417887 
L 258.835138 115.750018 
L 260.887078 115.532251 
L 262.939018 115.67467 
L 264.990958 116.070547 
L 267.042898 116.615739 
" clip-path="url(#pfe9a739c5f)" style="fill: none; stroke: #2ca02c; stroke-width: 2; stroke-linecap: square"/>
   </g>
   <g id="PathCollection_1">
    <defs>
     <path id="m8c77a309ea" d="M 0 3 
C 0.795609 3 1.55874 2.683901 2.12132 2.12132 
C 2.683901 1.55874 3 0.795609 3 0 
C 3 -0.795609 2.683901 -1.55874 2.12132 -2.12132 
C 1.55874 -2.683901 0.795609 -3 0 -3 
C -0.795609 -3 -1.55874 -2.683901 -2.12132 -2.12132 
C -2.683901 -1.55874 -3 -0.795609 -3 0 
C -3 0.795609 -2.683901 1.55874 -2.12132 2.12132 
C -1.55874 2.683901 -0.795609 3 0 3 
z
" style="stroke: #000000"/>
    </defs>
    <g clip-path="url(#pfe9a739c5f)">
     <use xlink:href="#m8c77a309ea" x="84.420251" y="52.042877" style="stroke: #000000"/>
    </g>
   </g>
   <g id="text_14">
    <!-- (0.05, 0.155) -->
    <g transform="translate(64.215057 45.232309)scale(0.1 -0.1)">
     <defs>
      <path id="DejaVuSans-28" d="M 1984 4856 
Q 1566 4138 1362 3434 
Q 1159 2731 1159 2009 
Q 1159 1288 1364 580 
Q 1569 -128 1984 -844 
L 1484 -844 
Q 1016 -109 783 600 
Q 550 1309 550 2009 
Q 550 2706 781 3412 
Q 1013 4119 1484 4856 
L 1984 4856 
z
" transform="scale(0.015625)"/>
      <path id="DejaVuSans-2c" d="M 750 794 
L 1409 794 
L 1409 256 
L 897 -744 
L 494 -744 
L 750 256 
L 750 794 
z
" transform="scale(0.015625)"/>
      <path id="DejaVuSans-20" transform="scale(0.015625)"/>
      <path id="DejaVuSans-29" d="M 513 4856 
L 1013 4856 
Q 1481 4119 1714 3412 
Q 1947 2706 1947 2009 
Q 1947 1309 1714 600 
Q 1481 -109 1013 -844 
L 513 -844 
Q 928 -128 1133 580 
Q 1338 1288 1338 2009 
Q 1338 2731 1133 3434 
Q 928 4138 513 4856 
z
" transform="scale(0.015625)"/>
     </defs>
     <use xlink:href="#DejaVuSans-28"/>
     <use xlink:href="#DejaVuSans-30" x="39.013672"/>
     <use xlink:href="#DejaVuSans-2e" x="102.636719"/>
     <use xlink:href="#DejaVuSans-30" x="134.423828"/>
     <use xlink:href="#DejaVuSans-35" x="198.046875"/>
     <use xlink:href="#DejaVuSans-2c" x="261.669922"/>
     <use xlink:href="#DejaVuSans-20" x="293.457031"/>
     <use xlink:href="#DejaVuSans-30" x="325.244141"/>
     <use xlink:href="#DejaVuSans-2e" x="388.867188"/>
     <use xlink:href="#DejaVuSans-31" x="420.654297"/>
     <use xlink:href="#DejaVuSans-35" x="484.277344"/>
     <use xlink:href="#DejaVuSans-35" x="547.900391"/>
     <use xlink:href="#DejaVuSans-29" x="611.523438"/>
    </g>
   </g>
   <g id="PathCollection_2">
    <g clip-path="url(#pfe9a739c5f)">
     <use xlink:href="#m8c77a309ea" x="162.393965" y="86.473093" style="stroke: #000000"/>
    </g>
   </g>
   <g id="text_15">
    <!-- (0.24, 0.11) -->
    <g transform="translate(96.409034 84.131471)scale(0.1 -0.1)">
     <use xlink:href="#DejaVuSans-28"/>
     <use xlink:href="#DejaVuSans-30" x="39.013672"/>
     <use xlink:href="#DejaVuSans-2e" x="102.636719"/>
     <use xlink:href="#DejaVuSans-32" x="134.423828"/>
     <use xlink:href="#DejaVuSans-34" x="198.046875"/>
     <use xlink:href="#DejaVuSans-2c" x="261.669922"/>
     <use xlink:href="#DejaVuSans-20" x="293.457031"/>
     <use xlink:href="#DejaVuSans-30" x="325.244141"/>
     <use xlink:href="#DejaVuSans-2e" x="388.867188"/>
     <use xlink:href="#DejaVuSans-31" x="420.654297"/>
     <use xlink:href="#DejaVuSans-31" x="484.277344"/>
     <use xlink:href="#DejaVuSans-29" x="547.900391"/>
    </g>
   </g>
   <g id="PathCollection_3">
    <g clip-path="url(#pfe9a739c5f)">
     <use xlink:href="#m8c77a309ea" x="260.887078" y="115.532251" style="stroke: #000000"/>
    </g>
   </g>
   <g id="text_16">
    <!-- (0.48, 0.071) -->
    <g transform="translate(180.917216 120.510745)scale(0.1 -0.1)">
     <defs>
      <path id="DejaVuSans-38" d="M 2034 2216 
Q 1584 2216 1326 1975 
Q 1069 1734 1069 1313 
Q 1069 891 1326 650 
Q 1584 409 2034 409 
Q 2484 409 2743 651 
Q 3003 894 3003 1313 
Q 3003 1734 2745 1975 
Q 2488 2216 2034 2216 
z
M 1403 2484 
Q 997 2584 770 2862 
Q 544 3141 544 3541 
Q 544 4100 942 4425 
Q 1341 4750 2034 4750 
Q 2731 4750 3128 4425 
Q 3525 4100 3525 3541 
Q 3525 3141 3298 2862 
Q 3072 2584 2669 2484 
Q 3125 2378 3379 2068 
Q 3634 1759 3634 1313 
Q 3634 634 3220 271 
Q 2806 -91 2034 -91 
Q 1263 -91 848 271 
Q 434 634 434 1313 
Q 434 1759 690 2068 
Q 947 2378 1403 2484 
z
M 1172 3481 
Q 1172 3119 1398 2916 
Q 1625 2713 2034 2713 
Q 2441 2713 2670 2916 
Q 2900 3119 2900 3481 
Q 2900 3844 2670 4047 
Q 2441 4250 2034 4250 
Q 1625 4250 1398 4047 
Q 1172 3844 1172 3481 
z
" transform="scale(0.015625)"/>
      <path id="DejaVuSans-37" d="M 525 4666 
L 3525 4666 
L 3525 4397 
L 1831 0 
L 1172 0 
L 2766 4134 
L 525 4134 
L 525 4666 
z
" transform="scale(0.015625)"/>
     </defs>
     <use xlink:href="#DejaVuSans-28"/>
     <use xlink:href="#DejaVuSans-30" x="39.013672"/>
     <use xlink:href="#DejaVuSans-2e" x="102.636719"/>
     <use xlink:href="#DejaVuSans-34" x="134.423828"/>
     <use xlink:href="#DejaVuSans-38" x="198.046875"/>
     <use xlink:href="#DejaVuSans-2c" x="261.669922"/>
     <use xlink:href="#DejaVuSans-20" x="293.457031"/>
     <use xlink:href="#DejaVuSans-30" x="325.244141"/>
     <use xlink:href="#DejaVuSans-2e" x="388.867188"/>
     <use xlink:href="#DejaVuSans-30" x="420.654297"/>
     <use xlink:href="#DejaVuSans-37" x="484.277344"/>
     <use xlink:href="#DejaVuSans-31" x="547.900391"/>
     <use xlink:href="#DejaVuSans-29" x="611.523438"/>
    </g>
   </g>
   <g id="patch_3">
    <path d="M 53.74375 174.84375 
L 53.74375 10.8 
" style="fill: none; stroke: #000000; stroke-width: 0.8; stroke-linejoin: miter; stroke-linecap: square"/>
   </g>
   <g id="patch_4">
    <path d="M 277.2 174.84375 
L 277.2 10.8 
" style="fill: none; stroke: #000000; stroke-width: 0.8; stroke-linejoin: miter; stroke-linecap: square"/>
   </g>
   <g id="patch_5">
    <path d="M 53.74375 174.84375 
L 277.2 174.84375 
" style="fill: none; stroke: #000000; stroke-width: 0.8; stroke-linejoin: miter; stroke-linecap: square"/>
   </g>
   <g id="patch_6">
    <path d="M 53.74375 10.8 
L 277.2 10.8 
" style="fill: none; stroke: #000000; stroke-width: 0.8; stroke-linejoin: miter; stroke-linecap: square"/>
   </g>
   <g id="legend_1">
    <g id="patch_7">
     <path d="M 194.8 63.2 
L 270.2 63.2 
Q 272.2 63.2 272.2 61.2 
L 272.2 17.8 
Q 272.2 15.8 270.2 15.8 
L 194.8 15.8 
Q 192.8 15.8 192.8 17.8 
L 192.8 61.2 
Q 192.8 63.2 194.8 63.2 
z
" style="fill: #ffffff; opacity: 0.8; stroke: #cccccc; stroke-linejoin: miter"/>
    </g>
    <g id="line2d_15">
     <path d="M 196.8 24 
L 206.8 24 
L 216.8 24 
" style="fill: none; stroke: #1f77b4; stroke-width: 2; stroke-linecap: square"/>
    </g>
    <g id="text_17">
     <!-- $\beta$ = 0.02 -->
     <g transform="translate(224.8 27.5)scale(0.1 -0.1)">
      <defs>
       <path id="DejaVuSans-Oblique-3b2" d="M 872 216 
L 572 -1331 
L -6 -1331 
L 928 3478 
Q 1206 4903 2538 4903 
Q 3888 4903 3659 3700 
Q 3503 2844 2894 2531 
Q 3713 2250 3553 1416 
Q 3272 -69 1759 -66 
Q 1097 -63 872 216 
z
M 1019 966 
Q 1259 422 1875 425 
Q 2775 425 2966 1406 
Q 3138 2288 1675 2219 
L 1778 2750 
Q 2909 2731 3106 3750 
Q 3241 4438 2509 4434 
Q 1691 4434 1503 3459 
L 1019 966 
z
" transform="scale(0.015625)"/>
       <path id="DejaVuSans-3d" d="M 678 2906 
L 4684 2906 
L 4684 2381 
L 678 2381 
L 678 2906 
z
M 678 1631 
L 4684 1631 
L 4684 1100 
L 678 1100 
L 678 1631 
z
" transform="scale(0.015625)"/>
      </defs>
      <use xlink:href="#DejaVuSans-Oblique-3b2" transform="translate(0 0.390625)"/>
      <use xlink:href="#DejaVuSans-20" transform="translate(63.818359 0.390625)"/>
      <use xlink:href="#DejaVuSans-3d" transform="translate(95.605469 0.390625)"/>
      <use xlink:href="#DejaVuSans-20" transform="translate(179.394531 0.390625)"/>
      <use xlink:href="#DejaVuSans-30" transform="translate(211.181641 0.390625)"/>
      <use xlink:href="#DejaVuSans-2e" transform="translate(274.804688 0.390625)"/>
      <use xlink:href="#DejaVuSans-30" transform="translate(306.591797 0.390625)"/>
      <use xlink:href="#DejaVuSans-32" transform="translate(370.214844 0.390625)"/>
     </g>
    </g>
    <g id="line2d_16">
     <path d="M 196.8 38.8 
L 206.8 38.8 
L 216.8 38.8 
" style="fill: none; stroke: #ff7f0e; stroke-width: 2; stroke-linecap: square"/>
    </g>
    <g id="text_18">
     <!-- $\beta$ = 0.2 -->
     <g transform="translate(224.8 42.3)scale(0.1 -0.1)">
      <use xlink:href="#DejaVuSans-Oblique-3b2" transform="translate(0 0.390625)"/>
      <use xlink:href="#DejaVuSans-20" transform="translate(63.818359 0.390625)"/>
      <use xlink:href="#DejaVuSans-3d" transform="translate(95.605469 0.390625)"/>
      <use xlink:href="#DejaVuSans-20" transform="translate(179.394531 0.390625)"/>
      <use xlink:href="#DejaVuSans-30" transform="translate(211.181641 0.390625)"/>
      <use xlink:href="#DejaVuSans-2e" transform="translate(274.804688 0.390625)"/>
      <use xlink:href="#DejaVuSans-32" transform="translate(301.091797 0.390625)"/>
     </g>
    </g>
    <g id="line2d_17">
     <path d="M 196.8 53.6 
L 206.8 53.6 
L 216.8 53.6 
" style="fill: none; stroke: #2ca02c; stroke-width: 2; stroke-linecap: square"/>
    </g>
    <g id="text_19">
     <!-- $\beta$ = 2 -->
     <g transform="translate(224.8 57.1)scale(0.1 -0.1)">
      <use xlink:href="#DejaVuSans-Oblique-3b2" transform="translate(0 0.390625)"/>
      <use xlink:href="#DejaVuSans-20" transform="translate(63.818359 0.390625)"/>
      <use xlink:href="#DejaVuSans-3d" transform="translate(95.605469 0.390625)"/>
      <use xlink:href="#DejaVuSans-20" transform="translate(179.394531 0.390625)"/>
      <use xlink:href="#DejaVuSans-32" transform="translate(211.181641 0.390625)"/>
     </g>
    </g>
   </g>
  </g>
 </g>
 <defs>
  <clipPath id="pfe9a739c5f">
   <rect x="53.74375" y="10.8" width="223.45625" height="164.04375"/>
  </clipPath>
 </defs>
</svg>
