<?xml version="1.0" encoding="utf-8" standalone="no"?>
<!DOCTYPE svg PUBLIC "-//W3C//DTD SVG 1.1//EN"
  "http://www.w3.org/Graphics/SVG/1.1/DTD/svg11.dtd">
<svg xmlns:xlink="http://www.w3.org/1999/xlink" width="252pt" height="180pt" viewBox="0 0 252 180" xmlns="http://www.w3.org/2000/svg" version="1.1">
 <metadata>
  <rdf:RDF xmlns:dc="http://purl.org/dc/elements/1.1/" xmlns:cc="http://creativecommons.org/ns#" xmlns:rdf="http://www.w3.org/1999/02/22-rdf-syntax-ns#">
   <cc:Work>
    <dc:type rdf:resource="http://purl.org/dc/dcmitype/StillImage"/>
    <dc:date>2024-05-27T13:56:17.566786</dc:date>
    <dc:format>image/svg+xml</dc:format>
    <dc:creator>
     <cc:Agent>
      <dc:title>Matplotlib v3.5.3, https://matplotlib.org/</dc:title>
     </cc:Agent>
    </dc:creator>
   </cc:Work>
  </rdf:RDF>
 </metadata>
 <defs>
  <style type="text/css">*{stroke-linejoin: round; stroke-linecap: butt}</style>
 </defs>
 <g id="figure_1">
  <g id="patch_1">
   <path d="M 0 180 
L 252 180 
L 252 0 
L 0 0 
L 0 180 
z
" style="fill: none"/>
  </g>
  <g id="axes_1">
   <g id="patch_2">
    <path d="M 44.203125 138.84375 
L 233.248437 138.84375 
L 233.248437 10.8 
L 44.203125 10.8 
L 44.203125 138.84375 
z
" style="fill: none"/>
   </g>
   <g id="matplotlib.axis_1">
    <g id="xtick_1">
     <g id="line2d_1">
      <defs>
       <path id="m02ea2221d3" d="M 0 0 
L 0 3.5 
" style="stroke: #000000; stroke-width: 0.8"/>
      </defs>
      <g>
       <use xlink:href="#m02ea2221d3" x="44.203125" y="138.84375" style="stroke: #000000; stroke-width: 0.8"/>
      </g>
     </g>
     <g id="text_1">
      <!-- 0.0 -->
      <g transform="translate(36.251563 153.442187)scale(0.1 -0.1)">
       <defs>
        <path id="DejaVuSans-30" d="M 2034 4250 
Q 1547 4250 1301 3770 
Q 1056 3291 1056 2328 
Q 1056 1369 1301 889 
Q 1547 409 2034 409 
Q 2525 409 2770 889 
Q 3016 1369 3016 2328 
Q 3016 3291 2770 3770 
Q 2525 4250 2034 4250 
z
M 2034 4750 
Q 2819 4750 3233 4129 
Q 3647 3509 3647 2328 
Q 3647 1150 3233 529 
Q 2819 -91 2034 -91 
Q 1250 -91 836 529 
Q 422 1150 422 2328 
Q 422 3509 836 4129 
Q 1250 4750 2034 4750 
z
" transform="scale(0.015625)"/>
        <path id="DejaVuSans-2e" d="M 684 794 
L 1344 794 
L 1344 0 
L 684 0 
L 684 794 
z
" transform="scale(0.015625)"/>
       </defs>
       <use xlink:href="#DejaVuSans-30"/>
       <use xlink:href="#DejaVuSans-2e" x="63.623047"/>
       <use xlink:href="#DejaVuSans-30" x="95.410156"/>
      </g>
     </g>
    </g>
    <g id="xtick_2">
     <g id="line2d_2">
      <g>
       <use xlink:href="#m02ea2221d3" x="75.710677" y="138.84375" style="stroke: #000000; stroke-width: 0.8"/>
      </g>
     </g>
     <g id="text_2">
      <!-- 0.1 -->
      <g transform="translate(67.759115 153.442187)scale(0.1 -0.1)">
       <defs>
        <path id="DejaVuSans-31" d="M 794 531 
L 1825 531 
L 1825 4091 
L 703 3866 
L 703 4441 
L 1819 4666 
L 2450 4666 
L 2450 531 
L 3481 531 
L 3481 0 
L 794 0 
L 794 531 
z
" transform="scale(0.015625)"/>
       </defs>
       <use xlink:href="#DejaVuSans-30"/>
       <use xlink:href="#DejaVuSans-2e" x="63.623047"/>
       <use xlink:href="#DejaVuSans-31" x="95.410156"/>
      </g>
     </g>
    </g>
    <g id="xtick_3">
     <g id="line2d_3">
      <g>
       <use xlink:href="#m02ea2221d3" x="107.218229" y="138.84375" style="stroke: #000000; stroke-width: 0.8"/>
      </g>
     </g>
     <g id="text_3">
      <!-- 0.2 -->
      <g transform="translate(99.266667 153.442187)scale(0.1 -0.1)">
       <defs>
        <path id="DejaVuSans-32" d="M 1228 531 
L 3431 531 
L 3431 0 
L 469 0 
L 469 531 
Q 828 903 1448 1529 
Q 2069 2156 2228 2338 
Q 2531 2678 2651 2914 
Q 2772 3150 2772 3378 
Q 2772 3750 2511 3984 
Q 2250 4219 1831 4219 
Q 1534 4219 1204 4116 
Q 875 4013 500 3803 
L 500 4441 
Q 881 4594 1212 4672 
Q 1544 4750 1819 4750 
Q 2544 4750 2975 4387 
Q 3406 4025 3406 3419 
Q 3406 3131 3298 2873 
Q 3191 2616 2906 2266 
Q 2828 2175 2409 1742 
Q 1991 1309 1228 531 
z
" transform="scale(0.015625)"/>
       </defs>
       <use xlink:href="#DejaVuSans-30"/>
       <use xlink:href="#DejaVuSans-2e" x="63.623047"/>
       <use xlink:href="#DejaVuSans-32" x="95.410156"/>
      </g>
     </g>
    </g>
    <g id="xtick_4">
     <g id="line2d_4">
      <g>
       <use xlink:href="#m02ea2221d3" x="138.725781" y="138.84375" style="stroke: #000000; stroke-width: 0.8"/>
      </g>
     </g>
     <g id="text_4">
      <!-- 0.3 -->
      <g transform="translate(130.774219 153.442187)scale(0.1 -0.1)">
       <defs>
        <path id="DejaVuSans-33" d="M 2597 2516 
Q 3050 2419 3304 2112 
Q 3559 1806 3559 1356 
Q 3559 666 3084 287 
Q 2609 -91 1734 -91 
Q 1441 -91 1130 -33 
Q 819 25 488 141 
L 488 750 
Q 750 597 1062 519 
Q 1375 441 1716 441 
Q 2309 441 2620 675 
Q 2931 909 2931 1356 
Q 2931 1769 2642 2001 
Q 2353 2234 1838 2234 
L 1294 2234 
L 1294 2753 
L 1863 2753 
Q 2328 2753 2575 2939 
Q 2822 3125 2822 3475 
Q 2822 3834 2567 4026 
Q 2313 4219 1838 4219 
Q 1578 4219 1281 4162 
Q 984 4106 628 3988 
L 628 4550 
Q 988 4650 1302 4700 
Q 1616 4750 1894 4750 
Q 2613 4750 3031 4423 
Q 3450 4097 3450 3541 
Q 3450 3153 3228 2886 
Q 3006 2619 2597 2516 
z
" transform="scale(0.015625)"/>
       </defs>
       <use xlink:href="#DejaVuSans-30"/>
       <use xlink:href="#DejaVuSans-2e" x="63.623047"/>
       <use xlink:href="#DejaVuSans-33" x="95.410156"/>
      </g>
     </g>
    </g>
    <g id="xtick_5">
     <g id="line2d_5">
      <g>
       <use xlink:href="#m02ea2221d3" x="170.233333" y="138.84375" style="stroke: #000000; stroke-width: 0.8"/>
      </g>
     </g>
     <g id="text_5">
      <!-- 0.4 -->
      <g transform="translate(162.281771 153.442187)scale(0.1 -0.1)">
       <defs>
        <path id="DejaVuSans-34" d="M 2419 4116 
L 825 1625 
L 2419 1625 
L 2419 4116 
z
M 2253 4666 
L 3047 4666 
L 3047 1625 
L 3713 1625 
L 3713 1100 
L 3047 1100 
L 3047 0 
L 2419 0 
L 2419 1100 
L 313 1100 
L 313 1709 
L 2253 4666 
z
" transform="scale(0.015625)"/>
       </defs>
       <use xlink:href="#DejaVuSans-30"/>
       <use xlink:href="#DejaVuSans-2e" x="63.623047"/>
       <use xlink:href="#DejaVuSans-34" x="95.410156"/>
      </g>
     </g>
    </g>
    <g id="xtick_6">
     <g id="line2d_6">
      <g>
       <use xlink:href="#m02ea2221d3" x="201.740885" y="138.84375" style="stroke: #000000; stroke-width: 0.8"/>
      </g>
     </g>
     <g id="text_6">
      <!-- 0.5 -->
      <g transform="translate(193.789323 153.442187)scale(0.1 -0.1)">
       <defs>
        <path id="DejaVuSans-35" d="M 691 4666 
L 3169 4666 
L 3169 4134 
L 1269 4134 
L 1269 2991 
Q 1406 3038 1543 3061 
Q 1681 3084 1819 3084 
Q 2600 3084 3056 2656 
Q 3513 2228 3513 1497 
Q 3513 744 3044 326 
Q 2575 -91 1722 -91 
Q 1428 -91 1123 -41 
Q 819 9 494 109 
L 494 744 
Q 775 591 1075 516 
Q 1375 441 1709 441 
Q 2250 441 2565 725 
Q 2881 1009 2881 1497 
Q 2881 1984 2565 2268 
Q 2250 2553 1709 2553 
Q 1456 2553 1204 2497 
Q 953 2441 691 2322 
L 691 4666 
z
" transform="scale(0.015625)"/>
       </defs>
       <use xlink:href="#DejaVuSans-30"/>
       <use xlink:href="#DejaVuSans-2e" x="63.623047"/>
       <use xlink:href="#DejaVuSans-35" x="95.410156"/>
      </g>
     </g>
    </g>
    <g id="xtick_7">
     <g id="line2d_7">
      <g>
       <use xlink:href="#m02ea2221d3" x="233.248438" y="138.84375" style="stroke: #000000; stroke-width: 0.8"/>
      </g>
     </g>
     <g id="text_7">
      <!-- 0.6 -->
      <g transform="translate(225.296875 153.442187)scale(0.1 -0.1)">
       <defs>
        <path id="DejaVuSans-36" d="M 2113 2584 
Q 1688 2584 1439 2293 
Q 1191 2003 1191 1497 
Q 1191 994 1439 701 
Q 1688 409 2113 409 
Q 2538 409 2786 701 
Q 3034 994 3034 1497 
Q 3034 2003 2786 2293 
Q 2538 2584 2113 2584 
z
M 3366 4563 
L 3366 3988 
Q 3128 4100 2886 4159 
Q 2644 4219 2406 4219 
Q 1781 4219 1451 3797 
Q 1122 3375 1075 2522 
Q 1259 2794 1537 2939 
Q 1816 3084 2150 3084 
Q 2853 3084 3261 2657 
Q 3669 2231 3669 1497 
Q 3669 778 3244 343 
Q 2819 -91 2113 -91 
Q 1303 -91 875 529 
Q 447 1150 447 2328 
Q 447 3434 972 4092 
Q 1497 4750 2381 4750 
Q 2619 4750 2861 4703 
Q 3103 4656 3366 4563 
z
" transform="scale(0.015625)"/>
       </defs>
       <use xlink:href="#DejaVuSans-30"/>
       <use xlink:href="#DejaVuSans-2e" x="63.623047"/>
       <use xlink:href="#DejaVuSans-36" x="95.410156"/>
      </g>
     </g>
    </g>
    <g id="text_8">
     <!-- r -->
     <g transform="translate(136.670312 167.120312)scale(0.1 -0.1)">
      <defs>
       <path id="DejaVuSans-72" d="M 2631 2963 
Q 2534 3019 2420 3045 
Q 2306 3072 2169 3072 
Q 1681 3072 1420 2755 
Q 1159 2438 1159 1844 
L 1159 0 
L 581 0 
L 581 3500 
L 1159 3500 
L 1159 2956 
Q 1341 3275 1631 3429 
Q 1922 3584 2338 3584 
Q 2397 3584 2469 3576 
Q 2541 3569 2628 3553 
L 2631 2963 
z
" transform="scale(0.015625)"/>
      </defs>
      <use xlink:href="#DejaVuSans-72"/>
     </g>
    </g>
   </g>
   <g id="matplotlib.axis_2">
    <g id="ytick_1">
     <g id="line2d_8">
      <defs>
       <path id="me1a2428e26" d="M 0 0 
L -3.5 0 
" style="stroke: #000000; stroke-width: 0.8"/>
      </defs>
      <g>
       <use xlink:href="#me1a2428e26" x="44.203125" y="138.84375" style="stroke: #000000; stroke-width: 0.8"/>
      </g>
     </g>
     <g id="text_9">
      <!-- 0 -->
      <g transform="translate(30.840625 142.642969)scale(0.1 -0.1)">
       <use xlink:href="#DejaVuSans-30"/>
      </g>
     </g>
    </g>
    <g id="ytick_2">
     <g id="line2d_9">
      <g>
       <use xlink:href="#me1a2428e26" x="44.203125" y="101.183824" style="stroke: #000000; stroke-width: 0.8"/>
      </g>
     </g>
     <g id="text_10">
      <!-- 5 -->
      <g transform="translate(30.840625 104.983042)scale(0.1 -0.1)">
       <use xlink:href="#DejaVuSans-35"/>
      </g>
     </g>
    </g>
    <g id="ytick_3">
     <g id="line2d_10">
      <g>
       <use xlink:href="#me1a2428e26" x="44.203125" y="63.523897" style="stroke: #000000; stroke-width: 0.8"/>
      </g>
     </g>
     <g id="text_11">
      <!-- 10 -->
      <g transform="translate(24.478125 67.323116)scale(0.1 -0.1)">
       <use xlink:href="#DejaVuSans-31"/>
       <use xlink:href="#DejaVuSans-30" x="63.623047"/>
      </g>
     </g>
    </g>
    <g id="ytick_4">
     <g id="line2d_11">
      <g>
       <use xlink:href="#me1a2428e26" x="44.203125" y="25.863971" style="stroke: #000000; stroke-width: 0.8"/>
      </g>
     </g>
     <g id="text_12">
      <!-- 15 -->
      <g transform="translate(24.478125 29.663189)scale(0.1 -0.1)">
       <use xlink:href="#DejaVuSans-31"/>
       <use xlink:href="#DejaVuSans-35" x="63.623047"/>
      </g>
     </g>
    </g>
    <g id="text_13">
     <!-- $R_0$ -->
     <g transform="translate(18.398438 80.671875)rotate(-90)scale(0.1 -0.1)">
      <defs>
       <path id="DejaVuSans-Oblique-52" d="M 1613 4147 
L 1294 2491 
L 2106 2491 
Q 2584 2491 2879 2755 
Q 3175 3019 3175 3444 
Q 3175 3784 2976 3965 
Q 2778 4147 2406 4147 
L 1613 4147 
z
M 2772 2241 
Q 2972 2194 3105 2009 
Q 3238 1825 3413 1275 
L 3809 0 
L 3144 0 
L 2778 1197 
Q 2638 1659 2453 1815 
Q 2269 1972 1888 1972 
L 1191 1972 
L 806 0 
L 172 0 
L 1081 4666 
L 2503 4666 
Q 3150 4666 3495 4373 
Q 3841 4081 3841 3531 
Q 3841 3044 3547 2687 
Q 3253 2331 2772 2241 
z
" transform="scale(0.015625)"/>
      </defs>
      <use xlink:href="#DejaVuSans-Oblique-52" transform="translate(0 0.09375)"/>
      <use xlink:href="#DejaVuSans-30" transform="translate(69.482422 -16.3125)scale(0.7)"/>
     </g>
    </g>
   </g>
   <g id="line2d_12">
    <path d="M 47.35388 138.84375 
L 48.913345 138.84375 
L 50.47281 138.84375 
L 52.032274 138.84375 
L 53.591739 138.84375 
L 55.151204 138.84375 
L 56.710668 138.84375 
L 58.270133 138.84375 
L 59.829598 138.84375 
L 61.389063 138.84375 
L 62.948527 138.84375 
L 64.507992 138.84375 
L 66.067457 138.84375 
L 67.626921 138.843737 
L 69.186386 138.841229 
L 70.745851 138.800386 
L 72.305315 138.610694 
L 73.86478 138.158361 
L 75.424245 137.406836 
L 76.983709 136.385822 
L 78.543174 135.150619 
L 80.102639 133.756368 
L 81.662104 132.248617 
L 83.221568 130.662125 
L 84.781033 129.02252 
L 86.340498 127.348463 
L 87.899962 125.653527 
L 89.459427 123.947634 
L 91.018892 122.238099 
L 92.578356 120.530369 
L 94.137821 118.828546 
L 95.697286 117.135756 
L 97.256751 115.454405 
L 98.816215 113.786369 
L 100.37568 112.133122 
L 101.935145 110.495839 
L 103.494609 108.875462 
L 105.054074 107.272759 
L 106.613539 105.688356 
L 108.173003 104.122774 
L 109.732468 102.576449 
L 111.291933 101.049752 
L 112.851398 99.543001 
L 114.410862 98.056475 
L 115.970327 96.590423 
L 117.529792 95.145072 
L 119.089256 93.72063 
L 120.648721 92.317301 
L 122.208186 90.935277 
L 123.76765 89.574756 
L 125.327115 88.235936 
L 126.88658 86.919023 
L 128.446045 85.624235 
L 130.005509 84.351804 
L 131.564974 83.101979 
L 133.124439 81.875033 
L 134.683903 80.67126 
L 136.243368 79.490984 
L 137.802833 78.334561 
L 139.362297 77.20238 
L 140.921762 76.09487 
L 142.481227 75.012503 
L 144.040692 73.955796 
L 145.600156 72.925319 
L 147.159621 71.921698 
L 148.719086 70.945616 
L 150.27855 69.997828 
L 151.838015 69.079156 
L 153.39748 68.190501 
L 154.956944 67.33285 
L 156.516409 66.507279 
L 158.075874 65.714965 
L 159.635339 64.957188 
L 161.194803 64.235344 
L 162.754268 63.550951 
L 164.313733 62.905657 
L 165.873197 62.301251 
L 167.432662 61.739666 
L 168.992127 61.222989 
L 170.551591 60.753468 
L 172.111056 60.33351 
L 173.670521 59.965685 
L 175.229986 59.652719 
L 176.78945 59.397482 
L 178.348915 59.202966 
L 179.90838 59.072247 
L 181.467844 59.008435 
L 183.027309 59.014594 
L 184.586774 59.093638 
L 186.146238 59.248185 
L 187.705703 59.480371 
L 189.265168 59.791614 
L 190.824633 60.182336 
L 192.384097 60.651659 
L 193.943562 61.19712 
L 195.503027 61.814484 
L 197.062491 62.497778 
L 198.621956 63.239653 
L 200.181421 64.032075 
L 201.740885 64.867162 
" clip-path="url(#p974a25edcb)" style="fill: none; stroke: #1f77b4; stroke-width: 2; stroke-linecap: square"/>
   </g>
   <g id="line2d_13">
    <path d="M 47.35388 138.84375 
L 48.913345 138.84375 
L 50.47281 138.84375 
L 52.032274 138.84375 
L 53.591739 138.84375 
L 55.151204 138.84375 
L 56.710668 138.84375 
L 58.270133 138.84375 
L 59.829598 138.84375 
L 61.389063 138.84375 
L 62.948527 138.84375 
L 64.507992 138.84375 
L 66.067457 138.84375 
L 67.626921 138.84375 
L 69.186386 138.84375 
L 70.745851 138.84375 
L 72.305315 138.84375 
L 73.86478 138.843748 
L 75.424245 138.84348 
L 76.983709 138.837993 
L 78.543174 138.803017 
L 80.102639 138.691137 
L 81.662104 138.455152 
L 83.221568 138.06997 
L 84.781033 137.535023 
L 86.340498 136.865615 
L 87.899962 136.083737 
L 89.459427 135.212113 
L 91.018892 134.271293 
L 92.578356 133.278664 
L 94.137821 132.248419 
L 95.697286 131.191932 
L 97.256751 130.118234 
L 98.816215 129.034483 
L 100.37568 127.946359 
L 101.935145 126.858384 
L 103.494609 125.774187 
L 105.054074 124.696696 
L 106.613539 123.628295 
L 108.173003 122.570943 
L 109.732468 121.526265 
L 111.291933 120.495623 
L 112.851398 119.480173 
L 114.410862 118.480904 
L 115.970327 117.498677 
L 117.529792 116.534245 
L 119.089256 115.58828 
L 120.648721 114.66139 
L 122.208186 113.754126 
L 123.76765 112.867003 
L 125.327115 112.0005 
L 126.88658 111.155076 
L 128.446045 110.33117 
L 130.005509 109.52921 
L 131.564974 108.749618 
L 133.124439 107.992813 
L 134.683903 107.259215 
L 136.243368 106.549248 
L 137.802833 105.863345 
L 139.362297 105.20195 
L 140.921762 104.56552 
L 142.481227 103.954529 
L 144.040692 103.369469 
L 145.600156 102.810856 
L 147.159621 102.279229 
L 148.719086 101.775151 
L 150.27855 101.29922 
L 151.838015 100.852061 
L 153.39748 100.434335 
L 154.956944 100.046742 
L 156.516409 99.690019 
L 158.075874 99.364946 
L 159.635339 99.072348 
L 161.194803 98.813095 
L 162.754268 98.588106 
L 164.313733 98.398353 
L 165.873197 98.244855 
L 167.432662 98.128684 
L 168.992127 98.050963 
L 170.551591 98.012863 
L 172.111056 98.015596 
L 173.670521 98.060415 
L 175.229986 98.148597 
L 176.78945 98.28143 
L 178.348915 98.460191 
L 179.90838 98.68612 
L 181.467844 98.960378 
L 183.027309 99.283997 
L 184.586774 99.65781 
L 186.146238 100.082374 
L 187.705703 100.557856 
L 189.265168 101.083916 
L 190.824633 101.659562 
L 192.384097 102.283013 
L 193.943562 102.951574 
L 195.503027 103.661593 
L 197.062491 104.408532 
L 198.621956 105.187221 
L 200.181421 105.992276 
L 201.740885 106.818552 
" clip-path="url(#p974a25edcb)" style="fill: none; stroke: #ff7f0e; stroke-width: 2; stroke-linecap: square"/>
   </g>
   <g id="line2d_14">
    <path d="M 47.35388 138.84375 
L 48.913345 138.84375 
L 50.47281 138.84375 
L 52.032274 138.84375 
L 53.591739 138.84375 
L 55.151204 138.84375 
L 56.710668 138.84375 
L 58.270133 138.84375 
L 59.829598 138.84375 
L 61.389063 138.84375 
L 62.948527 138.84375 
L 64.507992 138.84375 
L 66.067457 138.84375 
L 67.626921 138.84375 
L 69.186386 138.84375 
L 70.745851 138.84375 
L 72.305315 138.84375 
L 73.86478 138.84375 
L 75.424245 138.84375 
L 76.983709 138.84375 
L 78.543174 138.84375 
L 80.102639 138.84375 
L 81.662104 138.84375 
L 83.221568 138.84375 
L 84.781033 138.84375 
L 86.340498 138.84375 
L 87.899962 138.843727 
L 89.459427 138.843394 
L 91.018892 138.841199 
L 92.578356 138.832712 
L 94.137821 138.810062 
L 95.697286 138.763451 
L 97.256751 138.683722 
L 98.816215 138.564384 
L 100.37568 138.402383 
L 101.935145 138.197852 
L 103.494609 137.953348 
L 105.054074 137.672983 
L 106.613539 137.361688 
L 108.173003 137.024663 
L 109.732468 136.66702 
L 111.291933 136.293563 
L 112.851398 135.908686 
L 114.410862 135.516334 
L 115.970327 135.12 
L 117.529792 134.72276 
L 119.089256 134.327306 
L 120.648721 133.935988 
L 122.208186 133.550861 
L 123.76765 133.173722 
L 125.327115 132.806144 
L 126.88658 132.44951 
L 128.446045 132.105042 
L 130.005509 131.773821 
L 131.564974 131.456811 
L 133.124439 131.154875 
L 134.683903 130.868788 
L 136.243368 130.599252 
L 137.802833 130.346908 
L 139.362297 130.112338 
L 140.921762 129.896082 
L 142.481227 129.698635 
L 144.040692 129.520457 
L 145.600156 129.361978 
L 147.159621 129.223595 
L 148.719086 129.105684 
L 150.27855 129.008593 
L 151.838015 128.932648 
L 153.39748 128.87815 
L 154.956944 128.845378 
L 156.516409 128.834589 
L 158.075874 128.846011 
L 159.635339 128.879845 
L 161.194803 128.936262 
L 162.754268 129.015397 
L 164.313733 129.117347 
L 165.873197 129.24216 
L 167.432662 129.389833 
L 168.992127 129.560301 
L 170.551591 129.753426 
L 172.111056 129.968987 
L 173.670521 130.206664 
L 175.229986 130.466021 
L 176.78945 130.746491 
L 178.348915 131.047348 
L 179.90838 131.367689 
L 181.467844 131.706401 
L 183.027309 132.062138 
L 184.586774 132.433282 
L 186.146238 132.81792 
L 187.705703 133.213809 
L 189.265168 133.618355 
L 190.824633 134.028607 
L 192.384097 134.441259 
L 193.943562 134.852693 
L 195.503027 135.259059 
L 197.062491 135.656394 
L 198.621956 136.040787 
L 200.181421 136.408552 
L 201.740885 136.756368 
" clip-path="url(#p974a25edcb)" style="fill: none; stroke: #2ca02c; stroke-width: 2; stroke-linecap: square"/>
   </g>
   <g id="PathCollection_1">
    <defs>
     <path id="md306d4dbc7" d="M 0 3 
C 0.795609 3 1.55874 2.683901 2.12132 2.12132 
C 2.683901 1.55874 3 0.795609 3 0 
C 3 -0.795609 2.683901 -1.55874 2.12132 -2.12132 
C 1.55874 -2.683901 0.795609 -3 0 -3 
C -0.795609 -3 -1.55874 -2.683901 -2.12132 -2.12132 
C -2.683901 -1.55874 -3 -0.795609 -3 0 
C -3 0.795609 -2.683901 1.55874 -2.12132 2.12132 
C -1.55874 2.683901 -0.795609 3 0 3 
z
" style="stroke: #000000"/>
    </defs>
    <g clip-path="url(#p974a25edcb)">
     <use xlink:href="#md306d4dbc7" x="181.467844" y="59.008435" style="stroke: #000000"/>
    </g>
   </g>
   <g id="text_14">
    <!-- (0.44, 10.6) -->
    <g transform="translate(167.836354 52.004706)scale(0.08 -0.08)">
     <defs>
      <path id="DejaVuSans-28" d="M 1984 4856 
Q 1566 4138 1362 3434 
Q 1159 2731 1159 2009 
Q 1159 1288 1364 580 
Q 1569 -128 1984 -844 
L 1484 -844 
Q 1016 -109 783 600 
Q 550 1309 550 2009 
Q 550 2706 781 3412 
Q 1013 4119 1484 4856 
L 1984 4856 
z
" transform="scale(0.015625)"/>
      <path id="DejaVuSans-2c" d="M 750 794 
L 1409 794 
L 1409 256 
L 897 -744 
L 494 -744 
L 750 256 
L 750 794 
z
" transform="scale(0.015625)"/>
      <path id="DejaVuSans-20" transform="scale(0.015625)"/>
      <path id="DejaVuSans-29" d="M 513 4856 
L 1013 4856 
Q 1481 4119 1714 3412 
Q 1947 2706 1947 2009 
Q 1947 1309 1714 600 
Q 1481 -109 1013 -844 
L 513 -844 
Q 928 -128 1133 580 
Q 1338 1288 1338 2009 
Q 1338 2731 1133 3434 
Q 928 4138 513 4856 
z
" transform="scale(0.015625)"/>
     </defs>
     <use xlink:href="#DejaVuSans-28"/>
     <use xlink:href="#DejaVuSans-30" x="39.013672"/>
     <use xlink:href="#DejaVuSans-2e" x="102.636719"/>
     <use xlink:href="#DejaVuSans-34" x="134.423828"/>
     <use xlink:href="#DejaVuSans-34" x="198.046875"/>
     <use xlink:href="#DejaVuSans-2c" x="261.669922"/>
     <use xlink:href="#DejaVuSans-20" x="293.457031"/>
     <use xlink:href="#DejaVuSans-31" x="325.244141"/>
     <use xlink:href="#DejaVuSans-30" x="388.867188"/>
     <use xlink:href="#DejaVuSans-2e" x="452.490234"/>
     <use xlink:href="#DejaVuSans-36" x="484.277344"/>
     <use xlink:href="#DejaVuSans-29" x="547.900391"/>
    </g>
   </g>
   <g id="PathCollection_2">
    <g clip-path="url(#p974a25edcb)">
     <use xlink:href="#md306d4dbc7" x="170.551591" y="98.012863" style="stroke: #000000"/>
    </g>
   </g>
   <g id="text_15">
    <!-- (0.4, 5.4) -->
    <g transform="translate(155.233333 91.171029)scale(0.08 -0.08)">
     <use xlink:href="#DejaVuSans-28"/>
     <use xlink:href="#DejaVuSans-30" x="39.013672"/>
     <use xlink:href="#DejaVuSans-2e" x="102.636719"/>
     <use xlink:href="#DejaVuSans-34" x="134.423828"/>
     <use xlink:href="#DejaVuSans-2c" x="198.046875"/>
     <use xlink:href="#DejaVuSans-20" x="229.833984"/>
     <use xlink:href="#DejaVuSans-35" x="261.621094"/>
     <use xlink:href="#DejaVuSans-2e" x="325.244141"/>
     <use xlink:href="#DejaVuSans-34" x="357.03125"/>
     <use xlink:href="#DejaVuSans-29" x="420.654297"/>
    </g>
   </g>
   <g id="PathCollection_3">
    <g clip-path="url(#p974a25edcb)">
     <use xlink:href="#md306d4dbc7" x="156.516409" y="128.834589" style="stroke: #000000"/>
    </g>
   </g>
   <g id="text_16">
    <!-- (0.36, 1.3) -->
    <g transform="translate(142.630313 122.052169)scale(0.08 -0.08)">
     <use xlink:href="#DejaVuSans-28"/>
     <use xlink:href="#DejaVuSans-30" x="39.013672"/>
     <use xlink:href="#DejaVuSans-2e" x="102.636719"/>
     <use xlink:href="#DejaVuSans-33" x="134.423828"/>
     <use xlink:href="#DejaVuSans-36" x="198.046875"/>
     <use xlink:href="#DejaVuSans-2c" x="261.669922"/>
     <use xlink:href="#DejaVuSans-20" x="293.457031"/>
     <use xlink:href="#DejaVuSans-31" x="325.244141"/>
     <use xlink:href="#DejaVuSans-2e" x="388.867188"/>
     <use xlink:href="#DejaVuSans-33" x="420.654297"/>
     <use xlink:href="#DejaVuSans-29" x="484.277344"/>
    </g>
   </g>
   <g id="patch_3">
    <path d="M 44.203125 138.84375 
L 44.203125 10.8 
" style="fill: none; stroke: #000000; stroke-width: 0.8; stroke-linejoin: miter; stroke-linecap: square"/>
   </g>
   <g id="patch_4">
    <path d="M 233.248437 138.84375 
L 233.248437 10.8 
" style="fill: none; stroke: #000000; stroke-width: 0.8; stroke-linejoin: miter; stroke-linecap: square"/>
   </g>
   <g id="patch_5">
    <path d="M 44.203125 138.84375 
L 233.248437 138.84375 
" style="fill: none; stroke: #000000; stroke-width: 0.8; stroke-linejoin: miter; stroke-linecap: square"/>
   </g>
   <g id="patch_6">
    <path d="M 44.203125 10.8 
L 233.248437 10.8 
" style="fill: none; stroke: #000000; stroke-width: 0.8; stroke-linejoin: miter; stroke-linecap: square"/>
   </g>
   <g id="legend_1">
    <g id="patch_7">
     <path d="M 49.103125 47.224063 
L 95.723125 47.224063 
Q 97.123125 47.224063 97.123125 45.824063 
L 97.123125 15.7 
Q 97.123125 14.3 95.723125 14.3 
L 49.103125 14.3 
Q 47.703125 14.3 47.703125 15.7 
L 47.703125 45.824063 
Q 47.703125 47.224063 49.103125 47.224063 
z
" style="fill: #ffffff; opacity: 0.8; stroke: #cccccc; stroke-linejoin: miter"/>
    </g>
    <g id="line2d_15">
     <path d="M 50.503125 19.968906 
L 57.503125 19.968906 
L 64.503125 19.968906 
" style="fill: none; stroke: #1f77b4; stroke-width: 2; stroke-linecap: square"/>
    </g>
    <g id="text_17">
     <!-- $d=0.0$ -->
     <g transform="translate(70.103125 22.418906)scale(0.07 -0.07)">
      <defs>
       <path id="DejaVuSans-Oblique-64" d="M 2675 525 
Q 2444 222 2128 65 
Q 1813 -91 1428 -91 
Q 903 -91 598 267 
Q 294 625 294 1247 
Q 294 1766 478 2236 
Q 663 2706 1013 3078 
Q 1244 3325 1534 3454 
Q 1825 3584 2144 3584 
Q 2481 3584 2739 3421 
Q 2997 3259 3138 2956 
L 3513 4863 
L 4091 4863 
L 3144 0 
L 2566 0 
L 2675 525 
z
M 891 1350 
Q 891 897 1095 644 
Q 1300 391 1663 391 
Q 1931 391 2161 520 
Q 2391 650 2566 903 
Q 2750 1166 2856 1509 
Q 2963 1853 2963 2188 
Q 2963 2622 2758 2865 
Q 2553 3109 2194 3109 
Q 1922 3109 1687 2981 
Q 1453 2853 1288 2613 
Q 1106 2353 998 2009 
Q 891 1666 891 1350 
z
" transform="scale(0.015625)"/>
       <path id="DejaVuSans-3d" d="M 678 2906 
L 4684 2906 
L 4684 2381 
L 678 2381 
L 678 2906 
z
M 678 1631 
L 4684 1631 
L 4684 1100 
L 678 1100 
L 678 1631 
z
" transform="scale(0.015625)"/>
      </defs>
      <use xlink:href="#DejaVuSans-Oblique-64" transform="translate(0 0.015625)"/>
      <use xlink:href="#DejaVuSans-3d" transform="translate(82.958984 0.015625)"/>
      <use xlink:href="#DejaVuSans-30" transform="translate(186.230469 0.015625)"/>
      <use xlink:href="#DejaVuSans-2e" transform="translate(249.853516 0.015625)"/>
      <use xlink:href="#DejaVuSans-30" transform="translate(281.640625 0.015625)"/>
     </g>
    </g>
    <g id="line2d_16">
     <path d="M 50.503125 30.243594 
L 57.503125 30.243594 
L 64.503125 30.243594 
" style="fill: none; stroke: #ff7f0e; stroke-width: 2; stroke-linecap: square"/>
    </g>
    <g id="text_18">
     <!-- $d=0.2$ -->
     <g transform="translate(70.103125 32.693594)scale(0.07 -0.07)">
      <use xlink:href="#DejaVuSans-Oblique-64" transform="translate(0 0.015625)"/>
      <use xlink:href="#DejaVuSans-3d" transform="translate(82.958984 0.015625)"/>
      <use xlink:href="#DejaVuSans-30" transform="translate(186.230469 0.015625)"/>
      <use xlink:href="#DejaVuSans-2e" transform="translate(249.853516 0.015625)"/>
      <use xlink:href="#DejaVuSans-32" transform="translate(276.140625 0.015625)"/>
     </g>
    </g>
    <g id="line2d_17">
     <path d="M 50.503125 40.518281 
L 57.503125 40.518281 
L 64.503125 40.518281 
" style="fill: none; stroke: #2ca02c; stroke-width: 2; stroke-linecap: square"/>
    </g>
    <g id="text_19">
     <!-- $d=0.4$ -->
     <g transform="translate(70.103125 42.968281)scale(0.07 -0.07)">
      <use xlink:href="#DejaVuSans-Oblique-64" transform="translate(0 0.015625)"/>
      <use xlink:href="#DejaVuSans-3d" transform="translate(82.958984 0.015625)"/>
      <use xlink:href="#DejaVuSans-30" transform="translate(186.230469 0.015625)"/>
      <use xlink:href="#DejaVuSans-2e" transform="translate(249.853516 0.015625)"/>
      <use xlink:href="#DejaVuSans-34" transform="translate(281.640625 0.015625)"/>
     </g>
    </g>
   </g>
  </g>
 </g>
 <defs>
  <clipPath id="p974a25edcb">
   <rect x="44.203125" y="10.8" width="189.045312" height="128.04375"/>
  </clipPath>
 </defs>
</svg>
