<?xml version="1.0" encoding="utf-8" standalone="no"?>
<!DOCTYPE svg PUBLIC "-//W3C//DTD SVG 1.1//EN"
  "http://www.w3.org/Graphics/SVG/1.1/DTD/svg11.dtd">
<svg xmlns:xlink="http://www.w3.org/1999/xlink" width="252pt" height="180pt" viewBox="0 0 252 180" xmlns="http://www.w3.org/2000/svg" version="1.1">
 <metadata>
  <rdf:RDF xmlns:dc="http://purl.org/dc/elements/1.1/" xmlns:cc="http://creativecommons.org/ns#" xmlns:rdf="http://www.w3.org/1999/02/22-rdf-syntax-ns#">
   <cc:Work>
    <dc:type rdf:resource="http://purl.org/dc/dcmitype/StillImage"/>
    <dc:date>2024-05-27T13:56:16.928226</dc:date>
    <dc:format>image/svg+xml</dc:format>
    <dc:creator>
     <cc:Agent>
      <dc:title>Matplotlib v3.5.3, https://matplotlib.org/</dc:title>
     </cc:Agent>
    </dc:creator>
   </cc:Work>
  </rdf:RDF>
 </metadata>
 <defs>
  <style type="text/css">*{stroke-linejoin: round; stroke-linecap: butt}</style>
 </defs>
 <g id="figure_1">
  <g id="patch_1">
   <path d="M 0 180 
L 252 180 
L 252 0 
L 0 0 
L 0 180 
z
" style="fill: none"/>
  </g>
  <g id="axes_1">
   <g id="patch_2">
    <path d="M 44.203125 138.84375 
L 233.248437 138.84375 
L 233.248437 10.8 
L 44.203125 10.8 
L 44.203125 138.84375 
z
" style="fill: none"/>
   </g>
   <g id="matplotlib.axis_1">
    <g id="xtick_1">
     <g id="line2d_1">
      <defs>
       <path id="maa825c430f" d="M 0 0 
L 0 3.5 
" style="stroke: #000000; stroke-width: 0.8"/>
      </defs>
      <g>
       <use xlink:href="#maa825c430f" x="44.203125" y="138.84375" style="stroke: #000000; stroke-width: 0.8"/>
      </g>
     </g>
     <g id="text_1">
      <!-- 0.0 -->
      <g transform="translate(36.251563 153.442187)scale(0.1 -0.1)">
       <defs>
        <path id="DejaVuSans-30" d="M 2034 4250 
Q 1547 4250 1301 3770 
Q 1056 3291 1056 2328 
Q 1056 1369 1301 889 
Q 1547 409 2034 409 
Q 2525 409 2770 889 
Q 3016 1369 3016 2328 
Q 3016 3291 2770 3770 
Q 2525 4250 2034 4250 
z
M 2034 4750 
Q 2819 4750 3233 4129 
Q 3647 3509 3647 2328 
Q 3647 1150 3233 529 
Q 2819 -91 2034 -91 
Q 1250 -91 836 529 
Q 422 1150 422 2328 
Q 422 3509 836 4129 
Q 1250 4750 2034 4750 
z
" transform="scale(0.015625)"/>
        <path id="DejaVuSans-2e" d="M 684 794 
L 1344 794 
L 1344 0 
L 684 0 
L 684 794 
z
" transform="scale(0.015625)"/>
       </defs>
       <use xlink:href="#DejaVuSans-30"/>
       <use xlink:href="#DejaVuSans-2e" x="63.623047"/>
       <use xlink:href="#DejaVuSans-30" x="95.410156"/>
      </g>
     </g>
    </g>
    <g id="xtick_2">
     <g id="line2d_2">
      <g>
       <use xlink:href="#maa825c430f" x="75.710677" y="138.84375" style="stroke: #000000; stroke-width: 0.8"/>
      </g>
     </g>
     <g id="text_2">
      <!-- 0.1 -->
      <g transform="translate(67.759115 153.442187)scale(0.1 -0.1)">
       <defs>
        <path id="DejaVuSans-31" d="M 794 531 
L 1825 531 
L 1825 4091 
L 703 3866 
L 703 4441 
L 1819 4666 
L 2450 4666 
L 2450 531 
L 3481 531 
L 3481 0 
L 794 0 
L 794 531 
z
" transform="scale(0.015625)"/>
       </defs>
       <use xlink:href="#DejaVuSans-30"/>
       <use xlink:href="#DejaVuSans-2e" x="63.623047"/>
       <use xlink:href="#DejaVuSans-31" x="95.410156"/>
      </g>
     </g>
    </g>
    <g id="xtick_3">
     <g id="line2d_3">
      <g>
       <use xlink:href="#maa825c430f" x="107.218229" y="138.84375" style="stroke: #000000; stroke-width: 0.8"/>
      </g>
     </g>
     <g id="text_3">
      <!-- 0.2 -->
      <g transform="translate(99.266667 153.442187)scale(0.1 -0.1)">
       <defs>
        <path id="DejaVuSans-32" d="M 1228 531 
L 3431 531 
L 3431 0 
L 469 0 
L 469 531 
Q 828 903 1448 1529 
Q 2069 2156 2228 2338 
Q 2531 2678 2651 2914 
Q 2772 3150 2772 3378 
Q 2772 3750 2511 3984 
Q 2250 4219 1831 4219 
Q 1534 4219 1204 4116 
Q 875 4013 500 3803 
L 500 4441 
Q 881 4594 1212 4672 
Q 1544 4750 1819 4750 
Q 2544 4750 2975 4387 
Q 3406 4025 3406 3419 
Q 3406 3131 3298 2873 
Q 3191 2616 2906 2266 
Q 2828 2175 2409 1742 
Q 1991 1309 1228 531 
z
" transform="scale(0.015625)"/>
       </defs>
       <use xlink:href="#DejaVuSans-30"/>
       <use xlink:href="#DejaVuSans-2e" x="63.623047"/>
       <use xlink:href="#DejaVuSans-32" x="95.410156"/>
      </g>
     </g>
    </g>
    <g id="xtick_4">
     <g id="line2d_4">
      <g>
       <use xlink:href="#maa825c430f" x="138.725781" y="138.84375" style="stroke: #000000; stroke-width: 0.8"/>
      </g>
     </g>
     <g id="text_4">
      <!-- 0.3 -->
      <g transform="translate(130.774219 153.442187)scale(0.1 -0.1)">
       <defs>
        <path id="DejaVuSans-33" d="M 2597 2516 
Q 3050 2419 3304 2112 
Q 3559 1806 3559 1356 
Q 3559 666 3084 287 
Q 2609 -91 1734 -91 
Q 1441 -91 1130 -33 
Q 819 25 488 141 
L 488 750 
Q 750 597 1062 519 
Q 1375 441 1716 441 
Q 2309 441 2620 675 
Q 2931 909 2931 1356 
Q 2931 1769 2642 2001 
Q 2353 2234 1838 2234 
L 1294 2234 
L 1294 2753 
L 1863 2753 
Q 2328 2753 2575 2939 
Q 2822 3125 2822 3475 
Q 2822 3834 2567 4026 
Q 2313 4219 1838 4219 
Q 1578 4219 1281 4162 
Q 984 4106 628 3988 
L 628 4550 
Q 988 4650 1302 4700 
Q 1616 4750 1894 4750 
Q 2613 4750 3031 4423 
Q 3450 4097 3450 3541 
Q 3450 3153 3228 2886 
Q 3006 2619 2597 2516 
z
" transform="scale(0.015625)"/>
       </defs>
       <use xlink:href="#DejaVuSans-30"/>
       <use xlink:href="#DejaVuSans-2e" x="63.623047"/>
       <use xlink:href="#DejaVuSans-33" x="95.410156"/>
      </g>
     </g>
    </g>
    <g id="xtick_5">
     <g id="line2d_5">
      <g>
       <use xlink:href="#maa825c430f" x="170.233333" y="138.84375" style="stroke: #000000; stroke-width: 0.8"/>
      </g>
     </g>
     <g id="text_5">
      <!-- 0.4 -->
      <g transform="translate(162.281771 153.442187)scale(0.1 -0.1)">
       <defs>
        <path id="DejaVuSans-34" d="M 2419 4116 
L 825 1625 
L 2419 1625 
L 2419 4116 
z
M 2253 4666 
L 3047 4666 
L 3047 1625 
L 3713 1625 
L 3713 1100 
L 3047 1100 
L 3047 0 
L 2419 0 
L 2419 1100 
L 313 1100 
L 313 1709 
L 2253 4666 
z
" transform="scale(0.015625)"/>
       </defs>
       <use xlink:href="#DejaVuSans-30"/>
       <use xlink:href="#DejaVuSans-2e" x="63.623047"/>
       <use xlink:href="#DejaVuSans-34" x="95.410156"/>
      </g>
     </g>
    </g>
    <g id="xtick_6">
     <g id="line2d_6">
      <g>
       <use xlink:href="#maa825c430f" x="201.740885" y="138.84375" style="stroke: #000000; stroke-width: 0.8"/>
      </g>
     </g>
     <g id="text_6">
      <!-- 0.5 -->
      <g transform="translate(193.789323 153.442187)scale(0.1 -0.1)">
       <defs>
        <path id="DejaVuSans-35" d="M 691 4666 
L 3169 4666 
L 3169 4134 
L 1269 4134 
L 1269 2991 
Q 1406 3038 1543 3061 
Q 1681 3084 1819 3084 
Q 2600 3084 3056 2656 
Q 3513 2228 3513 1497 
Q 3513 744 3044 326 
Q 2575 -91 1722 -91 
Q 1428 -91 1123 -41 
Q 819 9 494 109 
L 494 744 
Q 775 591 1075 516 
Q 1375 441 1709 441 
Q 2250 441 2565 725 
Q 2881 1009 2881 1497 
Q 2881 1984 2565 2268 
Q 2250 2553 1709 2553 
Q 1456 2553 1204 2497 
Q 953 2441 691 2322 
L 691 4666 
z
" transform="scale(0.015625)"/>
       </defs>
       <use xlink:href="#DejaVuSans-30"/>
       <use xlink:href="#DejaVuSans-2e" x="63.623047"/>
       <use xlink:href="#DejaVuSans-35" x="95.410156"/>
      </g>
     </g>
    </g>
    <g id="xtick_7">
     <g id="line2d_7">
      <g>
       <use xlink:href="#maa825c430f" x="233.248438" y="138.84375" style="stroke: #000000; stroke-width: 0.8"/>
      </g>
     </g>
     <g id="text_7">
      <!-- 0.6 -->
      <g transform="translate(225.296875 153.442187)scale(0.1 -0.1)">
       <defs>
        <path id="DejaVuSans-36" d="M 2113 2584 
Q 1688 2584 1439 2293 
Q 1191 2003 1191 1497 
Q 1191 994 1439 701 
Q 1688 409 2113 409 
Q 2538 409 2786 701 
Q 3034 994 3034 1497 
Q 3034 2003 2786 2293 
Q 2538 2584 2113 2584 
z
M 3366 4563 
L 3366 3988 
Q 3128 4100 2886 4159 
Q 2644 4219 2406 4219 
Q 1781 4219 1451 3797 
Q 1122 3375 1075 2522 
Q 1259 2794 1537 2939 
Q 1816 3084 2150 3084 
Q 2853 3084 3261 2657 
Q 3669 2231 3669 1497 
Q 3669 778 3244 343 
Q 2819 -91 2113 -91 
Q 1303 -91 875 529 
Q 447 1150 447 2328 
Q 447 3434 972 4092 
Q 1497 4750 2381 4750 
Q 2619 4750 2861 4703 
Q 3103 4656 3366 4563 
z
" transform="scale(0.015625)"/>
       </defs>
       <use xlink:href="#DejaVuSans-30"/>
       <use xlink:href="#DejaVuSans-2e" x="63.623047"/>
       <use xlink:href="#DejaVuSans-36" x="95.410156"/>
      </g>
     </g>
    </g>
    <g id="text_8">
     <!-- r -->
     <g transform="translate(136.670312 167.120312)scale(0.1 -0.1)">
      <defs>
       <path id="DejaVuSans-72" d="M 2631 2963 
Q 2534 3019 2420 3045 
Q 2306 3072 2169 3072 
Q 1681 3072 1420 2755 
Q 1159 2438 1159 1844 
L 1159 0 
L 581 0 
L 581 3500 
L 1159 3500 
L 1159 2956 
Q 1341 3275 1631 3429 
Q 1922 3584 2338 3584 
Q 2397 3584 2469 3576 
Q 2541 3569 2628 3553 
L 2631 2963 
z
" transform="scale(0.015625)"/>
      </defs>
      <use xlink:href="#DejaVuSans-72"/>
     </g>
    </g>
   </g>
   <g id="matplotlib.axis_2">
    <g id="ytick_1">
     <g id="line2d_8">
      <defs>
       <path id="mb0024ee1dd" d="M 0 0 
L -3.5 0 
" style="stroke: #000000; stroke-width: 0.8"/>
      </defs>
      <g>
       <use xlink:href="#mb0024ee1dd" x="44.203125" y="138.84375" style="stroke: #000000; stroke-width: 0.8"/>
      </g>
     </g>
     <g id="text_9">
      <!-- 0 -->
      <g transform="translate(30.840625 142.642969)scale(0.1 -0.1)">
       <use xlink:href="#DejaVuSans-30"/>
      </g>
     </g>
    </g>
    <g id="ytick_2">
     <g id="line2d_9">
      <g>
       <use xlink:href="#mb0024ee1dd" x="44.203125" y="101.183824" style="stroke: #000000; stroke-width: 0.8"/>
      </g>
     </g>
     <g id="text_10">
      <!-- 5 -->
      <g transform="translate(30.840625 104.983042)scale(0.1 -0.1)">
       <use xlink:href="#DejaVuSans-35"/>
      </g>
     </g>
    </g>
    <g id="ytick_3">
     <g id="line2d_10">
      <g>
       <use xlink:href="#mb0024ee1dd" x="44.203125" y="63.523897" style="stroke: #000000; stroke-width: 0.8"/>
      </g>
     </g>
     <g id="text_11">
      <!-- 10 -->
      <g transform="translate(24.478125 67.323116)scale(0.1 -0.1)">
       <use xlink:href="#DejaVuSans-31"/>
       <use xlink:href="#DejaVuSans-30" x="63.623047"/>
      </g>
     </g>
    </g>
    <g id="ytick_4">
     <g id="line2d_11">
      <g>
       <use xlink:href="#mb0024ee1dd" x="44.203125" y="25.863971" style="stroke: #000000; stroke-width: 0.8"/>
      </g>
     </g>
     <g id="text_12">
      <!-- 15 -->
      <g transform="translate(24.478125 29.663189)scale(0.1 -0.1)">
       <use xlink:href="#DejaVuSans-31"/>
       <use xlink:href="#DejaVuSans-35" x="63.623047"/>
      </g>
     </g>
    </g>
    <g id="text_13">
     <!-- $R_0$ -->
     <g transform="translate(18.398438 80.671875)rotate(-90)scale(0.1 -0.1)">
      <defs>
       <path id="DejaVuSans-Oblique-52" d="M 1613 4147 
L 1294 2491 
L 2106 2491 
Q 2584 2491 2879 2755 
Q 3175 3019 3175 3444 
Q 3175 3784 2976 3965 
Q 2778 4147 2406 4147 
L 1613 4147 
z
M 2772 2241 
Q 2972 2194 3105 2009 
Q 3238 1825 3413 1275 
L 3809 0 
L 3144 0 
L 2778 1197 
Q 2638 1659 2453 1815 
Q 2269 1972 1888 1972 
L 1191 1972 
L 806 0 
L 172 0 
L 1081 4666 
L 2503 4666 
Q 3150 4666 3495 4373 
Q 3841 4081 3841 3531 
Q 3841 3044 3547 2687 
Q 3253 2331 2772 2241 
z
" transform="scale(0.015625)"/>
      </defs>
      <use xlink:href="#DejaVuSans-Oblique-52" transform="translate(0 0.09375)"/>
      <use xlink:href="#DejaVuSans-30" transform="translate(69.482422 -16.3125)scale(0.7)"/>
     </g>
    </g>
   </g>
   <g id="line2d_12">
    <path d="M 47.35388 138.84375 
L 48.913345 138.84375 
L 50.47281 138.84375 
L 52.032274 138.84375 
L 53.591739 138.84375 
L 55.151204 138.84375 
L 56.710668 138.84375 
L 58.270133 138.84375 
L 59.829598 138.84375 
L 61.389063 138.84375 
L 62.948527 138.84375 
L 64.507992 138.84375 
L 66.067457 138.84375 
L 67.626921 138.843738 
L 69.186386 138.841242 
L 70.745851 138.800618 
L 72.305315 138.611961 
L 73.86478 138.162154 
L 75.424245 137.414945 
L 76.983709 136.399979 
L 78.543174 135.17235 
L 80.102639 133.786968 
L 81.662104 132.289184 
L 83.221568 130.713603 
L 84.781033 129.08574 
L 86.340498 127.424173 
L 87.899962 125.742416 
L 89.459427 124.050346 
L 91.018892 122.355247 
L 92.578356 120.662542 
L 94.137821 118.976317 
L 95.697286 117.299686 
L 97.256751 115.635046 
L 98.816215 113.984265 
L 100.37568 112.348816 
L 101.935145 110.729869 
L 103.494609 109.128366 
L 105.054074 107.545074 
L 106.613539 105.98062 
L 108.173003 104.435526 
L 109.732468 102.910229 
L 111.291933 101.405104 
L 112.851398 99.920471 
L 114.410862 98.456614 
L 115.970327 97.013783 
L 117.529792 95.592211 
L 119.089256 94.192112 
L 120.648721 92.813691 
L 122.208186 91.45715 
L 123.76765 90.122688 
L 125.327115 88.810511 
L 126.88658 87.52083 
L 128.446045 86.253869 
L 130.005509 85.009865 
L 131.564974 83.789075 
L 133.124439 82.591776 
L 134.683903 81.418269 
L 136.243368 80.268883 
L 137.802833 79.143978 
L 139.362297 78.043948 
L 140.921762 76.969227 
L 142.481227 75.920289 
L 144.040692 74.897654 
L 145.600156 73.901891 
L 147.159621 72.933626 
L 148.719086 71.993542 
L 150.27855 71.082385 
L 151.838015 70.200972 
L 153.39748 69.350195 
L 154.956944 68.531024 
L 156.516409 67.744519 
L 158.075874 66.991831 
L 159.635339 66.274213 
L 161.194803 65.593024 
L 162.754268 64.949738 
L 164.313733 64.34595 
L 165.873197 63.783382 
L 167.432662 63.263891 
L 168.992127 62.789472 
L 170.551591 62.362263 
L 172.111056 61.984543 
L 173.670521 61.658731 
L 175.229986 61.387377 
L 176.78945 61.173144 
L 178.348915 61.018788 
L 179.90838 60.927113 
L 181.467844 60.90092 
L 183.027309 60.942924 
L 184.586774 61.055653 
L 186.146238 61.241307 
L 187.705703 61.501577 
L 189.265168 61.837429 
L 190.824633 62.248852 
L 192.384097 62.734592 
L 193.943562 63.291917 
L 195.503027 63.916486 
L 197.062491 64.602428 
L 198.621956 65.342714 
L 200.181421 66.129806 
L 201.740885 66.956389 
" clip-path="url(#p594d6084cf)" style="fill: none; stroke: #1f77b4; stroke-width: 2; stroke-linecap: square"/>
   </g>
   <g id="line2d_13">
    <path d="M 47.35388 138.84375 
L 48.913345 138.84375 
L 50.47281 138.84375 
L 52.032274 138.84375 
L 53.591739 138.84375 
L 55.151204 138.84375 
L 56.710668 138.84375 
L 58.270133 138.84375 
L 59.829598 138.84375 
L 61.389063 138.84375 
L 62.948527 138.84375 
L 64.507992 138.84375 
L 66.067457 138.84375 
L 67.626921 138.843738 
L 69.186386 138.841265 
L 70.745851 138.80103 
L 72.305315 138.614276 
L 73.86478 138.169324 
L 75.424245 137.430864 
L 76.983709 136.428945 
L 78.543174 135.218821 
L 80.102639 133.855536 
L 81.662104 132.384652 
L 83.221568 130.841101 
L 84.781033 129.250846 
L 86.340498 127.633039 
L 87.899962 126.001894 
L 89.459427 124.368126 
L 91.018892 122.740002 
L 92.578356 121.124094 
L 94.137821 119.525816 
L 95.697286 117.949819 
L 97.256751 116.400272 
L 98.816215 114.881081 
L 100.37568 113.396059 
L 101.935145 111.949057 
L 103.494609 110.544074 
L 105.054074 109.185345 
L 106.613539 107.877408 
L 108.173003 106.625156 
L 109.732468 105.433841 
L 111.291933 104.30906 
L 112.851398 103.256672 
L 114.410862 102.282652 
L 115.970327 101.392864 
L 117.529792 100.592751 
L 119.089256 99.886956 
L 120.648721 99.278906 
L 122.208186 98.770435 
L 123.76765 98.361501 
L 125.327115 98.050092 
L 126.88658 97.832326 
L 128.446045 97.702752 
L 130.005509 97.654773 
L 131.564974 97.68111 
L 133.124439 97.774248 
L 134.683903 97.926784 
L 136.243368 98.13169 
L 137.802833 98.382475 
L 139.362297 98.673264 
L 140.921762 98.998823 
L 142.481227 99.354539 
L 144.040692 99.73638 
L 145.600156 100.140842 
L 147.159621 100.564891 
L 148.719086 101.005904 
L 150.27855 101.461616 
L 151.838015 101.930071 
L 153.39748 102.409577 
L 154.956944 102.898671 
L 156.516409 103.396084 
L 158.075874 103.900713 
L 159.635339 104.411596 
L 161.194803 104.927893 
L 162.754268 105.448867 
L 164.313733 105.97387 
L 165.873197 106.50233 
L 167.432662 107.033741 
L 168.992127 107.567652 
L 170.551591 108.103662 
L 172.111056 108.64141 
L 173.670521 109.180571 
L 175.229986 109.720852 
L 176.78945 110.261988 
L 178.348915 110.803734 
L 179.90838 111.345867 
L 181.467844 111.888183 
L 183.027309 112.430489 
L 184.586774 112.97261 
L 186.146238 113.514377 
L 187.705703 114.055634 
L 189.265168 114.596232 
L 190.824633 115.136028 
L 192.384097 115.674888 
L 193.943562 116.212678 
L 195.503027 116.749272 
L 197.062491 117.284544 
L 198.621956 117.818372 
L 200.181421 118.350635 
L 201.740885 118.881213 
" clip-path="url(#p594d6084cf)" style="fill: none; stroke: #ff7f0e; stroke-width: 2; stroke-linecap: square"/>
   </g>
   <g id="line2d_14">
    <path d="M 47.35388 138.84375 
L 48.913345 138.84375 
L 50.47281 138.84375 
L 52.032274 138.84375 
L 53.591739 138.84375 
L 55.151204 138.84375 
L 56.710668 138.84375 
L 58.270133 138.84375 
L 59.829598 138.84375 
L 61.389063 138.84375 
L 62.948527 138.84375 
L 64.507992 138.84375 
L 66.067457 138.84375 
L 67.626921 138.843738 
L 69.186386 138.841351 
L 70.745851 138.802593 
L 72.305315 138.623297 
L 73.86478 138.198104 
L 75.424245 137.496919 
L 76.983709 136.553656 
L 78.543174 135.427103 
L 80.102639 134.176401 
L 81.662104 132.852266 
L 83.221568 131.496089 
L 84.781033 130.141698 
L 86.340498 128.817484 
L 87.899962 127.548061 
L 89.459427 126.355226 
L 91.018892 125.25818 
L 92.578356 124.273093 
L 94.137821 123.412188 
L 95.697286 122.68272 
L 97.256751 122.086304 
L 98.816215 121.618988 
L 100.37568 121.272148 
L 101.935145 121.033983 
L 103.494609 120.891131 
L 105.054074 120.830067 
L 106.613539 120.838056 
L 108.173003 120.903697 
L 109.732468 121.017119 
L 111.291933 121.16997 
L 112.851398 121.355289 
L 114.410862 121.567327 
L 115.970327 121.801359 
L 117.529792 122.053507 
L 119.089256 122.320593 
L 120.648721 122.600003 
L 122.208186 122.889581 
L 123.76765 123.187545 
L 125.327115 123.492411 
L 126.88658 123.802939 
L 128.446045 124.118088 
L 130.005509 124.436977 
L 131.564974 124.758856 
L 133.124439 125.083082 
L 134.683903 125.409101 
L 136.243368 125.736431 
L 137.802833 126.064649 
L 139.362297 126.393382 
L 140.921762 126.722297 
L 142.481227 127.051095 
L 144.040692 127.379504 
L 145.600156 127.707273 
L 147.159621 128.034174 
L 148.719086 128.359989 
L 150.27855 128.684516 
L 151.838015 129.007559 
L 153.39748 129.328934 
L 154.956944 129.648457 
L 156.516409 129.965952 
L 158.075874 130.281244 
L 159.635339 130.594158 
L 161.194803 130.904521 
L 162.754268 131.212156 
L 164.313733 131.516888 
L 165.873197 131.818534 
L 167.432662 132.116912 
L 168.992127 132.411831 
L 170.551591 132.703099 
L 172.111056 132.990515 
L 173.670521 133.273874 
L 175.229986 133.552961 
L 176.78945 133.827557 
L 178.348915 134.097434 
L 179.90838 134.362354 
L 181.467844 134.622075 
L 183.027309 134.876343 
L 184.586774 135.124897 
L 186.146238 135.367468 
L 187.705703 135.603781 
L 189.265168 135.83355 
L 190.824633 136.056488 
L 192.384097 136.272299 
L 193.943562 136.480687 
L 195.503027 136.681351 
L 197.062491 136.873994 
L 198.621956 137.058322 
L 200.181421 137.23405 
L 201.740885 137.400903 
" clip-path="url(#p594d6084cf)" style="fill: none; stroke: #2ca02c; stroke-width: 2; stroke-linecap: square"/>
   </g>
   <g id="PathCollection_1">
    <defs>
     <path id="m12198f7b27" d="M 0 3 
C 0.795609 3 1.55874 2.683901 2.12132 2.12132 
C 2.683901 1.55874 3 0.795609 3 0 
C 3 -0.795609 2.683901 -1.55874 2.12132 -2.12132 
C 1.55874 -2.683901 0.795609 -3 0 -3 
C -0.795609 -3 -1.55874 -2.683901 -2.12132 -2.12132 
C -2.683901 -1.55874 -3 -0.795609 -3 0 
C -3 0.795609 -2.683901 1.55874 -2.12132 2.12132 
C -1.55874 2.683901 -0.795609 3 0 3 
z
" style="stroke: #000000"/>
    </defs>
    <g clip-path="url(#p594d6084cf)">
     <use xlink:href="#m12198f7b27" x="181.467844" y="60.90092" style="stroke: #000000"/>
    </g>
   </g>
   <g id="text_14">
    <!-- (0.44, 10.3) -->
    <g transform="translate(167.836354 55.264301)scale(0.08 -0.08)">
     <defs>
      <path id="DejaVuSans-28" d="M 1984 4856 
Q 1566 4138 1362 3434 
Q 1159 2731 1159 2009 
Q 1159 1288 1364 580 
Q 1569 -128 1984 -844 
L 1484 -844 
Q 1016 -109 783 600 
Q 550 1309 550 2009 
Q 550 2706 781 3412 
Q 1013 4119 1484 4856 
L 1984 4856 
z
" transform="scale(0.015625)"/>
      <path id="DejaVuSans-2c" d="M 750 794 
L 1409 794 
L 1409 256 
L 897 -744 
L 494 -744 
L 750 256 
L 750 794 
z
" transform="scale(0.015625)"/>
      <path id="DejaVuSans-20" transform="scale(0.015625)"/>
      <path id="DejaVuSans-29" d="M 513 4856 
L 1013 4856 
Q 1481 4119 1714 3412 
Q 1947 2706 1947 2009 
Q 1947 1309 1714 600 
Q 1481 -109 1013 -844 
L 513 -844 
Q 928 -128 1133 580 
Q 1338 1288 1338 2009 
Q 1338 2731 1133 3434 
Q 928 4138 513 4856 
z
" transform="scale(0.015625)"/>
     </defs>
     <use xlink:href="#DejaVuSans-28"/>
     <use xlink:href="#DejaVuSans-30" x="39.013672"/>
     <use xlink:href="#DejaVuSans-2e" x="102.636719"/>
     <use xlink:href="#DejaVuSans-34" x="134.423828"/>
     <use xlink:href="#DejaVuSans-34" x="198.046875"/>
     <use xlink:href="#DejaVuSans-2c" x="261.669922"/>
     <use xlink:href="#DejaVuSans-20" x="293.457031"/>
     <use xlink:href="#DejaVuSans-31" x="325.244141"/>
     <use xlink:href="#DejaVuSans-30" x="388.867188"/>
     <use xlink:href="#DejaVuSans-2e" x="452.490234"/>
     <use xlink:href="#DejaVuSans-33" x="484.277344"/>
     <use xlink:href="#DejaVuSans-29" x="547.900391"/>
    </g>
   </g>
   <g id="PathCollection_2">
    <g clip-path="url(#p594d6084cf)">
     <use xlink:href="#m12198f7b27" x="130.005509" y="97.654773" style="stroke: #000000"/>
    </g>
   </g>
   <g id="text_15">
    <!-- (0.27, 5.5) -->
    <g transform="translate(134.273516 92.417831)scale(0.08 -0.08)">
     <defs>
      <path id="DejaVuSans-37" d="M 525 4666 
L 3525 4666 
L 3525 4397 
L 1831 0 
L 1172 0 
L 2766 4134 
L 525 4134 
L 525 4666 
z
" transform="scale(0.015625)"/>
     </defs>
     <use xlink:href="#DejaVuSans-28"/>
     <use xlink:href="#DejaVuSans-30" x="39.013672"/>
     <use xlink:href="#DejaVuSans-2e" x="102.636719"/>
     <use xlink:href="#DejaVuSans-32" x="134.423828"/>
     <use xlink:href="#DejaVuSans-37" x="198.046875"/>
     <use xlink:href="#DejaVuSans-2c" x="261.669922"/>
     <use xlink:href="#DejaVuSans-20" x="293.457031"/>
     <use xlink:href="#DejaVuSans-35" x="325.244141"/>
     <use xlink:href="#DejaVuSans-2e" x="388.867188"/>
     <use xlink:href="#DejaVuSans-35" x="420.654297"/>
     <use xlink:href="#DejaVuSans-29" x="484.277344"/>
    </g>
   </g>
   <g id="PathCollection_3">
    <g clip-path="url(#p594d6084cf)">
     <use xlink:href="#m12198f7b27" x="105.054074" y="120.830067" style="stroke: #000000"/>
    </g>
   </g>
   <g id="text_16">
    <!-- (0.19, 2.4) -->
    <g transform="translate(108.067474 118.766985)scale(0.08 -0.08)">
     <defs>
      <path id="DejaVuSans-39" d="M 703 97 
L 703 672 
Q 941 559 1184 500 
Q 1428 441 1663 441 
Q 2288 441 2617 861 
Q 2947 1281 2994 2138 
Q 2813 1869 2534 1725 
Q 2256 1581 1919 1581 
Q 1219 1581 811 2004 
Q 403 2428 403 3163 
Q 403 3881 828 4315 
Q 1253 4750 1959 4750 
Q 2769 4750 3195 4129 
Q 3622 3509 3622 2328 
Q 3622 1225 3098 567 
Q 2575 -91 1691 -91 
Q 1453 -91 1209 -44 
Q 966 3 703 97 
z
M 1959 2075 
Q 2384 2075 2632 2365 
Q 2881 2656 2881 3163 
Q 2881 3666 2632 3958 
Q 2384 4250 1959 4250 
Q 1534 4250 1286 3958 
Q 1038 3666 1038 3163 
Q 1038 2656 1286 2365 
Q 1534 2075 1959 2075 
z
" transform="scale(0.015625)"/>
     </defs>
     <use xlink:href="#DejaVuSans-28"/>
     <use xlink:href="#DejaVuSans-30" x="39.013672"/>
     <use xlink:href="#DejaVuSans-2e" x="102.636719"/>
     <use xlink:href="#DejaVuSans-31" x="134.423828"/>
     <use xlink:href="#DejaVuSans-39" x="198.046875"/>
     <use xlink:href="#DejaVuSans-2c" x="261.669922"/>
     <use xlink:href="#DejaVuSans-20" x="293.457031"/>
     <use xlink:href="#DejaVuSans-32" x="325.244141"/>
     <use xlink:href="#DejaVuSans-2e" x="388.867188"/>
     <use xlink:href="#DejaVuSans-34" x="420.654297"/>
     <use xlink:href="#DejaVuSans-29" x="484.277344"/>
    </g>
   </g>
   <g id="patch_3">
    <path d="M 44.203125 138.84375 
L 44.203125 10.8 
" style="fill: none; stroke: #000000; stroke-width: 0.8; stroke-linejoin: miter; stroke-linecap: square"/>
   </g>
   <g id="patch_4">
    <path d="M 233.248437 138.84375 
L 233.248437 10.8 
" style="fill: none; stroke: #000000; stroke-width: 0.8; stroke-linejoin: miter; stroke-linecap: square"/>
   </g>
   <g id="patch_5">
    <path d="M 44.203125 138.84375 
L 233.248437 138.84375 
" style="fill: none; stroke: #000000; stroke-width: 0.8; stroke-linejoin: miter; stroke-linecap: square"/>
   </g>
   <g id="patch_6">
    <path d="M 44.203125 10.8 
L 233.248437 10.8 
" style="fill: none; stroke: #000000; stroke-width: 0.8; stroke-linejoin: miter; stroke-linecap: square"/>
   </g>
   <g id="legend_1">
    <g id="patch_7">
     <path d="M 49.103125 47.224063 
L 110.283125 47.224063 
Q 111.683125 47.224063 111.683125 45.824063 
L 111.683125 15.7 
Q 111.683125 14.3 110.283125 14.3 
L 49.103125 14.3 
Q 47.703125 14.3 47.703125 15.7 
L 47.703125 45.824063 
Q 47.703125 47.224063 49.103125 47.224063 
z
" style="fill: #ffffff; opacity: 0.8; stroke: #cccccc; stroke-linejoin: miter"/>
    </g>
    <g id="line2d_15">
     <path d="M 50.503125 19.968906 
L 57.503125 19.968906 
L 64.503125 19.968906 
" style="fill: none; stroke: #1f77b4; stroke-width: 2; stroke-linecap: square"/>
    </g>
    <g id="text_17">
     <!-- $AMR_2=0$ -->
     <g transform="translate(70.103125 22.418906)scale(0.07 -0.07)">
      <defs>
       <path id="DejaVuSans-Oblique-41" d="M 2356 4666 
L 3072 4666 
L 3938 0 
L 3278 0 
L 3084 1197 
L 984 1197 
L 325 0 
L -341 0 
L 2356 4666 
z
M 2584 4044 
L 1275 1722 
L 2988 1722 
L 2584 4044 
z
" transform="scale(0.015625)"/>
       <path id="DejaVuSans-Oblique-4d" d="M 1081 4666 
L 2028 4666 
L 2572 1522 
L 4378 4666 
L 5350 4666 
L 4441 0 
L 3828 0 
L 4622 4091 
L 2791 897 
L 2175 897 
L 1581 4103 
L 788 0 
L 172 0 
L 1081 4666 
z
" transform="scale(0.015625)"/>
       <path id="DejaVuSans-3d" d="M 678 2906 
L 4684 2906 
L 4684 2381 
L 678 2381 
L 678 2906 
z
M 678 1631 
L 4684 1631 
L 4684 1100 
L 678 1100 
L 678 1631 
z
" transform="scale(0.015625)"/>
      </defs>
      <use xlink:href="#DejaVuSans-Oblique-41" transform="translate(0 0.78125)"/>
      <use xlink:href="#DejaVuSans-Oblique-4d" transform="translate(68.408203 0.78125)"/>
      <use xlink:href="#DejaVuSans-Oblique-52" transform="translate(154.6875 0.78125)"/>
      <use xlink:href="#DejaVuSans-32" transform="translate(224.169922 -15.625)scale(0.7)"/>
      <use xlink:href="#DejaVuSans-3d" transform="translate(290.922852 0.78125)"/>
      <use xlink:href="#DejaVuSans-30" transform="translate(394.194336 0.78125)"/>
     </g>
    </g>
    <g id="line2d_16">
     <path d="M 50.503125 30.243594 
L 57.503125 30.243594 
L 64.503125 30.243594 
" style="fill: none; stroke: #ff7f0e; stroke-width: 2; stroke-linecap: square"/>
    </g>
    <g id="text_18">
     <!-- $AMR_2=0.2$ -->
     <g transform="translate(70.103125 32.693594)scale(0.07 -0.07)">
      <use xlink:href="#DejaVuSans-Oblique-41" transform="translate(0 0.78125)"/>
      <use xlink:href="#DejaVuSans-Oblique-4d" transform="translate(68.408203 0.78125)"/>
      <use xlink:href="#DejaVuSans-Oblique-52" transform="translate(154.6875 0.78125)"/>
      <use xlink:href="#DejaVuSans-32" transform="translate(224.169922 -15.625)scale(0.7)"/>
      <use xlink:href="#DejaVuSans-3d" transform="translate(290.922852 0.78125)"/>
      <use xlink:href="#DejaVuSans-30" transform="translate(394.194336 0.78125)"/>
      <use xlink:href="#DejaVuSans-2e" transform="translate(457.817383 0.78125)"/>
      <use xlink:href="#DejaVuSans-32" transform="translate(484.104492 0.78125)"/>
     </g>
    </g>
    <g id="line2d_17">
     <path d="M 50.503125 40.518281 
L 57.503125 40.518281 
L 64.503125 40.518281 
" style="fill: none; stroke: #2ca02c; stroke-width: 2; stroke-linecap: square"/>
    </g>
    <g id="text_19">
     <!-- $AMR_2=0.4$ -->
     <g transform="translate(70.103125 42.968281)scale(0.07 -0.07)">
      <use xlink:href="#DejaVuSans-Oblique-41" transform="translate(0 0.78125)"/>
      <use xlink:href="#DejaVuSans-Oblique-4d" transform="translate(68.408203 0.78125)"/>
      <use xlink:href="#DejaVuSans-Oblique-52" transform="translate(154.6875 0.78125)"/>
      <use xlink:href="#DejaVuSans-32" transform="translate(224.169922 -15.625)scale(0.7)"/>
      <use xlink:href="#DejaVuSans-3d" transform="translate(290.922852 0.78125)"/>
      <use xlink:href="#DejaVuSans-30" transform="translate(394.194336 0.78125)"/>
      <use xlink:href="#DejaVuSans-2e" transform="translate(457.817383 0.78125)"/>
      <use xlink:href="#DejaVuSans-34" transform="translate(489.604492 0.78125)"/>
     </g>
    </g>
   </g>
  </g>
 </g>
 <defs>
  <clipPath id="p594d6084cf">
   <rect x="44.203125" y="10.8" width="189.045312" height="128.04375"/>
  </clipPath>
 </defs>
</svg>
